<svg width="80" height="80" viewBox="0 0 80 80" fill="none" xmlns="http://www.w3.org/2000/svg">
<rect width="80" height="80" rx="12" fill="#0032AF" fill-opacity="0.1"/>
<path fill-rule="evenodd" clip-rule="evenodd" d="M15.7575 16.2849C15.5607 16.5656 15.5374 18.7568 15.5374 36.9214V57.2437H14.0613C12.0576 57.2437 12.1451 57.0888 12.1451 60.636C12.1451 62.9089 12.1842 63.4559 12.3652 63.7141L12.5851 64.0283H39.9902H67.3954L67.6153 63.7141C67.94 63.2506 67.94 58.0214 67.6153 57.5579C67.4047 57.257 67.3056 57.2437 65.2831 57.2437H63.171V53.1628V49.0818L63.7359 48.9914C64.0626 48.9392 64.4948 48.7279 64.7607 48.4906L65.2205 48.0801L65.268 46.3598C65.3197 44.4829 65.2069 43.9925 64.6169 43.5284C64.3054 43.2833 64.0387 43.2505 62.3604 43.2505H60.4571L59.9766 43.731L59.496 44.2116V46.0061C59.496 47.4438 59.5439 47.8818 59.7371 48.2089C60.0071 48.6657 60.6933 49.0457 61.2488 49.0457H61.6162V53.1447V57.2437H58.2239H54.8316V55.9009V54.5581H55.2627C55.4997 54.5581 55.8802 54.4616 56.1083 54.3437C56.798 53.9871 56.9518 53.4978 56.9518 51.6606C56.9518 49.0353 56.6794 48.763 54.0542 48.763C51.4275 48.763 51.1566 49.0345 51.1566 51.6671C51.1566 52.937 51.2094 53.4025 51.3878 53.7044C51.6841 54.2062 52.2825 54.5581 52.8392 54.5581H53.2768V55.9009V57.2437H49.9551H46.6335V54.5581V51.8726H47.0366C47.6154 51.8726 48.3706 51.3128 48.5691 50.7369C48.7783 50.1292 48.802 48.0239 48.6074 47.3232C48.5278 47.0367 48.2689 46.6392 48.032 46.4398C47.6188 46.0921 47.5277 46.0774 45.7936 46.0774C44.1747 46.0774 43.9469 46.1082 43.6108 46.3725C42.952 46.8908 42.8172 47.34 42.8172 49.0177C42.8172 50.3877 42.8529 50.6118 43.1394 51.0369C43.5081 51.5838 43.9875 51.8675 44.5487 51.8704L44.9374 51.8726V54.5581V57.2437H42.5345H40.1316V36.9214C40.1316 18.7568 40.1083 16.5656 39.9115 16.2849L39.6916 15.9707H27.8345H15.9774L15.7575 16.2849ZM52.9453 16.2292C52.7633 16.4304 52.7114 16.7764 52.7114 17.7884C52.7114 18.9004 52.6755 19.1017 52.464 19.1749C51.722 19.4321 50.4309 20.1288 49.7963 20.6148L49.0721 21.1691L48.0294 20.5551C46.788 19.8241 46.3365 19.7721 45.9607 20.3171C45.2899 21.29 43.6652 24.2796 43.6652 24.5409C43.6652 24.9031 43.9202 25.1254 45.0636 25.7602L45.9672 26.2618L45.9689 28.4309L45.9706 30.6L45.0952 31.113C44.0042 31.7524 43.6652 32.0552 43.6652 32.3907C43.6652 32.5353 44.2204 33.6091 44.8989 34.7771C45.7931 36.3162 46.2209 36.9228 46.4534 36.9812C46.6765 37.0372 47.1233 36.864 47.919 36.4131L49.0639 35.7645L49.9553 36.4006C50.4456 36.7504 51.2663 37.2269 51.7791 37.4594L52.7114 37.8822V39.1213C52.7114 41.053 52.6075 40.9889 55.741 40.9889C57.9755 40.9889 58.3572 40.957 58.5247 40.7556C58.6506 40.604 58.7353 40.0445 58.7662 39.1589L58.814 37.7955L59.4796 37.5592C60.0546 37.3549 61.1251 36.7129 62.1129 35.9802C62.3751 35.7856 62.4809 35.8186 63.4557 36.3986C64.0376 36.7447 64.6537 37.0288 64.8246 37.0297C65.2165 37.0317 65.5394 36.5972 66.847 34.3072C68.0791 32.1494 68.0755 32.113 66.545 31.2642L65.516 30.6934L65.505 28.5019L65.494 26.3103L66.5333 25.7189C68.0902 24.8331 68.0898 24.8417 66.705 22.4452C66.0623 21.3331 65.4396 20.3119 65.3213 20.1757C65.065 19.8813 64.6123 19.8567 64.2273 20.1164C64.0739 20.2197 63.5945 20.5038 63.1619 20.7478L62.3755 21.1912L61.5365 20.5608C61.075 20.214 60.2522 19.7437 59.708 19.5155L58.7186 19.1007L58.6799 17.7124C58.649 16.6127 58.5921 16.2873 58.4055 16.1474C58.2377 16.0216 57.4508 15.9707 55.6746 15.9707C53.4366 15.9707 53.1551 15.9974 52.9453 16.2292ZM17.2335 37.3846V57.2437H27.8345H38.4354V37.3846V17.5255H27.8345H17.2335V37.3846ZM54.3934 18.5503C54.3713 20.1557 54.3337 20.2204 53.175 20.6481C51.9316 21.1072 51.1422 21.5633 50.2869 22.317C49.4548 23.0503 49.0966 23.0524 47.9124 22.3313C47.4108 22.026 46.9884 21.7896 46.974 21.8063C46.828 21.9745 45.6441 24.0807 45.6441 24.1722C45.6441 24.2389 46.0866 24.5356 46.6274 24.8313C47.1682 25.1271 47.6653 25.4912 47.7319 25.6406C47.8054 25.8051 47.7757 26.3065 47.6566 26.9133C47.4697 27.8654 47.4817 28.6559 47.7127 30.628L47.7988 31.3627L46.9418 31.9001C46.4704 32.1957 45.9737 32.5055 45.838 32.5886C45.611 32.7275 45.6324 32.8131 46.1026 33.6487C47.0033 35.2496 46.854 35.1846 48.0783 34.5086C48.6632 34.1858 49.2054 33.9216 49.2832 33.9216C49.3609 33.9216 49.8491 34.2698 50.3681 34.6951C51.3249 35.4794 52.6955 36.2177 53.5144 36.3895C53.7616 36.4416 54.0293 36.5628 54.1091 36.6589C54.189 36.7552 54.273 37.4031 54.2956 38.0987L54.3369 39.3635L55.715 39.4039L57.0931 39.4443V38.2693C57.0931 36.878 57.2426 36.5928 58.1081 36.3337C59.0742 36.0447 60.1988 35.4249 61.1748 34.6433C61.6706 34.2465 62.1413 33.9216 62.2207 33.9216C62.3003 33.9216 62.8066 34.1761 63.346 34.487C63.8853 34.798 64.3785 35.0524 64.4421 35.0524C64.5505 35.0524 65.8566 32.9314 65.8566 32.7553C65.8566 32.7104 65.4574 32.4506 64.9695 32.1777C63.6301 31.4287 63.5238 31.2707 63.7471 30.3594C63.9767 29.4237 63.9792 27.4049 63.7519 26.6001C63.6576 26.2658 63.619 25.8706 63.6663 25.7217C63.7135 25.5729 64.2273 25.1809 64.8079 24.8505C65.4967 24.4587 65.8382 24.1835 65.7904 24.0589C65.5935 23.5457 64.554 21.9072 64.4253 21.9072C64.3446 21.9072 63.8863 22.1375 63.4067 22.419C62.9273 22.7005 62.3947 22.931 62.2233 22.9314C62.0519 22.9317 61.6077 22.6644 61.2362 22.3373C60.4316 21.6291 59.1452 20.9006 58.109 20.5661C57.2056 20.2747 57.0931 20.0542 57.0931 18.5764V17.5255H55.7503H54.4075L54.3934 18.5503ZM24.8541 21.3356C23.4123 21.7725 22.696 23.5649 23.4915 24.7452C23.9923 25.4884 24.6541 25.8649 25.4596 25.8649C27.5477 25.8649 28.5784 23.5948 27.1888 22.0565C26.8567 21.6889 26.5 21.4655 26.074 21.3582C25.373 21.1817 25.3625 21.1814 24.8541 21.3356ZM34.1244 21.4131C33.0005 21.8098 32.2988 23.0848 32.6178 24.1497C32.9518 25.2642 33.778 25.8649 34.9771 25.8649C36.2649 25.8649 37.1951 24.9039 37.1848 23.5837C37.1722 21.9615 35.643 20.8768 34.1244 21.4131ZM20.2641 21.8254C20.0209 22.0035 19.9898 22.2055 19.9898 23.6037C19.9898 25.0021 20.0209 25.204 20.2641 25.3817C20.6445 25.6597 20.9999 25.6323 21.3326 25.2995C21.5767 25.0554 21.6153 24.8284 21.6153 23.6349C21.6153 22.6128 21.558 22.171 21.3952 21.9388C21.1439 21.5797 20.6651 21.5318 20.2641 21.8254ZM29.6232 21.8831C29.2636 22.2804 29.283 25.0183 29.6478 25.3483C29.9869 25.6552 30.4193 25.6451 30.7102 25.3237C31.0426 24.9563 31.0521 22.1768 30.7221 21.8466C30.4241 21.5488 29.9103 21.5657 29.6232 21.8831ZM24.8592 23.1925C24.6282 23.624 24.8076 24.1487 25.2214 24.2526C25.6955 24.3715 25.9677 24.2462 26.1619 23.8199C26.2969 23.5237 26.2811 23.4151 26.0682 23.1799C25.7256 22.8014 25.0648 22.8082 24.8592 23.1925ZM34.2527 23.25C34.0383 23.5774 34.0383 23.6294 34.2527 23.9567C34.6508 24.5643 35.6085 24.331 35.6085 23.6267C35.6085 23.1302 35.3745 22.8967 34.8768 22.8967C34.614 22.8967 34.4076 23.0135 34.2527 23.25ZM54.0913 23.9507C52.5959 24.5228 51.4877 25.7965 51.0733 27.4197C50.6679 29.0075 51.1381 30.6597 52.3361 31.8577C53.338 32.8596 54.095 33.1445 55.7503 33.1427C57.0028 33.1414 57.2446 33.0987 57.8733 32.7681C60.6871 31.2886 61.3647 27.5387 59.2307 25.2573C58.2413 24.1994 57.4299 23.8432 55.8917 23.7914C55.0351 23.7625 54.447 23.8146 54.0913 23.9507ZM54.2571 25.6882C53.1751 26.2369 52.6719 26.9978 52.5953 28.2015C52.5015 29.6746 53.0495 30.6739 54.2899 31.2922C56.4452 32.3661 58.9244 30.8616 58.9244 28.4798C58.9244 26.0767 56.4315 24.5856 54.2571 25.6882ZM20.3235 28.8206C20.0223 29.0643 19.9858 29.2192 19.9497 30.4107C19.9017 31.9865 20.062 32.4163 20.7215 32.4808C21.4245 32.5496 21.6153 32.14 21.6153 30.5621C21.6153 29.3515 21.587 29.2162 21.2683 28.8975C20.8506 28.4798 20.7543 28.4719 20.3235 28.8206ZM25.0385 28.7709C24.7462 28.9757 24.7249 29.0985 24.7249 30.5798C24.7249 32.3011 24.8028 32.5082 25.4498 32.5082C26.1515 32.5082 26.2797 32.2159 26.2797 30.617C26.2797 29.6733 26.2182 29.0917 26.103 28.9451C25.8315 28.5997 25.3868 28.5269 25.0385 28.7709ZM29.9547 28.6486C29.4895 28.8148 29.3893 29.1636 29.3893 30.617C29.3893 32.2159 29.5175 32.5082 30.2191 32.5082C30.8662 32.5082 30.9441 32.3011 30.9441 30.5798C30.9441 29.0978 30.9229 28.9757 30.6299 28.7706C30.2943 28.5354 30.2791 28.5327 29.9547 28.6486ZM34.4262 28.8435C34.0695 29.1239 34.0537 29.1946 34.0537 30.5081C34.0537 32.1436 34.2379 32.5502 34.9474 32.4808C35.607 32.4163 35.7673 31.9865 35.7193 30.4107C35.6832 29.2192 35.6467 29.0643 35.3455 28.8206C34.9286 28.4832 34.8827 28.4843 34.4262 28.8435ZM29.5001 35.3629C28.8392 35.5382 28.024 36.4184 27.8974 37.0934C27.7006 38.1424 28.192 39.1732 29.1164 39.6512C30.5644 40.4001 32.4989 39.2443 32.4989 37.6303C32.4989 36.0442 31.0532 34.9512 29.5001 35.3629ZM20.2641 35.8186C20.0209 35.9967 19.9898 36.1987 19.9898 37.5969C19.9898 38.9954 20.0209 39.1972 20.2641 39.3749C20.6445 39.6529 20.9999 39.6255 21.3326 39.2928C21.5767 39.0487 21.6153 38.8217 21.6153 37.6282C21.6153 36.6061 21.558 36.1642 21.3952 35.932C21.1439 35.573 20.6651 35.5251 20.2641 35.8186ZM24.9469 35.8398C24.7725 36.0144 24.7249 36.389 24.7249 37.5848C24.7249 38.8806 24.7635 39.1425 24.9834 39.3415C25.306 39.6336 25.5633 39.6371 25.9655 39.3554C26.2572 39.1512 26.2797 39.0261 26.2797 37.6105C26.2797 36.3128 26.2412 36.0507 26.0212 35.8517C25.6955 35.5569 25.235 35.5518 24.9469 35.8398ZM34.2738 35.932C34.111 36.1642 34.0537 36.6061 34.0537 37.6282C34.0537 38.8217 34.0923 39.0487 34.3364 39.2928C34.8874 39.8437 35.5222 39.5437 35.6891 38.6533C35.7395 38.3844 35.7565 37.6806 35.7265 37.0892C35.6833 36.2329 35.6171 35.9737 35.4013 35.816C35.0034 35.5249 34.5243 35.5743 34.2738 35.932ZM29.6232 37.1484C29.3192 37.4844 29.3271 37.7791 29.6478 38.0694C30.1169 38.494 30.9441 38.2251 30.9441 37.6479C30.9441 36.937 30.1027 36.6187 29.6232 37.1484ZM24.5058 42.452C23.9916 42.6854 23.3459 43.4173 23.2232 43.9059C23.0766 44.4899 23.2546 45.4593 23.5967 45.9396C23.9635 46.4546 24.8675 46.9177 25.5154 46.9224C25.7559 46.924 26.2295 46.779 26.568 46.5999C27.2866 46.22 27.8358 45.3232 27.8322 44.5357C27.8294 43.9316 27.3487 43.0351 26.8155 42.6399C26.3326 42.2815 25.102 42.1816 24.5058 42.452ZM20.3235 42.8139C20.0223 43.0575 19.9858 43.2124 19.9497 44.404C19.9017 45.9797 20.062 46.4095 20.7215 46.474C21.4245 46.5428 21.6153 46.1332 21.6153 44.5554C21.6153 43.3447 21.587 43.2095 21.2683 42.8907C20.8506 42.4731 20.7543 42.4652 20.3235 42.8139ZM29.9547 42.6418C29.4895 42.8081 29.3893 43.1569 29.3893 44.6102C29.3893 46.2091 29.5175 46.5014 30.2191 46.5014C30.8662 46.5014 30.9441 46.2944 30.9441 44.573C30.9441 43.091 30.9229 42.9689 30.6299 42.7638C30.2943 42.5286 30.2791 42.5259 29.9547 42.6418ZM34.4262 42.8367C34.0695 43.1172 34.0537 43.1879 34.0537 44.5014C34.0537 46.1369 34.2379 46.5434 34.9474 46.474C35.607 46.4095 35.7673 45.9797 35.7193 44.404C35.6832 43.2124 35.6467 43.0575 35.3455 42.8139C34.9286 42.4765 34.8827 42.4776 34.4262 42.8367ZM24.9588 44.0744C24.8302 44.2166 24.7249 44.4673 24.7249 44.6317C24.7249 44.9343 25.2025 45.3707 25.5338 45.3707C25.7822 45.3707 26.2797 44.8522 26.2797 44.5933C26.2797 44.2978 25.7675 43.8159 25.4535 43.8159C25.3101 43.8159 25.0874 43.9322 24.9588 44.0744ZM61.0808 46.1127L61.1215 47.4202H62.3936H63.6657L63.7064 46.1127L63.747 44.8053H62.3936H61.0402L61.0808 46.1127ZM44.4319 47.8213C44.3919 47.9255 44.378 48.5138 44.4009 49.1288L44.4426 50.2471L45.7501 50.2878L47.0575 50.3284V48.9804V47.6322H45.781C44.8452 47.6322 44.485 47.6827 44.4319 47.8213ZM33.9719 49.455C31.6501 50.5096 32.3569 53.8514 34.9018 53.8514C36.2262 53.8514 37.1951 52.8987 37.1851 51.6064C37.1765 50.4984 36.729 49.8286 35.714 49.4044C35.0413 49.1234 34.6789 49.134 33.9719 49.455ZM20.1837 49.8448C20.0472 50.0093 19.9898 50.5069 19.9898 51.5261C19.9898 52.7512 20.0312 53.0193 20.2591 53.2712C20.5973 53.6449 20.9686 53.65 21.3326 53.286C21.5767 53.0419 21.6153 52.8149 21.6153 51.6214C21.6153 50.5993 21.558 50.1575 21.3952 49.9252C21.131 49.548 20.4667 49.5039 20.1837 49.8448ZM24.9469 49.8331C24.7722 50.0079 24.7249 50.3839 24.7249 51.5967C24.7249 53.1031 24.7334 53.1437 25.0945 53.3803C25.426 53.5976 25.5027 53.6009 25.8366 53.4139C26.1987 53.211 26.2101 53.1629 26.2493 51.6721C26.2829 50.393 26.25 50.0953 26.0507 49.8751C25.7593 49.5529 25.2467 49.5334 24.9469 49.8331ZM29.6183 49.8751C29.419 50.0953 29.386 50.393 29.4197 51.6721C29.4588 53.1629 29.4703 53.211 29.8324 53.4139C30.1663 53.6009 30.243 53.5976 30.5745 53.3803C30.9356 53.1437 30.9441 53.1031 30.9441 51.5967C30.9441 50.3839 30.8968 50.0079 30.7221 49.8331C30.4223 49.5334 29.9097 49.5529 29.6183 49.8751ZM52.7114 51.6606V53.0033H54.0542H55.397V51.6606V50.3178H54.0542H52.7114V51.6606ZM34.2527 51.2365C34.0383 51.5639 34.0383 51.6159 34.2527 51.9432C34.6508 52.5507 35.6085 52.3175 35.6085 51.6132C35.6085 51.1167 35.3745 50.8831 34.8768 50.8831C34.614 50.8831 34.4076 51 34.2527 51.2365ZM13.8412 60.636V62.4735H39.9902H66.1392V60.636V58.7985H39.9902H13.8412V60.636Z" fill="#0032AF"/>
</svg>
