<svg width="80" height="80" viewBox="0 0 80 80" fill="none" xmlns="http://www.w3.org/2000/svg">
<rect width="80" height="80" rx="12" fill="#08DD7A" fill-opacity="0.1"/>
<path fill-rule="evenodd" clip-rule="evenodd" d="M39.979 12.1161C35.4104 12.4329 30.881 13.9711 27.0317 16.5129C23.1052 19.1056 19.8297 22.7909 17.7466 26.9598C17.215 28.0234 17.1787 28.223 17.4472 28.6061C17.6737 28.9297 18.318 28.9612 18.5789 28.6616C18.6771 28.5487 19.034 27.9139 19.3719 27.2509C20.5932 24.8544 22.0728 22.8924 24.2539 20.7768C26.3256 18.7673 27.9806 17.6006 30.6293 16.2821C35.847 13.6848 41.6783 12.9704 47.4405 14.2225C53.9979 15.6474 59.949 19.9078 63.5788 25.7756C67.1045 31.4752 68.2094 38.5946 66.5867 45.1557C65.6988 48.746 63.9249 52.2896 61.5903 55.1373C60.8251 56.0705 58.9225 57.9785 57.9874 58.7503C57.4607 59.1849 57.354 59.2272 56.9327 59.1687C56.6749 59.133 55.7915 59.0414 54.9698 58.9651L53.4757 58.8263V56.3292V53.832L53.7979 53.7587C56.9189 53.0483 58.4861 52.3405 59.6455 51.1177C60.9484 49.7435 61.8009 47.6771 61.9811 45.457C62.0592 44.4943 62.0539 44.4655 61.7428 44.1543C61.4345 43.8461 61.3964 43.8386 60.5263 43.9168C60.0322 43.9612 59.3969 44.0489 59.1144 44.1118C58.832 44.1747 58.5842 44.2095 58.5638 44.1893C58.5436 44.1689 58.7611 43.9624 59.0474 43.7304C60.6662 42.4176 61.7738 40.0812 61.9865 37.5311C62.0492 36.7783 62.0277 36.5558 61.8683 36.3126C61.6872 36.0362 61.6091 36.0152 60.7679 36.017C60.2698 36.0179 59.5592 36.0901 59.1886 36.1773C58.8179 36.2646 58.5151 36.3032 58.5156 36.2634C58.516 36.2234 58.7093 36.0595 58.945 35.8988C60.4656 34.863 61.7974 32.0986 61.9793 29.6009C62.0492 28.6402 62.0368 28.5555 61.7882 28.2939C61.5364 28.0289 61.4697 28.0179 60.5166 28.0842C59.1248 28.181 58.1875 28.4394 56.7906 29.1112C55.9306 29.5249 55.3809 29.8859 54.838 30.3938L54.0822 31.1007L54.7529 29.7786C55.5553 28.1964 55.7565 27.3645 55.6749 25.9653C55.6026 24.7246 55.1795 23.545 54.3698 22.3271C53.7071 21.3302 53.1097 20.7807 52.6888 20.7807C52.0529 20.7807 50.7009 22.6351 50.1091 24.3189C49.8645 25.0148 49.8059 25.4057 49.7962 26.4057C49.7858 27.4823 49.8255 27.7483 50.1143 28.533C50.2958 29.0264 50.6782 29.8092 50.9639 30.2727C51.2497 30.7361 51.4835 31.1364 51.4835 31.1621C51.4835 31.1879 51.1752 30.9059 50.7983 30.5357C49.324 29.0875 46.699 28.0504 44.4997 28.0473C43.5709 28.0459 43.4663 28.2277 43.5424 29.7148C43.6677 32.1639 44.8222 34.5604 46.5104 35.8756C46.7987 36.1004 47.02 36.2988 47.0022 36.3166C46.9844 36.3344 46.6538 36.2748 46.2677 36.1839C45.2887 35.9537 43.9364 35.9618 43.6988 36.1992C43.4094 36.4887 43.4577 37.9868 43.8002 39.3369C44.2791 41.2252 45.3546 42.9682 46.614 43.8975C47.0805 44.2419 47.0827 44.2468 46.7374 44.1778C46.544 44.1391 45.894 44.0422 45.2928 43.9623C44.3525 43.8372 44.1561 43.8414 43.8866 43.9924C43.592 44.1574 43.5713 44.225 43.5393 45.1291C43.4554 47.4987 44.7505 50.4058 46.4669 51.7009C47.5836 52.5434 49.3269 53.263 51.1319 53.6261L51.8936 53.7794L51.9252 56.3027L51.9567 58.826L50.4599 58.9591C47.5885 59.2145 44.8911 59.8985 43.0018 60.8503L42.0788 61.3153L41.1506 60.8486C39.2429 59.8893 36.6122 59.2137 33.8152 58.9648L32.2603 58.8263L32.2918 56.3029L32.3233 53.7794L33.085 53.6261C35.1508 53.2105 37.1936 52.2828 38.1739 51.3152C39.6981 49.8109 40.7022 47.3614 40.7022 45.1481C40.7022 43.8282 40.3616 43.6718 38.2999 44.0442C37.7843 44.1373 37.3181 44.2147 37.264 44.2159C37.2098 44.2171 37.4363 44.0041 37.7674 43.7424C39.3828 42.4655 40.5199 40.0668 40.6674 37.6252C40.7577 36.1304 40.672 36.014 39.4829 36.0175C39.0256 36.0188 38.335 36.0866 37.9483 36.1681L37.2452 36.3162L38.1903 35.3746C39.7283 33.8424 40.5342 31.9689 40.6672 29.6169C40.732 28.4704 40.7254 28.4274 40.4577 28.2399C39.9044 27.8524 37.9697 28.0945 36.2129 28.771C35.1119 29.195 33.7162 30.1045 33.148 30.7682C32.7069 31.2836 32.5869 31.2784 32.9531 30.7597C33.7413 29.6437 34.4913 27.5206 34.4913 26.4057C34.4913 25.7715 34.1346 24.2905 33.7993 23.5324C33.2188 22.22 31.9974 20.7807 31.4645 20.7807C30.8258 20.7807 29.5041 22.5112 28.9365 24.0908C28.1331 26.3266 28.3525 28.0456 29.7351 30.346L30.2621 31.2226L29.4466 30.4677C27.9132 29.048 25.3616 28.0463 23.2783 28.0463C22.7981 28.0463 22.5979 28.1038 22.4047 28.297C22.175 28.5267 22.1598 28.632 22.2227 29.5568C22.3959 32.1022 23.6237 34.6919 25.1999 35.8365C25.4683 36.0314 25.6911 36.2234 25.6951 36.2634C25.6991 36.3032 25.399 36.2646 25.0284 36.1773C24.6579 36.0901 23.9471 36.0179 23.4491 36.017C22.6073 36.0152 22.5299 36.0361 22.3482 36.3132C22.1881 36.5575 22.1662 36.785 22.2269 37.573C22.4275 40.177 23.6638 42.6618 25.4093 43.9701L25.7608 44.2336L25.4093 44.1666C25.2159 44.1298 24.5691 44.0375 23.9721 43.9616C22.9418 43.8304 22.87 43.8357 22.5658 44.0654C22.2562 44.2989 22.2457 44.3432 22.26 45.3492C22.2978 48.0044 23.7388 50.7915 25.7438 52.0875C26.7745 52.7537 28.124 53.236 30.4214 53.7593L30.746 53.8332L30.7143 56.3206L30.6827 58.8079L29.2179 58.9486C28.4122 59.026 27.4666 59.1448 27.1165 59.2127L26.4799 59.3361L25.9268 58.8697C25.0859 58.1607 24.8261 58.0719 24.4391 58.3609C24.2031 58.5371 24.1202 58.7008 24.1202 58.9909C24.1202 59.3306 24.2246 59.4704 24.9047 60.0416C27.4024 62.1393 31.0305 64.0229 34.4913 65.0184C38.3777 66.1364 43.2159 66.3334 47.2061 65.5359C56.3356 63.7115 64.0279 57.1283 67.2474 48.3841C69.0254 43.5554 69.3584 37.8798 68.1624 32.7924C66.0514 23.8126 59.2591 16.3791 50.4964 13.4586C47.1661 12.3486 43.4553 11.8749 39.979 12.1161ZM31.0073 23.3881C30.2875 24.587 30.1121 25.1845 30.104 26.4643C30.0968 27.6349 30.0974 27.6375 30.6601 28.77C30.9699 29.3935 31.2907 29.9595 31.3728 30.0277C31.5824 30.2016 32.5517 28.3393 32.7928 27.2996C32.9962 26.4226 32.9076 25.5773 32.4996 24.5035C32.2707 23.9012 31.5909 22.7729 31.457 22.7729C31.4129 22.7729 31.2105 23.0497 31.0073 23.3881ZM52.2685 23.4202C51.6323 24.4373 51.3175 25.473 51.3254 26.5229C51.333 27.5272 51.5067 28.0714 52.2163 29.3137C52.7778 30.2968 52.7404 30.3073 53.4168 28.9768C54.0131 27.8041 54.2204 26.9659 54.1429 26.0412C54.067 25.1352 53.5283 23.7291 53.0268 23.1286L52.6977 22.7342L52.2685 23.4202ZM23.8272 29.9431C23.8272 30.4576 24.2129 31.7594 24.6193 32.6166C25.4152 34.2955 26.7262 35.2821 29.0588 35.958C30.2002 36.2888 30.3899 36.3095 30.3894 36.103C30.3886 35.6593 29.7407 33.6441 29.3756 32.9493C28.6297 31.5298 26.9936 30.3602 25.0624 29.8658C24.077 29.6135 23.8272 29.6292 23.8272 29.9431ZM37.6789 29.9146C35.0306 30.6718 33.5452 32.1579 32.8685 34.7275C32.487 36.1756 32.477 36.2495 32.6595 36.2495C33.0425 36.2495 34.9639 35.6277 35.7228 35.2582C37.4905 34.3977 38.6472 32.6223 39.1047 30.0678C39.1704 29.7016 39.1584 29.6873 38.795 29.6953C38.5871 29.6998 38.085 29.7986 37.6789 29.9146ZM45.0974 30.1264C45.2625 31.1668 45.8029 32.572 46.3559 33.3987C47.02 34.3917 47.8045 35.0089 49.061 35.5272C49.9182 35.8808 51.5636 36.3255 51.6597 36.2295C51.7686 36.1207 51.1106 33.9336 50.7201 33.1062C50.182 31.9661 49.3566 31.1648 48.0707 30.5339C47.0829 30.0492 45.9143 29.687 45.3382 29.687C45.045 29.687 45.0315 29.7116 45.0974 30.1264ZM58.6249 30.0315C56.7181 30.6774 55.3764 31.7346 54.7322 33.0987C54.4018 33.7981 53.8272 35.6582 53.8272 36.0282C53.8272 36.3152 53.95 36.3082 55.1853 35.9502C56.6184 35.5348 57.9343 34.8261 58.5561 34.1345C59.208 33.4094 59.8406 32.2005 60.1474 31.0937C60.4936 29.8445 60.478 29.6864 60.0089 29.6894C59.7993 29.6907 59.1766 29.8447 58.6249 30.0315ZM13.046 30.8588C12.731 31.1738 12.7385 31.9437 13.0651 32.8164C13.4053 33.7258 14.3844 34.7141 15.2738 35.0458L15.9171 35.2858L15.9471 45.3184L15.977 55.351H13.7583H11.5395L11.2967 55.6598C11.0642 55.9554 11.0538 56.1076 11.0547 59.2047C11.0557 62.9271 11.139 63.6479 11.701 64.8014C13.6882 68.8796 19.625 68.9661 21.667 64.9467C22.261 63.7774 22.3009 63.4316 22.3024 59.43C22.3038 55.724 22.3032 55.7155 22.0433 55.5335C21.8307 55.3845 21.39 55.351 19.6409 55.351H17.4991V45.2875V35.2241L17.88 35.1479C18.3847 35.047 19.3963 34.3661 19.7706 33.8756C20.1936 33.3208 20.5176 32.5389 20.6079 31.8549C20.6731 31.3596 20.6458 31.2192 20.4313 30.9467L20.1774 30.6245H16.7288C13.4366 30.6245 13.2697 30.6351 13.046 30.8588ZM14.5694 32.3233C14.5694 32.6327 15.3879 33.4168 15.9246 33.6218C16.5869 33.8748 17.3834 33.779 17.9979 33.3724C18.3965 33.1086 18.9037 32.473 18.9049 32.2358C18.9051 32.1875 17.9298 32.1479 16.7374 32.1479C14.8903 32.1479 14.5694 32.1739 14.5694 32.3233ZM28.7196 37.7649C29.2975 38.1836 30.104 39.0061 30.3649 39.4428C30.4708 39.62 30.601 39.7651 30.6543 39.7651C30.7075 39.7651 30.7358 39.359 30.7169 38.8628L30.6827 37.9606L29.5694 37.6962C28.1486 37.359 28.158 37.3582 28.7196 37.7649ZM33.2902 37.6991L32.265 37.9487L32.2709 38.8862C32.2769 39.7989 32.2822 39.8159 32.4708 39.5307C32.7214 39.1514 33.8633 38.0069 34.3155 37.6816C34.7415 37.3753 34.6116 37.3775 33.2902 37.6991ZM49.9015 37.6696C50.3752 38.0275 51.3793 39.0387 51.6916 39.4721L51.9449 39.8237L51.9485 38.8836L51.9522 37.9435L51.044 37.7468C50.5446 37.6386 50.004 37.5172 49.8429 37.477C49.5625 37.407 49.565 37.4154 49.9015 37.6696ZM54.589 37.7029L53.5343 37.9576L53.5 38.8613C53.4812 39.3584 53.5075 39.7631 53.5586 39.7606C53.6097 39.7582 53.8473 39.4741 54.0865 39.1293C54.3257 38.7846 54.8451 38.2592 55.2406 37.9619C56.0497 37.3538 56.0441 37.3516 54.589 37.7029ZM23.8272 37.8684C23.8272 38.9984 24.8097 41.1984 25.7399 42.1511C26.5807 43.0123 28.0599 43.6947 30.0786 44.1526L30.412 44.2283L30.331 43.7252C30.1761 42.7627 29.5254 41.0148 29.0656 40.3264C28.1878 39.0118 26.3261 37.9705 24.2081 37.6093C23.8545 37.5491 23.8272 37.5677 23.8272 37.8684ZM38.1827 37.7105C35.9539 38.1966 34.1986 39.4443 33.4329 41.0866C33.0778 41.8482 32.4365 44.0775 32.5422 44.1832C32.662 44.3029 34.8013 43.6209 35.7218 43.1694C36.7804 42.6501 37.4353 42.0419 38.0625 40.9955C38.7161 39.9051 39.3865 37.5256 39.0337 37.5478C38.9524 37.5529 38.5694 37.6262 38.1827 37.7105ZM45.039 37.6757C45.0417 38.1821 45.5743 39.9177 45.9416 40.6167C46.5899 41.8502 47.3451 42.6083 48.4779 43.1622C49.3841 43.6054 51.5531 44.3048 51.6672 44.1907C51.7738 44.0843 51.1102 41.8039 50.7556 41.0577C50.0564 39.5859 48.3504 38.297 46.503 37.8445C45.2068 37.527 45.0381 37.5076 45.039 37.6757ZM59.2179 37.7784C57.0463 38.339 55.4897 39.476 54.7295 41.0562C54.3273 41.8925 53.7145 44.0274 53.8406 44.1534C53.9618 44.2747 56.14 43.6086 56.9839 43.1923C58.1383 42.6228 58.9384 41.8018 59.5535 40.5554C60.2093 39.2265 60.5982 37.5294 60.2432 37.545C60.1627 37.5485 59.7013 37.6536 59.2179 37.7784ZM28.2804 45.3276C28.2804 45.3413 28.5942 45.5962 28.9779 45.8941C29.3615 46.192 29.8738 46.7015 30.1161 47.0262C30.3586 47.351 30.6008 47.6166 30.6542 47.6166C30.7078 47.6166 30.736 47.2344 30.7172 46.767L30.6827 45.9174L29.4815 45.61C28.8209 45.4411 28.2804 45.3139 28.2804 45.3276ZM33.4073 45.6014L32.2647 45.8947V46.8318V47.769L32.6191 47.2798C33.0555 46.6774 33.8308 45.9161 34.2756 45.6534C34.4587 45.5452 34.6085 45.4154 34.6085 45.3648C34.6085 45.3143 34.5952 45.2807 34.5792 45.2905C34.5631 45.3001 34.0358 45.44 33.4073 45.6014ZM54.6768 45.6034L53.4757 45.9021L53.4822 46.8473L53.4887 47.7924L53.7459 47.4409C54.0833 46.9796 55.068 45.9925 55.585 45.5974C55.8106 45.425 55.9688 45.2886 55.9366 45.2943C55.9044 45.3001 55.3374 45.4392 54.6768 45.6034ZM50.0304 45.7238C50.5101 46.0741 51.4039 47.0016 51.7414 47.4995C51.9359 47.7864 51.94 47.7731 51.9461 46.84L51.9522 45.8878L50.8682 45.638C49.4954 45.3219 49.4819 45.3233 50.0304 45.7238ZM23.8272 45.7993C23.8272 46.9237 24.7158 48.9379 25.6633 49.9614C26.4482 50.8091 27.6354 51.4346 29.3058 51.8806C30.5641 52.2166 30.5091 52.2835 30.1454 50.8589C29.4583 48.1678 28.199 46.7667 25.7049 45.9184C25.2534 45.7647 24.6463 45.6035 24.3556 45.5599C23.8393 45.4824 23.8272 45.4879 23.8272 45.7993ZM37.6502 45.7816C36.1639 46.2218 34.7155 47.0885 34.0852 47.9146C33.6132 48.5334 33.0263 49.8898 32.7465 51.008C32.6104 51.5521 32.4991 52.033 32.4991 52.0767C32.4991 52.1704 33.5041 51.9474 34.3918 51.6566C35.1818 51.3977 36.3071 50.8377 36.8145 50.4507C37.6876 49.7848 38.6817 48.016 38.9513 46.6483C39.018 46.3108 39.0974 45.916 39.1278 45.7709C39.1749 45.5466 39.1349 45.5082 38.8588 45.5136C38.6803 45.517 38.1364 45.6376 37.6502 45.7816ZM45.0997 45.9467C45.2204 46.6809 45.6309 47.9895 45.9191 48.5581C46.6116 49.9248 47.5923 50.7846 49.1763 51.4142C49.9365 51.7163 51.6164 52.188 51.6975 52.122C51.7186 52.1049 51.5994 51.5721 51.4326 50.9377C50.8099 48.5681 49.9349 47.3533 48.2009 46.4512C47.3497 46.0084 45.7824 45.5073 45.2485 45.5073C45.0584 45.5073 45.0377 45.5688 45.0997 45.9467ZM59.0551 45.7389C57.897 46.051 56.6341 46.7116 55.8831 47.3981C55.1113 48.1034 54.4197 49.4054 54.0609 50.8287C53.6945 52.2822 53.6443 52.2205 54.9112 51.8745C57.0666 51.2861 58.3725 50.4575 59.2159 49.1431C59.6622 48.4476 60.2352 46.9 60.3406 46.1053C60.4169 45.5302 60.4092 45.5075 60.1412 45.5143C59.9878 45.5182 59.4991 45.6193 59.0551 45.7389ZM12.717 60.185L12.753 63.4955L13.1554 64.2378C13.5772 65.0157 14.1539 65.5646 15.0382 66.03C15.4854 66.2653 15.7347 66.3075 16.6788 66.3076C17.9663 66.3079 18.5489 66.1021 19.3758 65.3551C20.627 64.2248 20.7804 63.6225 20.7804 59.8414V56.8745H16.7307H12.6811L12.717 60.185ZM29.4212 60.49C28.9851 60.5318 28.6203 60.6186 28.6105 60.683C28.5783 60.8939 32.2832 62.6676 33.8156 63.175C35.4637 63.7208 37.5763 64.1786 39.3207 64.368C40.6876 64.5165 43.2804 64.5318 43.2804 64.3914C43.2804 64.3364 43.0034 64.0298 42.6651 63.7103C41.1269 62.2578 38.433 61.1754 35.1397 60.6863C33.7476 60.4796 30.6446 60.3731 29.4212 60.49ZM50.3702 60.5223C48.234 60.7258 46.0072 61.2513 44.3716 61.9379L43.5192 62.2957L44.1072 62.9391C44.4307 63.2929 44.777 63.7406 44.8769 63.9338C45.0569 64.2819 45.0655 64.2845 45.7741 64.2043C46.8109 64.087 49.3646 63.4187 50.7218 62.9095C51.9654 62.4428 54.1326 61.3966 54.9301 60.8778L55.4093 60.5661L54.6475 60.4918C53.5897 60.3886 51.626 60.4026 50.3702 60.5223Z" fill="#08DD7A"/>
</svg>
