<svg width="80" height="80" viewBox="0 0 80 80" fill="none" xmlns="http://www.w3.org/2000/svg">
<rect width="80" height="80" rx="12" fill="#1BCE1B" fill-opacity="0.1"/>
<path fill-rule="evenodd" clip-rule="evenodd" d="M32.0275 16.7172C31.7007 16.8806 31.3103 17.2161 31.1599 17.4626C31.0094 17.7093 30.0746 19.9562 29.0823 22.4558L27.2783 27.0004V28.3496C27.2783 29.563 27.3202 29.7823 27.6945 30.5283C27.9295 30.9969 28.4271 31.6502 28.8376 32.0291L29.5646 32.7L29.1644 33.2421C28.9443 33.5402 28.6963 33.9922 28.6132 34.2464C28.4697 34.6855 28.1484 34.8602 22.1869 37.7425C18.0522 39.7415 15.7597 40.9273 15.4665 41.2189C14.8626 41.8194 14.6164 42.7301 14.8356 43.5524C15.0547 44.3746 15.8624 45.1922 16.5915 45.3304C17.4398 45.4911 26.9114 44.0562 27.8576 43.6236C29.347 42.9426 30.2799 41.7502 30.6626 40.0381C30.857 39.1693 30.9236 39.0434 31.1568 39.1051C31.4197 39.1745 31.4265 39.4584 31.4265 50.5214V61.8664H22.5613H13.696L13.3421 62.2238C12.9583 62.6114 12.9799 63.0609 13.3983 63.3931C13.5754 63.5337 19.1287 63.5706 40.0912 63.5706C63.9666 63.5706 66.5821 63.5487 66.7815 63.3475C67.0949 63.0308 67.0653 62.3364 66.7304 62.1554C66.5572 62.0618 64.5921 62.0084 61.3167 62.0084H56.1749V60.5882V59.168H60.2608C62.7537 59.168 64.5851 59.1073 64.958 59.0126C66.0177 58.743 66.6891 57.6481 66.4479 56.5831C66.3478 56.1412 61.819 45.4042 60.6628 42.8676C59.8307 41.0421 60.2922 41.1398 52.4486 41.1276L45.9803 41.1174L43.8856 38.4085C41.7303 35.6209 41.0951 35.0103 39.892 34.5689C38.978 34.2335 37.5183 34.246 36.528 34.5975C35.7261 34.8821 35.5126 34.8334 35.5065 34.3642C35.5053 34.2744 35.2886 33.8772 35.0248 33.4814L34.5455 32.7619L35.1029 25.7626C35.7073 18.1734 35.7067 18.1315 34.9798 17.2591C34.2637 16.3995 33.0929 16.1846 32.0275 16.7172ZM32.633 18.4437C32.5196 18.6194 31.6322 20.7917 30.6611 23.271C28.7313 28.1975 28.6426 28.5846 29.1846 29.7154C29.3639 30.0896 29.8372 30.6191 30.4306 31.1095C31.331 31.8535 31.4325 31.9001 32.1519 31.9001H32.9163L33.376 25.7577C33.6288 22.3794 33.869 19.4137 33.9098 19.1671C34.0491 18.3253 33.068 17.7694 32.633 18.4437ZM19.6899 20.2688C17.214 22.2805 15.139 25.2962 14.0127 28.52C13.0985 31.1369 12.6927 34.8365 13.2629 35.3576C13.601 35.6666 14.0681 35.6558 14.3893 35.3315C14.5877 35.1311 14.668 34.7601 14.735 33.7337C15.0569 28.8001 17.2598 24.6018 21.3373 21.151C21.9354 20.6447 22.044 20.0365 21.6074 19.6374C21.1757 19.2427 20.8008 19.3661 19.6899 20.2688ZM42.6273 19.6621C42.4993 19.805 42.3945 20.1167 42.3945 20.3549C42.3945 20.7118 42.5297 20.8933 43.1619 21.3858C46.7946 24.2164 49.2088 28.9021 49.5241 33.7337C49.5911 34.7601 49.6714 35.1311 49.8698 35.3315C50.2003 35.6652 50.7223 35.6659 51.0207 35.3329C51.5556 34.7358 51.1399 31.0775 50.2464 28.52C49.1201 25.2962 47.0451 22.2805 44.5692 20.2688C43.4487 19.3584 43.0194 19.2244 42.6273 19.6621ZM22.1552 24.745C19.6241 27.1498 18.1765 30.1442 17.8549 33.6394C17.7337 34.9577 17.9429 35.4506 18.6234 35.4506C19.2519 35.4506 19.6144 34.8858 19.6157 33.9047C19.617 32.9299 20.0425 31.0797 20.5123 30.0068C21.221 28.3882 22.5906 26.5732 23.9208 25.4896C24.5733 24.958 24.7293 24.5936 24.5065 24.1218C24.3649 23.8219 24.2084 23.7241 23.8165 23.6911C23.3551 23.652 23.2062 23.7464 22.1552 24.745ZM39.7832 24.0134C39.4519 24.5241 39.649 24.911 40.6959 25.8042C42.9993 27.7696 44.4301 30.6212 44.716 33.8174C44.7779 34.5086 44.9024 35.0508 45.0341 35.2021C45.3264 35.5378 45.8458 35.5154 46.2062 35.1514C46.4754 34.8795 46.4939 34.752 46.4079 33.7667C46.2567 32.035 45.8098 30.3771 45.082 28.8477C44.265 27.1311 43.4382 26.0006 42.0237 24.6665C41.1407 23.8335 40.8793 23.6629 40.4853 23.6629C40.1357 23.6629 39.9506 23.7554 39.7832 24.0134ZM31.476 33.758C30.2429 34.1229 29.7323 35.767 30.5239 36.8238C31.1226 37.6232 32.2612 37.7613 33.1317 37.1399C33.5433 36.8462 33.9576 36.0701 33.9576 35.5926C33.9576 35.1152 33.5433 34.339 33.1317 34.0453C32.6512 33.7025 32.0289 33.5944 31.476 33.758ZM36.5224 36.418C35.8995 36.6497 35.471 36.8952 35.4229 37.0481C35.3798 37.1858 35.1826 37.4924 34.9849 37.7297C34.7873 37.9669 34.6494 38.1807 34.6784 38.2047C35.0308 38.4975 45.2215 45.4691 45.4529 45.5758C45.675 45.6782 45.8742 45.6734 46.1209 45.5599C46.6727 45.306 46.5787 44.7666 45.8089 43.7676C42.611 39.618 40.4566 36.9441 40.0904 36.6699C39.0881 35.9193 38.0584 35.8466 36.5224 36.418ZM22.6365 39.56C16.4334 42.5248 16.1613 42.6942 16.5775 43.3314C16.68 43.4884 16.9306 43.6369 17.1345 43.6616C17.5848 43.7163 26.2419 42.462 26.91 42.2454C27.4733 42.0628 28.4084 41.2445 28.6963 40.6822C28.8089 40.4624 28.9992 39.8028 29.1192 39.2166C29.3309 38.1831 29.3286 38.1379 29.0471 37.7386C28.8874 37.512 28.7081 37.1942 28.6487 37.0321C28.5475 36.7558 28.1789 36.9109 22.6365 39.56ZM33.1139 50.635V62.0084H40.3556H47.5973V60.5882V59.168H43.515C38.9767 59.168 38.6809 59.1193 38.1797 58.2889C38.0184 58.0217 37.8957 57.5697 37.8954 57.2419C37.895 56.8596 38.559 54.7818 39.8635 51.0829C40.9462 48.0129 41.8291 45.4285 41.8253 45.34C41.8197 45.2033 33.6292 39.4451 33.2468 39.3089C33.1641 39.2793 33.1139 43.552 33.1139 50.635ZM47.7214 43.545C48.2251 44.2473 48.3605 44.9235 48.1532 45.7009C47.8479 46.846 46.5665 47.6783 45.4378 47.4645C45.1633 47.4124 44.6104 47.1468 44.2093 46.8743C43.8083 46.6016 43.4433 46.4157 43.3984 46.4611C43.3534 46.5066 43.1804 46.9237 43.014 47.3881L42.7112 48.2324H46.912H51.1128V45.605V42.9777H49.2136H47.3143L47.7214 43.545ZM52.8001 45.5312V48.0904H56.878C59.1209 48.0904 60.9559 48.0641 60.9559 48.0322C60.9559 48.0001 60.4861 46.8656 59.9118 45.5113L58.8677 43.0487L55.8339 43.0103L52.8001 42.9721V45.5312ZM42.043 49.9702C42.0084 50.0689 41.4406 51.6778 40.7811 53.5457C40.1218 55.4135 39.5822 57.0203 39.5822 57.1165C39.5822 57.2126 39.6823 57.3301 39.8047 57.3775C39.927 57.425 42.5224 57.4637 45.5722 57.4637H51.1174L51.0798 53.6647L51.0424 49.8656L46.5742 49.8282C43.0733 49.7988 42.0924 49.8294 42.043 49.9702ZM52.8001 53.6272V57.3217H58.7763C63.7672 57.3217 64.7525 57.2893 64.7525 57.1254C64.7525 57.0175 64.0988 55.3719 63.2997 53.4684L61.847 50.0077L57.3235 49.9702L52.8001 49.9327V53.6272ZM49.4254 60.5882V62.0084H51.9565H54.4875V60.5882V59.168H51.9565H49.4254V60.5882Z" fill="#1BCE1B"/>
</svg>
