<svg width="32" height="32" viewBox="0 0 32 32" fill="none" xmlns="http://www.w3.org/2000/svg">
<path d="M16 0C24.8366 0 32 7.16344 32 16C32 24.8366 24.8366 32 16 32C7.16344 32 0 24.8366 0 16C0 7.16344 7.16344 0 16 0ZM8.28809 12.416V24H11.8828V12.416H8.28809ZM21.0244 12.127C19.2795 12.1271 18.1065 13.0891 17.6289 13.999H17.582V12.416H14.1387V24H17.7236V18.2744C17.7236 16.7624 18.0079 15.2979 19.876 15.2979C21.7201 15.2981 21.7441 17.0279 21.7441 18.3691V24H25.333V17.6436C25.3329 14.525 24.6612 12.127 21.0244 12.127ZM10.0859 6.66699C8.93203 6.66699 8.00011 7.60029 8 8.75195C8 9.90372 8.93196 10.8379 10.0859 10.8379C11.2351 10.8377 12.167 9.89889 12.167 8.75195C12.1669 7.60037 11.235 6.66713 10.0859 6.66699Z" fill="#0097D8"/>
</svg>
