<svg width="32" height="32" viewBox="0 0 32 32" fill="none" xmlns="http://www.w3.org/2000/svg">
<path d="M16 0C24.8366 0 32 7.16344 32 16C32 24.8366 24.8366 32 16 32C7.16344 32 0 24.8366 0 16C0 7.16344 7.16344 0 16 0ZM16 9.33301C16 9.33301 10.1664 9.3336 8.70703 9.73145C8.31071 9.84104 7.94971 10.0542 7.66016 10.3496C7.37056 10.6451 7.16217 11.0124 7.05664 11.415C6.66636 12.9011 6.66699 16 6.66699 16C6.66699 16.0016 6.66646 19.0993 7.05664 20.585C7.16217 20.9876 7.37056 21.3549 7.66016 21.6504C7.94971 21.9458 8.31071 22.159 8.70703 22.2686C10.1664 22.6664 16 22.667 16 22.667C16.0024 22.667 21.8339 22.6663 23.293 22.2686C23.6893 22.159 24.0503 21.9458 24.3398 21.6504C24.6294 21.3549 24.8378 20.9876 24.9434 20.585C25.3335 19.0993 25.333 16.0016 25.333 16C25.333 16 25.3336 12.9011 24.9434 11.415C24.8378 11.0124 24.6294 10.6451 24.3398 10.3496C24.0503 10.0542 23.6893 9.84104 23.293 9.73145C21.8339 9.33368 16.0024 9.33301 16 9.33301ZM18.9697 16L14.0908 18.8145V13.1865L18.9697 16Z" fill="#0097D8"/>
</svg>
