<svg xmlns="http://www.w3.org/2000/svg" width="1200" height="1200" viewBox="0 0 1200 1200"><rect width="100%" height="100%" fill="#DDDDDD"/><path fill="#999999" d="M284.305 634.16h16.51v11.75h-50.8v-11.75h18.61v-53.53q0-3.17.19-6.54l-13.21 11.05q-1.14.89-2.25 1.11-1.12.22-2.1.03t-1.75-.66q-.76-.48-1.14-1.05l-4.95-6.8 28-23.81h12.89zm63.18-2.86h23.56q2.54 0 4.03 1.43 1.5 1.43 1.5 3.78v9.4h-62.99v-5.21q0-1.58.66-3.33.67-1.75 2.13-3.14l27.88-27.94q3.49-3.56 6.25-6.8t4.6-6.41q1.85-3.18 2.83-6.45t.98-6.89q0-3.3-.95-5.81t-2.7-4.22q-1.74-1.71-4.19-2.57-2.44-.86-5.49-.86-2.79 0-5.18.79-2.38.8-4.22 2.23t-3.11 3.33q-1.27 1.91-1.91 4.19-1.07 2.92-2.79 3.88-1.71.95-4.95.44l-8.26-1.46q.96-6.6 3.69-11.59 2.73-4.98 6.82-8.32 4.1-3.33 9.4-5.01 5.3-1.69 11.4-1.69 6.35 0 11.62 1.88 5.27 1.87 9.02 5.3 3.74 3.43 5.84 8.25 2.09 4.83 2.09 10.74 0 5.08-1.49 9.39-1.49 4.32-4 8.26-2.51 3.93-5.87 7.62-3.37 3.68-7.05 7.49l-20.7 21.15q2.98-.89 5.93-1.37 2.96-.48 5.62-.48m105.41-31.3q0 12-2.57 20.86t-7.11 14.64q-4.54 5.77-10.73 8.6t-13.37 2.83q-7.17 0-13.3-2.83t-10.64-8.6q-4.51-5.78-7.05-14.64t-2.54-20.86q0-12.07 2.54-20.89 2.54-8.83 7.05-14.61t10.64-8.6q6.13-2.83 13.3-2.83 7.18 0 13.37 2.83 6.19 2.82 10.73 8.6t7.11 14.61q2.57 8.82 2.57 20.89m-16.19 0q0-9.97-1.46-16.51t-3.9-10.41q-2.45-3.88-5.62-5.43-3.18-1.56-6.61-1.56-3.36 0-6.51 1.56-3.14 1.55-5.55 5.43-2.42 3.87-3.84 10.41-1.43 6.54-1.43 16.51t1.43 16.51q1.42 6.54 3.84 10.41 2.41 3.88 5.55 5.43 3.15 1.56 6.51 1.56 3.43 0 6.61-1.56 3.17-1.55 5.62-5.43 2.44-3.87 3.9-10.41t1.46-16.51m89.85 0q0 12-2.57 20.86t-7.11 14.64q-4.54 5.77-10.73 8.6t-13.37 2.83q-7.17 0-13.3-2.83t-10.64-8.6q-4.51-5.78-7.05-14.64t-2.54-20.86q0-12.07 2.54-20.89 2.54-8.83 7.05-14.61t10.64-8.6q6.13-2.83 13.3-2.83 7.18 0 13.37 2.83 6.19 2.82 10.73 8.6t7.11 14.61q2.57 8.82 2.57 20.89m-16.19 0q0-9.97-1.46-16.51t-3.9-10.41q-2.45-3.88-5.62-5.43-3.18-1.56-6.61-1.56-3.36 0-6.51 1.56-3.14 1.55-5.55 5.43-2.42 3.87-3.84 10.41-1.43 6.54-1.43 16.51t1.43 16.51q1.42 6.54 3.84 10.41 2.41 3.88 5.55 5.43 3.15 1.56 6.51 1.56 3.43 0 6.61-1.56 3.17-1.55 5.62-5.43 2.44-3.87 3.9-10.41t1.46-16.51m117.03 24.89-8.32 8.19-21.52-21.52-21.72 21.65-8.32-8.19 21.72-21.78-20.7-20.7 8.25-8.26 20.7 20.7 20.58-20.57 8.38 8.25-20.64 20.64zm86.93 9.27h16.51v11.75h-50.8v-11.75h18.61v-53.53q0-3.17.19-6.54l-13.21 11.05q-1.14.89-2.25 1.11t-2.1.03q-.98-.19-1.74-.66-.77-.48-1.15-1.05l-4.95-6.8 28-23.81h12.89zm63.19-2.86h23.55q2.54 0 4.04 1.43 1.49 1.43 1.49 3.78v9.4h-62.99v-5.21q0-1.58.66-3.33.67-1.75 2.13-3.14l27.88-27.94q3.49-3.56 6.25-6.8t4.61-6.41q1.84-3.18 2.82-6.45.99-3.27.99-6.89 0-3.3-.96-5.81-.95-2.51-2.7-4.22-1.74-1.71-4.19-2.57-2.44-.86-5.49-.86-2.79 0-5.17.79-2.39.8-4.23 2.23t-3.11 3.33q-1.27 1.91-1.9 4.19-1.08 2.92-2.8 3.88-1.71.95-4.95.44l-8.26-1.46q.96-6.6 3.69-11.59 2.73-4.98 6.82-8.32 4.1-3.33 9.4-5.01 5.3-1.69 11.4-1.69 6.35 0 11.62 1.88 5.27 1.87 9.02 5.3 3.74 3.43 5.84 8.25 2.1 4.83 2.1 10.74 0 5.08-1.5 9.39-1.49 4.32-4 8.26-2.51 3.93-5.87 7.62-3.37 3.68-7.05 7.49l-20.7 21.15q2.98-.89 5.94-1.37 2.95-.48 5.62-.48m105.41-31.3q0 12-2.58 20.86-2.57 8.86-7.11 14.64-4.54 5.77-10.73 8.6t-13.37 2.83q-7.17 0-13.3-2.83t-10.64-8.6q-4.5-5.78-7.04-14.64t-2.54-20.86q0-12.07 2.54-20.89 2.54-8.83 7.04-14.61 4.51-5.78 10.64-8.6 6.13-2.83 13.3-2.83 7.18 0 13.37 2.83 6.19 2.82 10.73 8.6t7.11 14.61q2.58 8.82 2.58 20.89m-16.2 0q0-9.97-1.46-16.51t-3.9-10.41q-2.45-3.88-5.62-5.43-3.18-1.56-6.61-1.56-3.36 0-6.5 1.56-3.15 1.55-5.56 5.43-2.41 3.87-3.84 10.41t-1.43 16.51 1.43 16.51 3.84 10.41q2.41 3.88 5.56 5.43 3.14 1.56 6.5 1.56 3.43 0 6.61-1.56 3.17-1.55 5.62-5.43 2.44-3.87 3.9-10.41t1.46-16.51m89.86 0q0 12-2.58 20.86-2.57 8.86-7.11 14.64-4.54 5.77-10.73 8.6t-13.37 2.83q-7.17 0-13.3-2.83t-10.64-8.6q-4.5-5.78-7.04-14.64t-2.54-20.86q0-12.07 2.54-20.89 2.54-8.83 7.04-14.61 4.51-5.78 10.64-8.6 6.13-2.83 13.3-2.83 7.18 0 13.37 2.83 6.19 2.82 10.73 8.6t7.11 14.61q2.58 8.82 2.58 20.89m-16.2 0q0-9.97-1.46-16.51t-3.9-10.41q-2.45-3.88-5.62-5.43-3.18-1.56-6.61-1.56-3.36 0-6.5 1.56-3.15 1.55-5.56 5.43-2.41 3.87-3.84 10.41t-1.43 16.51 1.43 16.51 3.84 10.41q2.41 3.88 5.56 5.43 3.14 1.56 6.5 1.56 3.43 0 6.61-1.56 3.17-1.55 5.62-5.43 2.44-3.87 3.9-10.41t1.46-16.51"/></svg>