<svg xmlns="http://www.w3.org/2000/svg" width="1440" height="380" viewBox="0 0 1440 380"><rect width="100%" height="100%" fill="#DDDDDD"/><path fill="#999999" d="M348.92 235.465h21.97v15.63h-67.6v-15.63h24.76v-71.24q0-4.22.25-8.7l-17.57 14.7q-1.52 1.19-3 1.48-1.48.3-2.79.04-1.31-.25-2.33-.88-1.01-.64-1.52-1.4l-6.59-9.04 37.27-31.69h17.15zm55.52-30.42h37.18v-39.97q0-5.66.76-12.51zm55.34 0h15.38v12.08q0 1.69-1.09 2.92-1.1 1.22-3.13 1.22h-11.16v29.83h-18.16v-29.83h-51.55q-2.11 0-3.72-1.31-1.6-1.31-2.02-3.25l-2.2-10.56 57.88-77.32h19.77zm42.68 0h37.18v-39.97q0-5.66.76-12.51zm55.34 0h15.38v12.08q0 1.69-1.09 2.92-1.1 1.22-3.13 1.22H557.8v29.83h-18.16v-29.83h-51.55q-2.11 0-3.72-1.31-1.6-1.31-2.02-3.25l-2.2-10.56 57.88-77.32h19.77zm113.49-15.04q0 15.97-3.42 27.75-3.43 11.79-9.47 19.48t-14.28 11.45-17.79 3.76q-9.54 0-17.7-3.76-8.15-3.76-14.15-11.45t-9.38-19.48q-3.38-11.78-3.38-27.75 0-16.06 3.38-27.8 3.38-11.75 9.38-19.44t14.15-11.45q8.16-3.76 17.7-3.76 9.55 0 17.79 3.76t14.28 11.45 9.47 19.44q3.42 11.74 3.42 27.8m-21.55 0q0-13.27-1.94-21.97-1.95-8.71-5.2-13.86-3.25-5.16-7.48-7.23-4.22-2.07-8.79-2.07-4.47 0-8.66 2.07-4.18 2.07-7.39 7.23-3.21 5.15-5.11 13.86-1.9 8.7-1.9 21.97 0 13.26 1.9 21.97 1.9 8.7 5.11 13.85 3.21 5.16 7.39 7.23 4.19 2.07 8.66 2.07 4.57 0 8.79-2.07 4.23-2.07 7.48-7.23 3.25-5.15 5.2-13.85 1.94-8.71 1.94-21.97m155.73 33.12-11.07 10.9-28.64-28.64-28.9 28.81-11.07-10.9 28.9-28.98-27.55-27.55 10.99-10.99 27.54 27.55 27.38-27.38 11.16 10.99-27.47 27.46zm70.31-58.22-10.99-1.94q1.27-8.79 4.9-15.42 3.64-6.64 9.09-11.07 5.45-4.44 12.5-6.68 7.06-2.24 15.17-2.24 8.45 0 15.25 2.41 6.81 2.41 11.62 6.67 4.82 4.27 7.4 10.02 2.57 5.74 2.57 12.42 0 5.83-1.31 10.27-1.31 4.43-3.76 7.73-2.45 3.29-6.08 5.57-3.63 2.29-8.2 3.81 10.99 3.46 16.4 10.56 5.4 7.1 5.4 17.83 0 9.13-3.38 16.14t-9.12 11.79q-5.75 4.77-13.31 7.22t-16.01 2.45q-9.21 0-16.06-2.11-6.84-2.11-11.91-6.25t-8.62-10.14-6.09-13.86l9.21-3.8q3.64-1.53 6.81-.81t4.6 3.43q1.52 2.95 3.34 5.83 1.82 2.87 4.35 5.11 2.54 2.24 5.96 3.63 3.42 1.4 8.15 1.4 5.33 0 9.3-1.74 3.97-1.73 6.63-4.52t3.97-6.21 1.31-6.88q0-4.4-.93-7.99t-3.88-6.13q-2.96-2.53-8.5-3.97-5.53-1.43-14.83-1.43v-14.88q7.69-.08 12.76-1.43t8.07-3.76 4.19-5.79q1.18-3.38 1.18-7.44 0-8.62-4.82-13.09-4.81-4.48-12.84-4.48-3.72 0-6.85 1.05-3.12 1.06-5.62 2.96-2.49 1.9-4.18 4.44-1.69 2.53-2.53 5.57-1.44 3.89-3.76 5.16-2.33 1.27-6.55.59m126.92 71.23q5.15 0 9.04-1.48 3.89-1.47 6.55-4.09t4.01-6.26q1.35-3.63 1.35-7.86 0-10.05-5.57-15.21-5.58-5.15-15.38-5.15t-15.38 5.15q-5.58 5.16-5.58 15.21 0 4.23 1.35 7.86 1.36 3.64 4.02 6.26t6.55 4.09q3.88 1.48 9.04 1.48m0-92.86q-4.65 0-8.03 1.43-3.38 1.44-5.62 3.85t-3.3 5.53q-1.05 3.13-1.05 6.59 0 3.64.89 7.06.88 3.42 3 6.08 2.11 2.67 5.57 4.27 3.47 1.61 8.54 1.61t8.53-1.61q3.47-1.6 5.58-4.27 2.11-2.66 3-6.08t.89-7.06q0-3.46-1.1-6.59-1.1-3.12-3.3-5.53t-5.58-3.85q-3.38-1.43-8.02-1.43m20.62 44.11q11.15 3.63 16.47 11.11 5.33 7.48 5.33 18.29 0 8.11-3.09 14.71-3.08 6.59-8.66 11.23-5.58 4.65-13.39 7.19-7.82 2.53-17.28 2.53-9.47 0-17.28-2.53-7.82-2.54-13.4-7.19-5.57-4.64-8.66-11.23-3.08-6.6-3.08-14.71 0-10.81 5.32-18.29 5.33-7.48 16.48-11.11-8.87-3.72-13.31-10.57-4.44-6.84-4.44-16.47 0-6.93 2.83-12.93 2.84-6 7.91-10.44 5.07-4.43 12.12-6.93 7.06-2.49 15.51-2.49t15.5 2.49q7.06 2.5 12.13 6.93 5.07 4.44 7.9 10.44t2.83 12.93q0 9.63-4.44 16.47-4.43 6.85-13.3 10.57m122.18 2.62q0 15.97-3.42 27.75-3.42 11.79-9.46 19.48-6.05 7.69-14.28 11.45-8.24 3.76-17.79 3.76t-17.7-3.76q-8.16-3.76-14.16-11.45t-9.38-19.48q-3.38-11.78-3.38-27.75 0-16.06 3.38-27.8 3.38-11.75 9.38-19.44t14.16-11.45q8.15-3.76 17.7-3.76t17.79 3.76q8.23 3.76 14.28 11.45 6.04 7.69 9.46 19.44 3.42 11.74 3.42 27.8m-21.55 0q0-13.27-1.94-21.97-1.94-8.71-5.2-13.86-3.25-5.16-7.47-7.23-4.23-2.07-8.79-2.07-4.48 0-8.66 2.07-4.19 2.07-7.4 7.23-3.21 5.15-5.11 13.86-1.9 8.7-1.9 21.97 0 13.26 1.9 21.97 1.9 8.7 5.11 13.85 3.21 5.16 7.4 7.23 4.18 2.07 8.66 2.07 4.56 0 8.79-2.07 4.22-2.07 7.47-7.23 3.26-5.15 5.2-13.85 1.94-8.71 1.94-21.97"/></svg>