<svg xmlns="http://www.w3.org/2000/svg" width="848" height="482" viewBox="0 0 848 482"><rect width="100%" height="100%" fill="#DDDDDD"/><path fill="#999999" d="M202.295 271.575q3.42 0 6-.98 2.57-.98 4.34-2.72 1.76-1.73 2.66-4.14.89-2.41.89-5.21 0-6.66-3.69-10.08-3.7-3.42-10.2-3.42-6.49 0-10.19 3.42-3.69 3.42-3.69 10.08 0 2.8.89 5.21.9 2.41 2.66 4.14 1.77 1.74 4.34 2.72 2.58.98 5.99.98m0-61.55q-3.08 0-5.32.96-2.24.95-3.72 2.54-1.48 1.6-2.18 3.67t-.7 4.37q0 2.41.58 4.68.59 2.26 1.99 4.03 1.4 1.76 3.7 2.83 2.29 1.06 5.65 1.06t5.66-1.06q2.3-1.07 3.7-2.83 1.4-1.77 1.98-4.03.59-2.27.59-4.68 0-2.3-.73-4.37-.72-2.07-2.18-3.67-1.46-1.59-3.7-2.54-2.24-.96-5.32-.96m13.67 29.24q7.39 2.4 10.92 7.36t3.53 12.12q0 5.38-2.05 9.75-2.04 4.37-5.74 7.45-3.69 3.08-8.87 4.76t-11.46 1.68q-6.27 0-11.45-1.68t-8.87-4.76q-3.7-3.08-5.74-7.45-2.05-4.37-2.05-9.75 0-7.16 3.53-12.12t10.92-7.36q-5.88-2.47-8.82-7-2.94-4.54-2.94-10.92 0-4.6 1.88-8.57 1.87-3.98 5.23-6.92t8.04-4.59q4.67-1.65 10.27-1.65t10.28 1.65 8.04 4.59 5.23 6.92q1.88 3.97 1.88 8.57 0 6.38-2.94 10.92-2.94 4.53-8.82 7m34.05 11.7h24.64v-26.49q0-3.75.5-8.29zm36.68 0h10.19v8.01q0 1.12-.73 1.93t-2.07.81h-7.39v19.77h-12.04v-19.77h-34.16q-1.4 0-2.47-.87-1.06-.86-1.34-2.15l-1.46-7 38.36-51.24h13.11zm45.52 20.61q3.42 0 6-.98 2.57-.98 4.34-2.72 1.76-1.73 2.66-4.14.89-2.41.89-5.21 0-6.66-3.69-10.08-3.7-3.42-10.2-3.42-6.49 0-10.19 3.42-3.69 3.42-3.69 10.08 0 2.8.89 5.21.9 2.41 2.66 4.14 1.77 1.74 4.34 2.72 2.58.98 5.99.98m0-61.55q-3.08 0-5.32.96-2.24.95-3.72 2.54-1.48 1.6-2.18 3.67t-.7 4.37q0 2.41.58 4.68.59 2.26 1.99 4.03 1.4 1.76 3.7 2.83 2.29 1.06 5.65 1.06t5.66-1.06q2.3-1.07 3.7-2.83 1.4-1.77 1.98-4.03.59-2.27.59-4.68 0-2.3-.73-4.37-.72-2.07-2.18-3.67-1.46-1.59-3.7-2.54-2.24-.96-5.32-.96m13.67 29.24q7.39 2.4 10.92 7.36t3.53 12.12q0 5.38-2.05 9.75-2.04 4.37-5.74 7.45-3.69 3.08-8.87 4.76t-11.46 1.68q-6.27 0-11.45-1.68t-8.87-4.76q-3.7-3.08-5.74-7.45-2.05-4.37-2.05-9.75 0-7.16 3.53-12.12t10.92-7.36q-5.88-2.47-8.82-7-2.94-4.54-2.94-10.92 0-4.6 1.88-8.57 1.87-3.98 5.23-6.92t8.04-4.59q4.67-1.65 10.27-1.65t10.28 1.65 8.04 4.59 5.23 6.92q1.88 3.97 1.88 8.57 0 6.38-2.94 10.92-2.94 4.53-8.82 7m104.94 23.68-7.33 7.23-18.99-18.99-19.15 19.1-7.34-7.22 19.16-19.21-18.26-18.26 7.28-7.28 18.26 18.26 18.14-18.15 7.39 7.28-18.2 18.2zm48.5-11.98h24.64v-26.49q0-3.75.5-8.29zm36.68 0h10.19v8.01q0 1.12-.73 1.93t-2.07.81h-7.39v19.77h-12.04v-19.77h-34.16q-1.4 0-2.47-.87-1.06-.86-1.34-2.15l-1.46-7 38.36-51.24h13.11zm45.53 20.61q3.41 0 5.99-.98 2.57-.98 4.34-2.72 1.76-1.73 2.66-4.14.89-2.41.89-5.21 0-6.66-3.69-10.08-3.7-3.42-10.19-3.42-6.5 0-10.2 3.42-3.69 3.42-3.69 10.08 0 2.8.89 5.21.9 2.41 2.66 4.14 1.77 1.74 4.34 2.72 2.58.98 6 .98m0-61.55q-3.08 0-5.32.96-2.24.95-3.73 2.54-1.48 1.6-2.18 3.67t-.7 4.37q0 2.41.59 4.68.58 2.26 1.98 4.03 1.4 1.76 3.7 2.83 2.3 1.06 5.66 1.06t5.65-1.06q2.3-1.07 3.7-2.83 1.4-1.77 1.99-4.03.58-2.27.58-4.68 0-2.3-.72-4.37-.73-2.07-2.19-3.67-1.45-1.59-3.69-2.54-2.24-.96-5.32-.96m13.66 29.24q7.39 2.4 10.92 7.36t3.53 12.12q0 5.38-2.05 9.75-2.04 4.37-5.74 7.45-3.69 3.08-8.87 4.76t-11.45 1.68q-6.28 0-11.46-1.68t-8.87-4.76q-3.7-3.08-5.74-7.45-2.05-4.37-2.05-9.75 0-7.16 3.53-12.12t10.92-7.36q-5.88-2.47-8.82-7-2.94-4.54-2.94-10.92 0-4.6 1.88-8.57 1.87-3.98 5.23-6.92t8.04-4.59 10.28-1.65 10.27 1.65q4.68 1.65 8.04 4.59t5.23 6.92q1.88 3.97 1.88 8.57 0 6.38-2.94 10.92-2.94 4.53-8.82 7m52.98 29.34h20.77q2.24 0 3.56 1.26 1.31 1.26 1.31 3.33v8.29h-55.55v-4.59q0-1.4.59-2.94t1.88-2.77l24.58-24.64q3.08-3.14 5.52-6 2.43-2.85 4.06-5.65 1.62-2.8 2.49-5.69.87-2.88.87-6.07 0-2.91-.84-5.13-.84-2.21-2.38-3.72t-3.7-2.27q-2.16-.75-4.84-.75-2.47 0-4.57.7t-3.72 1.96q-1.63 1.26-2.75 2.94t-1.68 3.69q-.95 2.58-2.46 3.42t-4.37.39l-7.28-1.29q.84-5.82 3.25-10.22 2.41-4.39 6.02-7.33t8.29-4.43q4.67-1.48 10.05-1.48 5.6 0 10.25 1.65t7.95 4.68q3.3 3.02 5.15 7.28 1.85 4.25 1.85 9.46 0 4.48-1.32 8.29-1.31 3.81-3.52 7.28-2.22 3.47-5.18 6.72-2.97 3.25-6.22 6.61l-18.26 18.64q2.64-.78 5.24-1.2t4.96-.42"/></svg>