<svg width="188" height="148" viewBox="0 0 188 148" xmlns="http://www.w3.org/2000/svg">
<path fill-rule="evenodd" clip-rule="evenodd" d="M116.36 10.9884C113.759 10.9371 111.178 10.5442 108.689 9.82065C102.919 8.2087 97.228 5.02289 98.0863 2.20515C98.1935 1.89242 98.3658 1.60396 98.5929 1.35737C98.8199 1.11078 99.0967 0.911235 99.4066 0.7709C101.572 -0.384118 106.246 -0.231808 111.29 1.16437C117.06 2.72554 122.751 5.94944 121.919 8.77986C121.811 9.0926 121.639 9.38106 121.412 9.62764C121.185 9.87423 120.908 10.0738 120.598 10.2141C119.271 10.7951 117.817 11.0607 116.36 10.9884ZM99.5955 2.09227C99.4845 2.20554 99.3979 2.3388 99.3406 2.48439C98.9445 3.8171 102.457 6.76176 109.058 8.58948C113.64 9.85873 118.129 10.0618 119.965 9.08448C120.262 8.9511 120.498 8.71577 120.625 8.42447C121.008 7.10445 117.495 4.1598 110.894 2.31938C106.325 1.05013 101.836 0.847055 99.9876 1.82438C99.8398 1.88796 99.7066 1.979 99.5955 2.09227ZM174.778 76.6735C166.324 85.0677 154.863 89.7896 142.908 89.8033C131.923 89.7822 121.322 85.7855 113.091 78.5617C104.86 71.3379 99.5629 61.3824 98.1917 50.5594C97.2891 58.57 98.0743 66.6795 100.498 74.3726C102.921 82.0656 106.929 89.174 112.268 95.2461C117.606 101.318 124.159 106.221 131.508 109.643C138.857 113.066 146.843 114.932 154.958 115.125V148H153.455C141.587 148.016 129.933 144.857 119.718 138.856C109.503 132.855 101.104 124.233 95.4037 113.895C89.7034 103.558 86.912 91.8866 87.3228 80.1079C87.7336 68.3293 91.3314 56.8778 97.7382 46.9567C94.2726 51.4581 89.4236 54.7149 83.9263 56.2337C78.429 57.7524 72.5829 57.4502 67.2741 55.373C61.9652 53.2957 57.483 49.5566 54.5067 44.7223C51.5303 39.8879 50.2221 34.2219 50.7803 28.5829L57.9329 29.8696C57.5144 34.6566 58.678 39.4486 61.2477 43.5201C63.8173 47.5916 67.653 50.7209 72.1738 52.434C76.6947 54.1471 81.6546 54.3508 86.3025 53.0142C90.9504 51.6776 95.0332 48.8736 97.9326 45.0267C98.127 44.7822 98.3084 44.5249 98.4768 44.2675C95.8899 43.3963 93.6097 41.8053 91.9074 39.6838C90.2052 37.5624 89.1527 34.9999 88.8753 32.3014L88.7328 33.112L23.7899 21.5319C19.2497 21.7387 14.7993 22.8606 10.7095 24.8293C6.61974 26.7979 2.976 29.5722 0 32.9833L4.96271 2C6.75759 6.2197 9.41021 10.0261 12.7546 13.181C16.099 16.336 20.0631 18.7715 24.3989 20.3352L88.8235 31.7996V30.8603C88.8275 27.9059 89.7625 25.0269 91.4973 22.6268C93.2321 20.2266 95.6798 18.4257 98.4972 17.4765C101.315 16.5273 104.361 16.4773 107.208 17.3336C110.055 18.1899 112.562 19.9096 114.375 22.2515C116.189 24.5935 117.219 27.4403 117.322 30.3929C117.424 33.3455 116.593 36.2559 114.946 38.7161C113.298 41.1763 110.917 43.0629 108.136 44.1115C105.354 45.1601 102.312 45.3182 99.4357 44.5635L99.1247 45.0267C99.1247 45.3259 99.1501 45.6377 99.1757 45.9528C99.2019 46.2745 99.2283 46.5996 99.2283 46.9181C99.6981 51.614 101.97 55.95 105.574 59.0263C109.178 62.1027 113.836 63.6832 118.582 63.4398C123.327 63.1965 127.797 61.148 131.062 57.7195C134.327 54.291 136.138 49.7456 136.118 45.0267H137.414C137.421 48.9683 136.232 52.8205 134.003 56.0816C131.773 59.3427 128.606 61.8614 124.915 63.3097C121.223 64.758 117.178 65.0687 113.305 64.2013C109.433 63.3339 105.914 61.3287 103.206 58.4468C106.109 62.8244 110.357 66.1553 115.318 67.9447C120.28 69.7341 125.69 69.8866 130.745 68.3794C135.801 66.8722 140.232 63.7858 143.38 59.5787C146.528 55.3715 148.226 50.2682 148.221 45.0267H149.516C149.528 50.2297 147.944 55.3128 144.975 59.5999C142.006 63.8869 137.792 67.1746 132.896 69.0255C127.999 70.8764 122.65 71.2028 117.562 69.9612C112.474 68.7196 107.887 65.969 104.411 62.0752C108.082 67.457 113.395 71.5271 119.569 73.687C125.742 75.8469 132.451 75.9826 138.709 74.0742C144.966 72.1658 150.441 68.314 154.33 63.0852C158.218 57.8564 160.314 51.5266 160.31 45.0267H161.606C161.608 51.5275 159.594 57.8714 155.838 63.1959C152.082 68.5205 146.766 72.5675 140.613 74.787C134.46 77.0065 127.767 77.2908 121.446 75.6012C115.124 73.9116 109.48 70.33 105.279 65.3434C109.678 71.9756 116.114 77.0223 123.631 79.7343C131.147 82.4462 139.344 82.6788 147.005 80.3975C154.665 78.1162 161.38 73.4426 166.153 67.0707C170.927 60.6988 173.503 52.9682 173.501 45.0267H174.796C174.799 52.9082 172.347 60.5977 167.776 67.041C163.205 73.4842 156.739 78.3659 149.264 81.0166C141.79 83.6674 133.672 83.9575 126.025 81.8472C118.378 79.7369 111.575 75.3295 106.549 69.2292C111.776 76.9734 119.37 82.8444 128.212 85.9762C137.055 89.1079 146.677 89.3345 155.658 86.6224C164.64 83.9104 172.507 78.4033 178.096 70.9138C183.686 63.4243 186.704 54.349 186.704 45.0267H188C187.986 56.898 183.231 68.2792 174.778 76.6735Z" />
</svg>
