<svg width="80" height="80" viewBox="0 0 80 80" fill="none" xmlns="http://www.w3.org/2000/svg">
<rect width="80" height="80" rx="12" fill="#0097D8" fill-opacity="0.1"/>
<path d="M43.7001 13.5212L43.8487 13.7634C43.8649 13.7898 43.8742 13.8183 43.8778 13.8295C43.8832 13.8462 43.8886 13.8657 43.8938 13.886C43.9044 13.9269 43.9165 13.9807 43.9302 14.0456C43.9579 14.176 43.9934 14.3589 44.0355 14.5872C44.1199 15.0444 44.2322 15.6901 44.3648 16.4795C44.6302 18.0587 44.9776 20.2164 45.3478 22.5993L46.6298 30.8535L48.315 30.0043L48.0688 29.5141C47.0041 27.3966 46.38 24.9859 46.1833 22.2506C46.1588 21.9098 46.1506 21.6566 46.1638 21.4674C46.1767 21.2812 46.2117 21.1281 46.2982 21.0107C46.3463 20.9454 46.4179 20.8964 46.4854 20.8589C46.5571 20.819 46.6449 20.781 46.7443 20.7447C46.9434 20.6718 47.2062 20.5995 47.5193 20.5309C50.215 19.9408 52.1033 18.9162 54.0882 16.9505L54.5055 16.5314C54.7267 16.3119 54.9336 16.1145 55.1036 15.9601C55.2167 15.8576 55.3156 15.7718 55.3924 15.711C55.4303 15.681 55.4663 15.6546 55.4977 15.6345C55.5131 15.6246 55.5313 15.6139 55.5505 15.6049C55.5634 15.5989 55.6027 15.5807 55.6524 15.5807L55.6845 15.583C55.7147 15.5875 55.7378 15.5972 55.7485 15.6018C55.7676 15.6101 55.7856 15.62 55.8005 15.6291C55.8308 15.6475 55.8647 15.6719 55.8997 15.6987C55.9706 15.7529 56.0603 15.8289 56.162 15.9194C56.3664 16.1013 56.6278 16.3507 56.8976 16.6237C58.0745 17.8144 59.1704 18.6415 60.4319 19.2957C60.9469 19.5627 61.66 19.8593 62.3465 20.1038C63.0358 20.3494 63.6814 20.5362 64.0646 20.5917C64.2674 20.621 64.4485 20.6551 64.5953 20.7205C64.7532 20.7908 64.8734 20.898 64.9503 21.0638C65.0217 21.2179 65.0497 21.4106 65.059 21.6416C65.0685 21.8753 65.0593 22.1704 65.0418 22.5408C64.8534 26.5153 63.1956 30.4879 60.4139 33.6454C59.456 34.7327 58.4461 35.607 57.0259 36.5815C56.5267 36.924 56.1649 37.14 55.8699 37.2297C55.7173 37.276 55.5746 37.2913 55.4352 37.2693C55.2961 37.2473 55.174 37.1904 55.0592 37.1132C54.9467 37.0376 54.6737 36.8658 54.4535 36.7326L54.3485 36.6688V41.739H59.3846C61.3477 41.739 62.6659 41.7472 63.5059 41.7674C63.9253 41.7775 64.2289 41.7906 64.4352 41.8078C64.5378 41.8163 64.6215 41.8261 64.6849 41.8382C64.7164 41.8441 64.7479 41.8517 64.7764 41.8616C64.7935 41.8675 64.8238 41.8787 64.8542 41.9004L64.884 41.9258L64.9055 41.9512C64.9239 41.9764 64.9334 42.0003 64.9376 42.0115C64.9451 42.0314 64.9506 42.0513 64.9545 42.0688C64.9624 42.1043 64.9686 42.1478 64.974 42.1965C64.985 42.2949 64.9943 42.4346 65.0027 42.619C65.0195 42.9888 65.0326 43.5523 65.0425 44.3552C65.0624 45.9618 65.0701 48.5353 65.0701 52.4529V62.5149H65.4155C65.7356 62.5149 66.0386 62.5719 66.2893 62.6764C66.5369 62.7795 66.7523 62.937 66.8664 63.1512L66.8805 63.1815C66.8931 63.2128 66.9012 63.2452 66.907 63.2711C66.9157 63.3105 66.9237 63.3568 66.9307 63.4076C66.9447 63.5095 66.9569 63.6394 66.9671 63.787C66.9874 64.083 67 64.4602 67 64.8481V66.3364L66.9303 66.3956L66.2705 66.953L66.2158 66.9992H13.7842L13.7295 66.953L13.0697 66.3956L13 66.3364V64.8481C13 64.4602 13.0126 64.083 13.0329 63.787C13.0431 63.6394 13.0553 63.5095 13.0693 63.4076C13.0763 63.3568 13.0843 63.3105 13.093 63.2711C13.1007 63.2366 13.1126 63.1905 13.1336 63.1512C13.2477 62.9371 13.4628 62.7795 13.7103 62.6764C13.961 62.5719 14.264 62.5149 14.5841 62.5149H14.9295L14.9835 34.2386L14.9839 34.1175L15.0915 34.0633L21.5244 30.8116C23.2941 29.9171 24.9341 29.1033 26.1508 28.5126C26.759 28.2173 27.2624 27.9774 27.6235 27.8109C27.8037 27.7279 27.9498 27.6622 28.0565 27.6172C28.1096 27.5948 28.1551 27.5764 28.1909 27.5634C28.2087 27.5569 28.2266 27.5511 28.243 27.5464C28.2541 27.5433 28.2831 27.5351 28.3154 27.5345L28.4107 27.5341C28.5131 27.5364 28.6324 27.5516 28.7339 27.6237C28.8757 27.7246 28.9363 27.8974 28.9717 28.1031C29.0433 28.5191 29.0456 29.3167 29.0456 30.8158C29.0456 31.5935 29.0518 32.3 29.0617 32.8115C29.0659 33.0318 29.0713 33.2149 29.0766 33.3517C29.1905 33.2972 29.3395 33.2254 29.5154 33.1391C29.931 32.9353 30.4972 32.654 31.1133 32.3444C31.819 31.9899 32.3808 31.6921 32.7694 31.469C32.9642 31.3572 33.1123 31.266 33.2121 31.1968C33.2607 31.1631 33.2937 31.1371 33.3143 31.1188C33.3152 31.1143 33.3164 31.1091 33.3174 31.1034C33.3235 31.069 33.3318 31.0205 33.3423 30.9581C33.3633 30.8332 33.3927 30.6546 33.4292 30.4287C33.5022 29.977 33.6039 29.336 33.7275 28.5529C33.9746 26.9867 34.3081 24.8526 34.6679 22.5289C35.0333 20.1694 35.377 18.0293 35.6398 16.4618C35.7711 15.6782 35.8823 15.0368 35.966 14.5826C36.0078 14.3559 36.0427 14.1745 36.0702 14.0448C36.0839 13.9802 36.0961 13.9263 36.1065 13.8856C36.1117 13.8654 36.1172 13.8462 36.1226 13.8295C36.1262 13.8184 36.1352 13.7901 36.1513 13.7637L36.3573 13.4277H43.6427L43.7001 13.5212ZM14.4643 65.529H65.5357V64.0927H14.4643V65.529ZM27.27 29.6448C26.9771 29.7914 26.5549 30.0029 26.0351 30.2638C24.9956 30.7856 23.5651 31.5044 21.995 32.2945L16.3941 35.1129V62.5149H27.4741V45.9726C27.4741 41.3694 27.471 37.1853 27.4661 34.1525C27.4637 32.6362 27.4609 31.4077 27.4577 30.5586C27.4561 30.1341 27.4544 29.8045 27.4527 29.5814C27.4526 29.5718 27.4524 29.5625 27.4523 29.5533C27.3987 29.5801 27.3379 29.6108 27.27 29.6448ZM29.0456 62.5149H63.6059V43.2091H29.0456V62.5149ZM34.3091 54.1184C35.2251 54.1184 35.8731 54.1275 36.3045 54.1484C36.5195 54.1588 36.686 54.1724 36.8069 54.1903C36.867 54.1992 36.9213 54.2099 36.9669 54.2237C36.9956 54.2324 37.0378 54.2467 37.0772 54.2737L37.1151 54.3052L37.1465 54.3433C37.1734 54.3829 37.1877 54.4252 37.1963 54.454C37.21 54.4999 37.2208 54.5544 37.2296 54.6147C37.2474 54.7361 37.261 54.9033 37.2714 55.1191C37.2922 55.5523 37.3012 56.2029 37.3012 57.1225C37.3012 58.2389 37.2959 58.8882 37.2706 59.2743C37.258 59.4663 37.2399 59.6068 37.2101 59.7118C37.1782 59.824 37.1297 59.907 37.0535 59.9706C36.9784 60.0332 36.8718 60.0639 36.7651 60.0848C36.6498 60.1073 36.4958 60.1245 36.2961 60.1386C35.8956 60.1668 35.2858 60.1838 34.3765 60.1962C33.2659 60.2114 32.6571 60.2164 32.2969 60.192C32.116 60.1797 31.9834 60.1592 31.8753 60.1228C31.7608 60.0843 31.6843 60.0312 31.613 59.9733L31.353 59.7622L31.2803 59.703V57.1402C31.2803 56.1737 31.2882 55.5414 31.3109 55.1326C31.3223 54.9288 31.3377 54.7738 31.3592 54.6578C31.3793 54.549 31.4097 54.4436 31.4725 54.3675C31.5357 54.2911 31.6181 54.2424 31.7298 54.2103C31.8344 54.1802 31.9745 54.1618 32.1656 54.1492C32.55 54.1237 33.1966 54.1184 34.3091 54.1184ZM50.308 54.1184C51.5565 54.1184 52.2057 54.119 52.5607 54.1503C52.7367 54.1658 52.8672 54.1905 52.9685 54.2418C53.0812 54.299 53.138 54.38 53.181 54.4417C53.285 54.5906 53.3273 54.799 53.3514 55.1637C53.3762 55.5379 53.3827 56.121 53.3821 57.0576C53.3817 57.6813 53.3741 58.2751 53.3625 58.7295C53.3567 58.9567 53.3499 59.1501 53.3422 59.2955C53.3384 59.368 53.3344 59.43 53.33 59.4789C53.3261 59.5219 53.321 59.5703 53.3116 59.6053C53.2752 59.7414 53.2091 59.8696 53.0708 59.9675C52.9425 60.0582 52.7698 60.1098 52.5504 60.1428C52.1124 60.2087 51.3829 60.2141 50.1621 60.1966C49.2833 60.1841 48.6909 60.167 48.3004 60.1386C48.1058 60.1244 47.9552 60.107 47.8417 60.0844C47.7366 60.0634 47.6313 60.0327 47.5568 59.9706C47.4806 59.907 47.4321 59.824 47.4002 59.7118C47.3704 59.6068 47.3523 59.4662 47.3397 59.2743C47.3143 58.8882 47.3091 58.2388 47.3091 57.1225C47.3091 56.2029 47.3181 55.5523 47.3389 55.1191C47.3493 54.9033 47.3628 54.7361 47.3807 54.6147C47.3895 54.5544 47.4002 54.4999 47.414 54.454C47.4255 54.4156 47.4473 54.3533 47.4951 54.3052L47.5331 54.2737C47.5726 54.2467 47.615 54.2324 47.6437 54.2237C47.6894 54.21 47.7436 54.1992 47.8038 54.1903C47.9249 54.1724 48.0918 54.1588 48.3073 54.1484C48.7398 54.1275 49.3894 54.1184 50.308 54.1184ZM58.3148 54.1184C59.2349 54.1184 59.8855 54.1275 60.3185 54.1484C60.5343 54.1588 60.7012 54.1724 60.8225 54.1903C60.8828 54.1992 60.9371 54.2099 60.9829 54.2237C61.0116 54.2324 61.054 54.2466 61.0936 54.2737L61.1315 54.3052L61.1629 54.3433C61.1898 54.3829 61.204 54.4252 61.2126 54.454C61.2264 54.4999 61.2371 54.5544 61.246 54.6147C61.2638 54.7361 61.2773 54.9033 61.2877 55.1191C61.3085 55.5523 61.3176 56.2029 61.3176 57.1225C61.3176 58.2395 61.3123 58.8887 61.2869 59.2747C61.2743 59.4665 61.2559 59.6069 61.226 59.7118C61.194 59.8241 61.1456 59.9071 61.0694 59.9706C61.0361 59.9984 60.9989 60.0141 60.9752 60.0229C60.9483 60.0328 60.919 60.0407 60.8898 60.0475C60.8311 60.0611 60.7584 60.0729 60.6769 60.0832C60.5131 60.1038 60.2968 60.1208 60.0482 60.1343C59.5501 60.1614 58.9097 60.1753 58.2723 60.1763C57.6348 60.1772 56.9971 60.1653 56.5043 60.1397C56.2585 60.127 56.0453 60.1107 55.8852 60.0905C55.8056 60.0805 55.7344 60.0686 55.6772 60.0548C55.6489 60.0479 55.6196 60.0398 55.5926 60.029C55.57 60.02 55.5287 60.0016 55.4934 59.9663C55.4502 59.923 55.4261 59.8693 55.4111 59.8276C55.395 59.7825 55.3826 59.73 55.3721 59.6726C55.3509 59.5574 55.334 59.4007 55.3204 59.1974C55.293 58.7894 55.2762 58.1687 55.2641 57.2629C55.2502 56.2316 55.2483 55.6085 55.2683 55.2153C55.288 54.8278 55.3292 54.6247 55.4326 54.4663L55.6018 54.2072L55.6596 54.1184H58.3148ZM42.3051 54.1184C43.5406 54.1184 44.2069 54.121 44.5758 54.1492C44.7572 54.163 44.8909 54.1843 44.9901 54.2268C45.0439 54.2499 45.0902 54.2799 45.1291 54.3195C45.167 54.3579 45.1912 54.3984 45.2084 54.4306C45.2334 54.4776 45.2451 54.5373 45.2524 54.5794C45.2613 54.6301 45.2692 54.6931 45.2762 54.7654C45.2902 54.9107 45.302 55.1054 45.3118 55.3402C45.3313 55.8105 45.3424 56.4516 45.3424 57.2013C45.3424 58.2818 45.3372 58.9118 45.3118 59.2874C45.2877 59.6432 45.2454 59.8447 45.0943 59.9706C45.0181 60.034 44.9123 60.0646 44.8029 60.0848C44.686 60.1063 44.5291 60.1215 44.3223 60.1328C43.9077 60.1556 43.2649 60.1636 42.2799 60.1636C41.1032 60.1636 40.4632 60.1605 40.1007 60.132C39.921 60.1179 39.7888 60.0967 39.6879 60.0563C39.6012 60.0216 39.5435 59.9754 39.4988 59.9252L39.4578 59.8741C39.402 59.7974 39.3708 59.698 39.349 59.5846C39.3267 59.468 39.3105 59.3151 39.2989 59.1148C39.2755 58.7133 39.2679 58.0946 39.2679 57.1402C39.2679 56.4114 39.279 55.7857 39.2985 55.3252C39.3082 55.0954 39.3201 54.9044 39.3341 54.7616C39.3411 54.6905 39.349 54.6284 39.3579 54.5782C39.3652 54.5365 39.377 54.4773 39.4019 54.4306L39.4341 54.3775C39.447 54.3586 39.4622 54.3387 39.4812 54.3195C39.5201 54.2799 39.5663 54.2499 39.6201 54.2268C39.7193 54.1843 39.8531 54.163 40.0345 54.1492C40.4034 54.121 41.0697 54.1184 42.3051 54.1184ZM22.9634 46.5816C23.1906 46.5894 23.4397 46.6922 23.5891 46.906C23.6545 46.9997 23.6881 47.1257 23.7112 47.3051C23.7351 47.4896 23.7515 47.7614 23.7633 48.1709C23.7869 48.9917 23.792 50.3943 23.792 52.8251C23.792 54.3969 23.7811 55.8181 23.7633 56.8653C23.7544 57.3888 23.7439 57.8199 23.7319 58.1298C23.7259 58.2845 23.7195 58.4105 23.7128 58.5035C23.7094 58.5498 23.706 58.5901 23.7021 58.6223C23.6991 58.6465 23.6934 58.6882 23.6802 58.723C23.5033 59.1902 22.96 59.3163 22.5529 59.0486L22.2206 58.8303V52.96C22.2206 51.0761 22.2302 49.6157 22.2489 48.6088C22.2582 48.1056 22.2698 47.714 22.2837 47.4389C22.2907 47.3017 22.2986 47.1911 22.3071 47.109C22.3113 47.0682 22.3161 47.0315 22.3216 47.001C22.3257 46.9785 22.3339 46.9341 22.3546 46.8953L22.3799 46.8526C22.5127 46.649 22.7533 46.5743 22.9634 46.5816ZM32.7982 58.6396H35.837V55.5886H32.7982V58.6396ZM40.8393 58.6396H43.7709V55.5886H40.8393V58.6396ZM48.7733 58.6396H51.8121V55.5886H48.7733V58.6396ZM56.8145 58.6396H59.8533V55.5886H56.8145V58.6396ZM34.3091 45.6143C35.2251 45.6143 35.8731 45.6234 36.3045 45.6443C36.5195 45.6547 36.686 45.6683 36.8069 45.6862C36.867 45.6951 36.9213 45.7058 36.9669 45.7196C36.9956 45.7283 37.0378 45.7426 37.0772 45.7696L37.1151 45.8011L37.1465 45.8392C37.1735 45.8789 37.1877 45.9215 37.1963 45.9503C37.21 45.9962 37.2208 46.0506 37.2296 46.111C37.2474 46.2325 37.261 46.3999 37.2714 46.6162C37.2922 47.0501 37.3012 47.702 37.3012 48.6238C37.3012 49.7111 37.2952 50.3627 37.2706 50.7606C37.2583 50.9588 37.2408 51.1047 37.2139 51.2142C37.1864 51.3265 37.1453 51.4161 37.0753 51.4864C37.0428 51.519 37.0055 51.5381 36.9807 51.5491C36.9531 51.5613 36.9233 51.571 36.8942 51.5791C36.8358 51.5953 36.7644 51.6091 36.6851 51.621C36.5255 51.645 36.3152 51.6648 36.074 51.6806C35.5903 51.7122 34.9671 51.729 34.3432 51.7309C33.7193 51.7329 33.0909 51.7199 32.5967 51.6913C32.3502 51.6771 32.1338 51.6588 31.9669 51.636C31.8837 51.6246 31.809 51.6116 31.7474 51.5964C31.7075 51.5865 31.6573 51.5724 31.6119 51.5491L31.5686 51.5226C31.4995 51.4718 31.4332 51.4075 31.3871 51.2915C31.3469 51.1902 31.3257 51.0575 31.3117 50.8771C31.2834 50.5132 31.2803 49.8705 31.2803 48.6891C31.2803 47.7002 31.2882 47.0547 31.3109 46.6385C31.3222 46.4309 31.3373 46.2734 31.3588 46.156C31.3789 46.0461 31.4093 45.9398 31.4725 45.8634C31.5357 45.7869 31.6181 45.7383 31.7298 45.7062C31.8344 45.6761 31.9745 45.6577 32.1656 45.645C32.55 45.6195 33.1966 45.6143 34.3091 45.6143ZM42.3143 45.6143C43.375 45.6143 44.0118 45.6203 44.4016 45.645C44.5957 45.6574 44.7393 45.6749 44.8473 45.7019C44.9582 45.7297 45.0469 45.7713 45.1165 45.8411C45.1861 45.9111 45.2275 46.0002 45.2551 46.1118C45.282 46.2204 45.2995 46.3648 45.3118 46.5604C45.3364 46.9532 45.3424 47.5954 45.3424 48.6653C45.3424 49.8981 45.3419 50.5403 45.3106 50.8921C45.2951 51.0666 45.2704 51.1965 45.2191 51.2977C45.1622 51.4099 45.0818 51.4667 45.0204 51.5099C44.8708 51.6151 44.6583 51.6571 44.2783 51.6813C43.8876 51.7063 43.274 51.7133 42.2814 51.7133C41.1631 51.7133 40.5522 51.7103 40.1972 51.681C40.0195 51.6663 39.8889 51.6437 39.7848 51.6041C39.672 51.5611 39.6017 51.5025 39.5397 51.4403C39.4776 51.3779 39.419 51.3072 39.3762 51.1931C39.3369 51.0879 39.3146 50.9553 39.3 50.7744C39.2708 50.4128 39.2679 49.7892 39.2679 48.6453C39.2679 47.5879 39.2736 46.9638 39.2993 46.5827C39.3211 46.2585 39.3578 46.0685 39.4521 45.9314L39.4961 45.8757C39.557 45.8082 39.6296 45.7532 39.7442 45.7146C39.8483 45.6796 39.9837 45.6594 40.1689 45.6458C40.5406 45.6184 41.1773 45.6143 42.3143 45.6143ZM50.308 45.6143C51.5565 45.6143 52.2057 45.6149 52.5607 45.6462C52.7367 45.6617 52.8672 45.6863 52.9685 45.7377C53.0812 45.7949 53.138 45.8759 53.181 45.9376C53.2858 46.0877 53.3277 46.3011 53.3518 46.6827C53.3766 47.075 53.3836 47.691 53.3836 48.6876C53.3836 49.8104 53.3807 50.4237 53.3514 50.7802C53.3368 50.9586 53.3143 51.0897 53.2748 51.1942C53.2321 51.3075 53.1737 51.3781 53.1117 51.4403C53.0498 51.5025 52.9795 51.5611 52.8667 51.6041C52.7625 51.6437 52.632 51.6663 52.4543 51.681C52.0993 51.7103 51.4884 51.7133 50.3701 51.7133C49.3775 51.7133 48.7639 51.7063 48.3732 51.6813C47.9931 51.6571 47.7806 51.6151 47.6311 51.5099C47.5696 51.4666 47.4889 51.4097 47.432 51.2965C47.3808 51.1948 47.3563 51.0638 47.3408 50.8871C47.3096 50.5306 47.3091 49.8789 47.3091 48.6253C47.3091 47.703 47.3181 47.0507 47.3389 46.6165C47.3493 46.4001 47.3628 46.2326 47.3807 46.111C47.3895 46.0506 47.4003 45.9961 47.414 45.9503C47.4255 45.9119 47.4472 45.8493 47.4951 45.8011L47.5331 45.7696C47.5726 45.7425 47.615 45.7283 47.6437 45.7196C47.6894 45.7058 47.7436 45.6951 47.8038 45.6862C47.9249 45.6683 48.0918 45.6547 48.3073 45.6443C48.7398 45.6234 49.3894 45.6143 50.308 45.6143ZM58.3186 45.6143C59.2372 45.6143 59.8868 45.6234 60.3193 45.6443C60.5348 45.6547 60.7017 45.6683 60.8228 45.6862C60.883 45.6951 60.9372 45.7058 60.9829 45.7196C61.0116 45.7283 61.054 45.7425 61.0936 45.7696L61.1315 45.8011L61.1629 45.8392C61.1898 45.8789 61.204 45.9215 61.2126 45.9503C61.2264 45.9961 61.2371 46.0506 61.246 46.111C61.2638 46.2326 61.2773 46.4001 61.2877 46.6165C61.3085 47.0507 61.3176 47.703 61.3176 48.6253C61.3176 49.8789 61.317 50.5306 61.2858 50.8871C61.2703 51.0638 61.2458 51.1948 61.1946 51.2965C61.1377 51.4097 61.057 51.4666 60.9955 51.5099C60.846 51.6151 60.6335 51.6571 60.2534 51.6813C59.8627 51.7063 59.2491 51.7133 58.2566 51.7133C57.1383 51.7133 56.5274 51.7103 56.1724 51.681C55.9946 51.6663 55.8641 51.6437 55.76 51.6041C55.6471 51.5611 55.5768 51.5025 55.5149 51.4403C55.4529 51.3781 55.3945 51.3075 55.3518 51.1942C55.3123 51.0897 55.2898 50.9586 55.2752 50.7802C55.2459 50.4237 55.243 49.8104 55.243 48.6876C55.243 47.691 55.25 47.075 55.2748 46.6827C55.299 46.3011 55.3408 46.0877 55.4456 45.9376C55.4886 45.8759 55.5454 45.7949 55.6581 45.7377C55.7594 45.6863 55.8899 45.6617 56.0659 45.6462C56.4209 45.6149 57.0701 45.6143 58.3186 45.6143ZM32.7982 50.1355H35.837V47.1921H32.7982V50.1355ZM40.8393 50.1355H43.7709V47.1921H40.8393V50.1355ZM48.7733 50.1355H51.8121V47.1921H48.7733V50.1355ZM56.8145 50.1355H59.8533V47.1921H56.8145V50.1355ZM18.8444 36.7933C19.0363 36.7824 19.2741 36.823 19.4245 36.974C19.4654 37.0151 19.4829 37.0653 19.49 37.0875C19.4995 37.1169 19.5064 37.1498 19.5122 37.1832C19.524 37.2508 19.534 37.3413 19.5425 37.4538C19.5595 37.68 19.5726 38.0152 19.5827 38.4811C19.6028 39.4142 19.6106 40.8851 19.6106 43.0853V49.0344L19.5222 49.0924L19.2541 49.2689C19.1428 49.3421 19.0205 49.4226 18.8804 49.4234C18.7391 49.4243 18.6175 49.3442 18.5082 49.2724C18.3036 49.1377 18.1416 48.8696 18.0962 48.6192C18.0888 48.5783 18.0844 48.5002 18.0809 48.41C18.0771 48.3125 18.0739 48.1815 18.0709 48.0217C18.0649 47.7019 18.0604 47.263 18.0575 46.7373C18.0518 45.6856 18.0522 44.2838 18.061 42.7855C18.0738 40.5746 18.0887 39.2017 18.1153 38.3635C18.1286 37.9451 18.1451 37.6548 18.1663 37.4584C18.1768 37.3606 18.1893 37.2807 18.2046 37.2174C18.2183 37.1607 18.2399 37.0908 18.285 37.0363L18.3118 37.0067C18.4496 36.8642 18.6636 36.8037 18.8444 36.7933ZM39.8507 29.6502C39.5545 29.7968 39.131 30.0083 38.6116 30.2691C37.5726 30.7909 36.1504 31.5096 34.5959 32.2987L29.0498 35.1137L29.0456 41.739H40.1256V35.5846C40.1256 33.8386 40.1164 32.2529 40.1019 31.1046C40.0946 30.5303 40.0861 30.0663 40.0766 29.7467C40.0743 29.6701 40.0705 29.6021 40.0682 29.5433C40.0062 29.5737 39.9334 29.6092 39.8507 29.6502ZM41.7021 35.1137L41.6971 41.739H52.7771V35.5631L51.5743 34.3536C50.8773 33.6525 50.0094 32.6567 49.6437 32.1345L49.0927 31.3479L41.7021 35.1137ZM55.2618 17.9931C53.6803 19.7227 51.1579 21.1896 48.6397 21.8523L47.6996 22.0995L47.7559 22.7496C48.1889 27.7669 50.8916 32.433 54.9704 35.2109L55.6271 35.658L55.8783 35.505C57.8799 34.2829 60.0916 31.926 61.4175 29.5929C62.5923 27.5258 63.4986 24.4407 63.4986 22.5443V22.0749L63.1912 21.9968C60.5972 21.3386 58.2608 20.056 56.2175 18.17L55.6114 17.6106L55.2618 17.9931ZM55.6378 19.0254C55.6858 19.0254 55.7302 19.039 55.76 19.0496C55.7934 19.0616 55.8286 19.0775 55.8637 19.0954C55.9344 19.1313 56.0171 19.1813 56.1057 19.2395C56.2835 19.3565 56.4969 19.5157 56.7046 19.6901C58.0778 20.843 59.5112 21.6528 61.2777 22.2721C61.5556 22.3695 61.8208 22.4795 62.0256 22.5793C62.1275 22.629 62.2181 22.6777 62.2886 22.7227C62.3237 22.7451 62.3573 22.7686 62.3859 22.7927C62.4045 22.8084 62.4298 22.8317 62.4518 22.8619L62.4724 22.8945L62.4931 22.9407C62.5109 22.9882 62.5205 23.0391 62.5264 23.0856C62.5348 23.1515 62.5379 23.2274 62.5371 23.3098C62.5356 23.4749 62.5185 23.6815 62.4881 23.916C62.4273 24.3859 62.3119 24.984 62.155 25.6207C61.3099 29.0487 59.107 32.251 56.2746 34.1618C56.138 34.2539 56.0087 34.3357 55.8775 34.3813C55.7354 34.4306 55.5952 34.4364 55.4398 34.3905C55.294 34.3474 55.1406 34.2604 54.9635 34.1395C54.7847 34.0174 54.567 33.8505 54.2922 33.6358C52.7504 32.4309 51.1298 30.4705 50.2728 28.7725C49.7725 27.7811 49.3086 26.4092 49.0222 25.2428C48.879 24.6594 48.7785 24.1202 48.7408 23.7007C48.722 23.4919 48.7181 23.3048 48.735 23.1537C48.7435 23.0781 48.758 23.0051 48.7817 22.9403C48.805 22.8768 48.8423 22.8077 48.9047 22.7558L48.9422 22.7285C48.9841 22.7015 49.0367 22.6757 49.085 22.6535C49.1581 22.6198 49.2512 22.581 49.3569 22.5393C49.5686 22.4557 49.838 22.3587 50.1147 22.2679C51.8104 21.7115 53.5356 20.7005 54.8486 19.4937C54.9813 19.3717 55.1269 19.2602 55.2564 19.178C55.3209 19.1371 55.3847 19.1015 55.4433 19.0754C55.4955 19.052 55.5666 19.0254 55.6378 19.0254ZM40 14.8979C38.914 14.8979 38.2218 14.9055 37.8017 14.926C37.6017 14.9357 37.4719 14.9482 37.3931 14.9621C37.3896 14.9872 37.3858 15.0169 37.3809 15.0505C37.3642 15.1645 37.3399 15.328 37.3089 15.5338C37.2467 15.9456 37.1576 16.5283 37.0504 17.2265C36.836 18.6229 36.5488 20.4824 36.2566 22.3651C35.6861 26.0415 35.0957 29.8122 34.9965 30.3933L37.5819 29.0627C39.094 28.2844 39.9818 27.8458 40.52 27.6572C40.7854 27.5642 40.9987 27.5191 41.1721 27.5468C41.2648 27.5617 41.3458 27.5971 41.4145 27.6533C41.4811 27.7079 41.5277 27.7753 41.5631 27.8417L41.5799 27.8801C41.5945 27.9204 41.6024 27.9641 41.6079 27.997C41.6167 28.0505 41.6246 28.1175 41.6316 28.1954C41.6456 28.3517 41.6575 28.5633 41.6672 28.8209C41.6866 29.337 41.6971 30.0481 41.6971 30.895C41.6971 31.6509 41.7033 32.3375 41.7132 32.8346C41.7175 33.0534 41.7229 33.2345 41.7285 33.3682C41.8346 33.3198 41.9711 33.2549 42.1286 33.1772C42.4843 33.0017 42.943 32.7658 43.398 32.5259C43.8531 32.2859 44.3032 32.0425 44.6417 31.8519C44.8111 31.7566 44.9511 31.6756 45.0491 31.6151C45.0762 31.5984 45.0989 31.5827 45.118 31.5701C45.1157 31.5466 45.1133 31.5185 45.1096 31.4859C45.0962 31.3677 45.0743 31.1969 45.0449 30.9785C44.9861 30.5418 44.8974 29.919 44.7853 29.1562C44.5611 27.6305 44.2439 25.5462 43.8881 23.2717C43.5321 20.9966 43.2087 18.913 42.9741 17.3892C42.8568 16.6273 42.7615 16.0051 42.6957 15.5688C42.6629 15.3508 42.6373 15.1789 42.6199 15.059C42.6145 15.0218 42.6099 14.9894 42.6061 14.9621C42.5252 14.9482 42.3927 14.9357 42.1903 14.926C41.7674 14.9057 41.0751 14.8979 40 14.8979ZM55.6413 20.8565C55.6084 20.887 55.5701 20.9255 55.5317 20.968C55.3601 21.1584 55.0743 21.387 54.7318 21.6262C54.3861 21.8676 53.9714 22.1276 53.5329 22.3801C52.6581 22.8841 51.6758 23.3666 50.9456 23.6169C50.7396 23.6875 50.5487 23.7532 50.4072 23.8026C50.3723 23.8148 50.3401 23.8257 50.3119 23.8357C50.3205 23.8862 50.3312 23.9486 50.3452 24.021C50.3863 24.2334 50.4479 24.5255 50.5198 24.8456C51.1554 27.6758 52.6537 30.1947 54.8138 32.0661C55.0727 32.2904 55.2468 32.4468 55.3866 32.5509C55.5277 32.6559 55.5963 32.6772 55.6413 32.6774C55.6852 32.6775 55.7517 32.6574 55.8886 32.554C56.0248 32.451 56.1932 32.296 56.4454 32.073C57.9301 30.7599 59.0136 29.3246 59.8303 27.5907C60.3259 26.5382 60.7877 25.0523 60.8864 24.209L60.9335 23.8061L60.3978 23.6139C58.9653 23.0993 57.181 22.0922 56.0016 21.1326C55.8827 21.0358 55.7695 20.9485 55.6838 20.8862C55.6686 20.8751 55.6541 20.8656 55.6413 20.8565ZM58.3986 24.3001C58.605 24.3001 58.7984 24.435 58.9266 24.5738C59.0571 24.7151 59.1732 24.9174 59.1732 25.1232C59.1732 25.2315 59.1327 25.3365 59.0699 25.4435C59.0066 25.5512 58.9103 25.678 58.7769 25.8341C58.5097 26.1467 58.0686 26.6035 57.3724 27.3015C56.6547 28.0212 56.1995 28.4642 55.8913 28.7271C55.5949 28.9799 55.3912 29.1073 55.1844 29.1073C55.0083 29.1073 54.8441 29.0354 54.6545 28.9001C54.4667 28.7661 54.2325 28.5543 53.9132 28.2423C53.3966 27.7376 53.081 27.4076 52.9329 27.1512C52.8549 27.0163 52.812 26.8835 52.8215 26.7437C52.8308 26.6064 52.889 26.4897 52.957 26.3854L53.0229 26.2927C53.0924 26.2044 53.173 26.1299 53.2699 26.0809C53.4057 26.0122 53.5518 26.0051 53.701 26.0463C53.8439 26.0858 53.9914 26.1693 54.1464 26.2831C54.3028 26.3981 54.4776 26.5521 54.6755 26.7429L55.2273 27.275L56.6253 25.8837C57.048 25.4629 57.4444 25.0799 57.7427 24.8014C57.8916 24.6624 58.0177 24.5482 58.1107 24.4681C58.1568 24.4284 58.1971 24.3947 58.2294 24.3705C58.2451 24.3586 58.2625 24.3465 58.2795 24.3362C58.2879 24.3312 58.2998 24.3243 58.314 24.3182C58.3231 24.3142 58.3557 24.3001 58.3986 24.3001Z" fill="#0097D8"/>
</svg>
