<svg width="80" height="80" viewBox="0 0 80 80" fill="none" xmlns="http://www.w3.org/2000/svg">
<rect width="80" height="80" rx="12" fill="#0AAA9B" fill-opacity="0.1"/>
<path fill-rule="evenodd" clip-rule="evenodd" d="M51.264 12.2691C50.9265 12.4596 49.2573 15.3236 49.2573 15.7122C49.2573 16.0735 49.7558 16.5624 50.1243 16.5624C50.2847 16.5624 50.5463 16.4437 50.7053 16.2987C51.1216 15.9194 52.5385 13.3913 52.5385 13.0279C52.5385 12.3898 51.8142 11.9585 51.264 12.2691ZM26.7658 13.2383C26.6322 13.4081 26.5229 13.6561 26.5229 13.7894C26.5229 14.1126 28.2298 17.1037 28.466 17.1944C29.1114 17.4421 29.8041 17.0724 29.8041 16.4801C29.8041 16.1023 28.1295 13.1038 27.861 13.0007C27.4387 12.8386 27.0064 12.9324 26.7658 13.2383ZM38.2035 16.5689C33.9165 17.0672 30.2109 18.9192 27.1674 22.0849C22.8889 26.5351 21.3044 32.616 22.6672 39.3553C23.2955 42.4629 24.3648 44.6003 27.1939 48.4041C28.4203 50.053 29.2381 51.3866 29.5747 52.2859C30.1417 53.8017 30.1814 54.1117 30.2581 57.6366L30.3321 61.035L30.7301 61.7696C31.5151 63.2181 32.6571 63.9041 34.4388 63.9973L35.5197 64.0539L35.5666 65.1225C35.6252 66.4614 35.9272 67.0937 36.7197 67.5374C37.2309 67.8237 37.3185 67.833 39.8753 67.8695C42.7365 67.9103 43.3154 67.8353 43.9673 67.3387C44.5683 66.8808 44.7985 66.2534 44.8015 65.0646L44.8041 64.0553L45.8928 63.9983C47.2706 63.9263 48.1948 63.5447 48.9516 62.7358C50.0303 61.5824 50.2267 60.7481 50.173 57.5482C50.1377 55.4494 50.1249 55.3462 49.8693 55.0907L49.6025 54.8241L45.0353 54.7908L40.4682 54.7576V51.7122V48.6667L40.7319 48.5601C40.8769 48.5015 41.3647 48.3461 41.8158 48.2148C45.5862 47.1176 49.4804 43.1631 51.2517 38.6325C52.364 35.7874 52.6768 32.8594 52.1394 30.3206C51.9353 29.3563 51.5459 28.3121 51.2806 28.0174C50.8564 27.5464 48.6872 27.9661 46.883 28.8686C44.6432 29.9888 42.434 31.9744 40.9464 34.2041C40.4752 34.9103 40.0563 35.4996 40.0153 35.5137C39.9744 35.5276 39.7563 35.2157 39.5307 34.8204C38.5214 33.0516 36.7681 31.062 35.1351 29.8321C33.4592 28.57 30.7415 27.4608 29.3252 27.4608C28.6212 27.4608 28.3942 27.7196 27.9982 28.9733C26.773 32.8517 27.6948 37.6237 30.4782 41.813C31.2906 43.0357 33.0242 44.9264 34.0792 45.7403C35.1173 46.5412 36.5656 47.3507 37.6621 47.7429L38.7104 48.1179V51.4417V54.7655H35.3831C31.7493 54.7655 31.9161 54.7983 31.9115 54.0821C31.9083 53.5999 31.52 52.2215 31.1198 51.2724C30.7414 50.3751 29.7362 48.826 27.8733 46.2694C25.3982 42.8726 24.3916 40.2312 24.0549 36.2499C23.4584 29.1942 26.9505 22.9102 33.144 19.8941C35.3908 18.7999 37.5608 18.3086 40.1752 18.3017C42.9026 18.2945 45.2164 18.8508 47.6418 20.0967C51.3154 21.9837 54.289 25.4501 55.5676 29.3358C56.2894 31.5296 56.5487 34.1227 56.2995 36.6578C55.9086 40.6357 54.8973 43.0757 52.0279 46.9641L51.0737 48.2572L51.0406 46.9465C51.009 45.6926 50.9943 45.6256 50.7025 45.396C50.2989 45.0785 49.8281 45.091 49.512 45.4273C49.2637 45.6918 49.2573 45.7769 49.2573 48.8053C49.2573 51.9013 49.2582 51.913 49.5284 52.167C49.6776 52.3071 49.9181 52.4217 50.0627 52.4217C50.2898 52.4217 54.245 51.0577 55.6626 50.4905C56.5447 50.1375 56.619 49.2122 55.7971 48.8171C55.5243 48.6859 55.323 48.7287 53.9928 49.2005C53.1693 49.4926 52.4494 49.7162 52.3928 49.6974C52.3364 49.6786 52.8705 48.8656 53.5799 47.8907C55.1204 45.7738 55.6917 44.8621 56.3585 43.4569C57.7066 40.6158 58.2397 37.7647 58.1299 33.9847C58.0428 30.9911 57.5425 28.9041 56.3357 26.5003C52.9156 19.6875 45.6432 15.7043 38.2035 16.5689ZM61.7594 26.9284C60.9979 27.1399 60.2455 27.3719 60.0871 27.444C59.4863 27.7178 59.5012 28.6654 60.1114 28.992C60.3734 29.1321 60.5789 29.1058 61.893 28.7633C63.7764 28.2726 64.1146 28.1288 64.2551 27.7594C64.3872 27.4118 64.2378 26.9167 63.9304 26.683C63.6391 26.4618 63.304 26.4996 61.7594 26.9284ZM16.2649 28.0422C15.6887 28.273 15.5088 29.0378 15.9312 29.4603C16.1867 29.7157 18.9119 30.5077 19.5355 30.5077C19.9229 30.5077 20.2068 30.2938 20.3478 29.8957C20.4571 29.5868 20.2151 29.0311 19.9107 28.8924C19.6966 28.7949 17.7157 28.2413 16.6791 27.9893C16.5824 27.9658 16.396 27.9896 16.2649 28.0422ZM29.5257 30.1274C29.1012 31.9936 29.1674 33.7794 29.742 35.9644C30.65 39.417 32.8825 42.684 35.7221 44.7154C36.2916 45.1228 37.8574 45.9747 38.0388 45.9758C38.2589 45.9772 37.8865 45.178 36.7018 43.1053C36.0017 41.8807 35.429 40.7895 35.4291 40.6803C35.4291 40.3185 35.9473 39.8437 36.3418 39.8437C36.8151 39.8437 36.9692 39.9831 37.5022 40.8941C38.0033 41.7508 37.9442 41.804 38.3005 40.1756C38.4133 39.66 38.6273 38.9003 38.7759 38.4874L39.0461 37.7367L38.5955 36.8405C36.8508 33.3703 33.9746 30.6487 30.9734 29.628C29.7305 29.2051 29.7358 29.2033 29.5257 30.1274ZM49.0229 29.9066C47.3409 30.4572 45.8451 31.4378 44.2768 33.0182C41.5898 35.7259 39.9478 39.2651 39.6894 42.9059C39.619 43.8965 39.8178 45.9787 39.9822 45.9746C40.0239 45.9735 40.8255 44.6419 41.7636 43.0156C43.594 39.8418 43.7524 39.6562 44.4264 39.8911C44.8301 40.0319 45.1033 40.5485 44.9798 40.9377C44.9358 41.0762 44.2508 42.3062 43.4575 43.6709C42.6642 45.0356 42.0335 46.1714 42.0558 46.195C42.0783 46.2184 42.4988 46.0208 42.9903 45.7556C46.537 43.8426 49.5464 39.5583 50.3853 35.2274C50.6547 33.8366 50.639 31.6596 50.3517 30.5663C50.1023 29.6168 50.0251 29.5785 49.0229 29.9066ZM58.334 43.8032C57.996 44.141 57.9643 44.5649 58.2514 44.9024C58.5529 45.2567 61.2633 46.7967 61.5854 46.7967C62.248 46.7967 62.699 46.0055 62.3447 45.4648C62.1071 45.1021 59.3333 43.5155 58.9367 43.5155C58.7583 43.5155 58.4968 43.6403 58.334 43.8032ZM20.4877 45.6247C19.0034 46.4857 18.6713 46.7745 18.6713 47.2041C18.6713 47.6442 19.1041 48.0865 19.5295 48.081C20.0285 48.0746 22.7762 46.4673 22.9771 46.0643C23.1547 45.7083 22.9801 45.0954 22.6511 44.9193C22.2394 44.699 21.884 44.8149 20.4877 45.6247ZM32.0333 58.4862C32.0354 60.0277 32.0716 60.4105 32.2525 60.809C32.543 61.4486 33.2267 61.9917 33.9316 62.1429C34.6144 62.2894 45.6669 62.3037 46.4142 62.1592C47.0295 62.0401 47.6084 61.6531 47.9787 61.1133C48.2462 60.7234 48.2631 60.5937 48.298 58.671L48.3349 56.6405H40.1827H32.0307L32.0333 58.4862ZM37.4459 64.9901L37.4799 65.9569L40.1165 65.9885C43.1862 66.0253 43.0463 66.0811 43.0463 64.8212V64.0233H40.2291H37.4118L37.4459 64.9901Z" fill="#0AAA9B"/>
</svg>
