<svg width="192" height="192" viewBox="0 0 192 192" fill="none" xmlns="http://www.w3.org/2000/svg">
<path fill-rule="evenodd" clip-rule="evenodd" d="M152.841 22.11C144.015 23.3865 143.055 23.5961 142.416 24.3855C141.399 25.6414 141.655 27.6544 142.954 28.62L143.971 29.3767L150.557 28.4445L157.143 27.5122L155.862 28.8502C155.158 29.586 148.385 37.0226 140.811 45.3757C132.559 54.4759 126.793 60.5422 126.426 60.5107C126.088 60.4819 124.845 60.102 123.664 59.667C119.599 58.1689 114.212 58.9027 110.494 61.4614L108.75 62.6606L97.7699 54.5077L86.7891 46.3552L87.4956 44.2717C88.0349 42.6821 88.1646 41.4604 88.0439 39.1177C87.6726 31.9136 82.7193 26.403 75.391 25.0399C69.2466 23.8972 62.2686 27.627 59.4449 33.5632C57.5924 37.458 57.7034 42.7305 59.7239 46.7989L60.5234 48.4095L48.0505 60.8865L35.578 73.3635L33.8069 72.4867C24.8583 68.0584 13.7751 73.9519 12.4615 83.8376C11.3534 92.1791 16.4991 99.2456 24.9119 100.935C30.4915 102.056 37.2366 98.8444 40.3056 93.606C41.428 91.6909 42.3738 88.1505 42.3738 85.8649C42.3738 83.8294 41.4895 80.5875 40.4406 78.7781L39.6955 77.4926L52.1909 65.0036L64.6863 52.5146L66.5744 53.4532C71.4753 55.8889 77.4768 55.2885 81.9839 51.9116L83.1565 51.033L90.0464 56.1412C93.8358 58.9507 98.8139 62.6396 101.109 64.3387L105.282 67.4284L104.539 69.6206C103.42 72.9187 103.719 77.1341 105.298 80.3422C106.753 83.2969 109.794 86.2781 112.779 87.6772C114.694 88.5746 115.38 88.6882 118.882 88.6882C122.561 88.6882 122.991 88.6076 125.261 87.4901C128.358 85.9654 130.963 83.3602 132.488 80.2627C133.606 77.9932 133.686 77.5631 133.686 73.8836C133.686 70.1786 133.611 69.7837 132.444 67.3984L131.202 64.8581L133.007 62.8196C136.628 58.7287 160.313 32.7199 160.374 32.7664C160.409 32.793 160.081 35.3677 159.646 38.4881C158.896 43.8607 158.888 44.2132 159.494 45.1376C160.743 47.0437 163.54 46.9072 164.431 44.8972C164.927 43.7794 167.624 25.6579 167.624 23.4454C167.624 22.9061 167.211 22.0534 166.703 21.5464C165.501 20.3434 164.884 20.3685 152.841 22.11ZM68.9545 31.7981C63.3153 34.7441 62.2131 41.9074 66.7079 46.4021C68.4813 48.1759 70.3735 48.9161 73.1238 48.9131C76.0101 48.9101 77.995 48.0206 79.8625 45.894C81.5406 43.9826 82.1238 42.4204 82.1238 39.8362C82.1238 32.985 75.0029 28.6384 68.9545 31.7981ZM155.436 63.3514C152.855 63.9799 150.754 65.6805 149.385 68.2507C148.715 69.5089 148.682 71.553 148.585 117.469L148.485 165.376H141.742H134.999L134.991 138.657C134.982 108.81 135.117 110.387 132.326 107.739C129.979 105.513 129.221 105.376 119.211 105.376C113.505 105.376 109.619 105.534 108.72 105.804C106.818 106.374 104.792 108.093 103.769 110.006L102.936 111.563L102.833 138.469L102.73 165.376H95.989H89.2488V127.825C89.2488 99.3307 89.1381 89.9029 88.7905 88.7317C88.1875 86.7022 85.4223 83.937 83.3928 83.334C81.349 82.7272 64.9754 82.7029 62.9695 83.3036C60.8988 83.9242 58.9064 85.7321 57.8916 87.9116L57.0063 89.8132L57.0025 127.594L56.9988 165.376H50.2488H43.4988V151.944C43.4988 136.669 43.3716 135.734 40.9788 133.442C38.1228 130.705 38.0406 130.688 27.3738 130.688C19.4095 130.688 17.5919 130.788 16.4988 131.287C14.5041 132.199 12.8916 133.719 12.028 135.503C11.2814 137.045 11.2488 137.703 11.2488 151.206V165.299L8.02864 165.431C5.04326 165.554 4.74289 165.64 3.90364 166.615C2.79364 167.906 2.75389 169.088 3.77614 170.388L4.55314 171.376H95.8555H187.158L188.078 170.455C189.244 169.29 189.249 167.959 188.094 166.615C187.255 165.64 186.954 165.554 183.969 165.431L180.749 165.299V117.456C180.749 69.855 180.745 69.6045 179.973 68.0107C179.547 67.1295 178.621 65.9021 177.916 65.2834C175.693 63.3311 173.713 62.9962 164.649 63.039C160.201 63.0604 156.055 63.2006 155.436 63.3514ZM114.958 65.6434C112.849 66.6952 111.776 67.7947 110.765 69.9382C107.873 76.0717 112.14 82.9507 118.837 82.9507C125.435 82.9507 129.737 76.6132 127.362 70.3924C126.639 68.4997 124.383 66.2272 122.407 65.4019C120.557 64.6286 116.743 64.7524 114.958 65.6434ZM155.419 69.9214L154.499 70.8416V118.109V165.376H164.811H175.124V118.744C175.124 87.1496 174.997 71.7484 174.73 70.9834C174.098 69.1691 173.221 69.0007 164.401 69.0007C156.342 69.0007 156.339 69.0011 155.419 69.9214ZM24.2793 77.4109C16.867 80.0561 15.9588 90.0064 22.7643 94.0069C25.1283 95.3966 28.9566 95.4919 31.3649 94.2214C34.3874 92.6265 36.3738 89.3914 36.3738 86.0632C36.3738 79.9035 30.0239 75.3607 24.2793 77.4109ZM63.7488 89.6257C63.0089 90.3656 62.9988 90.8756 62.9988 127.876V165.376H73.1238H83.2488V127.876C83.2488 90.8756 83.2386 90.3656 82.4988 89.6257C81.7923 88.9192 81.2489 88.8757 73.1238 88.8757C64.9986 88.8757 64.4553 88.9192 63.7488 89.6257ZM109.499 112.126C108.763 112.861 108.749 113.376 108.749 139.126V165.376H118.874H128.999V139.126C128.999 113.376 128.985 112.861 128.249 112.126C127.542 111.419 126.999 111.376 118.874 111.376C110.749 111.376 110.205 111.419 109.499 112.126ZM18.4874 136.95C17.0151 137.661 16.8738 139.022 16.8738 152.494V165.376H27.1863H37.4988V151.859V138.342L36.5781 137.421L35.6579 136.501L27.4844 136.526C22.5411 136.542 18.9858 136.709 18.4874 136.95Z" fill="#1BCE1B"/>
</svg>
