<svg width="80" height="80" viewBox="0 0 80 80" fill="none" xmlns="http://www.w3.org/2000/svg">
<rect width="80" height="80" rx="12" fill="#8246FF" fill-opacity="0.1"/>
<path fill-rule="evenodd" clip-rule="evenodd" d="M30.4136 12.0972C29.0539 12.5669 28.2631 14.0173 28.6279 15.3723C28.707 15.6662 29.734 17.3285 31.1757 19.4962C32.5041 21.4935 33.5662 23.1524 33.5359 23.1827C33.4844 23.2342 32.2124 23.6178 24.9466 25.7731C23.3382 26.2502 21.8724 26.6405 21.6893 26.6405C21.43 26.6405 21.119 26.4115 20.2779 25.6012C18.7382 24.1177 18.7464 24.121 16.5625 24.121C14.9233 24.121 14.7004 24.1457 14.2773 24.3744C12.9945 25.0679 12.439 26.3626 12.8334 27.7402C12.948 28.1407 13.5004 28.7567 16.0853 31.3669C17.838 33.1367 19.4 34.615 19.6585 34.7485C20.5629 35.2158 20.8779 35.1516 28.0853 33.0316C31.748 31.9543 34.7702 31.0982 34.8013 31.1293C34.8324 31.1605 34.6171 32.8658 34.323 34.919C34.0287 36.9724 33.7882 38.8924 33.7886 39.1859C33.7893 39.9474 34.2701 40.854 34.9048 41.2906C35.5613 41.7424 36.4199 41.9193 37.5986 41.8457C39.2107 41.7452 39.9402 41.1856 40.5646 39.5705C43.0673 33.0965 45.1723 27.7521 45.2433 27.6917C45.2922 27.6503 48.1797 26.7889 51.6602 25.7774C55.1406 24.766 58.1814 23.8549 58.4175 23.7528C58.9599 23.5183 59.5055 22.9587 59.7401 22.3962C59.983 21.8139 59.9663 20.8316 59.7036 20.2532C59.2069 19.1602 57.3032 17.9082 55.5859 17.5453C54.0386 17.2183 53.3416 17.3366 48.6783 18.7169C46.3939 19.3932 44.4691 19.9127 44.401 19.8714C44.333 19.8301 41.9814 18.0758 39.1752 15.973C35.1382 12.9479 33.9591 12.1209 33.5276 12.0123C32.6984 11.8034 31.1411 11.846 30.4136 12.0972ZM49.9609 13.5503C49.542 13.6866 49.1875 13.8033 49.1731 13.8098C49.1484 13.821 49.6307 15.4034 49.6852 15.4901C49.7236 15.5513 51.4844 15.0152 51.4844 14.9423C51.4844 14.6816 50.9437 13.2834 50.8461 13.2919C50.7782 13.2979 50.3799 13.4142 49.9609 13.5503ZM30.6994 13.9928C30.0652 14.4917 30.1533 14.6835 32.932 18.852C34.5885 21.3372 35.5271 22.6439 35.6277 22.6053C35.7126 22.5726 37.1134 22.1524 38.7407 21.6713C40.3679 21.1903 41.8284 20.7486 41.9861 20.6899C42.2495 20.5918 41.9008 20.3039 37.7189 17.1665L33.1649 13.7499H32.0866C31.173 13.7499 30.961 13.7871 30.6994 13.9928ZM63.2031 14.4624C62.8486 14.587 62.4952 14.7124 62.4179 14.741C62.3144 14.7791 62.3418 14.9887 62.5211 15.5312C62.6553 15.9372 62.8062 16.3148 62.8565 16.3703C62.9282 16.4496 64.4205 16.0546 64.5899 15.9117C64.6789 15.8367 64.0846 14.2194 63.9711 14.2272C63.9032 14.2319 63.5576 14.3377 63.2031 14.4624ZM22.3047 16.7605C20.5967 17.3083 19.1875 17.7676 19.1731 17.7813C19.1534 17.8 19.603 19.3129 19.6728 19.4621C19.6855 19.4895 26.0827 17.4965 26.1426 17.4464C26.2285 17.3744 25.6468 15.7439 25.5385 15.7532C25.4679 15.7594 24.0127 16.2126 22.3047 16.7605ZM15.6836 18.8496C15.0391 19.064 14.5117 19.283 14.5117 19.3365C14.5117 19.6374 14.9799 20.8983 15.0916 20.8983C15.2893 20.8983 17.545 20.1868 17.6443 20.093C17.7961 19.9497 17.237 18.4362 17.0366 18.4485C16.937 18.4548 16.3281 18.6352 15.6836 18.8496ZM53.5938 19.2229C53.3682 19.2488 46.249 21.3331 37.7734 23.8548C21.3359 28.7452 21.565 28.6866 20.6641 28.2258C20.4385 28.1104 19.7685 27.5484 19.1752 26.9767L18.0965 25.9374H16.5678C15.2018 25.9374 15.0145 25.962 14.8076 26.1689C14.4774 26.4991 14.4052 26.9119 14.6098 27.3017C14.7065 27.4859 16.0469 28.8891 17.5885 30.4198C19.9552 32.7699 20.4446 33.2032 20.7329 33.2041C20.9206 33.2047 24.2473 32.2732 28.1255 31.1341L35.1768 29.0632L35.2571 28.3714C35.3118 27.8991 35.3827 27.6971 35.4803 27.7345C35.5589 27.7647 35.9651 27.826 36.3831 27.8708L37.143 27.9521L36.3463 33.478C35.9082 36.5172 35.5768 39.1238 35.6098 39.2704C35.7419 39.8553 36.0505 39.9999 37.1671 39.9999C38.0914 39.9999 38.2265 39.9719 38.4382 39.7362C38.5684 39.5912 40.0347 35.9657 41.6965 31.6796C43.3584 27.3935 44.7362 23.8659 44.7585 23.8406C44.8075 23.785 46.2319 24.288 46.3601 24.4062C46.4099 24.4521 46.3673 24.6892 46.2653 24.9332C46.1635 25.1772 46.1059 25.4027 46.1376 25.4343C46.1692 25.466 48.7695 24.7435 51.9159 23.8289C57.9727 22.0681 58.1641 21.9911 58.1641 21.3153C58.1641 20.7687 56.6714 19.6824 55.5273 19.3964C54.8931 19.2378 54.0905 19.1657 53.5938 19.2229ZM64.1017 23.5116C63.6614 23.6534 63.2995 23.8107 63.2973 23.8612C63.2857 24.1353 63.7465 25.4687 63.8527 25.4687C63.9749 25.4687 65.4498 24.998 65.5274 24.9342C65.5873 24.8851 65.0412 23.2413 64.9671 23.248C64.9315 23.2512 64.5421 23.3699 64.1017 23.5116ZM56.4062 27.5182C55.5361 27.7978 53.9705 28.296 52.9271 28.6253L51.0299 29.2242L51.209 29.8271C51.5874 31.1015 51.112 31.0995 55.0771 29.8427C56.9975 29.2339 58.5931 28.7115 58.623 28.6816C58.6997 28.6049 58.1679 26.9902 58.0694 27.0009C58.0248 27.0058 57.2764 27.2385 56.4062 27.5182ZM47.746 30.2632C47.0111 30.4944 46.4124 30.7245 46.4154 30.7747C46.4384 31.1483 46.8573 32.3825 46.9607 32.3814C47.1156 32.3799 49.476 31.6177 49.5476 31.546C49.5752 31.5185 49.4816 31.124 49.3398 30.6693L49.082 29.8427L47.746 30.2632ZM61.6362 32.4358C61.4668 32.8591 61.3281 33.2501 61.3281 33.3046C61.3281 33.3592 61.7764 33.5772 62.3242 33.789C62.8721 34.0007 63.3203 34.2082 63.3203 34.2498C63.3203 34.2912 59.0883 35.6111 53.916 37.1827C48.7437 38.7542 44.5013 40.0458 44.4884 40.053C44.4345 40.0831 44.9648 41.7577 45.0283 41.7577C45.0666 41.7577 49.488 40.4214 54.8536 38.7882C60.2193 37.1548 64.6094 35.8618 64.6094 35.9146C64.6094 35.9676 64.3927 36.5524 64.1277 37.2144C63.8629 37.8762 63.6223 38.4779 63.593 38.5511C63.5424 38.6779 65.142 39.3903 65.2439 39.2862C65.3239 39.2048 67.4347 33.8792 67.3979 33.8519C67.3722 33.8328 63.98 32.4728 62.0757 31.7182C62.002 31.689 61.8093 32.0036 61.6362 32.4358ZM24.7311 36.5341C21.1994 37.6512 18.2871 38.5877 18.2596 38.6152C18.1529 38.722 18.7271 40.2343 18.8744 40.2343C19.0056 40.2343 31.695 36.2674 31.7616 36.2055C31.8128 36.1578 31.2865 34.4924 31.2218 34.4976C31.1836 34.5005 28.2627 35.4169 24.7311 36.5341ZM14.7461 39.6766C14.1016 39.8794 13.5611 40.0526 13.5449 40.0617C13.4702 40.1034 14.0329 41.7577 14.1218 41.7577C14.1775 41.7577 14.8063 41.5692 15.5192 41.3388C16.3381 41.074 16.7958 40.8691 16.7625 40.7821C16.7336 40.7064 16.6143 40.3413 16.4976 39.9706C16.3558 39.5205 16.2243 39.2987 16.1016 39.3023C16.0006 39.3055 15.3906 39.4739 14.7461 39.6766ZM18.4391 43.9795C17.6129 44.2647 16.9963 44.9096 16.747 45.7496C16.5893 46.2802 16.5625 47.2707 16.5625 52.5603V58.7499H14.2188H11.875V61.1895C11.875 64.1149 11.9765 64.5998 12.7509 65.3741C13.5963 66.2196 13.8082 66.2498 18.8983 66.2508L23.3008 66.2517L23.5697 66.7226C24.1371 67.7163 25.4161 68.2734 26.5213 68.0082C27.2611 67.8308 27.96 67.3271 28.3053 66.7226L28.5742 66.2517H39.5312H50.4883L50.7572 66.7226C51.1025 67.3271 51.8014 67.8308 52.5412 68.0082C53.6464 68.2734 54.9253 67.7163 55.4928 66.7226L55.7617 66.2517L60.633 66.2508C66.2427 66.2498 66.3934 66.2298 67.2491 65.3741C68.0235 64.5998 68.125 64.1149 68.125 61.1895V58.7499H65.7812H63.4375V52.5603C63.4375 45.4859 63.4394 45.5035 62.5616 44.6258C61.6163 43.6803 63.4089 43.7494 39.9494 43.7538C19.7826 43.7574 19.0605 43.765 18.4391 43.9795ZM18.7252 45.9126C18.4375 46.2002 18.4375 46.2005 18.4375 48.7251V51.2499H23.125H27.8125V48.4374V45.6249H25H22.1875V47.0312V48.4374H21.25H20.3125V47.0312V45.6249H19.6627C19.1289 45.6249 18.9613 45.6764 18.7252 45.9126ZM29.6875 48.4374V51.2499H34.375H39.0625V48.4374V45.6249H36.25H33.4375V47.0312V48.4374H32.5H31.5625V47.0312V45.6249H30.625H29.6875V48.4374ZM40.9375 48.4374V51.2499H45.625H50.3125V48.4374V45.6249H47.5H44.6875V47.0312V48.4374H43.75H42.8125V47.0312V45.6249H41.875H40.9375V48.4374ZM52.1875 48.4374V51.2499H56.875H61.5625V48.7251C61.5625 45.3523 61.8351 45.6249 58.4623 45.6249H55.9375V47.0312V48.4374H55H54.0625V47.0312V45.6249H53.125H52.1875V48.4374ZM18.4375 55.9374V58.7499H23.125H27.8125V55.9374V53.1249H25H22.1875V54.5312V55.9374H21.25H20.3125V54.5312V53.1249H19.375H18.4375V55.9374ZM29.6875 55.9374V58.7499H34.375H39.0625V55.9374V53.1249H36.25H33.4375V54.5312V55.9374H32.5H31.5625V54.5312V53.1249H30.625H29.6875V55.9374ZM40.9375 55.9374V58.7499H45.625H50.3125V55.9374V53.1249H47.5H44.6875V54.5312V55.9374H43.75H42.8125V54.5312V53.1249H41.875H40.9375V55.9374ZM52.1875 55.9374V58.7499H56.875H61.5625V55.9374V53.1249H58.75H55.9375V54.5312V55.9374H55H54.0625V54.5312V53.1249H53.125H52.1875V55.9374ZM13.75 62.2122C13.75 63.7414 13.7605 63.8102 14.0377 64.0872L14.3253 64.3749L18.8131 64.374L23.3008 64.3732L23.5697 63.9022C24.1371 62.9085 25.4161 62.3514 26.5213 62.6166C27.2611 62.7941 27.96 63.2977 28.3053 63.9022L28.5742 64.3732H39.5312H50.4883L50.7572 63.9022C51.3247 62.9085 52.6036 62.3514 53.7088 62.6166C54.4486 62.7941 55.1475 63.2977 55.4928 63.9022L55.7617 64.3732L60.7182 64.374L65.6747 64.3749L65.9623 64.0872C66.2395 63.8102 66.25 63.7414 66.25 62.2122V60.6249H40H13.75V62.2122ZM25.2877 64.6626C24.7063 65.2439 25.1182 66.2499 25.9375 66.2499C26.4193 66.2499 26.875 65.7942 26.875 65.3124C26.875 64.8307 26.4193 64.3749 25.9375 64.3749C25.7092 64.3749 25.469 64.4812 25.2877 64.6626ZM52.4752 64.6626C52.2938 64.8439 52.1875 65.0841 52.1875 65.3124C52.1875 65.5407 52.2938 65.7809 52.4752 65.9622C52.6565 66.1436 52.8967 66.2499 53.125 66.2499C53.3533 66.2499 53.5935 66.1436 53.7748 65.9622C53.9562 65.7809 54.0625 65.5407 54.0625 65.3124C54.0625 65.0841 53.9562 64.8439 53.7748 64.6626C53.5935 64.4812 53.3533 64.3749 53.125 64.3749C52.8967 64.3749 52.6565 64.4812 52.4752 64.6626Z" fill="#8246FF"/>
</svg>
