<svg width="122" height="144" viewBox="0 0 122 144" fill="none" xmlns="http://www.w3.org/2000/svg">
<path d="M121.105 71.9022C121.106 57.7526 115.785 44.1185 106.195 33.7005C96.6055 23.2826 83.4465 16.8406 69.3249 15.6506V0H68.0268V143.821H69.3249V128.17C83.4479 126.976 96.607 120.531 106.196 110.11C115.786 99.6895 121.107 86.0535 121.105 71.9022ZM69.3249 126.582V31.2689C81.1666 32.4442 92.1479 37.9725 100.135 46.7797C108.123 55.5869 112.546 67.0441 112.546 78.9255C112.546 90.8069 108.123 102.264 100.135 111.071C92.1479 119.878 81.1666 125.407 69.3249 126.582Z" fill="#ffffff"/>
<path d="M65.6576 0H64.3757V143.821H65.6576V0Z" fill="#ffffff"/>
<path d="M62.0065 0H60.7246V143.821H62.0065V0Z" fill="#ffffff"/>
<path d="M58.3553 0H57.0734V143.821H58.3553V0Z" fill="#ffffff"/>
<path d="M53.4214 15.5858C39.1633 16.6109 25.8229 22.9894 16.0845 33.4378C6.34611 43.8863 0.932281 57.6294 0.932281 71.9022C0.932281 86.1749 6.34611 99.918 16.0845 110.366C25.8229 120.815 39.1633 127.193 53.4214 128.218V143.821H54.7196V0H53.4214V15.5858ZM9.4628 64.8869C9.46549 52.8799 13.9854 41.3119 22.1269 32.4749C30.2685 23.638 41.4376 18.1769 53.4214 17.1736V112.616C41.4362 111.609 30.2669 106.145 22.1257 97.3052C13.9845 88.4656 9.46516 76.8957 9.4628 64.8869Z" fill="#ffffff"/>
</svg>
