<svg width="158" height="144" viewBox="0 0 158 144" fill="none" xmlns="http://www.w3.org/2000/svg">
<path d="M120.289 49.5402C120.29 39.7912 116.634 30.3974 110.046 23.2195C103.458 16.0416 94.4189 11.6031 84.7179 10.7832V0H83.8262V99.0916H84.7179V88.3084C94.4198 87.4859 103.46 83.0451 110.047 75.8653C116.635 68.6856 120.29 59.2904 120.289 49.5402ZM84.7179 87.2145V21.5441C92.8527 22.3539 100.396 26.1629 105.883 32.231C111.371 38.2991 114.409 46.1931 114.409 54.3793C114.409 62.5655 111.371 70.4595 105.883 76.5276C100.396 82.5957 92.8527 86.4046 84.7179 87.2145Z" fill="white"/>
<path d="M82.199 0H81.3184V99.0916H82.199V0Z" fill="white"/>
<path d="M79.6912 0H78.8105V99.0916H79.6912V0Z" fill="white"/>
<path d="M77.1834 0H76.3027V99.0916H77.1834V0Z" fill="white"/>
<path d="M73.7941 10.7386C63.9993 11.4448 54.8351 15.8396 48.1453 23.0385C41.4554 30.2374 37.7363 39.7064 37.7363 49.5402C37.7363 59.3741 41.4554 68.843 48.1453 76.042C54.8351 83.2409 63.9993 87.6356 73.7941 88.3419V99.0916H74.6859V0H73.7941V10.7386ZM43.5964 44.7068C43.5983 36.434 46.7032 28.4637 52.2961 22.3751C57.889 16.2865 65.5617 12.5238 73.7941 11.8325V77.5922C65.5608 76.8983 57.888 73.1332 52.2953 67.0428C46.7026 60.9524 43.598 52.9807 43.5964 44.7068Z" fill="white"/>
<path d="M153.374 131.721C153.374 129.913 154.132 129.02 156.183 128.975V135.07C155.375 134.98 154.632 134.582 154.109 133.958C153.586 133.335 153.323 132.534 153.374 131.721ZM148.915 143.23V143.788C151.445 143.587 152.616 142.303 153.285 139.702C154.076 136.51 154.645 136.007 156.194 135.784V143.676H158V128.227H156.963C153.965 128.227 151.468 129.153 151.468 132.033C151.468 133.663 152.861 135.036 154.812 135.449C153.184 135.94 151.992 137.001 151.301 139.591C150.609 142.18 150.007 143.073 148.882 143.252M132.506 143.922L144.556 131.085V143.699H146.429V128.004L134.379 140.863V128.227H132.506V143.922ZM126.61 143.699H128.493V128.227H126.632V135.539H116.421V128.227H114.548V143.699H116.421V136.186H126.632L126.61 143.699ZM96.5122 134.902C96.5122 130.906 98.9423 128.763 102.253 128.763C105.809 128.763 109.398 131.833 109.398 137.023C109.398 141.019 106.979 143.14 103.669 143.14C100.113 143.14 96.5122 140.093 96.5122 134.902ZM103 144C106.6 144 111.238 142.069 111.238 136.019C111.238 129.968 106.6 128.015 103 128.015C99.3993 128.015 94.7509 129.913 94.7509 135.963C94.7509 142.013 99.4105 144 103 144ZM75.8008 143.699H76.5922V131.721L83.1022 140.886L89.5898 131.721V143.654H91.4625V128.004H91.4068L83.8602 138.619L75.9568 128.004H75.8008V143.699ZM67.563 138.966V129.042C69.3131 129.466 71.1412 131.721 71.1412 134.947C71.1412 137.581 69.8593 138.899 67.563 138.966ZM65.7683 143.699H67.641V139.725C68.3898 139.716 69.1289 139.554 69.8124 139.247C70.4959 138.941 71.1091 138.497 71.614 137.943C72.119 137.389 72.5048 136.738 72.7475 136.028C72.9903 135.319 73.0848 134.567 73.0251 133.819C73.0251 130.281 70.0934 128.238 66.1696 128.238H65.7683V143.699ZM52.3917 139.825L56.0703 130.605L59.4144 139.814L52.3917 139.825ZM49.5269 143.699H50.8534L52.1353 140.517H59.7265L60.8413 143.699H63.0707L56.583 128.004H56.4827L49.5269 143.699ZM37.3988 144C40.0295 144 41.1999 142.314 42.1029 137.101L43.5408 128.975H44.9677V143.754H46.8181V128.227H42.8943L41.356 137.046C40.5757 141.511 39.5836 143.185 37.5548 143.185C35.9273 143.185 35.1247 141.946 34.8683 140.205H32.8061C33.0291 142.326 34.6454 143.944 37.3988 143.944M18.6715 143.944L30.7105 131.107V143.721H32.5943V128.004L20.4996 140.863V128.227H18.6269V143.922L18.6715 143.944ZM8.63906 142.147V129.578C10.1621 130.046 11.4845 131.012 12.3957 132.321C13.3068 133.63 13.7542 135.207 13.6664 136.8C13.7212 137.489 13.6311 138.181 13.4017 138.832C13.1724 139.484 12.809 140.08 12.3351 140.582C11.8612 141.084 11.2873 141.48 10.6507 141.746C10.014 142.012 9.32865 142.141 8.63906 142.125M1.78355 134.679C1.73234 133.992 1.82464 133.302 2.05459 132.653C2.28453 132.004 2.64705 131.41 3.11903 130.909C3.59101 130.408 4.16209 130.011 4.79583 129.743C5.42957 129.476 6.11207 129.343 6.79977 129.354V141.912C5.28003 141.436 3.96199 140.466 3.05366 139.157C2.14533 137.847 1.69845 136.271 1.78355 134.679ZM6.79977 143.699H8.60561V142.884C11.6934 142.593 15.4277 140.74 15.4277 135.739C15.4277 130.739 11.6934 128.897 8.60561 128.606V127.568H6.79977V128.606C3.68971 128.919 0 130.772 0 135.739C0 140.707 3.71201 142.571 6.79977 142.884V143.699Z" fill="white"/>
<path d="M117.937 112.465C117.937 111.349 118.327 111.059 119.051 110.992V114.207C118.271 114.095 117.937 113.202 117.937 112.465ZM115.228 118.727V119.207C115.865 119.213 116.481 118.981 116.955 118.555C117.429 118.13 117.728 117.542 117.792 116.908C118.137 115.345 118.516 114.954 119.085 114.809V119.152H120.389V110.434H119.865C118.082 110.434 116.677 110.958 116.677 112.577C116.715 113.025 116.888 113.452 117.172 113.801C117.457 114.149 117.84 114.404 118.271 114.53C117.792 114.708 117.374 115.018 117.066 115.426C116.758 115.833 116.573 116.32 116.532 116.83C116.22 118.214 115.796 118.66 115.284 118.727M108.985 116.908L110.858 112.231L112.553 116.908H108.985ZM107.235 119.14H108.094L108.796 117.399H112.742L113.377 119.14H114.815L111.159 110.3L107.235 119.14ZM106.522 119.196V118.716C105.998 118.649 105.574 118.203 105.262 116.819C104.95 115.434 104.27 114.72 103.356 114.474C103.849 114.377 104.294 114.115 104.62 113.732C104.946 113.349 105.133 112.867 105.151 112.365C105.363 111.248 105.586 110.947 105.953 110.835V110.367C105.375 110.406 104.83 110.654 104.42 111.064C104.011 111.475 103.763 112.02 103.724 112.599C103.501 113.715 103.211 114.006 102.71 114.128V110.434H101.327V119.152H102.665V114.887C103.178 115.044 103.512 115.412 103.835 116.908C103.913 117.549 104.224 118.139 104.71 118.564C105.196 118.988 105.821 119.218 106.466 119.207M96.5675 119.319C97.6121 119.333 98.6369 119.033 99.5103 118.46L99.0979 118.113C98.4774 118.555 97.7299 118.783 96.9688 118.761C94.9623 118.761 93.2122 117.12 93.2122 114.195C93.2122 111.963 94.3269 110.847 96.1662 110.847C96.68 110.84 97.1888 110.95 97.6541 111.168C98.1194 111.387 98.5292 111.708 98.8526 112.108L99.4769 111.114C98.609 110.559 97.5972 110.272 96.5675 110.288C94.4829 110.288 91.8634 111.405 91.8634 114.754C91.8634 118.102 94.4829 119.286 96.5675 119.286M87.7278 113.927V110.936H87.8281C88.3409 110.936 88.6195 111.282 88.6195 112.231C88.635 112.572 88.5607 112.911 88.4043 113.215C88.2478 113.519 88.0145 113.776 87.7278 113.961M87.7278 118.627V114.53C88.6864 114.407 89.2772 115.468 89.2772 116.696C89.2772 117.924 88.9317 118.627 87.8504 118.627H87.7278ZM86.4347 119.152H87.1816C89.5336 119.152 90.626 118.415 90.626 116.495C90.6544 115.905 90.4623 115.325 90.0873 114.869C89.7122 114.413 89.181 114.113 88.5972 114.028C88.9764 113.838 89.2988 113.551 89.5317 113.196C89.7646 112.841 89.8999 112.431 89.9238 112.007C89.9238 110.969 89.2549 110.434 87.4156 110.434H86.4347V119.152ZM76.5249 114.195C76.5249 111.963 77.6396 110.847 79.49 110.847C81.4853 110.847 83.2243 112.487 83.2243 115.412C83.2243 117.645 82.1096 118.761 80.2815 118.761C78.2861 118.761 76.5249 117.12 76.5249 114.195ZM79.869 119.319C81.9535 119.319 84.562 118.203 84.562 114.787C84.562 111.371 81.9535 110.322 79.869 110.322C77.7845 110.322 75.1761 111.438 75.1761 114.787C75.1761 118.136 77.7845 119.319 79.869 119.319ZM74.5741 119.207V118.727C74.0613 118.66 73.6377 118.214 73.3256 116.83C73.0135 115.446 72.3335 114.731 71.4195 114.486C71.9122 114.388 72.3576 114.126 72.6833 113.743C73.009 113.36 73.1961 112.879 73.2141 112.376C73.4259 111.26 73.6489 110.958 74.0167 110.847V110.378C73.4383 110.417 72.8937 110.665 72.4838 111.075C72.0739 111.486 71.8264 112.031 71.7873 112.61C71.5644 113.727 71.2745 114.017 70.7729 114.14V110.434H69.4353V119.152H70.7729V114.887C71.2857 115.044 71.6201 115.412 71.9434 116.908C72.0203 117.547 72.3302 118.135 72.8136 118.56C73.2971 118.984 73.9201 119.215 74.563 119.207M64.6754 119.319C65.72 119.333 66.7448 119.033 67.6183 118.46L67.2058 118.113C66.5812 118.556 65.8302 118.783 65.0656 118.761C63.0702 118.761 61.3201 117.12 61.3201 114.195C61.3201 111.963 62.4348 110.847 64.2741 110.847C64.788 110.84 65.2967 110.95 65.762 111.168C66.2273 111.387 66.6371 111.708 66.9606 112.108L67.5848 111.114C66.713 110.547 65.6927 110.252 64.6531 110.266C62.5575 110.266 59.949 111.382 59.949 114.731C59.949 118.08 62.5575 119.263 64.6531 119.263M50.4628 114.195C50.4628 111.963 51.5775 110.847 53.4168 110.847C55.4233 110.847 57.1622 112.487 57.1622 115.412C57.1622 117.645 56.0475 118.761 54.2194 118.761C52.2129 118.761 50.4628 117.12 50.4628 114.195ZM53.8069 119.319C54.4194 119.35 55.0317 119.255 55.6066 119.041C56.1815 118.828 56.707 118.499 57.1513 118.076C57.5955 117.652 57.9492 117.143 58.1909 116.579C58.4326 116.014 58.5572 115.407 58.5572 114.793C58.5572 114.178 58.4326 113.571 58.1909 113.006C57.9492 112.442 57.5955 111.933 57.1513 111.509C56.707 111.086 56.1815 110.758 55.6066 110.544C55.0317 110.33 54.4194 110.236 53.8069 110.266C51.7224 110.266 49.114 111.382 49.114 114.731C49.114 118.08 51.7224 119.263 53.8069 119.263M38.4238 119.096H39.0146V112.979L42.4925 117.901L45.9482 112.979V119.096H47.2747V110.311L43.0276 116.294L38.5687 110.311H38.513L38.4238 119.096Z" fill="white"/>
</svg>
