<svg width="272" height="240" viewBox="0 0 272 240" fill="none" xmlns="http://www.w3.org/2000/svg">
<path d="M188.468 87.3618C212.458 87.3618 232 67.8082 232 43.8044H230.787C230.787 67.1339 211.784 86.1481 188.468 86.1481C173.913 86.1481 160.975 78.7312 153.427 67.4036C160.301 75.7645 170.544 81.0237 182.134 81.0237C202.62 81.0237 219.331 64.302 219.331 43.8044H218.118C218.118 63.6277 202.08 79.6752 182.269 79.6752C169.735 79.6752 158.684 73.2023 152.349 63.4929C158.01 70.2355 166.5 74.5508 175.935 74.5508C192.916 74.5508 206.663 60.7958 206.663 43.8044H205.45C205.45 60.1215 192.242 73.3371 175.935 73.3371C165.827 73.3371 156.797 68.2127 151.541 60.3913C156.123 65.5157 162.727 68.7521 170.139 68.7521C183.886 68.7521 195.072 57.5593 195.072 43.8044H193.859C193.859 56.8851 183.212 67.5385 170.139 67.5385C161.918 67.5385 154.64 63.358 150.328 56.8851C153.832 60.661 158.818 62.9535 164.209 62.9535C174.722 62.9535 183.347 54.3229 183.347 43.8044H182.134C182.134 53.6486 174.182 61.6049 164.344 61.6049C155.179 61.6049 146.15 53.6486 146.554 45.5575C146.554 44.3438 146.958 43.5347 147.093 43.3998C148.171 43.6695 149.115 43.8044 150.328 43.8044C158.01 43.8044 164.074 37.6012 164.074 30.0494C164.074 22.4976 157.875 16.2944 150.328 16.2944C142.78 16.2944 136.581 22.4976 136.581 30.0494C136.581 30.3191 136.581 30.7236 136.581 30.9933L74.4505 19.8006C65.825 16.699 59.0864 10.0912 55.7171 2L51 32.207C56.6605 25.5992 65.0164 21.4188 73.9114 21.0142L136.85 32.3419C137.659 37.3314 141.028 41.377 146.015 43.1301C145.88 43.3998 145.476 43.9392 145.476 43.9392C140.759 50.1424 132.807 53.5138 124.721 52.0304C113.669 50.1425 106.122 40.0285 107.066 29.1054L100.192 27.8918C98.9792 40.9725 107.874 52.9743 121.082 55.2668C130.651 57.0199 139.95 52.9743 145.611 45.6923C139.276 55.6714 135.503 67.4036 135.503 80.0798C135.503 115.411 164.074 144 199.385 144C199.924 144 200.328 144 200.867 144L200.733 116.625C170.139 115.816 145.745 86.283 145.745 55.5366C145.745 53.3789 145.88 51.3561 146.15 49.3333C148.036 70.6401 166.366 87.3618 188.468 87.3618Z" fill="white"/>
<path d="M148.288 2.62511C148.423 2.35924 148.557 2.09337 148.96 1.96043C150.707 1.02989 155.007 1.16286 159.441 2.4922C165.756 4.35329 169.115 7.14491 168.712 8.47425C168.577 8.74012 168.443 9.00599 168.04 9.13893C166.293 10.0695 161.993 9.9365 157.559 8.60716C151.244 6.74607 147.885 3.82152 148.288 2.62511ZM157.291 9.8036C159.978 10.6012 162.531 11 164.681 11C166.428 11 167.771 10.7341 168.712 10.2024C169.384 9.80358 169.787 9.40477 169.921 8.7401C170.727 5.94848 165.218 2.75807 159.709 1.16286C154.872 -0.166484 150.438 -0.432377 148.288 0.764033C147.616 1.16284 147.213 1.56165 147.079 2.22632C146.273 5.01794 151.782 8.20839 157.291 9.8036Z" fill="white"/>
<path fill-rule="evenodd" clip-rule="evenodd" d="M272 120.5H0V119.5H272V120.5Z" fill="white"/>
<path fill-rule="evenodd" clip-rule="evenodd" d="M272 126.5H0V125.5H272V126.5Z" fill="white"/>
<path fill-rule="evenodd" clip-rule="evenodd" d="M272 132.5H0V131.5H272V132.5Z" fill="white"/>
<path fill-rule="evenodd" clip-rule="evenodd" d="M272 138.5H0V137.5H272V138.5Z" fill="white"/>
<path fill-rule="evenodd" clip-rule="evenodd" d="M272 144.5H0V143.5H272V144.5Z" fill="white"/>
</svg>
