<svg width="163" height="163" viewBox="0 0 163 163" fill="none" xmlns="http://www.w3.org/2000/svg">
<path d="M122.75 49.5959C122.75 29.1914 107.119 12.4432 87.1998 10.792V0H86.3184V99.1917H87.1998V88.3998C107.119 86.7485 122.75 70.0004 122.75 49.5959ZM87.1998 87.2793V21.525C103.829 23.1762 116.874 37.2706 116.874 54.3726C116.874 71.4747 103.888 85.5691 87.1998 87.2203V87.2793Z" fill="white"/>
<path d="M84.7315 0H83.8501V99.1917H84.7315V0Z" fill="white"/>
<path d="M82.2051 0H81.3237V99.1917H82.2051V0Z" fill="white"/>
<path d="M79.7374 0H78.856V99.1917H79.7374V0Z" fill="white"/>
<path d="M76.3289 10.733C56.1743 12.1483 40.3091 29.0145 40.3091 49.5959C40.3091 70.1773 56.233 86.9844 76.3289 88.4587V99.1917H77.2103V0H76.3289V10.733ZM46.1851 44.7601C46.1851 27.4222 59.4648 13.2688 76.3289 11.8535V77.6668C59.4648 76.2514 46.1851 62.0391 46.1851 44.7601Z" fill="white"/>
<path d="M157.888 143.775C159.533 143.775 161.472 143.362 163 142.36L162.471 141.888C161.413 142.595 160.121 143.008 158.593 143.008C155.067 143.008 151.542 140.001 151.542 134.87C151.542 129.74 153.951 128.796 157.183 128.796C160.415 128.796 160.708 129.504 162.06 130.978L163 129.504C161.472 128.442 159.592 128.029 157.888 128.029C154.362 128.029 149.779 129.975 149.779 135.932C149.779 141.888 154.362 143.834 157.888 143.834M144.667 143.539H146.488V128.265H144.667V143.539ZM140.73 143.716V128.206H138.908V140.708L127.039 128.029V143.539H128.86V131.096L140.73 143.775V143.716ZM109.293 134.811C109.293 130.86 111.703 128.737 114.934 128.737C118.166 128.737 121.986 131.745 121.986 136.875C121.986 142.006 119.576 142.89 116.345 142.89C113.113 142.89 109.293 139.883 109.293 134.752M115.639 143.775C119.165 143.775 123.748 141.888 123.748 135.873C123.748 129.857 119.165 127.97 115.639 127.97C112.114 127.97 107.531 129.916 107.531 135.873C107.531 141.829 112.114 143.775 115.639 143.775ZM85.4369 143.539H86.6709L90.1965 130.86L95.1911 141.18L100.538 130.86L104.123 143.598H106.238L101.302 128.088H101.185L95.7787 138.408L90.3727 128.088H90.2552L85.3194 143.598L85.4369 143.539ZM77.2105 134.988V128.973C78.8558 129.209 79.9135 130.506 79.9135 132.393C79.9135 134.28 79.0908 134.752 77.2105 134.929M77.2105 143.539V135.755C78.6795 135.991 79.2671 136.521 80.031 139.588C80.6774 142.183 81.8526 143.421 84.3792 143.598V143.067C83.2628 142.89 82.6164 141.888 81.9701 139.47C81.3237 136.934 80.1485 135.873 78.5032 135.401C80.5011 134.988 81.8525 133.75 81.8525 131.863C81.8525 129.209 79.2671 128.206 76.0353 128.206H75.389V143.48H77.2105V143.539ZM62.2267 139.706L65.8699 130.624L69.2192 139.706H62.2267ZM59.4063 143.539H60.699L61.9329 140.414H69.3955L70.5707 143.539H72.7448L66.3399 128.029H66.2224L59.3475 143.539H59.4063ZM54.9405 143.539H56.7621V128.265H54.9405V135.46H44.8926V128.265H43.071V143.539H44.8926V136.168H54.9405V143.539ZM33.3756 143.539H40.3093V142.301L35.1972 142.831V128.265H33.3756V143.539ZM27.6172 143.539H29.4387V128.265H27.6172V143.539ZM21.8587 143.539H23.6802V128.265H21.8587V135.46H11.8107V128.265H9.98918V143.539H11.8107V136.168H21.8587V143.539ZM1.88032 138.821V129.032C3.58436 129.445 5.40592 131.686 5.40592 134.87C5.40592 138.055 4.17196 138.762 1.88032 138.821ZM0.0587635 143.539H1.88032V139.588C3.93692 139.47 7.16872 138.232 7.16872 133.75C7.16872 129.268 4.28948 128.206 0.411327 128.206H0V143.48L0.0587635 143.539Z" fill="white"/>
<path d="M102.888 119.36H102.947L105.944 113.876L108.999 119.36H109.058L111.82 110.632H110.997L109.117 117.414L106.355 111.93L103.417 117.414L101.537 110.632H100.068L102.83 119.36H102.888ZM91.1364 114.407C91.1364 112.225 92.2529 111.104 94.0744 111.104C95.896 111.104 97.7763 112.756 97.7763 115.586C97.7763 118.417 96.6599 118.889 94.8971 118.889C93.1343 118.889 91.1952 117.237 91.1952 114.407M94.427 119.419C96.4836 119.419 99.069 118.299 99.069 114.937C99.069 111.576 96.4836 110.456 94.427 110.456C92.3704 110.456 89.7849 111.576 89.7849 114.937C89.7849 118.299 92.3704 119.419 94.427 119.419ZM85.4955 119.419C86.4356 119.419 87.4933 119.183 88.3747 118.594L87.9634 118.24C87.4346 118.653 86.7294 118.889 85.848 118.889C83.8502 118.889 82.1461 117.237 82.1461 114.407C82.1461 111.576 83.2626 111.104 85.0841 111.104C86.9057 111.104 87.082 111.517 87.7283 112.343L88.3159 111.34C87.4345 110.75 86.3769 110.515 85.4367 110.515C83.3801 110.515 80.7947 111.635 80.7947 114.996C80.7947 118.358 83.3801 119.478 85.4367 119.478M76.6815 119.419C77.7392 119.419 79.502 118.83 79.502 117.002C79.502 115.173 78.3855 114.82 77.1516 114.23C76.0351 113.64 75.565 113.168 75.565 112.343C75.565 111.517 75.9764 111.163 76.6815 111.163C77.3866 111.163 77.9154 111.576 78.503 112.343L79.0906 111.34C78.4443 110.809 77.6216 110.574 76.9753 110.574C75.8001 110.574 74.3898 111.163 74.3898 112.755C74.3898 114.348 75.3888 114.702 76.564 115.35C77.7392 115.999 78.3268 116.471 78.3268 117.473C78.3268 118.476 77.7392 118.889 77.034 118.889C76.3289 118.889 75.4475 118.417 74.8012 117.591L74.2136 118.594C74.9187 119.183 75.8588 119.478 76.6815 119.478M64.9883 114.407C64.9883 112.225 66.1047 111.104 67.9263 111.104C69.7478 111.104 71.6281 112.756 71.6281 115.586C71.6281 118.417 70.5117 118.889 68.7489 118.889C66.9861 118.889 65.047 117.237 65.047 114.407M68.2788 119.419C70.3354 119.419 72.9209 118.299 72.9209 114.937C72.9209 111.576 70.3354 110.456 68.2788 110.456C66.2222 110.456 63.6368 111.576 63.6368 114.937C63.6368 118.299 66.2222 119.419 68.2788 119.419ZM51.1797 119.301H52.0023L53.8826 112.52L56.6444 118.004L59.5823 112.52L61.4627 119.301H62.9317L60.1699 110.574H60.1112L57.1144 116.058L54.0589 110.574H54.0002L51.2385 119.301H51.1797Z" fill="white"/>
<path d="M101.654 162.764H103.006V159.167L105.474 154.154H104.651L102.595 158.872L100.42 154.154H98.9514L101.713 159.403V162.764H101.654ZM94.7207 162.764H96.0135V154.744L98.4226 155.098V154.213H92.2528V155.098L94.662 154.744V162.764H94.7207ZM87.7283 162.764H91.6065V161.88L89.021 162.234V158.459L91.2539 158.636V157.693L89.021 157.87V154.803L91.6065 155.157V154.272H87.7283V162.882V162.764ZM84.2027 162.764H85.5542V154.154H84.2027V162.764ZM79.5607 162.941C80.5008 162.941 81.5585 162.705 82.4399 162.116L82.0286 161.762C81.4998 162.175 80.7946 162.41 79.9132 162.41C77.9154 162.41 76.2114 160.759 76.2114 157.929C76.2114 155.098 77.3278 154.626 79.1494 154.626C80.9709 154.626 81.1472 155.039 81.7936 155.865L82.3812 154.862C81.4998 154.272 80.4421 154.036 79.5019 154.036C77.4453 154.036 74.8599 155.157 74.8599 158.518C74.8599 161.88 77.4453 163 79.5019 163M65.5171 157.87C65.5171 155.688 66.6335 154.567 68.4551 154.567C70.2766 154.567 72.1569 156.218 72.1569 159.049C72.1569 161.88 71.0405 162.352 69.2777 162.352C67.5149 162.352 65.5758 160.7 65.5758 157.87M68.8076 162.941C70.8642 162.941 73.4496 161.821 73.4496 158.459C73.4496 155.098 70.8642 153.977 68.8076 153.977C66.751 153.977 64.1656 155.098 64.1656 158.459C64.1656 161.821 66.751 162.941 68.8076 162.941ZM60.0524 162.882C61.1101 162.882 62.8729 162.293 62.8729 160.464C62.8729 158.636 61.7564 158.282 60.5225 157.693C59.406 157.103 58.9359 156.631 58.9359 155.806C58.9359 154.98 59.3473 154.626 60.0524 154.626C60.7575 154.626 61.2863 155.039 61.8739 155.806L62.4615 154.803C61.8152 154.272 60.9926 154.036 60.3462 154.036C59.171 154.036 57.7607 154.626 57.7607 156.218C57.7607 157.811 58.7597 158.164 59.9349 158.813C61.1101 159.462 61.6977 159.934 61.6977 160.936C61.6977 161.939 61.1101 162.352 60.4049 162.352C59.6998 162.352 58.8184 161.88 58.1721 161.054L57.5845 162.057C58.2896 162.646 59.2298 162.941 60.0524 162.941" fill="white"/>
</svg>
