<svg width="209" height="209" viewBox="0 0 209 209" fill="none" xmlns="http://www.w3.org/2000/svg">
<path d="M157.39 63.5923C157.39 37.4294 137.349 15.9548 111.808 13.8376V0H110.678V127.184H111.808V113.347C137.349 111.23 157.39 89.7551 157.39 63.5923ZM111.808 111.91V27.5995C133.13 29.7167 149.856 47.7887 149.856 69.7171C149.856 91.6454 133.205 109.717 111.808 111.835V111.91Z" fill="#1A1A1A"/>
<path d="M108.644 0H107.514V127.184H108.644V0Z" fill="#1A1A1A"/>
<path d="M105.404 0H104.274V127.184H105.404V0Z" fill="#1A1A1A"/>
<path d="M102.24 0H101.11V127.184H102.24V0Z" fill="#1A1A1A"/>
<path d="M97.8697 13.7619C72.0273 15.5767 51.6848 37.2026 51.6848 63.5923C51.6848 89.9819 72.1026 111.532 97.8697 113.423V127.184H98.9999V0H97.8697V13.7619ZM59.2191 57.3918C59.2191 35.161 76.2464 17.0134 97.8697 15.1986V99.585C76.2464 97.7702 59.2191 79.547 59.2191 57.3918Z" fill="#1A1A1A"/>
<path d="M202.445 184.35C204.555 184.35 207.041 183.82 209 182.535L208.322 181.93C206.966 182.837 205.308 183.367 203.349 183.367C198.829 183.367 194.308 179.51 194.308 172.932C194.308 166.353 197.397 165.143 201.541 165.143C205.685 165.143 206.062 166.051 207.794 167.941L209 166.051C207.041 164.69 204.63 164.16 202.445 164.16C197.925 164.16 192.048 166.656 192.048 174.293C192.048 181.93 197.925 184.425 202.445 184.425M185.493 184.047H187.829V164.463H185.493V184.047ZM180.445 184.274V164.387H178.11V180.418L162.89 164.16V184.047H165.226V168.092L180.445 184.35V184.274ZM140.137 172.856C140.137 167.79 143.226 165.068 147.37 165.068C151.514 165.068 156.411 168.924 156.411 175.503C156.411 182.081 153.322 183.215 149.178 183.215C145.034 183.215 140.137 179.359 140.137 172.78M148.274 184.35C152.794 184.35 158.671 181.93 158.671 174.217C158.671 166.504 152.794 164.085 148.274 164.085C143.753 164.085 137.877 166.58 137.877 174.217C137.877 181.854 143.753 184.35 148.274 184.35ZM109.548 184.047H111.13L115.651 167.79L122.055 181.022L128.911 167.79L133.507 184.123H136.219L129.89 164.236H129.74L122.808 177.469L115.877 164.236H115.726L109.397 184.123L109.548 184.047ZM99 173.083V165.37C101.11 165.673 102.466 167.336 102.466 169.756C102.466 172.176 101.411 172.78 99 173.007M99 184.047V174.066C100.884 174.368 101.637 175.049 102.616 178.981C103.445 182.308 104.952 183.896 108.192 184.123V183.442C106.76 183.215 105.931 181.93 105.103 178.83C104.274 175.578 102.767 174.217 100.658 173.612C103.219 173.083 104.952 171.495 104.952 169.075C104.952 165.673 101.637 164.387 97.4931 164.387H96.6644V183.971H99V184.047ZM79.7877 179.132L84.4589 167.487L88.7534 179.132H79.7877ZM76.1712 184.047H77.8288L79.4109 180.039H88.9794L90.4863 184.047H93.274L85.0616 164.16H84.911L76.0959 184.047H76.1712ZM70.4452 184.047H72.7808V164.463H70.4452V173.688H57.5616V164.463H55.226V184.047H57.5616V174.595H70.4452V184.047ZM42.7945 184.047H51.6849V182.459L45.1301 183.14V164.463H42.7945V184.047ZM35.411 184.047H37.7466V164.463H35.411V184.047ZM28.0274 184.047H30.363V164.463H28.0274V173.688H15.1438V164.463H12.8082V184.047H15.1438V174.595H28.0274V184.047ZM2.41097 177.998V165.446C4.5959 165.975 6.93152 168.848 6.93152 172.932C6.93152 177.015 5.34932 177.922 2.41097 177.998ZM0.0753471 184.047H2.41097V178.981C5.04795 178.83 9.19179 177.242 9.19179 171.495C9.19179 165.748 5.50001 164.387 0.527406 164.387H0V183.971L0.0753471 184.047Z" fill="#1A1A1A"/>
<path d="M131.925 153.045H132L135.842 146.013L139.76 153.045H139.836L143.377 141.854H142.322L139.911 150.55L136.37 143.517L132.603 150.55L130.192 141.854H128.308L131.849 153.045H131.925ZM116.856 146.693C116.856 143.895 118.288 142.459 120.623 142.459C122.959 142.459 125.37 144.576 125.37 148.205C125.37 151.835 123.938 152.44 121.678 152.44C119.418 152.44 116.932 150.323 116.932 146.693M121.075 153.12C123.712 153.12 127.027 151.684 127.027 147.374C127.027 143.064 123.712 141.627 121.075 141.627C118.438 141.627 115.123 143.064 115.123 147.374C115.123 151.684 118.438 153.12 121.075 153.12ZM109.623 153.12C110.829 153.12 112.185 152.818 113.315 152.062L112.788 151.608C112.11 152.137 111.205 152.44 110.075 152.44C107.514 152.44 105.329 150.323 105.329 146.693C105.329 143.064 106.76 142.459 109.096 142.459C111.431 142.459 111.658 142.988 112.486 144.047L113.24 142.761C112.11 142.005 110.753 141.703 109.548 141.703C106.911 141.703 103.596 143.139 103.596 147.449C103.596 151.759 106.911 153.196 109.548 153.196M98.3219 153.12C99.6781 153.12 101.938 152.364 101.938 150.02C101.938 147.676 100.507 147.222 98.9246 146.466C97.4931 145.71 96.8904 145.105 96.8904 144.047C96.8904 142.988 97.4178 142.534 98.3219 142.534C99.226 142.534 99.9041 143.064 100.658 144.047L101.411 142.761C100.582 142.081 99.5274 141.778 98.6986 141.778C97.1918 141.778 95.3836 142.534 95.3836 144.576C95.3836 146.618 96.6644 147.071 98.1712 147.903C99.6781 148.735 100.431 149.34 100.431 150.625C100.431 151.911 99.6781 152.44 98.774 152.44C97.8699 152.44 96.7397 151.835 95.9109 150.776L95.1575 152.062C96.0616 152.818 97.2671 153.196 98.3219 153.196M83.3288 146.693C83.3288 143.895 84.7603 142.459 87.0959 142.459C89.4315 142.459 91.8425 144.576 91.8425 148.205C91.8425 151.835 90.411 152.44 88.1507 152.44C85.8904 152.44 83.4041 150.323 83.4041 146.693M87.548 153.12C90.1849 153.12 93.5 151.684 93.5 147.374C93.5 143.064 90.1849 141.627 87.548 141.627C84.911 141.627 81.5959 143.064 81.5959 147.374C81.5959 151.684 84.911 153.12 87.548 153.12ZM65.6233 152.969H66.6781L69.089 144.273L72.6301 151.306L76.3973 144.273L78.8082 152.969H80.6918L77.1507 141.778H77.0753L73.2329 148.81L69.3151 141.778H69.2397L65.6986 152.969H65.6233Z" fill="#1A1A1A"/>
<path d="M130.343 208.698H132.075V204.085L135.24 197.658H134.185L131.548 203.707L128.76 197.658H126.877L130.418 204.388V208.698H130.343ZM121.452 208.698H123.11V198.414L126.199 198.868V197.733H118.288V198.868L121.377 198.414V208.698H121.452ZM112.486 208.698H117.459V207.563L114.144 208.017V203.178L117.007 203.405V202.195L114.144 202.422V198.49L117.459 198.943V197.809H112.486V208.849V208.698ZM107.966 208.698H109.699V197.658H107.966V208.698ZM102.014 208.924C103.219 208.924 104.575 208.622 105.706 207.866L105.178 207.412C104.5 207.941 103.596 208.244 102.466 208.244C99.9042 208.244 97.7193 206.127 97.7193 202.497C97.7193 198.868 99.1508 198.263 101.486 198.263C103.822 198.263 104.048 198.792 104.877 199.851L105.63 198.565C104.5 197.809 103.144 197.507 101.938 197.507C99.3014 197.507 95.9864 198.943 95.9864 203.253C95.9864 207.563 99.3014 209 101.938 209M84.0069 202.422C84.0069 199.624 85.4384 198.187 87.774 198.187C90.1097 198.187 92.5206 200.304 92.5206 203.934C92.5206 207.563 91.0891 208.168 88.8288 208.168C86.5686 208.168 84.0823 206.051 84.0823 202.422M88.2261 208.924C90.8631 208.924 94.1782 207.488 94.1782 203.178C94.1782 198.868 90.8631 197.431 88.2261 197.431C85.5891 197.431 82.2741 198.868 82.2741 203.178C82.2741 207.488 85.5891 208.924 88.2261 208.924ZM77.0001 208.849C78.3562 208.849 80.6165 208.093 80.6165 205.749C80.6165 203.404 79.185 202.951 77.6028 202.195C76.1713 201.439 75.5686 200.834 75.5686 199.775C75.5686 198.716 76.096 198.263 77.0001 198.263C77.9042 198.263 78.5823 198.792 79.3357 199.775L80.0891 198.49C79.2603 197.809 78.2056 197.507 77.3768 197.507C75.8699 197.507 74.0617 198.263 74.0617 200.304C74.0617 202.346 75.3425 202.8 76.8494 203.631C78.3562 204.463 79.1097 205.068 79.1097 206.353C79.1097 207.639 78.3562 208.168 77.4521 208.168C76.548 208.168 75.4179 207.563 74.5891 206.505L73.8357 207.79C74.7398 208.546 75.9453 208.924 77.0001 208.924" fill="#1A1A1A"/>
</svg>
