<svg width="170" height="20" viewBox="0 0 170 20" fill="none" xmlns="http://www.w3.org/2000/svg">
<path d="M3.34821 0.764648V8.68967H3.86843L9.54101 0.764648H13.5976L6.91225 9.0992C9.59636 9.59174 10.7253 11.3461 11.5721 13.676C12.2583 15.6241 12.8062 17.4891 13.6529 19.2434H10.0336C9.37499 17.9816 8.96545 16.4487 8.50058 15.0485C7.75899 12.8016 6.7739 11.1856 4.11193 11.1856H3.34268V19.2434H0V0.764648H3.34821Z" fill="#E5E5E5"/>
<path d="M20.0419 0.764648L23.1688 7.97575C23.6613 9.18221 24.0708 10.278 24.4859 11.3738H24.5689C24.8456 10.5215 25.1722 9.37037 25.637 7.92041L28.0223 0.764648H31.5863L27.9393 10.0566C26.8712 12.7407 25.72 15.541 24.3752 17.2677C23.1688 18.773 21.7133 19.6253 19.7984 19.6253C18.9738 19.6253 18.4813 19.5423 18.0717 19.3763L18.3208 16.6645C18.6196 16.7475 18.9794 16.7752 19.4996 16.7752C21.0602 16.7752 22.0232 15.458 22.4881 14.4176C22.6541 14.0634 22.5987 13.8144 22.4327 13.4325L16.2344 0.764648H20.0419Z" fill="#E5E5E5"/>
<path d="M46.7081 0.764648V19.2434H43.3377V3.53176H38.2905V8.4683C38.2905 12.8846 37.881 16.9135 35.1913 18.6125C34.3667 19.0774 33.1879 19.4925 31.904 19.4925L31.4668 16.7807C32.3191 16.67 33.0551 16.2605 33.4979 15.7956C34.7873 14.5061 35.0032 11.573 35.0032 8.72287V0.764648H46.7081Z" fill="#E5E5E5"/>
<path d="M54.6431 0.764648V7.42786C55.2187 7.31718 56.2038 7.26183 56.9177 7.26183C60.7806 7.26183 64.1565 9.07153 64.1565 13.1558C64.1565 14.9101 63.5809 16.2273 62.701 17.157C61.0296 18.8837 58.1795 19.4316 55.4345 19.4316C53.5695 19.4316 52.1693 19.2933 51.2949 19.1826V0.764648H54.6431ZM54.6431 16.7752C55.1357 16.8582 55.6836 16.8859 56.3698 16.8859C58.672 16.8859 60.6201 15.7624 60.6201 13.3218C60.6201 10.8535 58.6721 9.89613 56.3975 9.89613C55.7943 9.89613 55.191 9.95147 54.6431 10.0068V16.7752Z" fill="#E5E5E5"/>
<path d="M69.0599 3.58711H63.7969V0.764648H77.7542V3.58711H72.4358V19.2434H69.0655V3.58711H69.0599Z" fill="#E5E5E5"/>
<path d="M82.8779 0.764648L86.0047 7.97575C86.4972 9.18221 86.9068 10.278 87.3219 11.3738H87.4049C87.6816 10.5215 88.0081 9.37037 88.473 7.92041L90.8582 0.764648H94.4223L90.7752 10.0566C89.7071 12.7407 88.556 15.541 87.2112 17.2677C86.0047 18.773 84.5492 19.6253 82.6344 19.6253C81.8098 19.6253 81.3172 19.5423 80.9077 19.3763L81.1567 16.6645C81.4556 16.7475 81.8153 16.7752 82.3355 16.7752C83.8962 16.7752 84.8591 15.458 85.324 14.4176C85.49 14.0634 85.4347 13.8144 85.2686 13.4325L79.0703 0.764648H82.8779Z" fill="#E5E5E5"/>
<path d="M96.918 1.00784C98.1521 0.786468 99.8234 0.625977 102.07 0.625977C104.539 0.625977 106.321 1.14619 107.499 2.13129C108.595 3.03337 109.309 4.48887 109.309 6.21555C109.309 7.9699 108.761 9.39773 107.748 10.3828C106.376 11.7276 104.295 12.3862 101.91 12.3862C101.279 12.3862 100.731 12.3585 100.266 12.2479V19.2376H96.9235V1.00784H96.918ZM100.266 9.58589C100.703 9.72425 101.224 9.75192 101.91 9.75192C104.433 9.75192 105.966 8.49012 105.966 6.3539C105.966 4.29517 104.539 3.22707 102.209 3.22707C101.279 3.22707 100.62 3.31008 100.261 3.39309V9.58589H100.266Z" fill="#E5E5E5"/>
<path d="M114.677 14.0081L113.088 19.2434H109.607L115.529 0.764648H119.835L125.839 19.2434H122.192L120.521 14.0081H114.677ZM119.967 11.4568L118.512 6.90764C118.158 5.78419 117.853 4.52239 117.582 3.45428H117.527C117.25 4.52239 116.951 5.81187 116.647 6.90764L115.219 11.4568H119.967Z" fill="#E5E5E5"/>
<path d="M128.553 17.3758C128.553 16.114 129.433 15.2119 130.634 15.2119C131.868 15.2119 132.714 16.0919 132.714 17.3758C132.714 18.6099 131.89 19.5397 130.606 19.5397C129.399 19.5397 128.553 18.6099 128.553 17.3758Z" fill="#E5E5E5"/>
<path d="M136.256 1.00784C137.49 0.786468 139.161 0.625977 141.408 0.625977C143.877 0.625977 145.659 1.14619 146.837 2.13129C147.933 3.03337 148.647 4.48887 148.647 6.21555C148.647 7.9699 148.099 9.39773 147.086 10.3828C145.714 11.7276 143.633 12.3862 141.248 12.3862C140.617 12.3862 140.069 12.3585 139.604 12.2479V19.2376H136.261V1.00784H136.256ZM139.599 9.58589C140.036 9.72425 140.556 9.75192 141.242 9.75192C143.766 9.75192 145.299 8.49012 145.299 6.3539C145.299 4.29517 143.871 3.22707 141.541 3.22707C140.611 3.22707 139.953 3.31008 139.593 3.39309V9.58589H139.599Z" fill="#E5E5E5"/>
<path d="M162.158 0V1.64367C166.076 1.86504 170 4.19495 170 9.95055C170 15.7061 166.131 17.9807 162.102 18.2851V19.9841H158.92V18.2851C154.974 18.0084 151.078 15.8445 151.078 10.0889C151.078 4.1396 155.411 1.89271 158.975 1.64367V0H162.158ZM158.948 3.97911C156.972 4.17281 154.504 5.67812 154.504 10.0114C154.504 13.9573 156.806 15.684 158.948 15.9331V3.97911ZM162.13 15.9331C164.211 15.7394 166.574 14.1787 166.574 9.95608C166.574 5.67812 164.299 4.17281 162.13 3.97911V15.9331Z" fill="#E5E5E5"/>
</svg>
