<svg width="40" height="48" viewBox="0 0 40 48" fill="none" xmlns="http://www.w3.org/2000/svg">
<path d="M40 24C40.0018 19.285 38.2111 14.7409 34.9817 11.2657C31.7523 7.79045 27.3192 5.63705 22.5586 5.23104V0H21V48H22.5586V42.769C27.3192 42.3629 31.7523 40.2095 34.9817 36.7343C38.2111 33.2591 40.0018 28.715 40 24ZM22.5586 42.2354V10.4621C26.5501 10.8604 30.2496 12.7069 32.9399 15.6435C35.6302 18.5802 37.1198 22.3979 37.1198 26.3566C37.1198 30.3153 35.6302 34.133 32.9399 37.0696C30.2496 40.0063 26.5501 41.8528 22.5586 42.2511V42.2354Z" fill="white"/>
<path d="M17.4652 5.22762C12.7227 5.56406 8.2838 7.688 5.0429 11.1715C1.802 14.6549 0 19.239 0 24C0 28.761 1.802 33.3451 5.0429 36.8285C8.2838 40.312 12.7227 42.4359 17.4652 42.7724V48H19V0H17.4652V5.22762ZM2.94219 21.6423C2.94581 17.6563 4.43783 13.8157 7.12511 10.8751C9.81238 7.93454 13.5006 6.10658 17.4652 5.75038V37.5448C13.4988 37.1884 9.80912 35.359 7.12159 32.4162C4.43406 29.4734 2.94321 25.6302 2.94219 21.6423Z" fill="white"/>
</svg>
