<svg width="272" height="240" viewBox="0 0 272 240" fill="none" xmlns="http://www.w3.org/2000/svg">
<path d="M82.1091 178.478C82.1091 175.602 80.5727 173.646 78.5636 172.956V182.619C80.6909 182.389 82.1091 180.779 82.1091 178.478ZM76.5546 182.274V172.611C74.3091 172.726 73.0091 174.336 73.0091 176.752C73.0091 179.628 74.5455 181.584 76.5546 182.274ZM76.5546 183.31C73.9546 182.965 71 181.354 71 177.558C71 173.761 73.9546 172.15 76.5546 171.805V171H78.4455V171.805C81.0455 172.15 84 173.761 84 177.558C84 181.354 81.0455 182.965 78.4455 183.31V184H76.5546V183.31Z" fill="#1A1A1A"/>
<path d="M87 184V171.234H88.9794V180.955L99 171V183.883H97.0206V174.162L87 184Z" fill="#1A1A1A"/>
<path d="M99 181.217H101.103C101.35 182.549 101.969 183.438 103.206 183.438C104.814 183.438 105.68 182.216 106.299 178.774L107.536 172H111V183.882H109.021V172.555H108.155L107.041 178.663C106.299 182.883 105.062 183.993 103.082 183.993C100.485 184.104 99.1237 182.883 99 181.217Z" fill="#1A1A1A"/>
<path d="M122.375 180.028L119.75 173.642L116.875 180.028H122.375ZM120.25 171L126 183H123.625L122.625 180.578H116.5L115.375 183H114L120.25 171Z" fill="#1A1A1A"/>
<path d="M131.154 176.222C131.154 173.778 130 172.222 128.846 171.889V179.222C130.231 179.111 131.154 178.222 131.154 176.222ZM127 171H127.462C130.577 171 133 172.556 133 175.333C133 178.778 130.346 179.778 128.962 179.889V183H127V171Z" fill="#1A1A1A"/>
<path d="M135 171H135.119L141.679 179.745L148 171V184H146.092V175.018L140.963 182.227L135.835 175.018V184H135V171Z" fill="#1A1A1A"/>
<path d="M160.276 183.187C163.121 183.187 164.931 181.446 164.931 178.312C164.931 174.134 162.086 171.813 158.983 171.813C156.138 171.813 154.198 173.437 154.198 176.687C154.198 180.866 157.043 183.187 160.276 183.187ZM152 177.5C152 172.625 156.138 171 159.5 171C162.862 171 167 172.625 167 177.5C167 182.375 162.862 184 159.5 184C156.267 184 152 182.375 152 177.5Z" fill="#1A1A1A"/>
<path d="M180.021 177.222H171.979V183H170V171H171.979V176.556H180.021V171H182V183H180.021V177.222Z" fill="#1A1A1A"/>
<path d="M184 184V171.234H185.979V180.955L196 171V183.883H194.021V174.162L184 184Z" fill="#1A1A1A"/>
<path d="M204.25 177.159V172.673C203.266 172.785 202.719 173.234 202.719 174.692C202.719 175.701 203.266 176.935 204.25 177.159ZM200.75 180.748C201.187 178.729 201.953 177.944 203.156 177.607C201.953 177.159 200.969 176.15 200.969 174.916C200.969 172.673 202.828 172 205.344 172H206V184H204.25V177.944C203.484 178.168 202.937 178.729 202.5 180.86C202.062 182.991 200.969 183.888 199 184V183.327C199.766 183.327 200.312 182.654 200.75 180.748Z" fill="#1A1A1A"/>
<path d="M184.789 197H185.032L195.223 215.621L205.294 197H205.536L215 228.484H210.268L203.595 202.88L193.889 221.991H193.767L184.425 202.88L178.116 228.484H175.447L184.789 197ZM166.468 210.843V199.205C161.372 199.205 160.038 201.41 160.038 204.105C160.038 207.046 161.494 210.721 166.468 210.843ZM155.549 221.011C156.398 215.254 158.339 212.558 162.95 211.456C157.733 210.598 155.913 208.148 155.913 204.718C155.913 199.573 161.858 197.613 168.046 197.613H170.472V228.484H166.59V212.313C161.494 212.558 160.523 214.273 159.674 220.154C159.067 225.177 156.883 228.239 151.302 228.729V227.749C154.578 226.892 154.942 224.564 155.549 221.011ZM134.923 199.083L124.367 200.185V197.613H149.482V200.185L138.927 199.083V228.484H135.044V199.083H134.923ZM94.7628 214.151L116.845 204.84C114.782 200.553 110.293 198.715 106.046 198.715C98.8879 198.715 94.5201 202.88 94.5201 210.966C94.5201 212.068 94.5201 213.293 94.7628 214.151ZM90.3949 213.048C90.3949 200.92 99.9799 197 107.502 197C111.87 197 118.786 198.225 121.94 204.718L95.0054 215.499C96.8254 223.094 102.649 227.382 109.08 227.382C113.083 227.382 115.389 226.647 118.543 224.442L119.393 225.544C115.267 228.362 112.234 229.097 107.502 229.097C100.101 229.097 90.3949 225.299 90.3949 213.048ZM78.0193 227.014V199.083H74.5008L72.4382 210.598C70.7396 220.031 69.041 224.809 66.2504 227.014H78.0193ZM70.8609 210.598L73.2875 197.613H81.9018V227.014H84.5711C85.0564 232.282 85.6631 236.08 88.0896 240H86.9977C83.1152 236.815 81.6592 233.262 80.5672 228.484H62.1252C61.5186 233.262 60.9119 236.815 59.092 240H58V227.014H61.6399C66.9784 227.014 68.677 222.481 70.8609 210.598Z" fill="#1A1A1A"/>
<path d="M188.468 87.3618C212.458 87.3618 232 67.8082 232 43.8044H230.787C230.787 67.1339 211.784 86.1481 188.468 86.1481C173.913 86.1481 160.975 78.7312 153.427 67.4036C160.301 75.7645 170.544 81.0237 182.134 81.0237C202.62 81.0237 219.331 64.302 219.331 43.8044H218.118C218.118 63.6277 202.08 79.6752 182.269 79.6752C169.735 79.6752 158.684 73.2023 152.349 63.4929C158.01 70.2355 166.5 74.5508 175.935 74.5508C192.916 74.5508 206.663 60.7958 206.663 43.8044H205.45C205.45 60.1215 192.242 73.3371 175.935 73.3371C165.827 73.3371 156.797 68.2127 151.541 60.3913C156.123 65.5157 162.727 68.7521 170.139 68.7521C183.886 68.7521 195.072 57.5593 195.072 43.8044H193.859C193.859 56.8851 183.212 67.5385 170.139 67.5385C161.918 67.5385 154.64 63.358 150.328 56.8851C153.832 60.661 158.818 62.9535 164.209 62.9535C174.722 62.9535 183.347 54.3229 183.347 43.8044H182.134C182.134 53.6486 174.182 61.6049 164.344 61.6049C155.179 61.6049 146.15 53.6486 146.554 45.5575C146.554 44.3438 146.958 43.5347 147.093 43.3998C148.171 43.6695 149.115 43.8044 150.328 43.8044C158.01 43.8044 164.074 37.6012 164.074 30.0494C164.074 22.4976 157.875 16.2944 150.328 16.2944C142.78 16.2944 136.581 22.4976 136.581 30.0494C136.581 30.3191 136.581 30.7236 136.581 30.9933L74.4505 19.8006C65.825 16.699 59.0864 10.0912 55.7171 2L51 32.207C56.6605 25.5992 65.0164 21.4188 73.9114 21.0142L136.85 32.3419C137.659 37.3314 141.028 41.377 146.015 43.1301C145.88 43.3998 145.476 43.9392 145.476 43.9392C140.759 50.1424 132.807 53.5138 124.721 52.0304C113.669 50.1425 106.122 40.0285 107.066 29.1054L100.192 27.8918C98.9792 40.9725 107.874 52.9743 121.082 55.2668C130.651 57.0199 139.95 52.9743 145.611 45.6923C139.276 55.6714 135.503 67.4036 135.503 80.0798C135.503 115.411 164.074 144 199.385 144C199.924 144 200.328 144 200.867 144L200.733 116.625C170.139 115.816 145.745 86.283 145.745 55.5366C145.745 53.3789 145.88 51.3561 146.15 49.3333C148.036 70.6401 166.366 87.3618 188.468 87.3618Z" fill="#1A1A1A"/>
<path d="M148.288 2.62511C148.423 2.35924 148.557 2.09337 148.96 1.96043C150.707 1.02989 155.007 1.16286 159.441 2.4922C165.756 4.35329 169.115 7.14491 168.712 8.47425C168.577 8.74012 168.443 9.00599 168.04 9.13893C166.293 10.0695 161.993 9.9365 157.559 8.60716C151.244 6.74607 147.885 3.82152 148.288 2.62511ZM157.291 9.8036C159.978 10.6012 162.531 11 164.681 11C166.428 11 167.771 10.7341 168.712 10.2024C169.384 9.80358 169.787 9.40477 169.921 8.7401C170.727 5.94848 165.218 2.75807 159.709 1.16286C154.872 -0.166484 150.438 -0.432377 148.288 0.764033C147.616 1.16284 147.213 1.56165 147.079 2.22632C146.273 5.01794 151.782 8.20839 157.291 9.8036Z" fill="#1A1A1A"/>
<path fill-rule="evenodd" clip-rule="evenodd" d="M272 120.5H0V119.5H272V120.5Z" fill="#1A1A1A"/>
<path fill-rule="evenodd" clip-rule="evenodd" d="M272 126.5H0V125.5H272V126.5Z" fill="#1A1A1A"/>
<path fill-rule="evenodd" clip-rule="evenodd" d="M272 132.5H0V131.5H272V132.5Z" fill="#1A1A1A"/>
<path fill-rule="evenodd" clip-rule="evenodd" d="M272 138.5H0V137.5H272V138.5Z" fill="#1A1A1A"/>
<path fill-rule="evenodd" clip-rule="evenodd" d="M272 144.5H0V143.5H272V144.5Z" fill="#1A1A1A"/>
</svg>
