<svg width="230" height="209" viewBox="0 0 230 209" fill="none" xmlns="http://www.w3.org/2000/svg">
<path d="M175.105 71.9022C175.106 57.7526 169.785 44.1185 160.195 33.7005C150.605 23.2826 137.446 16.8406 123.325 15.6506V0H122.026V143.821H123.325V128.17C137.448 126.976 150.607 120.531 160.196 110.11C169.786 99.6895 175.106 86.0535 175.105 71.9022ZM123.325 126.582V31.2689C135.166 32.4442 146.147 37.9725 154.135 46.7797C162.123 55.5869 166.546 67.0441 166.546 78.9255C166.546 90.8069 162.123 102.264 154.135 111.071C146.147 119.878 135.166 125.407 123.325 126.582Z" fill="#1A1A1A"/>
<path d="M119.658 0H118.376V143.821H119.658V0Z" fill="#1A1A1A"/>
<path d="M116.007 0H114.725V143.821H116.007V0Z" fill="#1A1A1A"/>
<path d="M112.355 0H111.073V143.821H112.355V0Z" fill="#1A1A1A"/>
<path d="M107.422 15.5858C93.1636 16.6109 79.8233 22.9894 70.0849 33.4378C60.3464 43.8863 54.9326 57.6294 54.9326 71.9022C54.9326 86.1749 60.3464 99.918 70.0849 110.366C79.8233 120.815 93.1636 127.193 107.422 128.218V143.821H108.72V0H107.422V15.5858ZM63.4631 64.8869C63.4658 52.8799 67.9857 41.3119 76.1273 32.4749C84.2688 23.638 95.438 18.1769 107.422 17.1736V112.616C95.4366 111.609 84.2673 106.145 76.1261 97.3052C67.9848 88.4656 63.4655 76.8957 63.4631 64.8869Z" fill="#1A1A1A"/>
<path d="M223.266 191.179C223.266 188.554 224.369 187.258 227.355 187.193V196.039C226.179 195.908 225.098 195.33 224.337 194.426C223.575 193.521 223.192 192.358 223.266 191.179ZM216.775 207.882V208.692C220.459 208.401 222.162 206.538 223.136 202.763C224.288 198.129 225.116 197.4 227.371 197.076V208.53H230V186.108H228.491C224.126 186.108 220.491 187.452 220.491 191.632C220.491 193.998 222.519 195.99 225.359 196.59C222.99 197.303 221.254 198.842 220.248 202.601C219.242 206.359 218.365 207.655 216.726 207.915M192.889 208.887L210.43 190.255V208.563H213.156V185.783L195.615 204.448V186.108H192.889V208.887ZM184.305 208.563H187.047V186.108H184.338V196.719H169.474V186.108H166.748V208.563H169.474V197.659H184.338L184.305 208.563ZM140.492 195.796C140.492 189.996 144.03 186.885 148.849 186.885C154.026 186.885 159.251 191.341 159.251 198.874C159.251 204.674 155.729 207.753 150.91 207.753C145.734 207.753 140.492 203.33 140.492 195.796ZM149.936 209C155.178 209 161.928 206.197 161.928 197.416C161.928 188.635 155.178 185.8 149.936 185.8C144.695 185.8 137.929 188.554 137.929 197.335C137.929 206.116 144.711 209 149.936 209ZM110.343 208.563H111.495V191.179L120.971 204.48L130.416 191.179V208.498H133.142V185.783H133.061L122.075 201.191L110.57 185.783H110.343V208.563ZM98.3512 201.693V187.29C100.899 187.906 103.56 191.179 103.56 195.861C103.56 199.684 101.694 201.596 98.3512 201.693ZM95.7387 208.563H98.4648V202.795C99.5548 202.783 100.631 202.547 101.626 202.102C102.621 201.658 103.513 201.013 104.248 200.21C104.983 199.406 105.545 198.46 105.898 197.43C106.252 196.401 106.389 195.309 106.302 194.224C106.302 189.089 102.035 186.124 96.3228 186.124H95.7387V208.563ZM76.2664 202.941L81.6213 189.558L86.4893 202.925L76.2664 202.941ZM72.0961 208.563H74.0271L75.8932 203.945H86.9437L88.5664 208.563H91.8118L82.3677 185.783H82.2217L72.0961 208.563ZM54.4412 209C58.2708 209 59.9746 206.554 61.289 198.988L63.3822 187.193H65.4593V208.644H68.153V186.108H62.4411L60.2018 198.907C59.0659 205.387 57.6217 207.817 54.6684 207.817C52.2993 207.817 51.1309 206.019 50.7577 203.492H47.7557C48.0803 206.57 50.4332 208.919 54.4412 208.919M27.18 208.919L44.7051 190.287V208.595H47.4474V185.783L29.8413 204.448V186.108H27.1151V208.887L27.18 208.919ZM12.5758 206.311V188.068C14.7929 188.748 16.718 190.15 18.0444 192.05C19.3707 193.95 20.0219 196.238 19.8942 198.55C19.974 199.55 19.8427 200.555 19.5088 201.5C19.175 202.446 18.646 203.311 17.9562 204.039C17.2663 204.768 16.431 205.343 15.5041 205.729C14.5773 206.115 13.5797 206.302 12.5758 206.278M2.5963 195.472C2.52175 194.475 2.65613 193.474 2.99085 192.531C3.32558 191.589 3.8533 190.727 4.54036 190C5.22742 189.273 6.05874 188.697 6.98127 188.308C7.90381 187.92 8.89731 187.728 9.89841 187.744V205.971C7.68613 205.279 5.76745 203.872 4.4452 201.971C3.12295 200.07 2.47243 197.783 2.5963 195.472ZM9.89841 208.563H12.5272V207.38C17.022 206.959 22.458 204.269 22.458 197.011C22.458 189.753 17.022 187.08 12.5272 186.658V185.152H9.89841V186.658C5.3711 187.112 0 189.801 0 197.011C0 204.221 5.40356 206.926 9.89841 207.38V208.563Z" fill="#1A1A1A"/>
<path d="M171.68 163.231C171.68 161.61 172.248 161.189 173.303 161.092V165.758C172.167 165.596 171.68 164.3 171.68 163.231ZM167.737 172.32V173.016C168.664 173.025 169.561 172.687 170.251 172.07C170.942 171.452 171.376 170.6 171.469 169.679C171.972 167.411 172.524 166.843 173.351 166.633V172.935H175.25V160.282H174.487C171.891 160.282 169.846 161.043 169.846 163.393C169.902 164.044 170.153 164.663 170.567 165.169C170.981 165.675 171.539 166.044 172.167 166.228C171.47 166.485 170.861 166.936 170.413 167.527C169.964 168.119 169.695 168.826 169.635 169.565C169.181 171.574 168.564 172.222 167.818 172.32M158.65 169.679L161.376 162.89L163.842 169.679H158.65ZM156.102 172.919H157.352L158.374 170.392H164.118L165.043 172.919H167.137L161.814 160.087L156.102 172.919ZM155.064 173V172.303C154.301 172.206 153.684 171.558 153.23 169.549C152.776 167.54 151.786 166.503 150.455 166.147C151.173 166.005 151.821 165.625 152.295 165.07C152.769 164.514 153.042 163.814 153.068 163.085C153.376 161.465 153.701 161.027 154.236 160.865V160.185C153.394 160.242 152.601 160.601 152.005 161.197C151.408 161.793 151.048 162.584 150.991 163.425C150.666 165.045 150.244 165.466 149.514 165.645V160.282H147.502V172.935H149.449V166.746C150.196 166.973 150.682 167.508 151.153 169.679C151.265 170.609 151.719 171.465 152.426 172.082C153.133 172.698 154.044 173.031 154.983 173.016M140.573 173.178C142.094 173.198 143.586 172.764 144.857 171.931L144.257 171.429C143.353 172.07 142.265 172.4 141.157 172.368C138.236 172.368 135.689 169.987 135.689 165.742C135.689 162.501 137.311 160.881 139.989 160.881C140.737 160.872 141.477 161.031 142.155 161.348C142.832 161.665 143.429 162.132 143.9 162.712L144.808 161.27C143.545 160.464 142.072 160.048 140.573 160.071C137.539 160.071 133.725 161.691 133.725 166.552C133.725 171.412 137.539 173.13 140.573 173.13M127.705 165.353V161.011H127.851C128.598 161.011 129.003 161.513 129.003 162.89C129.026 163.386 128.918 163.878 128.69 164.319C128.462 164.76 128.123 165.133 127.705 165.402M127.705 172.174V166.228C129.101 166.05 129.961 167.589 129.961 169.371C129.961 171.153 129.458 172.174 127.884 172.174H127.705ZM125.823 172.935H126.91C130.334 172.935 131.924 171.866 131.924 169.079C131.965 168.223 131.686 167.382 131.14 166.72C130.594 166.058 129.821 165.623 128.971 165.499C129.523 165.223 129.992 164.807 130.331 164.292C130.67 163.777 130.867 163.182 130.902 162.566C130.902 161.06 129.928 160.282 127.251 160.282H125.823V172.935ZM111.397 165.742C111.397 162.501 113.02 160.881 115.713 160.881C118.618 160.881 121.149 163.263 121.149 167.508C121.149 170.748 119.527 172.368 116.866 172.368C113.961 172.368 111.397 169.987 111.397 165.742ZM116.265 173.178C119.3 173.178 123.097 171.558 123.097 166.6C123.097 161.643 119.3 160.12 116.265 160.12C113.231 160.12 109.434 161.74 109.434 166.6C109.434 171.461 113.231 173.178 116.265 173.178ZM108.557 173.016V172.32C107.811 172.222 107.194 171.574 106.74 169.565C106.286 167.556 105.296 166.519 103.965 166.163C104.682 166.021 105.331 165.642 105.805 165.086C106.279 164.53 106.551 163.831 106.578 163.101C106.886 161.481 107.211 161.043 107.746 160.881V160.201C106.904 160.258 106.111 160.617 105.515 161.213C104.918 161.809 104.558 162.601 104.501 163.441C104.176 165.061 103.754 165.483 103.024 165.661V160.282H101.077V172.935H103.024V166.746C103.77 166.973 104.257 167.508 104.728 169.679C104.84 170.606 105.291 171.46 105.995 172.076C106.699 172.692 107.605 173.027 108.541 173.016M94.1479 173.178C95.6685 173.198 97.1604 172.764 98.4318 171.931L97.8314 171.429C96.9222 172.07 95.8289 172.4 94.7159 172.368C91.8113 172.368 89.2636 169.987 89.2636 165.742C89.2636 162.501 90.8863 160.881 93.5638 160.881C94.3118 160.872 95.0523 161.031 95.7297 161.348C96.407 161.665 97.0036 162.132 97.4744 162.712L98.3831 161.27C97.1141 160.447 95.6288 160.018 94.1155 160.039C91.0648 160.039 87.2677 161.659 87.2677 166.519C87.2677 171.38 91.0648 173.097 94.1155 173.097M73.4586 165.742C73.4586 162.501 75.0813 160.881 77.7588 160.881C80.6796 160.881 83.211 163.263 83.211 167.508C83.211 170.748 81.5883 172.368 78.9271 172.368C76.0063 172.368 73.4586 169.987 73.4586 165.742ZM78.3267 173.178C79.2183 173.222 80.1096 173.085 80.9465 172.775C81.7833 172.465 82.5483 171.988 83.195 171.374C83.8417 170.759 84.3566 170.02 84.7084 169.201C85.0603 168.382 85.2417 167.5 85.2417 166.609C85.2417 165.717 85.0603 164.835 84.7084 164.016C84.3566 163.197 83.8417 162.458 83.195 161.843C82.5483 161.229 81.7833 160.752 80.9465 160.442C80.1096 160.132 79.2183 159.995 78.3267 160.039C75.2923 160.039 71.4952 161.659 71.4952 166.519C71.4952 171.38 75.2923 173.097 78.3267 173.097M55.9336 172.854H56.7936V163.976L61.8564 171.121L66.8867 163.976V172.854H68.8177V160.104L62.6353 168.788L56.1445 160.104H56.0634L55.9336 172.854Z" fill="#1A1A1A"/>
</svg>
