<svg width="32" height="32" viewBox="0 0 32 32" fill="none" xmlns="http://www.w3.org/2000/svg">
<path d="M16 0C24.8365 0 32 7.18978 32 16.0588C32 24.2692 25.8607 31.0396 17.9384 32V20.9661L22.2668 20.9661L23.1646 16.0588H17.9384V14.3232C17.9384 13.0266 18.1918 12.1289 18.7732 11.5554C19.3545 10.9819 20.2638 10.7325 21.5756 10.7325C21.9076 10.7325 22.2132 10.7359 22.4844 10.7425C22.8788 10.7521 23.2003 10.7688 23.4241 10.7924V6.34387C23.3346 6.31893 23.229 6.29399 23.1108 6.26945C22.8428 6.21383 22.5096 6.16022 22.1515 6.11314C21.4031 6.01474 20.5457 5.94484 19.9459 5.94484C17.5232 5.94484 15.6923 6.46504 14.4143 7.54254C12.8719 8.84293 12.1348 10.9551 12.1348 13.9442V16.0588H8.83546V20.9661H12.1348V31.6447C5.16576 29.9093 0 23.5901 0 16.0588C0 7.18978 7.16346 0 16 0Z" fill="#0097D8"/>
</svg>
