<svg width="44" height="56" viewBox="0 0 44 56" fill="none" xmlns="http://www.w3.org/2000/svg">
<circle cx="22" cy="22" r="22" fill="#1A1A1A"/>
<path d="M35.9998 21.9889C36.001 18.6513 34.7688 15.4346 32.5467 12.9746C30.3245 10.5146 27.2741 8.9903 23.9983 8.7029V5H22.9258V38.9778H23.9983V35.2749C27.2741 34.9875 30.3245 33.4632 32.5467 31.0032C34.7688 28.5432 36.001 25.3265 35.9998 21.9889ZM23.9983 34.8972V12.4058C26.7449 12.6878 29.2905 13.9948 31.1417 16.0736C32.9929 18.1524 34.0179 20.8548 34.0179 23.657C34.0179 26.4593 32.9929 29.1617 31.1417 31.2405C29.2905 33.3193 26.7449 34.6263 23.9983 34.9083V34.8972Z" fill="white"/>
<path d="M20.2044 8.7029C16.8904 8.94121 13.7886 10.4457 11.5239 12.9131C9.2592 15.3806 8 18.6276 8 22C8 25.3724 9.2592 28.6194 11.5239 31.0869C13.7886 33.5543 16.8904 35.0588 20.2044 35.2971V39H21.2768V5H20.2044V8.7029ZM10.0559 20.33C10.0585 17.5065 11.1011 14.7861 12.9789 12.7032C14.8567 10.6203 17.434 9.32549 20.2044 9.07319V31.5942C17.4327 31.3418 14.8544 30.0459 12.9764 27.9615C11.0984 25.877 10.0567 23.1547 10.0559 20.33Z" fill="white"/>
<circle cx="22" cy="52" r="4" fill="#1A1A1A"/>
</svg>
