<svg xmlns="http://www.w3.org/2000/svg" xmlns:xlink="http://www.w3.org/1999/xlink"><defs><style>
    .sprite-symbol-usage {display: none;}
    .sprite-symbol-usage:target {display: inline;}
  </style><symbol viewBox="0 0 18 18" id="icon-arrow-drop">
<path d="M9.00105 13.7656C9.20952 13.7656 9.40899 13.6791 9.55085 13.5264L14.5001 8.19531C14.7819 7.89183 14.7644 7.41761 14.461 7.13574C14.1575 6.85389 13.6833 6.87127 13.4014 7.1748L9.00105 11.9131L4.60066 7.1748C4.3188 6.87127 3.84364 6.85389 3.54011 7.13574C3.23703 7.41763 3.21938 7.89193 3.50105 8.19531L8.45124 13.5264L8.50691 13.5801C8.64296 13.6991 8.81851 13.7656 9.00105 13.7656Z" />
</symbol><symbol viewBox="0 0 10 16" id="icon-arrow-left">
<path d="M9.12117 14.2929C9.51169 14.6834 9.51169 15.3164 9.12117 15.707C8.73065 16.0975 8.09763 16.0975 7.70711 15.707L7.569e-05 7.99993L7.70711 0.292893C8.09763 -0.097631 8.73064 -0.0976311 9.12117 0.292893C9.51169 0.683418 9.51169 1.31643 9.12117 1.70696L2.8282 7.99992L9.12117 14.2929Z" />
</symbol><symbol viewBox="0 0 28 28" id="icon-arrow-more">
<path d="M28 27C28 27.5523 27.5523 28 27 28C26.4477 28 26 27.5523 26 27V3.41406L1.70703 27.707C1.31651 28.0976 0.683493 28.0976 0.292969 27.707C-0.0975552 27.3165 -0.0975555 26.6835 0.292969 26.293L24.5859 2H1C0.447715 2 0 1.55228 0 1C0 0.447715 0.447715 0 1 0H28V27Z" />
</symbol><symbol viewBox="0 0 10 16" id="icon-arrow-right">
<path d="M0.292893 14.2929C-0.0976317 14.6834 -0.0976317 15.3164 0.292893 15.707C0.683417 16.0975 1.31643 16.0975 1.70695 15.707L9.41399 7.99993L1.70696 0.292893C1.31643 -0.097631 0.683418 -0.0976311 0.292893 0.292893C-0.0976311 0.683418 -0.0976311 1.31643 0.292893 1.70696L6.58586 7.99992L0.292893 14.2929Z" />
</symbol><symbol viewBox="0 0 16 16" id="icon-close">
<path d="M11.7114 12.773L7.99907 9.06066L4.28676 12.773C3.99386 13.0659 3.51899 13.0659 3.2261 12.773C2.9332 12.4801 2.9332 12.0052 3.2261 11.7123L6.93841 8L3.2261 4.28769C2.9332 3.9948 2.9332 3.51992 3.2261 3.22703C3.51899 2.93414 3.99386 2.93414 4.28676 3.22703L7.99907 6.93934L11.7114 3.22703C12.0043 2.93414 12.4791 2.93414 12.772 3.22703C13.0649 3.51992 13.0649 3.9948 12.772 4.28769L9.05973 8L12.772 11.7123C13.0649 12.0052 13.0649 12.4801 12.772 12.773C12.4791 13.0659 12.0043 13.0659 11.7114 12.773Z" />
</symbol><symbol viewBox="0 0 22 22" id="icon-contents">
<path d="M10.915 5.48846C10.6326 5.18559 10.1575 5.16904 9.85449 5.45135L4.48828 10.4513C4.33614 10.5932 4.25 10.7922 4.25 11.0002C4.25 11.2082 4.33614 11.4071 4.48828 11.549L9.85449 16.549C10.1575 16.8313 10.6326 16.8148 10.915 16.5119C11.1974 16.2089 11.1808 15.7337 10.8779 15.4513L6.90527 11.7502H17C17.4142 11.7502 17.75 11.4144 17.75 11.0002C17.75 10.586 17.4142 10.2502 17 10.2502H6.90527L10.8779 6.549C11.1808 6.26661 11.1974 5.79145 10.915 5.48846Z" />
</symbol><symbol viewBox="0 0 28 28" id="icon-mail">
<path d="M25.6654 8.79102V19.8338C25.6654 20.7266 25.3243 21.5856 24.7119 22.2352C24.0994 22.8847 23.2619 23.2757 22.3707 23.3281L22.1654 23.3339H5.83203C4.93929 23.3339 4.08026 22.9928 3.43073 22.3804C2.78119 21.7679 2.39024 20.9304 2.33786 20.0391L2.33203 19.8338V8.79102L13.3512 16.1377L13.4865 16.2147C13.646 16.2926 13.8212 16.3331 13.9987 16.3331C14.1762 16.3331 14.3514 16.2926 14.5109 16.2147L14.6462 16.1377L25.6654 8.79102Z" />
<path d="M22.1657 4.66602C23.4257 4.66602 24.5306 5.33103 25.1466 6.33089L13.9991 13.7627L2.85156 6.33089C3.14415 5.85584 3.54607 5.45762 4.0238 5.16943C4.50153 4.88125 5.04122 4.71144 5.5979 4.67418L5.8324 4.66602H22.1657Z" />
</symbol><symbol viewBox="0 0 28 28" id="icon-phone">
<path d="M8.37667 11.9817L15.9647 19.5183C16.7778 18.5768 21.9263 13.0573 24.5 20.5963C24.5 20.5963 24.2293 24.5 18.6737 24.5C14.7455 24.5 10.6808 19.789 7.83533 17.0963C5.397 14.8073 3.5 11.8463 3.5 9.15367C3.5 3.63533 7.294 3.5 7.294 3.5C15.9647 6.461 8.37783 11.9817 8.37783 11.9817" />
</symbol><symbol viewBox="0 0 20 20" id="icon-search">
<path d="M14.3193 9.03418C14.3192 6.11578 11.9526 3.75 9.03418 3.75C6.11588 3.75016 3.75016 6.11588 3.75 9.03418C3.75 11.9526 6.11578 14.3192 9.03418 14.3193C11.9527 14.3193 14.3193 11.9527 14.3193 9.03418ZM15.8193 9.03418C15.8193 10.6374 15.2609 12.1094 14.3311 13.2705L17.5303 16.4697C17.8232 16.7626 17.8232 17.2374 17.5303 17.5303C17.2374 17.8232 16.7626 17.8232 16.4697 17.5303L13.2705 14.3311C12.1094 15.2609 10.6374 15.8193 9.03418 15.8193C5.28735 15.8192 2.25 12.7811 2.25 9.03418C2.25016 5.28745 5.28745 2.25016 9.03418 2.25C12.7811 2.25 15.8192 5.28735 15.8193 9.03418Z" />
</symbol></defs><use id="icon-arrow-drop-usage" xlink:href="#icon-arrow-drop" class="sprite-symbol-usage" /><use id="icon-arrow-left-usage" xlink:href="#icon-arrow-left" class="sprite-symbol-usage" /><use id="icon-arrow-more-usage" xlink:href="#icon-arrow-more" class="sprite-symbol-usage" /><use id="icon-arrow-right-usage" xlink:href="#icon-arrow-right" class="sprite-symbol-usage" /><use id="icon-close-usage" xlink:href="#icon-close" class="sprite-symbol-usage" /><use id="icon-contents-usage" xlink:href="#icon-contents" class="sprite-symbol-usage" /><use id="icon-mail-usage" xlink:href="#icon-mail" class="sprite-symbol-usage" /><use id="icon-phone-usage" xlink:href="#icon-phone" class="sprite-symbol-usage" /><use id="icon-search-usage" xlink:href="#icon-search" class="sprite-symbol-usage" /></svg>