<svg xmlns="http://www.w3.org/2000/svg" xmlns:xlink="http://www.w3.org/1999/xlink"><defs><style>
    .sprite-symbol-usage {display: none;}
    .sprite-symbol-usage:target {display: inline;}
  </style><symbol viewBox="0 0 18 18" id="icon-arrow-drop">
<path d="M9.00105 13.7656C9.20952 13.7656 9.40899 13.6791 9.55085 13.5264L14.5001 8.19531C14.7819 7.89183 14.7644 7.41761 14.461 7.13574C14.1575 6.85389 13.6833 6.87127 13.4014 7.1748L9.00105 11.9131L4.60066 7.1748C4.3188 6.87127 3.84364 6.85389 3.54011 7.13574C3.23703 7.41763 3.21938 7.89193 3.50105 8.19531L8.45124 13.5264L8.50691 13.5801C8.64296 13.6991 8.81851 13.7656 9.00105 13.7656Z" />
</symbol><symbol viewBox="0 0 20 20" id="icon-search">
<path d="M14.3193 9.03418C14.3192 6.11578 11.9526 3.75 9.03418 3.75C6.11588 3.75016 3.75016 6.11588 3.75 9.03418C3.75 11.9526 6.11578 14.3192 9.03418 14.3193C11.9527 14.3193 14.3193 11.9527 14.3193 9.03418ZM15.8193 9.03418C15.8193 10.6374 15.2609 12.1094 14.3311 13.2705L17.5303 16.4697C17.8232 16.7626 17.8232 17.2374 17.5303 17.5303C17.2374 17.8232 16.7626 17.8232 16.4697 17.5303L13.2705 14.3311C12.1094 15.2609 10.6374 15.8193 9.03418 15.8193C5.28735 15.8192 2.25 12.7811 2.25 9.03418C2.25016 5.28745 5.28745 2.25016 9.03418 2.25C12.7811 2.25 15.8192 5.28735 15.8193 9.03418Z" />
</symbol></defs><use id="icon-arrow-drop-usage" xlink:href="#icon-arrow-drop" class="sprite-symbol-usage" /><use id="icon-search-usage" xlink:href="#icon-search" class="sprite-symbol-usage" /></svg>