<svg xmlns="http://www.w3.org/2000/svg" xmlns:xlink="http://www.w3.org/1999/xlink"><defs><style>
    .sprite-symbol-usage {display: none;}
    .sprite-symbol-usage:target {display: inline;}
  </style><symbol viewBox="0 0 18 18" id="icon-arrow-drop">
<path d="M9.00105 13.7656C9.20952 13.7656 9.40899 13.6791 9.55085 13.5264L14.5001 8.19531C14.7819 7.89183 14.7644 7.41761 14.461 7.13574C14.1575 6.85389 13.6833 6.87127 13.4014 7.1748L9.00105 11.9131L4.60066 7.1748C4.3188 6.87127 3.84364 6.85389 3.54011 7.13574C3.23703 7.41763 3.21938 7.89193 3.50105 8.19531L8.45124 13.5264L8.50691 13.5801C8.64296 13.6991 8.81851 13.7656 9.00105 13.7656Z" />
</symbol><symbol viewBox="0 0 10 16" id="icon-arrow-left">
<path d="M9.12117 14.2929C9.51169 14.6834 9.51169 15.3164 9.12117 15.707C8.73065 16.0975 8.09763 16.0975 7.70711 15.707L7.569e-05 7.99993L7.70711 0.292893C8.09763 -0.097631 8.73064 -0.0976311 9.12117 0.292893C9.51169 0.683418 9.51169 1.31643 9.12117 1.70696L2.8282 7.99992L9.12117 14.2929Z" />
</symbol><symbol viewBox="0 0 28 28" id="icon-arrow-more">
<path d="M28 27C28 27.5523 27.5523 28 27 28C26.4477 28 26 27.5523 26 27V3.41406L1.70703 27.707C1.31651 28.0976 0.683493 28.0976 0.292969 27.707C-0.0975552 27.3165 -0.0975555 26.6835 0.292969 26.293L24.5859 2H1C0.447715 2 0 1.55228 0 1C0 0.447715 0.447715 0 1 0H28V27Z" />
</symbol><symbol viewBox="0 0 27 27" id="icon-arrow-more-bold">
<path d="M24 25.5V3H1.5C0.671573 3 0 2.32843 0 1.5C0 0.671573 0.671573 0 1.5 0H27V25.5C27 26.3284 26.3284 27 25.5 27C24.6716 27 24 26.3284 24 25.5Z" />
<path d="M24.4393 0.43934C25.0251 -0.146447 25.9746 -0.146447 26.5604 0.43934C27.1462 1.02513 27.1462 1.97465 26.5604 2.56043L2.56043 26.5604C1.97465 27.1462 1.02513 27.1462 0.43934 26.5604C-0.146447 25.9746 -0.146447 25.0251 0.43934 24.4393L24.4393 0.43934Z" />
</symbol><symbol viewBox="0 0 25 21" id="icon-arrow-next">
<path d="M23.6895 11.2243L13.6895 20.7243C13.2891 21.1043 12.6567 21.0882 12.2764 20.6881C11.8961 20.2878 11.9124 19.6555 12.3125 19.2751L20.498 11.4997L1.00098 11.4997C0.448768 11.4997 0.00109921 11.0518 0.000976562 10.4997C0.000977094 9.94737 0.448693 9.49965 1.00098 9.49965L20.498 9.49965L12.3125 1.72425C11.9122 1.34394 11.8962 0.711569 12.2764 0.311166C12.6568 -0.08919 13.2891 -0.105336 13.6895 0.275034L23.6895 9.77504L24.4531 10.4997L23.6895 11.2243Z" />
</symbol><symbol viewBox="0 0 25 21" id="icon-arrow-prev">
<path d="M0.763672 11.2243L10.7637 20.7243C11.164 21.1043 11.7964 21.0882 12.1768 20.6881C12.5571 20.2878 12.5408 19.6555 12.1406 19.2751L3.95508 11.4997L23.4521 11.4997C24.0044 11.4997 24.452 11.0518 24.4521 10.4997C24.4521 9.94737 24.0044 9.49965 23.4521 9.49965L3.95508 9.49965L12.1406 1.72425C12.5409 1.34394 12.5569 0.711569 12.1768 0.311166C11.7964 -0.08919 11.1641 -0.105336 10.7637 0.275034L0.763672 9.77504L0 10.4997L0.763672 11.2243Z" />
</symbol><symbol viewBox="0 0 26 35" id="icon-arrow-return">
<path d="M25.707 12.707C26.0975 13.0975 26.0975 13.7306 25.707 14.1211C25.3165 14.5116 24.6835 14.5116 24.2929 14.1211L13.9999 3.82812V33.4141C13.9999 33.9663 13.5522 34.414 12.9999 34.4141C12.4477 34.4141 11.9999 33.9663 11.9999 33.4141V3.82812L1.70696 14.1211C1.31645 14.5116 0.683421 14.5116 0.292894 14.1211C-0.097631 13.7306 -0.0976313 13.0976 0.292894 12.707L12.9999 0L25.707 12.707Z" />
</symbol><symbol viewBox="0 0 10 16" id="icon-arrow-right">
<path d="M0.292893 14.2929C-0.0976317 14.6834 -0.0976317 15.3164 0.292893 15.707C0.683417 16.0975 1.31643 16.0975 1.70695 15.707L9.41399 7.99993L1.70696 0.292893C1.31643 -0.097631 0.683418 -0.0976311 0.292893 0.292893C-0.0976311 0.683418 -0.0976311 1.31643 0.292893 1.70696L6.58586 7.99992L0.292893 14.2929Z" />
</symbol><symbol viewBox="0 0 16 16" id="icon-close">
<path d="M11.7114 12.773L7.99907 9.06066L4.28676 12.773C3.99386 13.0659 3.51899 13.0659 3.2261 12.773C2.9332 12.4801 2.9332 12.0052 3.2261 11.7123L6.93841 8L3.2261 4.28769C2.9332 3.9948 2.9332 3.51992 3.2261 3.22703C3.51899 2.93414 3.99386 2.93414 4.28676 3.22703L7.99907 6.93934L11.7114 3.22703C12.0043 2.93414 12.4791 2.93414 12.772 3.22703C13.0649 3.51992 13.0649 3.9948 12.772 4.28769L9.05973 8L12.772 11.7123C13.0649 12.0052 13.0649 12.4801 12.772 12.773C12.4791 13.0659 12.0043 13.0659 11.7114 12.773Z" />
</symbol><symbol viewBox="0 0 22 22" id="icon-contents">
<path d="M10.915 5.48846C10.6326 5.18559 10.1575 5.16904 9.85449 5.45135L4.48828 10.4513C4.33614 10.5932 4.25 10.7922 4.25 11.0002C4.25 11.2082 4.33614 11.4071 4.48828 11.549L9.85449 16.549C10.1575 16.8313 10.6326 16.8148 10.915 16.5119C11.1974 16.2089 11.1808 15.7337 10.8779 15.4513L6.90527 11.7502H17C17.4142 11.7502 17.75 11.4144 17.75 11.0002C17.75 10.586 17.4142 10.2502 17 10.2502H6.90527L10.8779 6.549C11.1808 6.26661 11.1974 5.79145 10.915 5.48846Z" />
</symbol><symbol viewBox="0 0 28 28" id="icon-earth">
<path fill-rule="evenodd" clip-rule="evenodd" d="M10.734 2.79503C8.46993 3.45185 6.45723 4.773 4.95845 6.58612C3.45966 8.39924 2.54439 10.6202 2.33203 12.9591H7.68678C7.99892 9.39984 9.03512 5.94108 10.7323 2.79337M7.68678 15.0422H2.33203C2.54394 17.3813 3.45883 19.6024 4.95732 21.4158C6.45581 23.2293 8.46832 24.5508 10.7323 25.208C9.03512 22.0603 7.99892 18.6015 7.68678 15.0422ZM13.4164 25.6529C11.3876 22.4484 10.1437 18.8137 9.78518 15.0422H18.2105C17.852 18.8137 16.6082 22.4484 14.5794 25.6529C14.1919 25.6721 13.8038 25.6721 13.4164 25.6529ZM17.2651 25.2063C19.5288 24.5492 21.5412 23.2279 23.0396 21.4148C24.5381 19.6017 25.4531 17.381 25.6654 15.0422H20.3106C19.9985 18.6015 18.9623 22.0603 17.2651 25.208M20.3106 12.9608H25.6654C25.4535 10.6217 24.5386 8.40061 23.0401 6.58718C21.5416 4.77376 19.5291 3.45224 17.2651 2.79503C18.9623 5.94274 19.9985 9.40151 20.3106 12.9608ZM13.4164 2.34841C13.8043 2.32918 14.193 2.32918 14.581 2.34841C16.6093 5.55309 17.8525 9.18777 18.2105 12.9591H9.78685C10.15 9.16445 11.3966 5.52645 13.4164 2.34841Z" />
</symbol><symbol viewBox="0 0 28 28" id="icon-mail">
<path d="M25.6654 8.79102V19.8338C25.6654 20.7266 25.3243 21.5856 24.7119 22.2352C24.0994 22.8847 23.2619 23.2757 22.3707 23.3281L22.1654 23.3339H5.83203C4.93929 23.3339 4.08026 22.9928 3.43073 22.3804C2.78119 21.7679 2.39024 20.9304 2.33786 20.0391L2.33203 19.8338V8.79102L13.3512 16.1377L13.4865 16.2147C13.646 16.2926 13.8212 16.3331 13.9987 16.3331C14.1762 16.3331 14.3514 16.2926 14.5109 16.2147L14.6462 16.1377L25.6654 8.79102Z" />
<path d="M22.1657 4.66602C23.4257 4.66602 24.5306 5.33103 25.1466 6.33089L13.9991 13.7627L2.85156 6.33089C3.14415 5.85584 3.54607 5.45762 4.0238 5.16943C4.50153 4.88125 5.04122 4.71144 5.5979 4.67418L5.8324 4.66602H22.1657Z" />
</symbol><symbol viewBox="0 0 28 28" id="icon-phone">
<path d="M8.37667 11.9817L15.9647 19.5183C16.7778 18.5768 21.9263 13.0573 24.5 20.5963C24.5 20.5963 24.2293 24.5 18.6737 24.5C14.7455 24.5 10.6808 19.789 7.83533 17.0963C5.397 14.8073 3.5 11.8463 3.5 9.15367C3.5 3.63533 7.294 3.5 7.294 3.5C15.9647 6.461 8.37783 11.9817 8.37783 11.9817" />
</symbol><symbol viewBox="0 0 20 20" id="icon-search">
<path d="M14.3193 9.03418C14.3192 6.11578 11.9526 3.75 9.03418 3.75C6.11588 3.75016 3.75016 6.11588 3.75 9.03418C3.75 11.9526 6.11578 14.3192 9.03418 14.3193C11.9527 14.3193 14.3193 11.9527 14.3193 9.03418ZM15.8193 9.03418C15.8193 10.6374 15.2609 12.1094 14.3311 13.2705L17.5303 16.4697C17.8232 16.7626 17.8232 17.2374 17.5303 17.5303C17.2374 17.8232 16.7626 17.8232 16.4697 17.5303L13.2705 14.3311C12.1094 15.2609 10.6374 15.8193 9.03418 15.8193C5.28735 15.8192 2.25 12.7811 2.25 9.03418C2.25016 5.28745 5.28745 2.25016 9.03418 2.25C12.7811 2.25 15.8192 5.28735 15.8193 9.03418Z" />
</symbol><symbol viewBox="0 0 58 58" id="icon-slider-next">
<path d="M23.2929 42.2929C22.9024 42.6834 22.9024 43.3164 23.2929 43.707C23.6834 44.0975 24.3164 44.0975 24.707 43.707L39.414 28.9999L24.707 14.2929C24.3164 13.9024 23.6834 13.9024 23.2929 14.2929C22.9024 14.6834 22.9024 15.3164 23.2929 15.707L36.5859 28.9999L23.2929 42.2929Z" />
</symbol><symbol viewBox="0 0 58 58" id="icon-slider-prev">
<path d="M34.7071 42.2929C35.0976 42.6834 35.0976 43.3164 34.7071 43.707C34.3166 44.0975 33.6836 44.0975 33.293 43.707L18.586 28.9999L33.293 14.2929C33.6836 13.9024 34.3166 13.9024 34.7071 14.2929C35.0976 14.6834 35.0976 15.3164 34.7071 15.707L21.4141 28.9999L34.7071 42.2929Z" />
</symbol></defs><use id="icon-arrow-drop-usage" xlink:href="#icon-arrow-drop" class="sprite-symbol-usage" /><use id="icon-arrow-left-usage" xlink:href="#icon-arrow-left" class="sprite-symbol-usage" /><use id="icon-arrow-more-usage" xlink:href="#icon-arrow-more" class="sprite-symbol-usage" /><use id="icon-arrow-more-bold-usage" xlink:href="#icon-arrow-more-bold" class="sprite-symbol-usage" /><use id="icon-arrow-next-usage" xlink:href="#icon-arrow-next" class="sprite-symbol-usage" /><use id="icon-arrow-prev-usage" xlink:href="#icon-arrow-prev" class="sprite-symbol-usage" /><use id="icon-arrow-return-usage" xlink:href="#icon-arrow-return" class="sprite-symbol-usage" /><use id="icon-arrow-right-usage" xlink:href="#icon-arrow-right" class="sprite-symbol-usage" /><use id="icon-close-usage" xlink:href="#icon-close" class="sprite-symbol-usage" /><use id="icon-contents-usage" xlink:href="#icon-contents" class="sprite-symbol-usage" /><use id="icon-earth-usage" xlink:href="#icon-earth" class="sprite-symbol-usage" /><use id="icon-mail-usage" xlink:href="#icon-mail" class="sprite-symbol-usage" /><use id="icon-phone-usage" xlink:href="#icon-phone" class="sprite-symbol-usage" /><use id="icon-search-usage" xlink:href="#icon-search" class="sprite-symbol-usage" /><use id="icon-slider-next-usage" xlink:href="#icon-slider-next" class="sprite-symbol-usage" /><use id="icon-slider-prev-usage" xlink:href="#icon-slider-prev" class="sprite-symbol-usage" /></svg>