<svg xmlns="http://www.w3.org/2000/svg" xmlns:xlink="http://www.w3.org/1999/xlink"><defs><style>
    .sprite-symbol-usage {display: none;}
    .sprite-symbol-usage:target {display: inline;}
  </style><symbol viewBox="0 0 188 148" id="icon-angel">
<path fill-rule="evenodd" clip-rule="evenodd" d="M116.36 10.9884C113.759 10.9371 111.178 10.5442 108.689 9.82065C102.919 8.2087 97.228 5.02289 98.0863 2.20515C98.1935 1.89242 98.3658 1.60396 98.5929 1.35737C98.8199 1.11078 99.0967 0.911235 99.4066 0.7709C101.572 -0.384118 106.246 -0.231808 111.29 1.16437C117.06 2.72554 122.751 5.94944 121.919 8.77986C121.811 9.0926 121.639 9.38106 121.412 9.62764C121.185 9.87423 120.908 10.0738 120.598 10.2141C119.271 10.7951 117.817 11.0607 116.36 10.9884ZM99.5955 2.09227C99.4845 2.20554 99.3979 2.3388 99.3406 2.48439C98.9445 3.8171 102.457 6.76176 109.058 8.58948C113.64 9.85873 118.129 10.0618 119.965 9.08448C120.262 8.9511 120.498 8.71577 120.625 8.42447C121.008 7.10445 117.495 4.1598 110.894 2.31938C106.325 1.05013 101.836 0.847055 99.9876 1.82438C99.8398 1.88796 99.7066 1.979 99.5955 2.09227ZM174.778 76.6735C166.324 85.0677 154.863 89.7896 142.908 89.8033C131.923 89.7822 121.322 85.7855 113.091 78.5617C104.86 71.3379 99.5629 61.3824 98.1917 50.5594C97.2891 58.57 98.0743 66.6795 100.498 74.3726C102.921 82.0656 106.929 89.174 112.268 95.2461C117.606 101.318 124.159 106.221 131.508 109.643C138.857 113.066 146.843 114.932 154.958 115.125V148H153.455C141.587 148.016 129.933 144.857 119.718 138.856C109.503 132.855 101.104 124.233 95.4037 113.895C89.7034 103.558 86.912 91.8866 87.3228 80.1079C87.7336 68.3293 91.3314 56.8778 97.7382 46.9567C94.2726 51.4581 89.4236 54.7149 83.9263 56.2337C78.429 57.7524 72.5829 57.4502 67.2741 55.373C61.9652 53.2957 57.483 49.5566 54.5067 44.7223C51.5303 39.8879 50.2221 34.2219 50.7803 28.5829L57.9329 29.8696C57.5144 34.6566 58.678 39.4486 61.2477 43.5201C63.8173 47.5916 67.653 50.7209 72.1738 52.434C76.6947 54.1471 81.6546 54.3508 86.3025 53.0142C90.9504 51.6776 95.0332 48.8736 97.9326 45.0267C98.127 44.7822 98.3084 44.5249 98.4768 44.2675C95.8899 43.3963 93.6097 41.8053 91.9074 39.6838C90.2052 37.5624 89.1527 34.9999 88.8753 32.3014L88.7328 33.112L23.7899 21.5319C19.2497 21.7387 14.7993 22.8606 10.7095 24.8293C6.61974 26.7979 2.976 29.5722 0 32.9833L4.96271 2C6.75759 6.2197 9.41021 10.0261 12.7546 13.181C16.099 16.336 20.0631 18.7715 24.3989 20.3352L88.8235 31.7996V30.8603C88.8275 27.9059 89.7625 25.0269 91.4973 22.6268C93.2321 20.2266 95.6798 18.4257 98.4972 17.4765C101.315 16.5273 104.361 16.4773 107.208 17.3336C110.055 18.1899 112.562 19.9096 114.375 22.2515C116.189 24.5935 117.219 27.4403 117.322 30.3929C117.424 33.3455 116.593 36.2559 114.946 38.7161C113.298 41.1763 110.917 43.0629 108.136 44.1115C105.354 45.1601 102.312 45.3182 99.4357 44.5635L99.1247 45.0267C99.1247 45.3259 99.1501 45.6377 99.1757 45.9528C99.2019 46.2745 99.2283 46.5996 99.2283 46.9181C99.6981 51.614 101.97 55.95 105.574 59.0263C109.178 62.1027 113.836 63.6832 118.582 63.4398C123.327 63.1965 127.797 61.148 131.062 57.7195C134.327 54.291 136.138 49.7456 136.118 45.0267H137.414C137.421 48.9683 136.232 52.8205 134.003 56.0816C131.773 59.3427 128.606 61.8614 124.915 63.3097C121.223 64.758 117.178 65.0687 113.305 64.2013C109.433 63.3339 105.914 61.3287 103.206 58.4468C106.109 62.8244 110.357 66.1553 115.318 67.9447C120.28 69.7341 125.69 69.8866 130.745 68.3794C135.801 66.8722 140.232 63.7858 143.38 59.5787C146.528 55.3715 148.226 50.2682 148.221 45.0267H149.516C149.528 50.2297 147.944 55.3128 144.975 59.5999C142.006 63.8869 137.792 67.1746 132.896 69.0255C127.999 70.8764 122.65 71.2028 117.562 69.9612C112.474 68.7196 107.887 65.969 104.411 62.0752C108.082 67.457 113.395 71.5271 119.569 73.687C125.742 75.8469 132.451 75.9826 138.709 74.0742C144.966 72.1658 150.441 68.314 154.33 63.0852C158.218 57.8564 160.314 51.5266 160.31 45.0267H161.606C161.608 51.5275 159.594 57.8714 155.838 63.1959C152.082 68.5205 146.766 72.5675 140.613 74.787C134.46 77.0065 127.767 77.2908 121.446 75.6012C115.124 73.9116 109.48 70.33 105.279 65.3434C109.678 71.9756 116.114 77.0223 123.631 79.7343C131.147 82.4462 139.344 82.6788 147.005 80.3975C154.665 78.1162 161.38 73.4426 166.153 67.0707C170.927 60.6988 173.503 52.9682 173.501 45.0267H174.796C174.799 52.9082 172.347 60.5977 167.776 67.041C163.205 73.4842 156.739 78.3659 149.264 81.0166C141.79 83.6674 133.672 83.9575 126.025 81.8472C118.378 79.7369 111.575 75.3295 106.549 69.2292C111.776 76.9734 119.37 82.8444 128.212 85.9762C137.055 89.1079 146.677 89.3345 155.658 86.6224C164.64 83.9104 172.507 78.4033 178.096 70.9138C183.686 63.4243 186.704 54.349 186.704 45.0267H188C187.986 56.898 183.231 68.2792 174.778 76.6735Z" />
</symbol><symbol viewBox="0 0 25 21" id="icon-arrow-bottom">
<path d="M12.8359 -4.18902e-08L12.8359 20L11.8359 20L11.8359 0L12.8359 -4.18902e-08Z" />
<path d="M24.6738 9.41602L12.3369 20.6758L0 9.41602L0.673828 8.67773L12.3369 19.3223L24 8.67773L24.6738 9.41602Z" />
</symbol><symbol viewBox="0 0 24 24" id="icon-arrow-left">
<path fill-rule="evenodd" clip-rule="evenodd" d="M21 12.5L3 12.5L3 11.5L21 11.5L21 12.5Z" />
<path fill-rule="evenodd" clip-rule="evenodd" d="M13.2657 6.41934e-08L14 0.65722L3.35129 12L14 23.3428L13.2657 24L2 12L13.2657 6.41934e-08Z" />
</symbol><symbol viewBox="0 0 24 24" id="icon-arrow-right">
    <path fill-rule="evenodd" clip-rule="evenodd" d="M21 12.5L2 12.5L2 11.5L21 11.5L21 12.5Z" />
    <path fill-rule="evenodd" clip-rule="evenodd" d="M10.7343 24L10 23.3428L20.6487 12L10 0.657219L10.7343 0L22 12L10.7343 24Z" />
</symbol><symbol viewBox="0 0 25 21" id="icon-arrow-top">
<path d="M11.8379 20.6758L11.8379 0.675825L12.8379 0.675825L12.8379 20.6758L11.8379 20.6758Z" />
<path d="M1.74299e-06 11.2598L12.3369 4.49475e-05L24.6738 11.2598L24 11.9981L12.3369 1.35356L0.67383 11.9981L1.74299e-06 11.2598Z" />
</symbol><symbol viewBox="0 0 21 25" id="icon-arrow-topbar-left">
<path fill-rule="evenodd" clip-rule="evenodd" d="M1.37161 12.8234L20.7175 12.8234L20.7175 11.8507L1.37161 11.8507L1.37161 12.8234Z" />
<path fill-rule="evenodd" clip-rule="evenodd" d="M11.6093 24.337L12.3237 23.6813L2.02713 12.337L12.3237 0.992747L11.6093 0.337035L0.71752 12.337L11.6093 24.337Z" />
</symbol><symbol viewBox="0 0 20 25" id="icon-arrow-topbar-right">
<path fill-rule="evenodd" clip-rule="evenodd" d="M19.3459 12.8234L0 12.8234L-4.18902e-08 11.8507L19.3459 11.8507L19.3459 12.8234Z" />
<path fill-rule="evenodd" clip-rule="evenodd" d="M9.10823 24.337L8.39377 23.6813L18.6904 12.337L8.39377 0.992747L9.10823 0.337035L20 12.337L9.10823 24.337Z" />
</symbol><symbol viewBox="0 0 27 27" id="icon-ball">
<path fill-rule="evenodd" clip-rule="evenodd" d="M2.04288 12.5H6.87594C6.79071 11.8808 6.62647 11.2737 6.38623 10.6937C6.01769 9.80393 5.47752 8.99551 4.79656 8.31455C4.46863 7.98662 4.11115 7.69135 3.72926 7.43217C2.79895 8.92702 2.20215 10.651 2.04288 12.5ZM4.93046 5.83087C5.38721 6.14767 5.81584 6.5054 6.21077 6.90034C7.07745 7.76702 7.76494 8.79592 8.23399 9.92829C8.57495 10.7514 8.79562 11.6175 8.89072 12.5H10.0278C10.5801 12.5 11.0278 12.9477 11.0278 13.5C11.0278 14.0523 10.5801 14.5 10.0278 14.5H8.89072C8.79562 15.3825 8.57495 16.2486 8.23399 17.0717C7.76494 18.2041 7.07745 19.233 6.21077 20.0997C5.81584 20.4946 5.38721 20.8523 4.93046 21.1691C7.03612 23.5204 10.0953 25 13.5 25C16.9047 25 19.9639 23.5204 22.0695 21.1691C21.6128 20.8523 21.1841 20.4946 20.7892 20.0997C19.9225 19.233 19.235 18.2041 18.766 17.0717C18.425 16.2486 18.2043 15.3825 18.1092 14.5H14.5V21.8333C14.5 22.3856 14.0523 22.8333 13.5 22.8333C12.9477 22.8333 12.5 22.3856 12.5 21.8333V2.04288C9.49918 2.30136 6.82776 3.71226 4.93046 5.83087ZM14.5 2.04288V12.5H18.1092C18.2043 11.6176 18.425 10.7514 18.766 9.92829C19.235 8.79592 19.9225 7.76702 20.7892 6.90034C21.1841 6.5054 21.6128 6.14767 22.0695 5.83086C20.1722 3.71226 17.5008 2.30136 14.5 2.04288ZM23.2707 7.43215C22.8888 7.69134 22.5313 7.98662 22.2034 8.31456C21.5224 8.99552 20.9823 9.80394 20.6137 10.6937C20.3735 11.2737 20.2093 11.8808 20.124 12.5H24.9571C24.7979 10.651 24.201 8.92701 23.2707 7.43215ZM24.9571 14.5H20.124C20.2093 15.1192 20.3735 15.7264 20.6137 16.3064C20.9823 17.1961 21.5224 18.0045 22.2034 18.6855C22.5313 19.0134 22.8888 19.3087 23.2707 19.5679C24.201 18.073 24.7979 16.349 24.9571 14.5ZM3.72926 19.5678C4.11115 19.3087 4.46863 19.0134 4.79656 18.6854C5.47752 18.0045 6.01769 17.1961 6.38623 16.3063C6.62647 15.7263 6.79071 15.1192 6.87594 14.5H2.04288C2.20215 16.349 2.79895 18.073 3.72926 19.5678ZM0 13.5C0 6.04416 6.04416 0 13.5 0C20.9558 0 27 6.04416 27 13.5C27 20.9558 20.9558 27 13.5 27C6.04416 27 0 20.9558 0 13.5Z" />
</symbol><symbol viewBox="0 0 48 48" id="icon-bell">
<path fill-rule="evenodd" clip-rule="evenodd" d="M24.9133 11.7466C24.4112 11.7466 23.9296 11.9461 23.5746 12.3011C23.2195 12.6562 23.02 13.1378 23.02 13.6399V13.7332L23.02 13.7349C23.0205 13.8879 23.0299 14.0405 23.0481 14.192C21.5759 14.5788 20.2566 15.4169 19.2792 16.5945C18.1956 17.8999 17.5997 19.5415 17.5933 21.2381L17.5933 21.2399V26.4266C17.5933 28.3592 17.3539 29.3976 16.7952 29.9879C16.2448 30.5693 15.2561 30.8466 13.3333 30.8466H12.8333V31.3466V33.7599V34.2599H13.3333H24.2604C23.8949 34.6083 23.59 35.0164 23.3592 35.4673C23.0779 36.017 22.9128 36.6187 22.874 37.2349L22.8731 37.2506V37.2663V37.3729C22.8731 37.8751 23.0725 38.3567 23.4276 38.7117C23.7827 39.0668 24.2642 39.2663 24.7664 39.2663C25.2685 39.2663 25.7501 39.0668 26.1052 38.7117C26.4603 38.3567 26.6597 37.8751 26.6597 37.3729V37.2663V37.2573L26.6594 37.2483C26.6376 36.6422 26.4935 36.0467 26.2357 35.4976C26.0204 35.039 25.7295 34.6207 25.3759 34.2599H36.5067H37.0067V33.7599V31.3199V30.8199H36.5067C34.5769 30.8199 33.5847 30.5426 33.0327 29.9608C32.4728 29.3706 32.2333 28.3326 32.2333 26.3999L32.2333 21.2399L32.2333 21.2381C32.227 19.5415 31.6311 17.8999 30.5475 16.5945C29.5701 15.4169 28.2508 14.5788 26.7786 14.192C26.7968 14.0405 26.8061 13.8879 26.8067 13.7349L26.8067 13.7332V13.6399C26.8067 13.1378 26.6072 12.6562 26.2521 12.3011C25.8971 11.9461 25.4155 11.7466 24.9133 11.7466ZM24.2817 13.0082C24.4492 12.8407 24.6764 12.7466 24.9133 12.7466C25.1503 12.7466 25.3775 12.8407 25.545 13.0082C25.7126 13.1758 25.8067 13.403 25.8067 13.6399V13.7324C25.8058 13.9744 25.7752 14.2154 25.7155 14.4499L25.5845 14.9646L26.1061 15.0643C27.5446 15.3395 28.8427 16.1062 29.7781 17.2331C30.7132 18.3598 31.2277 19.7766 31.2333 21.2408V26.3999C31.2333 28.3205 31.4472 29.7425 32.3073 30.6491C33.0987 31.4832 34.3278 31.7696 36.0067 31.8137V33.2599H13.8333V31.8403C15.5061 31.7961 16.7319 31.5095 17.5215 30.6753C18.3794 29.7689 18.5933 28.3472 18.5933 26.4266V21.2409C18.599 19.7766 19.1134 18.3599 20.0486 17.2331C20.984 16.1062 22.2821 15.3395 23.7206 15.0643L24.2422 14.9646L24.1112 14.4499C24.0515 14.2154 24.0209 13.9744 24.02 13.7324V13.6399C24.02 13.403 24.1141 13.1758 24.2817 13.0082ZM24.2494 35.9229C24.399 35.6307 24.5885 35.3616 24.812 35.1233C25.02 35.3643 25.1946 35.6331 25.3305 35.9226C25.5298 36.347 25.6417 36.8071 25.6597 37.2756V37.3729C25.6597 37.6099 25.5656 37.8371 25.3981 38.0046C25.2305 38.1721 25.0033 38.2663 24.7664 38.2663C24.5295 38.2663 24.3022 38.1722 24.1347 38.0046C23.9672 37.8371 23.8731 37.6099 23.8731 37.3729V37.2825C23.9049 36.8085 24.033 36.3459 24.2494 35.9229Z" />
</symbol><symbol viewBox="0 0 89 93" id="icon-biscroma">
<path fill-rule="evenodd" clip-rule="evenodd" d="M61.3977 8.96689L31.2782 91.395L27.5212 90.0221L57.6407 7.59406L61.3977 8.96689Z" />
<path d="M48.0838 9.68238C50.762 14.747 48.9471 20.9605 44.0302 23.5606C39.1132 26.1607 32.9562 24.1627 30.278 19.0981C27.5998 14.0334 29.4147 7.81996 34.3316 5.21988C39.2486 2.61981 45.4056 4.61774 48.0838 9.68238Z" />
<path d="M38.3856 33.4509C41.0637 38.5156 39.2489 44.7291 34.3319 47.3291C29.415 49.9292 23.2579 47.9313 20.5797 42.8666C17.9016 37.802 19.7164 31.5885 24.6334 28.9884C29.5503 26.3884 35.7074 28.3863 38.3856 33.4509Z" />
</symbol><symbol viewBox="0 0 36 36" id="icon-burger">
<path fill-rule="evenodd" clip-rule="evenodd" d="M28 10.5066H8V9.50661H28V10.5066Z" />
<path fill-rule="evenodd" clip-rule="evenodd" d="M28 18.5H8V17.5H28V18.5Z" />
<path fill-rule="evenodd" clip-rule="evenodd" d="M28 26.4934H8V25.4934H28V26.4934Z" />
<path fill-rule="evenodd" clip-rule="evenodd" d="M28 22.4967H8V21.4967H28V22.4967Z" />
<path fill-rule="evenodd" clip-rule="evenodd" d="M28 14.5033H8V13.5033H28V14.5033Z" />
</symbol><symbol viewBox="0 0 28 28" id="icon-check">
<path d="M21.4238 8.66504L14 20.5439L6.57617 8.66504L7.42383 8.13574L14 18.6562L20.5762 8.13574L21.4238 8.66504Z" />
</symbol><symbol viewBox="0 0 192 192" id="icon-cinema">
<path fill-rule="evenodd" clip-rule="evenodd" d="M97.6899 49.7572C74.2164 49.7572 55.1874 68.7863 55.1874 92.2598C55.1874 115.733 74.2164 134.762 97.6899 134.762C121.163 134.762 140.192 115.733 140.192 92.2598C140.192 68.7863 121.163 49.7572 97.6899 49.7572ZM51.1802 92.2598C51.1802 66.5731 72.0032 45.75 97.6899 45.75C123.377 45.75 144.2 66.5731 144.2 92.2598C144.2 117.946 123.377 138.77 97.6899 138.77C72.0032 138.77 51.1802 117.946 51.1802 92.2598Z" />
<path fill-rule="evenodd" clip-rule="evenodd" d="M46.5291 134.816H97.6898V138.823H46.5291V134.816Z" />
<path d="M73.8929 103.546C80.1261 103.546 85.1793 98.4931 85.1793 92.2599C85.1793 86.0267 80.1261 80.9736 73.8929 80.9736C67.6597 80.9736 62.6067 86.0267 62.6067 92.2599C62.6067 98.4931 67.6597 103.546 73.8929 103.546Z" />
<path fill-rule="evenodd" clip-rule="evenodd" d="M73.8929 98.15C77.146 98.15 79.7832 95.5128 79.7832 92.2599C79.7832 89.0069 77.146 86.3698 73.8929 86.3698C70.6399 86.3698 68.0028 89.0068 68.0028 92.2599C68.0028 95.5129 70.6399 98.15 73.8929 98.15ZM85.1793 92.2599C85.1793 98.4931 80.1261 103.546 73.8929 103.546C67.6597 103.546 62.6067 98.4931 62.6067 92.2599C62.6067 86.0267 67.6597 80.9736 73.8929 80.9736C80.1261 80.9736 85.1793 86.0267 85.1793 92.2599Z" />
<path d="M97.6898 79.7493C103.923 79.7493 108.976 74.6962 108.976 68.463C108.976 62.2298 103.923 57.1768 97.6898 57.1768C91.4566 57.1768 86.4036 62.2298 86.4036 68.463C86.4036 74.6962 91.4566 79.7493 97.6898 79.7493Z" />
<path fill-rule="evenodd" clip-rule="evenodd" d="M97.6898 74.3531C100.943 74.3531 103.58 71.716 103.58 68.463C103.58 65.2101 100.943 62.5729 97.6898 62.5729C94.4368 62.5729 91.7997 65.21 91.7997 68.463C91.7997 71.7161 94.4368 74.3531 97.6898 74.3531ZM108.976 68.463C108.976 74.6962 103.923 79.7493 97.6898 79.7493C91.4566 79.7493 86.4036 74.6962 86.4036 68.463C86.4036 62.2298 91.4566 57.1768 97.6898 57.1768C103.923 57.1768 108.976 62.2298 108.976 68.463Z" />
<path d="M97.6898 127.397C103.923 127.397 108.976 122.344 108.976 116.11C108.976 109.877 103.923 104.824 97.6898 104.824C91.4566 104.824 86.4036 109.877 86.4036 116.11C86.4036 122.344 91.4566 127.397 97.6898 127.397Z" />
<path fill-rule="evenodd" clip-rule="evenodd" d="M97.6898 122.001C100.943 122.001 103.58 119.363 103.58 116.11C103.58 112.858 100.943 110.22 97.6898 110.22C94.4368 110.22 91.7997 112.857 91.7997 116.11C91.7997 119.364 94.4368 122.001 97.6898 122.001ZM108.976 116.11C108.976 122.344 103.923 127.397 97.6898 127.397C91.4566 127.397 86.4036 122.344 86.4036 116.11C86.4036 109.877 91.4566 104.824 97.6898 104.824C103.923 104.824 108.976 109.877 108.976 116.11Z" />
<path d="M121.487 103.546C127.72 103.546 132.773 98.4931 132.773 92.2599C132.773 86.0267 127.72 80.9736 121.487 80.9736C115.254 80.9736 110.201 86.0267 110.201 92.2599C110.201 98.4931 115.254 103.546 121.487 103.546Z" />
<path fill-rule="evenodd" clip-rule="evenodd" d="M121.487 98.15C124.74 98.15 127.377 95.5128 127.377 92.2599C127.377 89.0069 124.74 86.3698 121.487 86.3698C118.234 86.3698 115.597 89.0068 115.597 92.2599C115.597 95.5129 118.234 98.15 121.487 98.15ZM132.773 92.2599C132.773 98.4931 127.72 103.546 121.487 103.546C115.254 103.546 110.201 98.4931 110.201 92.2599C110.201 86.0267 115.254 80.9736 121.487 80.9736C127.72 80.9736 132.773 86.0267 132.773 92.2599Z" />
<path d="M97.6897 97.3172C100.483 97.3172 102.747 95.0528 102.747 92.2597C102.747 89.4665 100.483 87.2021 97.6897 87.2021C94.8966 87.2021 92.6323 89.4665 92.6323 92.2597C92.6323 95.0528 94.8966 97.3172 97.6897 97.3172Z" />
<path fill-rule="evenodd" clip-rule="evenodd" d="M97.6897 91.9211C97.5028 91.9211 97.3512 92.0726 97.3512 92.2597C97.3512 92.4468 97.5028 92.5983 97.6897 92.5983C97.8769 92.5983 98.0284 92.4465 98.0284 92.2597C98.0284 92.0728 97.8769 91.9211 97.6897 91.9211ZM102.747 92.2597C102.747 95.0528 100.483 97.3172 97.6897 97.3172C94.8966 97.3172 92.6323 95.0528 92.6323 92.2597C92.6323 89.4665 94.8966 87.2021 97.6897 87.2021C100.483 87.2021 102.747 89.4665 102.747 92.2597Z" />
</symbol><symbol viewBox="0 0 48 48" id="icon-close">
<path fill-rule="evenodd" clip-rule="evenodd" d="M34.3133 35.0114L12.9799 13.6957L13.6867 12.9883L35.0201 34.304L34.3133 35.0114Z" />
<path fill-rule="evenodd" clip-rule="evenodd" d="M13.6867 35.0114L35.0201 13.6957L34.3133 12.9883L12.9799 34.304L13.6867 35.0114Z" />
</symbol><symbol viewBox="0 0 23 23" id="icon-close-fluid">
<path fill-rule="evenodd" clip-rule="evenodd" d="M21.9798 22.6696L0.646484 1.35388L1.3533 0.646484L22.6866 21.9622L21.9798 22.6696Z" />
<path fill-rule="evenodd" clip-rule="evenodd" d="M1.35319 22.6696L22.6865 1.35388L21.9797 0.646484L0.646376 21.9622L1.35319 22.6696Z" />
</symbol><symbol viewBox="0 0 13 13" id="icon-close-thin">
<path fill-rule="evenodd" clip-rule="evenodd" d="M11.854 12.6465L0.646484 1.43897L1.43897 0.646484L12.6465 11.854L11.854 12.6465Z" />
<path fill-rule="evenodd" clip-rule="evenodd" d="M1.43897 12.6465L12.6465 1.43897L11.854 0.646484L0.646484 11.854L1.43897 12.6465Z" />
</symbol><symbol viewBox="0 0 89 94" id="icon-croma">
<path fill-rule="evenodd" clip-rule="evenodd" d="M61.3573 9.32516L31.488 91.8241L27.7249 90.4621L57.5942 7.96312L61.3573 9.32516Z" />
<path d="M47.598 9.93951C50.3114 15.0645 48.5522 21.3101 43.6686 23.8893C38.785 26.4686 32.6265 24.4049 29.9131 19.2799C27.1997 14.1549 28.9589 7.90933 33.8425 5.33006C38.726 2.75078 44.8846 4.81451 47.598 9.93951Z" />
</symbol><symbol viewBox="0 0 12 7" id="icon-drop">
<path fill-rule="evenodd" clip-rule="evenodd" d="M0.646484 1.35359L1.35359 0.646484L6.00004 5.29293L10.6465 0.646484L11.3536 1.35359L6.00004 6.70714L0.646484 1.35359Z" />
</symbol><symbol viewBox="0 0 32 32" id="icon-dzen">
<path d="M2.61999 16.1378C2.53363 16.1323 2.44722 16.1478 2.36764 16.1829C2.28806 16.2181 2.21749 16.2721 2.16156 16.3404C2.1036 16.4057 2.0595 16.4828 2.03212 16.5668C2.00475 16.6508 1.9947 16.7398 2.00263 16.8281C2.30124 20.2086 3.73023 23.3749 6.0427 25.7799C8.35518 28.185 11.4059 29.6776 14.6677 30H14.7288C14.8812 29.9979 15.0272 29.9369 15.1384 29.829C15.2017 29.7698 15.2524 29.6975 15.2871 29.6168C15.3218 29.5361 15.3399 29.4488 15.3401 29.3604C15.2301 20.0767 14.0504 16.2834 2.61999 16.1378ZM14.6677 1.00273C11.4059 1.32512 8.35518 2.81777 6.0427 5.22279C3.73023 7.6278 2.30124 10.7941 2.00263 14.1747C1.9947 14.2629 2.00475 14.352 2.03212 14.436C2.0595 14.52 2.1036 14.5971 2.16156 14.6623C2.2187 14.7279 2.28847 14.7804 2.36637 14.8164C2.44428 14.8524 2.52858 14.8711 2.61388 14.8713C14.0442 14.7319 15.224 10.9387 15.334 1.64866C15.3318 1.4698 15.2615 1.29907 15.1384 1.17371C15.0747 1.11441 15.0004 1.06877 14.9196 1.03942C14.8388 1.01007 14.7532 0.9976 14.6677 1.00273ZM29.3805 16.1378C17.9135 16.2708 16.7276 20.0704 16.6237 29.3604C16.6237 29.5284 16.6881 29.6894 16.8028 29.8082C16.9174 29.9269 17.0729 29.9937 17.235 29.9937H17.29C20.5576 29.6815 23.6169 28.195 25.9378 25.7916C28.2587 23.3883 29.695 20.2195 29.9979 16.8344C30.0049 16.7471 29.9944 16.6593 29.9671 16.5765C29.9397 16.4937 29.8961 16.4176 29.8389 16.3531C29.7817 16.2856 29.7111 16.2314 29.6321 16.1943C29.5531 16.1572 29.4673 16.1379 29.3805 16.1378ZM29.3805 14.8713C29.4658 14.8711 29.5501 14.8524 29.628 14.8164C29.7059 14.7804 29.7757 14.7279 29.8328 14.6623C29.8908 14.5971 29.9349 14.52 29.9623 14.436C29.9896 14.352 29.9997 14.2629 29.9917 14.1747C29.6918 10.7882 28.2576 7.61727 25.9376 5.21148C23.6177 2.80569 20.5584 1.31674 17.29 1.00273C17.2048 0.994509 17.1189 1.00492 17.0378 1.03328C16.9567 1.06164 16.8823 1.10733 16.8193 1.16738C16.7563 1.22786 16.7064 1.30142 16.6727 1.38326C16.639 1.46509 16.6223 1.55337 16.6237 1.64233C16.7276 10.9323 17.9135 14.7319 29.3805 14.8713Z" />
</symbol><symbol viewBox="0 0 36 36" id="icon-edit">
<path d="M24.4316 11.4004L24.8193 11.7656L13.4277 22.4688L13.0859 22.1045L12.7432 21.7402L23.3574 11.7646L22.21 10.6855L11.707 20.5547V23.3105L11.7998 23.3984H14.7979L25.6562 13.1953L25.999 13.5596L26.3408 13.9238L15.3379 24.2637L15.1934 24.3984H11.4043L11.2598 24.2637L10.8643 23.8916L10.707 23.7441V20.123L10.8643 19.9746L21.8682 9.63574L22.21 9.31348L24.4316 11.4004Z" />
<path d="M11.3701 23.7471L11.7119 24.1113L10.5 25.25V25.5H26V26.5H9.5V24.8184L9.65723 24.6699L11.0273 23.3828L11.3701 23.7471Z" />
</symbol><symbol viewBox="0 0 36 36" id="icon-eye">
<path fill-rule="evenodd" clip-rule="evenodd" d="M7.30372 19.3786C7.01461 19.0243 6.79065 18.7297 6.63967 18.5248L6.61409 18.49L6.63931 18.4556C6.79001 18.251 7.01357 17.9568 7.30221 17.603C7.8801 16.8946 8.71563 15.9511 9.74632 15.0091C11.8252 13.1091 14.6164 11.29 17.6403 11.29C20.6642 11.29 23.4579 13.1092 25.5394 15.0093C26.5714 15.9513 27.4081 16.8949 27.987 17.6033C28.2761 17.9571 28.5 18.2513 28.651 18.456L28.6764 18.4905L28.651 18.5251C28.5003 18.7301 28.2767 19.0246 27.9881 19.3789C27.4102 20.0882 26.5746 21.033 25.5439 21.9762C23.465 23.8787 20.6738 25.7 17.6502 25.7C14.6265 25.7 11.8329 23.8786 9.75133 21.976C8.71937 21.0327 7.88256 20.0879 7.30372 19.3786ZM29.7043 18.7703C29.7044 18.7701 29.7045 18.77 29.2903 18.49L29.7045 18.77L29.894 18.4896L29.7041 18.2095L29.2903 18.49C29.7041 18.2095 29.704 18.2093 29.7039 18.2092L29.7036 18.2087L29.7025 18.2071L29.699 18.202L29.6864 18.1836C29.6754 18.1677 29.6594 18.1448 29.6386 18.1153C29.5969 18.0562 29.5356 17.9706 29.4558 17.8624C29.2962 17.646 29.0621 17.3386 28.7613 16.9705C28.1605 16.2352 27.2904 15.2537 26.2136 14.2708C24.0776 12.3209 21.0463 10.29 17.6403 10.29C14.2341 10.29 11.2053 12.321 9.07169 14.271C7.99611 15.254 7.12727 16.2355 6.52735 16.9708C6.22708 17.3389 5.99338 17.6463 5.83403 17.8627C5.75434 17.971 5.6932 18.0565 5.65157 18.1156C5.63075 18.1452 5.61481 18.1681 5.60386 18.184L5.59121 18.2024L5.58772 18.2075L5.58669 18.209L5.58635 18.2095C5.58623 18.2097 5.58613 18.2098 6.00024 18.49L5.58613 18.2098L5.39648 18.4901L5.58621 18.7704L6.00024 18.49C5.58621 18.7704 5.58631 18.7705 5.58643 18.7707L5.58677 18.7712L5.5878 18.7727L5.59129 18.7778L5.60397 18.7963C5.61493 18.8121 5.6309 18.8351 5.65175 18.8647C5.69345 18.9238 5.7547 19.0095 5.83453 19.1179C5.99414 19.3345 6.22822 19.6423 6.52895 20.0108C7.1298 20.7471 7.99987 21.7299 9.07665 22.7141C11.2126 24.6665 14.2439 26.7 17.6502 26.7C21.0567 26.7 24.0855 24.6664 26.219 22.7139C27.2946 21.7296 28.1634 20.7469 28.7633 20.0105C29.0636 19.642 29.2973 19.3342 29.4566 19.1175C29.5363 19.0092 29.5975 18.9235 29.6391 18.8643C29.6599 18.8347 29.6759 18.8118 29.6868 18.7959L29.6995 18.7775L29.7029 18.7723L29.704 18.7708L29.7043 18.7703ZM13.5002 18.4899C13.5002 16.22 15.3403 14.3799 17.6102 14.3799C19.8801 14.3799 21.7202 16.22 21.7202 18.4899C21.7202 20.7598 19.8801 22.5999 17.6102 22.5999C15.3403 22.5999 13.5002 20.7598 13.5002 18.4899ZM17.6102 13.3799C14.7881 13.3799 12.5002 15.6677 12.5002 18.4899C12.5002 21.3121 14.7881 23.5999 17.6102 23.5999C20.4324 23.5999 22.7202 21.3121 22.7202 18.4899C22.7202 15.6677 20.4324 13.3799 17.6102 13.3799Z" />
</symbol><symbol viewBox="0 0 36 36" id="icon-favorite">
<path fill-rule="evenodd" clip-rule="evenodd" d="M13.2229 9.62988H13.24C14.3132 9.62988 15.4076 10.0291 16.2391 10.7139C17.075 11.4023 17.67 12.4028 17.67 13.5999C17.67 13.9374 17.6035 14.2716 17.4744 14.5834C17.3452 14.8952 17.1559 15.1785 16.9173 15.4171C16.6786 15.6558 16.3953 15.8451 16.0835 15.9743C15.7722 16.1032 15.4385 16.1697 15.1015 16.1699C14.8186 16.1714 14.5382 16.1171 14.2763 16.01C14.0139 15.9027 13.7754 15.7446 13.5743 15.5448C13.3733 15.345 13.2138 15.1074 13.1049 14.8457C12.9961 14.584 12.94 14.3033 12.94 14.0199M15.1015 16.1699C15.101 16.1699 15.1005 16.1699 15.1 16.1699V15.6699L15.103 16.1699C15.1025 16.1699 15.102 16.1699 15.1015 16.1699ZM13.2229 9.62988L13.2058 9.63106ZM13.2571 10.6299C12.2695 10.7022 11.3488 11.1572 10.6914 11.8983C10.0303 12.6438 9.68836 13.6192 9.73936 14.6143L9.74002 14.6271V14.6399C9.74002 16.0004 10.2347 17.3801 11.0135 18.704C11.7911 20.0259 12.8354 21.264 13.8928 22.3318C14.9487 23.3982 16.007 24.2842 16.8032 24.9031C17.2008 25.2123 17.5319 25.4539 17.7628 25.617C17.7927 25.6382 17.8209 25.6579 17.8473 25.6764C17.876 25.6563 17.9068 25.6346 17.9396 25.6115C18.1729 25.4464 18.5067 25.2037 18.9073 24.8939C19.7094 24.2737 20.7753 23.3881 21.8387 22.3229C22.9035 21.2562 23.9551 20.0199 24.7381 18.6997C25.5222 17.3774 26.02 15.9995 26.02 14.6399V14.6265L26.0207 14.6131C26.074 13.6177 25.733 12.6414 25.0716 11.8957C24.4139 11.1541 23.4919 10.6998 22.5035 10.6299C21.6646 10.6341 20.8016 10.9573 20.1513 11.499C19.4999 12.0417 19.09 12.7771 19.09 13.5999C19.09 14.0163 19.2554 14.4156 19.5499 14.71C19.8443 15.0045 20.2436 15.1699 20.66 15.1699H20.663V15.1699C20.8147 15.1708 20.9649 15.1417 21.1053 15.0844C21.2456 15.027 21.3732 14.9424 21.4807 14.8355C21.5883 14.7287 21.6736 14.6016 21.7318 14.4616C21.79 14.3216 21.82 14.1715 21.82 14.0199C21.82 13.7998 21.7326 13.5886 21.5769 13.433C21.4213 13.2773 21.2101 13.1899 20.99 13.1899V12.1899C21.4754 12.1899 21.9408 12.3827 22.284 12.7259C22.6272 13.0691 22.82 13.5345 22.82 14.0199C22.82 14.3033 22.764 14.584 22.6551 14.8457C22.5463 15.1074 22.3867 15.345 22.1857 15.5448C21.9847 15.7446 21.7461 15.9027 21.4838 16.01C21.2219 16.1171 20.9414 16.1714 20.6585 16.1699C20.658 16.1699 20.6575 16.1699 20.657 16.1699L20.66 15.6699V16.1699C20.6595 16.1699 20.659 16.1699 20.6585 16.1699C19.9774 16.1695 19.3244 15.8988 18.8428 15.4171C18.3608 14.9352 18.09 14.2815 18.09 13.5999C18.09 12.4227 18.6801 11.4231 19.5112 10.7307C20.3392 10.041 21.4341 9.62988 22.52 9.62988H22.5366L22.5531 9.63098C23.8102 9.71434 24.9838 10.2896 25.8198 11.2321C26.6527 12.1713 27.0836 13.3998 27.02 14.6532C27.02 14.6487 27.02 14.6443 27.02 14.6399H26.52L27.0193 14.6666C27.0195 14.6621 27.0198 14.6576 27.02 14.6532C27.0168 16.2489 26.4342 17.8 25.5982 19.2098C24.7587 20.6255 23.6465 21.9274 22.5464 23.0294C21.4447 24.1329 20.3444 25.0467 19.519 25.685C19.1059 26.0044 18.7606 26.2556 18.517 26.4279C18.3952 26.514 18.2988 26.5805 18.2318 26.626C18.1983 26.6488 18.1721 26.6664 18.1536 26.6787L18.131 26.6937L18.1222 26.6994L18.1156 26.7036L18.1078 26.7083C18.1033 26.711 18.0863 26.7205 18.0736 26.7271C17.9568 26.7684 17.7848 26.7756 17.7367 26.7669C17.7132 26.7609 17.6767 26.749 17.6633 26.7438C17.6403 26.7346 17.6229 26.7256 17.6176 26.7228C17.6039 26.7157 17.5926 26.7091 17.588 26.7063C17.5767 26.6996 17.5649 26.6922 17.5549 26.6859C17.5337 26.6723 17.5055 26.6539 17.4718 26.6313C17.4038 26.5858 17.3071 26.5194 17.1858 26.4338C16.9432 26.2624 16.5998 26.0117 16.1894 25.6926C15.3692 25.055 14.2763 24.1404 13.1822 23.0354C12.0896 21.932 10.9852 20.6282 10.1516 19.2111C9.32131 17.7997 8.74308 16.2476 8.74003 14.6526C8.74024 14.6569 8.74045 14.6612 8.74067 14.6655L9.24002 14.6399H8.74002C8.74002 14.6441 8.74002 14.6484 8.74003 14.6526C8.67921 13.4001 9.11099 12.1732 9.9433 11.2348C10.7785 10.2932 11.9501 9.71722 13.2058 9.63106M13.2571 10.6299C14.0886 10.6342 14.9519 10.9493 15.6034 11.4858C16.2551 12.0225 16.67 12.757 16.67 13.5999C16.67 13.8061 16.6294 14.0102 16.5505 14.2007C16.4716 14.3912 16.356 14.5643 16.2102 14.71C16.0644 14.8558 15.8913 14.9715 15.7008 15.0504C15.5103 15.1293 15.3062 15.1699 15.1 15.1699L15.097 15.1699C14.9454 15.1708 14.7951 15.1417 14.6548 15.0844C14.5144 15.027 14.3868 14.9424 14.2793 14.8355C14.1718 14.7287 14.0864 14.6016 14.0282 14.4616C13.97 14.3216 13.94 14.1715 13.94 14.0199V14.0199C13.94 13.7998 14.0275 13.5886 14.1831 13.433C14.3388 13.2773 14.5499 13.1899 14.77 13.1899V12.1899C14.2847 12.1899 13.8192 12.3827 13.476 12.7259C13.1328 13.0691 12.94 13.5345 12.94 14.0199" />
<path fill-rule="evenodd" clip-rule="evenodd" d="M5.99996 13.9252C6.57434 13.9252 7.03996 13.4596 7.03996 12.8852C7.03996 12.3108 6.57434 11.8452 5.99996 11.8452C5.42558 11.8452 4.95996 12.3108 4.95996 12.8852C4.95996 13.4596 5.42558 13.9252 5.99996 13.9252ZM30.8002 12.8852C30.8002 13.4596 30.3346 13.9252 29.7602 13.9252C29.1858 13.9252 28.7202 13.4596 28.7202 12.8852C28.7202 12.3108 29.1858 11.8452 29.7602 11.8452C30.3346 11.8452 30.8002 12.3108 30.8002 12.8852ZM30.8002 17.165C30.8002 17.7394 30.3346 18.205 29.7602 18.205C29.1858 18.205 28.7202 17.7394 28.7202 17.165C28.7202 16.5906 29.1858 16.125 29.7602 16.125C30.3346 16.125 30.8002 16.5906 30.8002 17.165ZM7.03996 17.165C7.03996 17.7394 6.57434 18.205 5.99996 18.205C5.42558 18.205 4.95996 17.7394 4.95996 17.165C4.95996 16.5906 5.42558 16.125 5.99996 16.125C6.57434 16.125 7.03996 16.5906 7.03996 17.165Z" />
</symbol><symbol viewBox="0 0 20 22" id="icon-filter">
<path fill-rule="evenodd" clip-rule="evenodd" d="M20 3.51465H0V2.51465H20V3.51465Z" fill="#1A1A1A" />
<path fill-rule="evenodd" clip-rule="evenodd" d="M20 11.5146H0V10.5146H20V11.5146Z" fill="#1A1A1A" />
<path fill-rule="evenodd" clip-rule="evenodd" d="M20 19.5146H0V18.5146H20V19.5146Z" fill="#1A1A1A" />
<path d="M18 11C18 12.6569 16.6569 14 15 14C13.3431 14 12 12.6569 12 11C12 9.34315 13.3431 8 15 8C16.6569 8 18 9.34315 18 11Z" />
<path fill-rule="evenodd" clip-rule="evenodd" d="M15 13C16.1046 13 17 12.1046 17 11C17 9.89543 16.1046 9 15 9C13.8954 9 13 9.89543 13 11C13 12.1046 13.8954 13 15 13ZM15 14C16.6569 14 18 12.6569 18 11C18 9.34315 16.6569 8 15 8C13.3431 8 12 9.34315 12 11C12 12.6569 13.3431 14 15 14Z" fill="#1A1A1A" />
<path d="M12 19C12 20.6569 10.6569 22 9 22C7.34315 22 6 20.6569 6 19C6 17.3431 7.34315 16 9 16C10.6569 16 12 17.3431 12 19Z" />
<path fill-rule="evenodd" clip-rule="evenodd" d="M9 21C10.1046 21 11 20.1046 11 19C11 17.8954 10.1046 17 9 17C7.89543 17 7 17.8954 7 19C7 20.1046 7.89543 21 9 21ZM9 22C10.6569 22 12 20.6569 12 19C12 17.3431 10.6569 16 9 16C7.34315 16 6 17.3431 6 19C6 20.6569 7.34315 22 9 22Z" fill="#1A1A1A" />
<path d="M9 3C9 4.65685 7.65685 6 6 6C4.34315 6 3 4.65685 3 3C3 1.34315 4.34315 0 6 0C7.65685 0 9 1.34315 9 3Z" />
<path fill-rule="evenodd" clip-rule="evenodd" d="M6 5C7.10457 5 8 4.10457 8 3C8 1.89543 7.10457 1 6 1C4.89543 1 4 1.89543 4 3C4 4.10457 4.89543 5 6 5ZM6 6C7.65685 6 9 4.65685 9 3C9 1.34315 7.65685 0 6 0C4.34315 0 3 1.34315 3 3C3 4.65685 4.34315 6 6 6Z" fill="#1A1A1A" />
</symbol><symbol viewBox="0 0 27 31" id="icon-filter-clear">
<path d="M0 3.5V4.5H27V3.5H0Z" />
<path d="M0 15.5V16.5H27V15.5H0Z" />
<path d="M0 27.5V28.5H27V27.5H0Z" />
<path d="M3 16C3 18.2091 4.79086 20 7 20C9.20914 20 11 18.2091 11 16C11 13.7909 9.20914 12 7 12C4.79086 12 3 13.7909 3 16Z" fill="white" />
<path d="M4 16C4 14.3431 5.34315 13 7 13C8.65685 13 10 14.3431 10 16C10 17.6569 8.65685 19 7 19V20C9.20914 20 11 18.2091 11 16C11 13.7909 9.20914 12 7 12C4.79086 12 3 13.7909 3 16C3 18.2091 4.79086 20 7 20V19C5.34315 19 4 17.6569 4 16Z" />
<path d="M12 27C12 29.2091 13.7909 31 16 31C18.2091 31 20 29.2091 20 27C20 24.7909 18.2091 23 16 23C13.7909 23 12 24.7909 12 27Z" fill="white" />
<path d="M13 27C13 25.3431 14.3431 24 16 24C17.6569 24 19 25.3431 19 27C19 28.6569 17.6569 30 16 30V31C18.2091 31 20 29.2091 20 27C20 24.7909 18.2091 23 16 23C13.7909 23 12 24.7909 12 27C12 29.2091 13.7909 31 16 31V30C14.3431 30 13 28.6569 13 27Z" />
<path d="M16 4C16 6.20914 17.7909 8 20 8C22.2091 8 24 6.20914 24 4C24 1.79086 22.2091 0 20 0C17.7909 0 16 1.79086 16 4Z" fill="white" />
<path d="M17 4C17 2.34315 18.3431 1 20 1C21.6569 1 23 2.34315 23 4C23 5.65685 21.6569 7 20 7V8C22.2091 8 24 6.20914 24 4C24 1.79086 22.2091 0 20 0C17.7909 0 16 1.79086 16 4C16 6.20914 17.7909 8 20 8V7C18.3431 7 17 5.65685 17 4Z" />
</symbol><symbol viewBox="0 0 77 48" id="icon-halls">
<path d="M52 27C53.65 27 55 25.65 55 24C55 22.35 53.65 21 52 21C50.35 21 49 22.35 49 24C49 25.65 50.35 27 52 27Z" />
<path d="M68 5H64V42H68V5Z" />
<path d="M77 5H73V42H77V5Z" />
<path d="M40 24C40 14.1176 32.2781 6.01307 22.426 5.22876V0H22V48H22.426V42.7712C32.2781 41.9346 40 33.8824 40 24ZM22.426 42.2484V10.4052C30.6805 11.1895 37.071 18.0392 37.071 26.3007C37.071 34.5621 30.6805 41.4118 22.426 42.2484Z" />
<path d="M21.4191 0H21V48H21.4191V0Z" />
<path d="M20.4191 0H20V48H20.4191V0Z" />
<path d="M19.4191 0H19V48H19.4191V0Z" />
<path d="M17.5802 5.18212C7.76676 5.91494 0 14.0284 0 24.0262C0 33.9716 7.76676 42.1374 17.5802 42.8179V48H18V0H17.5802V5.18212ZM2.8863 21.6707C2.8863 13.2955 9.34111 6.43839 17.5802 5.75791V37.6358C9.34111 36.9029 2.8863 30.0458 2.8863 21.6707Z" />
</symbol><symbol viewBox="0 0 24 37" id="icon-hash">
<path d="M0.824219 16.916V14.1738L6.0293 12.7773V0.589844H8.69531V12.041L16.084 10.0098V0.589844H18.7754V9.22266L23.9805 7.82617V10.543L18.7754 11.9902V21.0801L23.9805 19.6328V22.4004L18.7754 23.7969V37H16.084V24.584L8.69531 26.5898V37H6.0293V27.3262L0.824219 28.7227V26.0312L6.0293 24.584V15.4688L0.824219 16.916ZM8.69531 23.8477L16.084 21.8164V12.7266L8.69531 14.7324V23.8477Z" />
</symbol><symbol viewBox="0 0 210 210" id="icon-history">
<path fill-rule="evenodd" clip-rule="evenodd" d="M98.5083 54.8923C88.3508 55.324 78.5903 59.0608 70.7274 65.5628C62.3497 72.4904 56.6508 82.1233 54.6127 92.8015C52.5746 103.48 54.325 114.534 59.5622 124.061C64.7994 133.587 73.1953 140.988 83.3033 144.989C93.4113 148.989 104.598 149.339 114.936 145.978C125.275 142.616 134.116 135.754 139.938 126.573C145.76 117.392 148.198 106.469 146.83 95.6841C145.463 84.8995 140.377 74.9295 132.448 67.4921L135.185 64.5748C143.793 72.649 149.314 83.4728 150.799 95.181C152.283 106.889 149.637 118.748 143.316 128.715C136.996 138.682 127.397 146.132 116.173 149.781C104.95 153.431 92.8048 153.051 81.8312 148.708C70.8576 144.365 61.7426 136.33 56.057 125.988C50.3713 115.646 48.471 103.644 50.6837 92.0516C52.8963 80.4589 59.0832 70.0011 68.1783 62.4802C77.2734 54.9593 88.707 50.8464 100.509 50.8501L102.508 50.8507V100.672L115.339 113.503L112.511 116.331L98.5083 102.329V54.8923Z" />
<path fill-rule="evenodd" clip-rule="evenodd" d="M129.775 62.2837H151.958V66.2837H133.775V84.642H129.775V62.2837Z" />
</symbol><symbol viewBox="0 0 210 210" id="icon-invalid">
<path fill-rule="evenodd" clip-rule="evenodd" d="M95.3751 104.142C81.1768 104.142 69.6668 115.652 69.6668 129.85C69.6668 144.048 81.1768 155.558 95.3751 155.558C109.573 155.558 121.083 144.048 121.083 129.85C121.083 115.652 109.573 104.142 95.3751 104.142ZM65.6668 129.85C65.6668 113.442 78.9677 100.142 95.3751 100.142C111.783 100.142 125.083 113.442 125.083 129.85C125.083 146.257 111.783 159.558 95.3751 159.558C78.9677 159.558 65.6668 146.257 65.6668 129.85Z" />
<path fill-rule="evenodd" clip-rule="evenodd" d="M142.118 153.203L131.21 118.67L135.024 117.465L145.932 151.998L142.118 153.203Z" />
<path fill-rule="evenodd" clip-rule="evenodd" d="M104.3 46.8003C99.2191 46.8003 95.1001 50.9193 95.1001 56.0003C95.1001 61.0813 99.2191 65.2003 104.3 65.2003C109.381 65.2003 113.5 61.0813 113.5 56.0003C113.5 50.9193 109.381 46.8003 104.3 46.8003ZM91.1001 56.0003C91.1001 48.7101 97.01 42.8003 104.3 42.8003C111.59 42.8003 117.5 48.7102 117.5 56.0003C117.5 63.2904 111.59 69.2003 104.3 69.2003C97.01 69.2003 91.1001 63.2905 91.1001 56.0003Z" />
<path fill-rule="evenodd" clip-rule="evenodd" d="M109.567 86.7937V74.0254H105.567V86.8004L105.567 86.813C105.585 89.7909 106.782 92.6406 108.894 94.7398C111.006 96.839 113.864 98.0171 116.842 98.0171C116.842 98.0171 116.842 98.0171 116.842 98.0171H129.617V94.0171H116.842C114.92 94.0171 113.077 93.2569 111.714 91.9025C110.352 90.5494 109.58 88.7131 109.567 86.7937Z" />
<!--<path fill-rule="evenodd" clip-rule="evenodd" d="M95.0663 102.55V74.0254H99.0663V102.55H95.0663Z" />-->
</symbol><symbol viewBox="0 0 111 148" id="icon-letter-e">
<path d="M31.7143 119.457H111V148H0V0H108.886V28.5429H31.7143V58.1429H91.9714V86.6857H31.7143V119.457Z" />
</symbol><symbol viewBox="0 0 32 148" id="icon-letter-i">
<path d="M0 148V0H32V148H0Z" />
</symbol><symbol viewBox="0 0 100 148" id="icon-letter-l">
<path d="M100 148H0V0H31.5789V119.457H100V148Z" />
</symbol><symbol viewBox="0 0 144 148" id="icon-letter-v">
<path d="M55.0588 148L0 0H33.8824L72 109.943L110.118 0H144L88.9412 148H55.0588Z" />
</symbol><symbol viewBox="0 0 36 36" id="icon-link-profile">
<path fill-rule="evenodd" clip-rule="evenodd" d="M18.4402 9.96973C16.6619 9.96973 15.2202 11.4114 15.2202 13.1897C15.2202 14.9615 16.6512 16.3991 18.4205 16.4097L18.4481 16.4097C20.2228 16.4055 21.6602 14.9655 21.6602 13.1897C21.6602 11.4114 20.2186 9.96973 18.4402 9.96973ZM14.2202 13.1897C14.2202 14.6793 14.992 15.9887 16.1576 16.7397C14.9082 17.1121 13.7583 17.7908 12.8197 18.7294C11.3344 20.2147 10.5 22.2292 10.5 24.3297V26.2597V26.7597H11H19.9528L18.1164 28.5961L18.8235 29.3032L21.4835 26.6432L21.8371 26.2896L21.4835 25.9361L18.7935 23.2461L18.0864 23.9532L19.8929 25.7597H11.5V24.3297C11.5 22.4944 12.2291 20.7342 13.5268 19.4365C14.824 18.1393 16.5832 17.4103 18.4177 17.4097L18.4402 17.4097L18.4472 17.4097C19.3467 17.4133 20.237 17.5921 21.0682 17.9364C21.9077 18.2842 22.6706 18.7939 23.3132 19.4365C23.9557 20.0791 24.4655 20.8419 24.8132 21.6815C25.161 22.5211 25.34 23.4209 25.34 24.3297V26.8797H26.34V24.3297C26.34 23.2896 26.1351 22.2597 25.7371 21.2988C25.3391 20.3379 24.7557 19.4648 24.0203 18.7294C23.2848 17.9939 22.4117 17.4106 21.4508 17.0125C21.208 16.9119 20.9607 16.8237 20.71 16.748C21.8827 15.9983 22.6602 14.6848 22.6602 13.1897C22.6602 10.8591 20.7709 8.96973 18.4402 8.96973C16.1096 8.96973 14.2202 10.8591 14.2202 13.1897Z" />
</symbol><symbol viewBox="0 0 22 17" id="icon-live-mobile">
<path d="M6.08594 0V17H5.08594V0H6.08594Z" />
<path d="M1 1.41699V17H0V1.41699H1Z" />
<path d="M11.1641 4.95801L11.1641 17L10.1641 17L10.1641 4.95801L11.1641 4.95801Z" />
<path d="M16.25 0.708008L16.25 17L15.25 17L15.25 0.708008L16.25 0.708008Z" />
<path d="M21.3359 9.9165L21.3359 16.9995L20.3359 16.9995L20.3359 9.9165L21.3359 9.9165Z" />
</symbol><symbol viewBox="0 0 122 144" id="icon-logo">
<path d="M121.105 71.9022C121.106 57.7526 115.785 44.1185 106.195 33.7005C96.6051 23.2826 83.4461 16.8406 69.3245 15.6506V0H68.0264V143.821H69.3245V128.17C83.4475 126.976 96.6066 120.531 106.196 110.11C115.786 99.6895 121.106 86.0535 121.105 71.9022ZM69.3245 126.582V31.2689C81.1662 32.4442 92.1475 37.9725 100.135 46.7797C108.123 55.5869 112.546 67.0441 112.546 78.9255C112.546 90.8069 108.123 102.264 100.135 111.071C92.1475 119.878 81.1662 125.407 69.3245 126.582Z" />
<path d="M65.6579 0H64.376V143.821H65.6579V0Z" />
<path d="M62.0065 0H60.7246V143.821H62.0065V0Z" />
<path d="M58.3552 0H57.0732V143.821H58.3552V0Z" />
<path d="M53.4213 15.5858C39.1631 16.6109 25.8228 22.9894 16.0844 33.4378C6.34596 43.8863 0.932129 57.6294 0.932129 71.9022C0.932129 86.1749 6.34596 99.918 16.0844 110.366C25.8228 120.815 39.1631 127.193 53.4213 128.218V143.821H54.7195V0H53.4213V15.5858ZM9.46264 64.8869C9.46534 52.8799 13.9852 41.3119 22.1268 32.4749C30.2683 23.638 41.4375 18.1769 53.4213 17.1736V112.616C41.4361 111.609 30.2668 106.145 22.1256 97.3052C13.9844 88.4656 9.46501 76.8957 9.46264 64.8869Z" />
</symbol><symbol viewBox="0 0 56 49" id="icon-none">
<path fill-rule="evenodd" clip-rule="evenodd" d="M56 1.5H0V0.5H56V1.5Z" />
<path fill-rule="evenodd" clip-rule="evenodd" d="M56 13.5H0V12.5H56V13.5Z" />
<path fill-rule="evenodd" clip-rule="evenodd" d="M56 25.5H0V24.5H56V25.5Z" />
<path fill-rule="evenodd" clip-rule="evenodd" d="M56 36.5H0V35.5H56V36.5Z" />
<path fill-rule="evenodd" clip-rule="evenodd" d="M56 48.5H0V47.5H56V48.5Z" />
<path d="M18 13H38V21H18V13Z" />
</symbol><symbol viewBox="0 0 36 36" id="icon-notice">
<path fill-rule="evenodd" clip-rule="evenodd" d="M18.685 8.68506C18.2752 8.68506 17.8823 8.84784 17.5925 9.13758C17.3028 9.42732 17.14 9.8203 17.14 10.2301V10.3001L17.14 10.3018C17.1403 10.3852 17.1439 10.4685 17.151 10.5515C16.0633 10.8595 15.09 11.4904 14.3632 12.3661C13.532 13.3676 13.0748 14.6268 13.07 15.9282L13.07 15.9301V19.8201C13.07 21.2711 12.8872 22.0019 12.5056 22.4051C12.1323 22.7995 11.4411 23.0101 10 23.0101H9.5V23.5101V25.3201V25.8201H10H17.9015C17.7079 26.0391 17.542 26.2821 17.4081 26.5437C17.1894 26.9712 17.0609 27.4392 17.0308 27.9184L17.0298 27.9341V27.9498V28.0298C17.0298 28.4396 17.1926 28.8326 17.4823 29.1223C17.772 29.412 18.165 29.5748 18.5748 29.5748C18.9845 29.5748 19.3775 29.412 19.6673 29.1223C19.957 28.8326 20.1198 28.4396 20.1198 28.0298V27.9498V27.9408L20.1195 27.9319C20.1025 27.4604 19.9904 26.9972 19.7899 26.5702C19.6632 26.3003 19.5028 26.0483 19.3131 25.8201H27.38H27.88V25.3201V23.4901V22.9901H27.38C25.9336 22.9901 25.2397 22.7794 24.8652 22.3847C24.4828 21.9816 24.3 21.2511 24.3 19.8001L24.3 15.9301L24.3 15.9282C24.2951 14.6268 23.838 13.3676 23.0068 12.3661C22.28 11.4904 21.3067 10.8595 20.219 10.5515C20.226 10.4685 20.2297 10.3852 20.23 10.3018L20.23 10.3001V10.2301C20.23 9.82031 20.0672 9.42733 19.7775 9.13758C19.4877 8.84783 19.0948 8.68506 18.685 8.68506ZM18.2996 9.84469C18.4018 9.74248 18.5405 9.68506 18.685 9.68506C18.8295 9.68506 18.9682 9.74248 19.0704 9.84469C19.1726 9.94689 19.23 10.0855 19.23 10.2301V10.2992C19.2293 10.4704 19.2077 10.6408 19.1654 10.8067L19.0345 11.3214L19.5561 11.4212C20.6065 11.6221 21.5543 12.1819 22.2373 13.0048C22.9201 13.8275 23.2958 14.8619 23.3 15.9309V19.8001C23.3 21.239 23.4572 22.3535 24.1398 23.073C24.7487 23.7148 25.6731 23.9378 26.88 23.9816V24.8201H10.5V24.0015C11.7024 23.9576 12.6243 23.7344 13.2319 23.0925C13.9128 22.3732 14.07 21.2591 14.07 19.8201V15.931C14.0742 14.8619 14.4498 13.8275 15.1327 13.0048C15.8157 12.1819 16.7635 11.6221 17.8139 11.4212L18.3355 11.3214L18.2046 10.8067C18.1623 10.6408 18.1406 10.4704 18.14 10.2992V10.2301C18.14 10.0855 18.1974 9.94689 18.2996 9.84469ZM18.2983 26.9992C18.3832 26.8333 18.4862 26.6779 18.605 26.5356C18.7142 26.6779 18.8081 26.832 18.8847 26.9952C19.0267 27.2976 19.1066 27.6254 19.1198 27.9592V28.0298C19.1198 28.1744 19.0624 28.313 18.9602 28.4152C18.858 28.5174 18.7193 28.5748 18.5748 28.5748C18.4302 28.5748 18.2916 28.5174 18.1894 28.4152C18.0872 28.313 18.0298 28.1744 18.0298 28.0298V27.9662C18.053 27.6291 18.1444 27.3001 18.2983 26.9992Z" />
</symbol><symbol viewBox="0 0 32 32" id="icon-ok">
<path d="M24.4143 20.0769C25.1046 19.3512 25.2032 18.3144 24.6115 17.2776C24.1184 16.4482 23.2309 16.0335 22.2448 16.2408C21.8504 16.3445 21.4559 16.5519 21.0615 16.8629C18.0045 19.0401 13.8628 18.9365 10.8058 16.7592C10.6086 16.6555 10.4114 16.5518 10.2141 16.4482C9.1294 15.9298 8.04468 16.1371 7.453 17.1739C6.76272 18.2107 6.86132 19.3512 7.74883 20.2843C7.94605 20.4917 8.14328 20.5953 8.24189 20.8027L8.34051 20.9064C9.72108 22.0468 11.3975 22.7726 13.5669 23.0836L12.285 24.4315C11.2003 25.5719 10.0169 26.8161 8.93218 27.9565C8.63635 28.2676 8.24189 28.786 8.24189 29.5117C8.24189 30.4448 8.73496 31.3779 9.62247 31.7926C9.9183 32 10.2141 32 10.51 32C11.003 32 11.5947 31.7926 11.9891 31.2743C13.4683 29.7191 14.6517 28.4749 15.835 27.2308C15.9336 27.1271 15.9336 27.1271 15.9336 27.1271C15.9336 27.1271 16.0322 27.1271 16.0322 27.2308C16.8211 28.1639 17.7087 28.9933 18.4976 29.9264C18.892 30.3411 19.2864 30.7559 19.6809 31.1706C20.174 31.689 20.5684 31.8963 21.1601 31.8963C22.0476 32 23.0337 31.3779 23.4282 30.4448C23.8226 29.6154 23.6254 28.5786 22.9351 27.9565C21.949 26.9197 20.9628 25.7793 19.8781 24.7425L18.2017 22.9799C19.0892 22.8763 20.0753 22.6689 20.9629 22.2542C22.442 21.7358 23.5268 21.01 24.4143 20.0769Z" />
<path d="M15.9336 17.1739C20.1739 17.1739 23.6254 13.6488 23.6254 9.19063C23.6254 7.01337 22.8365 4.9398 21.3573 3.38462C19.8781 1.82943 18.0045 1 16.0322 1C11.7919 1 8.43912 4.62876 8.34051 8.98327C8.34051 11.1605 9.1294 13.1304 10.6086 14.6856C11.9892 16.3445 13.8628 17.1739 15.9336 17.1739ZM13.7642 6.80603C14.3558 6.18395 15.1447 5.87291 15.9336 5.87291C17.7086 5.87291 18.9906 7.32442 18.9906 9.08696C18.9906 10.9532 17.61 12.301 15.9336 12.301C14.1586 12.301 12.8767 10.8495 12.8767 9.08696C12.8767 8.25753 13.1725 7.4281 13.7642 6.80603Z" />
<path d="M24.4143 20.0769C25.1046 19.3512 25.2032 18.3144 24.6115 17.2776C24.1184 16.4482 23.2309 16.0335 22.2448 16.2408C21.8504 16.3445 21.4559 16.5519 21.0615 16.8629C18.0045 19.0401 13.8628 18.9365 10.8058 16.7592C10.6086 16.6555 10.4114 16.5518 10.2141 16.4482C9.1294 15.9298 8.04468 16.1371 7.453 17.1739C6.76272 18.2107 6.86132 19.3512 7.74883 20.2843C7.94605 20.4917 8.14328 20.5953 8.24189 20.8027L8.34051 20.9064C9.72108 22.0468 11.3975 22.7726 13.5669 23.0836L12.285 24.4315C11.2003 25.5719 10.0169 26.8161 8.93218 27.9565C8.63635 28.2676 8.24189 28.786 8.24189 29.5117C8.24189 30.4448 8.73496 31.3779 9.62247 31.7926C9.9183 32 10.2141 32 10.51 32C11.003 32 11.5947 31.7926 11.9891 31.2743C13.4683 29.7191 14.6517 28.4749 15.835 27.2308C15.9336 27.1271 15.9336 27.1271 15.9336 27.1271C15.9336 27.1271 16.0322 27.1271 16.0322 27.2308C16.8211 28.1639 17.7087 28.9933 18.4976 29.9264C18.892 30.3411 19.2864 30.7559 19.6809 31.1706C20.174 31.689 20.5684 31.8963 21.1601 31.8963C22.0476 32 23.0337 31.3779 23.4282 30.4448C23.8226 29.6154 23.6254 28.5786 22.9351 27.9565C21.949 26.9197 20.9628 25.7793 19.8781 24.7425L18.2017 22.9799C19.0892 22.8763 20.0753 22.6689 20.9629 22.2542C22.442 21.7358 23.5268 21.01 24.4143 20.0769Z" />
</symbol><symbol viewBox="0 0 36 36" id="icon-playlist">
<path fill-rule="evenodd" clip-rule="evenodd" d="M9.33974 11.8796C10.6364 10.6625 12.3207 9.94952 14.0872 9.8561V0H14.0874H15.0872H15.0874C15.0874 1.14648 15.5451 2.24651 16.3606 3.05795C17.1762 3.86949 18.2829 4.32585 19.4374 4.32585V5.32585C18.0193 5.32585 16.6588 4.76534 15.6553 3.76682C15.4465 3.55911 15.2568 3.33599 15.0872 3.10012V9.84821H26.1472H26.6472V10.3482V25.8705V26.7214L25.9038 26.3073L19.4575 22.7161L12.4455 26.3153L11.7172 26.6892V25.8705V19.582H12.7172V25.0519L19.2388 21.7043L19.4768 21.5822L19.7105 21.7124L25.6472 25.0196V10.8482H15.0989C15.1222 11.703 14.99 12.5557 14.7078 13.3648C14.3954 14.2606 13.9056 15.0847 13.2676 15.7885L13.2522 15.8054L13.2354 15.8209L13.1054 15.9403L13.099 15.9462L13.0924 15.9519C12.5612 16.4066 11.8776 16.6447 11.1783 16.6192C10.4789 16.5937 9.81453 16.3064 9.31819 15.8141C8.82179 15.3217 8.5301 14.6605 8.5022 13.9626C8.47431 13.2646 8.71231 12.5824 9.16795 12.0522L9.17451 12.0445L9.17458 12.0446C9.22652 11.9866 9.28166 11.9315 9.33974 11.8796ZM10.0197 12.6129C11.1337 11.5653 12.5796 10.947 14.0987 10.857C14.1212 11.5968 14.0078 12.3351 13.7635 13.0355C13.4978 13.7974 13.0825 14.4992 12.5418 15.1002L12.4358 15.1976C12.0967 15.4852 11.661 15.6362 11.2147 15.6199C10.7657 15.6035 10.3399 15.4191 10.0224 15.1041C9.705 14.7893 9.51917 14.3672 9.5014 13.9226C9.4837 13.4797 9.63401 13.0461 9.92299 12.7079C9.94996 12.678 9.97859 12.6497 10.0088 12.6229L10.0143 12.618L10.0197 12.6129Z" />
</symbol><symbol viewBox="0 0 210 210" fill="none" id="icon-playlist-large">
<path fill-rule="evenodd" clip-rule="evenodd" d="M55.1007 69.9743C62.7192 62.8193 72.6831 58.712 83.0918 58.3722V0H83.0932H87.0918H87.0932C87.0932 6.93239 89.8608 13.5829 94.7903 18.4879C99.7202 23.3932 106.409 26.1508 113.385 26.1508V30.1508C105.354 30.1508 97.6505 26.9766 91.9689 21.3233C90.0505 19.4145 88.4158 17.2758 87.0918 14.9721V58.3645H152.525H154.525V60.3645V150.911V154.315L151.552 152.659L113.52 131.471L72.1801 152.691L69.2668 154.186V150.911V114.228H73.2668V147.637L112.645 127.424L113.597 126.935L114.532 127.456L150.525 147.508V62.3645H87.1239C87.3873 67.5541 86.643 72.7474 84.9298 77.6597C83.148 82.7686 80.3545 87.4693 76.7152 91.4838L76.6537 91.5516L76.5863 91.6135L75.828 92.31L75.8023 92.3336L75.7759 92.3562C72.853 94.8589 69.09 96.1699 65.2399 96.0295C61.3898 95.8891 57.733 94.3074 55.0017 91.5981C52.27 88.8885 50.6656 85.2507 50.5121 81.4117C50.3587 77.5727 51.6678 73.8191 54.1749 70.9017L54.188 70.8865L54.2015 70.8715C54.4841 70.5557 54.7843 70.2562 55.1007 69.9743ZM57.8202 72.9077C64.7033 66.4347 73.7058 62.706 83.1187 62.3736C83.3846 67.1115 82.7173 71.8568 81.1529 76.3425C79.5579 80.9158 77.0625 85.1272 73.8123 88.7303L73.1489 89.3395C70.9943 91.1733 68.2233 92.1356 65.3857 92.0321C62.537 91.9282 59.8346 90.7579 57.8186 88.7582C55.8029 86.7588 54.6219 84.0777 54.5089 81.252C54.3962 78.433 55.3546 75.674 57.1953 73.5243C57.3779 73.3214 57.5719 73.1289 57.7765 72.9476L57.7987 72.928L57.8202 72.9077Z" fill="#1A1A1A" />
</symbol><symbol viewBox="0 0 36 36" id="icon-profile">
<path fill-rule="evenodd" clip-rule="evenodd" d="M18.4402 9.96973C16.6619 9.96973 15.2202 11.4114 15.2202 13.1897C15.2202 14.9615 16.6512 16.3991 18.4205 16.4097L18.4481 16.4097C20.2228 16.4055 21.6602 14.9655 21.6602 13.1897C21.6602 11.4114 20.2186 9.96973 18.4402 9.96973ZM14.2202 13.1897C14.2202 14.6793 14.992 15.9887 16.1576 16.7397C14.9082 17.1121 13.7583 17.7908 12.8197 18.7294C11.3344 20.2147 10.5 22.2292 10.5 24.3297V26.2597V26.7597H11H19.9528L18.1164 28.5961L18.8235 29.3032L21.4835 26.6432L21.8371 26.2896L21.4835 25.9361L18.7935 23.2461L18.0864 23.9532L19.8929 25.7597H11.5V24.3297C11.5 22.4944 12.2291 20.7342 13.5268 19.4365C14.824 18.1393 16.5832 17.4103 18.4177 17.4097L18.4402 17.4097L18.4472 17.4097C19.3467 17.4133 20.237 17.5921 21.0682 17.9364C21.9077 18.2842 22.6706 18.7939 23.3132 19.4365C23.9557 20.0791 24.4655 20.8419 24.8132 21.6815C25.161 22.5211 25.34 23.4209 25.34 24.3297V26.8797H26.34V24.3297C26.34 23.2896 26.1351 22.2597 25.7371 21.2988C25.3391 20.3379 24.7557 19.4648 24.0203 18.7294C23.2848 17.9939 22.4117 17.4106 21.4508 17.0125C21.208 16.9119 20.9607 16.8237 20.71 16.748C21.8827 15.9983 22.6602 14.6848 22.6602 13.1897C22.6602 10.8591 20.7709 8.96973 18.4402 8.96973C16.1096 8.96973 14.2202 10.8591 14.2202 13.1897Z" />
</symbol><symbol viewBox="0 0 36 36" id="icon-profile-guest">
<path d="M18.4707 8.97168C20.8173 8.97194 22.7207 10.873 22.7207 13.2188C22.7206 14.7339 21.9251 16.0618 20.7305 16.8135C21.9938 17.1869 23.1571 17.8698 24.1055 18.8174C25.6001 20.3108 26.4404 22.337 26.4404 24.4492V26.8877H10.5V24.4277L10.5107 24.0332C10.6135 22.0687 11.4414 20.2062 12.8418 18.8105C13.7888 17.8668 14.9491 17.186 16.209 16.8135C15.0148 16.0617 14.2208 14.7336 14.2207 13.2188C14.2207 10.8729 16.1239 8.97168 18.4707 8.97168ZM18.4697 17.4854C16.6244 17.4854 14.8543 18.2167 13.5479 19.5186C12.2414 20.8205 11.505 22.5872 11.5 24.4307V25.8877H25.4404V24.4492C25.4404 22.6025 24.7055 20.8314 23.3984 19.5254C22.0913 18.2194 20.3184 17.4854 18.4697 17.4854ZM18.4707 9.97168C16.6754 9.97168 15.2207 11.4259 15.2207 13.2188C15.2208 15.0115 16.6754 16.4658 18.4707 16.4658C20.2657 16.4656 21.7206 15.0113 21.7207 13.2188C21.7207 11.4261 20.2658 9.97194 18.4707 9.97168Z" />
</symbol><symbol viewBox="0 0 119 106" id="icon-quote">
<path fill-rule="evenodd" clip-rule="evenodd" d="M50.5063 7.71342L9.17301 50.4537L1.49341 43.027L42.8267 0.286621L50.5063 7.71342Z" />
<path d="M51.9998 78.7956C51.9998 93.5486 40.3592 105.508 25.9998 105.508C11.6404 105.508 -0.000244141 93.5486 -0.000244141 78.7956C-0.000244141 64.0426 11.6404 52.0829 25.9998 52.0829C40.3592 52.0829 51.9998 64.0426 51.9998 78.7956Z" />
<path fill-rule="evenodd" clip-rule="evenodd" d="M117.173 7.71342L75.8395 50.4537L68.1599 43.027L109.493 0.286621L117.173 7.71342Z" />
<path d="M118.667 78.7956C118.667 93.5486 107.026 105.508 92.6665 105.508C78.3071 105.508 66.6665 93.5486 66.6665 78.7956C66.6665 64.0426 78.3071 52.0829 92.6665 52.0829C107.026 52.0829 118.667 64.0426 118.667 78.7956Z" />
</symbol><symbol viewBox="0 0 36 36" id="icon-rec">
<path d="M21.375 18C21.375 19.864 19.864 21.375 18 21.375C16.136 21.375 14.625 19.864 14.625 18C14.625 16.136 16.136 14.625 18 14.625C19.864 14.625 21.375 16.136 21.375 18Z" />
<path fill-rule="evenodd" clip-rule="evenodd" d="M18 26C22.4183 26 26 22.4183 26 18C26 13.5817 22.4183 10 18 10C13.5817 10 10 13.5817 10 18C10 22.4183 13.5817 26 18 26ZM18 27C22.9706 27 27 22.9706 27 18C27 13.0294 22.9706 9 18 9C13.0294 9 9 13.0294 9 18C9 22.9706 13.0294 27 18 27Z" />
</symbol><symbol viewBox="0 0 26 21" id="icon-return">
<path fill-rule="evenodd" clip-rule="evenodd" d="M12.5 1L12.5 21L13.5 21L13.5 1L12.5 1Z" />
<path fill-rule="evenodd" clip-rule="evenodd" d="M0.663086 11.5839L1.33722 12.3225L13.0002 1.67777L24.6631 12.3225L25.3372 11.5839L13.0002 0.323879L0.663086 11.5839Z" />
</symbol><symbol viewBox="0 0 48 48" id="icon-search">
<path fill-rule="evenodd" clip-rule="evenodd" d="M26.3698 14.1425C24.0614 13.1578 21.4733 13.0482 19.0899 13.8342C16.7065 14.6201 14.6912 16.2479 13.4214 18.4126C12.1516 20.5773 11.7143 23.1306 12.1914 25.5945C12.6684 28.0583 14.0271 30.2639 16.0131 31.7983C17.9991 33.3326 20.4762 34.0905 22.9808 33.9301C25.4849 33.7698 27.8447 32.7024 29.6187 30.9278C29.8715 30.6725 30.1723 30.4699 30.5038 30.3315C30.836 30.1928 31.1924 30.1214 31.5525 30.1214C31.9125 30.1214 32.2689 30.1928 32.6011 30.3315C32.9328 30.47 33.2337 30.6727 33.4866 30.9281C33.487 30.9285 33.4874 30.929 33.4879 30.9294L38.2559 35.7108C38.2565 35.7114 38.2571 35.7119 38.2576 35.7125C38.5128 35.9653 38.7154 36.2661 38.8538 36.5975C38.9925 36.9298 39.0639 37.2862 39.0639 37.6462C39.0639 38.0062 38.9925 38.3626 38.8538 38.6948C38.7151 39.0271 38.5119 39.3285 38.2559 39.5816L38.2551 39.5824C37.7408 40.0892 37.0478 40.3733 36.3258 40.3733C35.6038 40.3733 34.9107 40.0892 34.3965 39.5824L34.392 39.578L34.392 39.578L31.192 36.3647L32.1395 35.4211L35.3351 38.63C35.3358 38.6306 35.3364 38.6313 35.3371 38.632C35.601 38.891 35.956 39.0361 36.3258 39.0361C36.6964 39.0361 37.0522 38.8903 37.3162 38.6302C37.4462 38.5015 37.5494 38.3484 37.6198 38.1797C37.6904 38.0107 37.7267 37.8294 37.7267 37.6462C37.7267 37.463 37.6904 37.2817 37.6198 37.1127C37.5493 36.9437 37.4459 36.7904 37.3156 36.6616L37.3123 36.6583L37.3123 36.6583L32.539 31.8716L32.5371 31.8697C32.4083 31.7394 32.2549 31.6361 32.0859 31.5655C31.9169 31.4949 31.7356 31.4586 31.5525 31.4586C31.3693 31.4586 31.188 31.4949 31.019 31.5655C30.85 31.6361 30.6966 31.7394 30.5679 31.8697L30.5654 31.8722C28.5614 33.8773 25.8953 35.0834 23.0662 35.2646C20.2371 35.4458 17.4389 34.5896 15.1956 32.8564C12.9522 31.1233 11.4174 28.6319 10.8785 25.8486C10.3397 23.0654 10.8337 20.1812 12.268 17.736C13.7024 15.2907 15.9788 13.4521 18.6711 12.5642C21.3634 11.6764 24.2869 11.8002 26.8945 12.9125C29.5021 14.0249 31.6149 16.0494 32.8373 18.6072C34.0598 21.165 34.3081 24.0807 33.5358 26.8083L32.2491 26.444C32.9328 24.0293 32.713 21.4482 31.6308 19.1839C30.5486 16.9195 28.6782 15.1272 26.3698 14.1425Z" />
</symbol><symbol viewBox="0 0 72 65" id="icon-semibreve">
<path fill-rule="evenodd" clip-rule="evenodd" d="M72 1.5H0V0.5H72V1.5Z" />
<path fill-rule="evenodd" clip-rule="evenodd" d="M72 17.5H0V16.5H72V17.5Z" />
<path fill-rule="evenodd" clip-rule="evenodd" d="M72 33.5H0V32.5H72V33.5Z" />
<path fill-rule="evenodd" clip-rule="evenodd" d="M72 48.5H0V47.5H72V48.5Z" />
<path fill-rule="evenodd" clip-rule="evenodd" d="M72 64.5H0V63.5H72V64.5Z" />
<path d="M23 17H49V28H23V17Z" />
</symbol><symbol viewBox="0 0 89 93" id="icon-semicroma">
<path fill-rule="evenodd" clip-rule="evenodd" d="M61.3977 8.64756L31.2782 91.0756L27.5212 89.7028L57.6407 7.27472L61.3977 8.64756Z" />
<path d="M48.95 9.36304C51.6282 14.4277 49.8133 20.6412 44.8964 23.2412C39.9794 25.8413 33.8224 23.8434 31.1442 18.7787C28.466 13.7141 30.2809 7.50062 35.1978 4.90055C40.1148 2.30047 46.2718 4.2984 48.95 9.36304Z" />
<path d="M40.3035 33.1316C42.9817 38.1962 41.1668 44.4097 36.2499 47.0098C31.333 49.6099 25.1759 47.6119 22.4977 42.5473C19.8195 37.4827 21.6344 31.2692 26.5513 28.6691C31.4683 26.069 37.6253 28.067 40.3035 33.1316Z" />
<path d="M31.1443 56.0159C33.8225 61.0805 32.0077 67.294 27.0907 69.8941C22.1738 72.4941 16.0167 70.4962 13.3385 65.4316C10.6604 60.3669 12.4752 54.1535 17.3922 51.5534C22.3091 48.9533 28.4662 50.9512 31.1443 56.0159Z" />
</symbol><symbol viewBox="0 0 36 36" id="icon-share">
<path fill-rule="evenodd" clip-rule="evenodd" d="M27.9333 9.54904L28.1572 8.7124L27.3207 8.93687L10.2907 13.5069L9.03906 13.8428L10.192 14.4346L17.8879 18.3853L12.1268 24.1464L12.8339 24.8535L18.5628 19.1246L22.4455 26.6881L23.038 27.8422L23.3733 26.589L27.9333 9.54904ZM19.3055 18.3818L22.7427 25.0773L26.7434 10.1272L11.8016 14.1368L18.6306 17.6425L23.3368 12.9364L24.0439 13.6435L19.3055 18.3818ZM13.6939 18.7934L10.3539 22.1334L9.64684 21.4263L12.9868 18.0863L13.6939 18.7934ZM15.5542 27.3328L18.8942 23.9828L18.186 23.2767L14.846 26.6267L15.5542 27.3328Z" />
</symbol><symbol viewBox="0 0 210 210" id="icon-star">
<path fill-rule="evenodd" clip-rule="evenodd" d="M105.003 50.8721L124.216 79.1307L157.03 88.6754L136.128 115.691L137.126 149.874L104.999 138.333L72.8099 149.874L73.8704 115.691L52.9077 88.6766L85.7273 79.1303L105.003 50.8721ZM104.997 57.9783L88.2229 82.5701L59.6757 90.8738L77.9132 114.376L76.9902 144.126L105.001 134.084L132.957 144.126L132.088 114.376L150.27 90.875L121.717 82.5697L104.997 57.9783Z" />
<path d="M143.208 62.1252C146.913 62.1252 149.917 59.1217 149.917 55.4168C149.917 51.7119 146.913 48.7085 143.208 48.7085C139.504 48.7085 136.5 51.7119 136.5 55.4168C136.5 59.1217 139.504 62.1252 143.208 62.1252Z" />
<path fill-rule="evenodd" clip-rule="evenodd" d="M143.208 58.0854C144.682 58.0854 145.877 56.8907 145.877 55.4168C145.877 53.943 144.682 52.7483 143.208 52.7483C141.735 52.7483 140.54 53.9431 140.54 55.4168C140.54 56.8905 141.735 58.0854 143.208 58.0854ZM149.917 55.4168C149.917 59.1217 146.913 62.1252 143.208 62.1252C139.504 62.1252 136.5 59.1217 136.5 55.4168C136.5 51.7119 139.504 48.7085 143.208 48.7085C146.913 48.7085 149.917 51.7119 149.917 55.4168Z" />
<path d="M67.7251 62.1252C71.43 62.1252 74.4334 59.1217 74.4334 55.4168C74.4334 51.7119 71.43 48.7085 67.7251 48.7085C64.0202 48.7085 61.0166 51.7119 61.0166 55.4168C61.0166 59.1217 64.0202 62.1252 67.7251 62.1252Z" />
<path fill-rule="evenodd" clip-rule="evenodd" d="M67.7251 58.0854C69.1988 58.0854 70.3936 56.8907 70.3936 55.4168C70.3936 53.943 69.1988 52.7483 67.7251 52.7483C66.2512 52.7483 65.0564 53.9431 65.0564 55.4168C65.0564 56.8905 66.2512 58.0854 67.7251 58.0854ZM74.4334 55.4168C74.4334 59.1217 71.43 62.1252 67.7251 62.1252C64.0202 62.1252 61.0166 59.1217 61.0166 55.4168C61.0166 51.7119 64.0202 48.7085 67.7251 48.7085C71.43 48.7085 74.4334 51.7119 74.4334 55.4168Z" />
<path d="M47.5417 134.109C51.2466 134.109 54.2501 131.105 54.2501 127.4C54.2501 123.695 51.2466 120.692 47.5417 120.692C43.8368 120.692 40.8334 123.695 40.8334 127.4C40.8334 131.105 43.8368 134.109 47.5417 134.109Z" />
<path fill-rule="evenodd" clip-rule="evenodd" d="M47.5417 130.069C49.0156 130.069 50.2104 128.874 50.2104 127.4C50.2104 125.927 49.0156 124.732 47.5417 124.732C46.0679 124.732 44.8732 125.926 44.8732 127.4C44.8732 128.874 46.0679 130.069 47.5417 130.069ZM54.2501 127.4C54.2501 131.105 51.2466 134.109 47.5417 134.109C43.8368 134.109 40.8334 131.105 40.8334 127.4C40.8334 123.695 43.8368 120.692 47.5417 120.692C51.2466 120.692 54.2501 123.695 54.2501 127.4Z" />
<path d="M160.358 134.109C164.063 134.109 167.067 131.105 167.067 127.4C167.067 123.695 164.063 120.692 160.358 120.692C156.653 120.692 153.65 123.695 153.65 127.4C153.65 131.105 156.653 134.109 160.358 134.109Z" />
<path fill-rule="evenodd" clip-rule="evenodd" d="M160.358 130.069C161.832 130.069 163.027 128.874 163.027 127.4C163.027 125.927 161.832 124.732 160.358 124.732C158.884 124.732 157.69 125.926 157.69 127.4C157.69 128.874 158.884 130.069 160.358 130.069ZM167.067 127.4C167.067 131.105 164.063 134.109 160.358 134.109C156.653 134.109 153.65 131.105 153.65 127.4C153.65 123.695 156.653 120.692 160.358 120.692C164.063 120.692 167.067 123.695 167.067 127.4Z" />
<path d="M105 172.317C108.705 172.317 111.708 169.313 111.708 165.608C111.708 161.903 108.705 158.9 105 158.9C101.295 158.9 98.2917 161.903 98.2917 165.608C98.2917 169.313 101.295 172.317 105 172.317Z" />
<path fill-rule="evenodd" clip-rule="evenodd" d="M105 168.277C106.474 168.277 107.669 167.082 107.669 165.608C107.669 164.134 106.474 162.94 105 162.94C103.526 162.94 102.332 164.134 102.332 165.608C102.332 167.082 103.526 168.277 105 168.277ZM111.708 165.608C111.708 169.313 108.705 172.317 105 172.317C101.295 172.317 98.2917 169.313 98.2917 165.608C98.2917 161.903 101.295 158.9 105 158.9C108.705 158.9 111.708 161.903 111.708 165.608Z" />
</symbol><symbol viewBox="0 0 21 26" id="icon-subscribe">
<path fill-rule="evenodd" clip-rule="evenodd" d="M20 13.5L0 13.5L-4.18902e-08 12.5L20 12.5L20 13.5Z" />
<path fill-rule="evenodd" clip-rule="evenodd" d="M9.41616 25.3371L8.67755 24.6629L19.3223 13L8.67755 1.33707L9.41616 0.662937L20.6762 13L9.41616 25.3371Z" />
</symbol><symbol viewBox="0 0 210 210" id="icon-sync">
<path fill-rule="evenodd" clip-rule="evenodd" d="M66.083 119.075C63.795 116.796 60.6972 115.516 57.4678 115.516L57.4678 111.516C61.7553 111.516 65.8682 113.215 68.9059 116.241C71.9436 119.267 73.6584 123.373 73.6751 127.66L69.6751 127.676C69.6626 124.447 68.3709 121.354 66.083 119.075Z" />
<path fill-rule="evenodd" clip-rule="evenodd" d="M74.4059 116.247C77.435 113.218 81.5433 111.516 85.8271 111.516V115.516C82.6041 115.516 79.5133 116.796 77.2343 119.075C74.9554 121.354 73.675 124.445 73.675 127.668H69.675C69.675 123.384 71.3768 119.276 74.4059 116.247Z" />
<path fill-rule="evenodd" clip-rule="evenodd" d="M139.993 145.184V80.7344H143.993V145.2L143.993 145.207C143.974 147.705 142.969 150.094 141.197 151.853C139.424 153.613 137.028 154.6 134.53 154.6H79.2488C78.0074 154.6 76.7783 154.354 75.6324 153.877C74.4864 153.4 73.4461 152.701 72.5715 151.82C71.697 150.939 71.0056 149.893 70.537 148.744C70.0684 147.594 69.8318 146.364 69.8411 145.122L73.841 145.152C73.8356 145.866 73.9716 146.573 74.241 147.234C74.5104 147.895 74.9078 148.496 75.4105 149.002C75.9131 149.508 76.5111 149.91 77.1699 150.185C77.8286 150.459 78.5351 150.6 79.2486 150.6H134.53C135.972 150.6 137.355 150.03 138.379 149.014C139.401 148 139.981 146.624 139.993 145.184Z" />
<path fill-rule="evenodd" clip-rule="evenodd" d="M79.2038 51.0023C78.4801 50.9861 77.7606 51.1153 77.0877 51.3824C76.4149 51.6494 75.8025 52.0488 75.2869 52.5568C74.7714 53.0648 74.3631 53.6712 74.0862 54.3401C73.8093 55.0089 73.6695 55.7265 73.6751 56.4504L73.6751 56.4581V120.592H69.6751V56.4731C69.6665 55.2166 69.9097 53.9711 70.3904 52.8101C70.8721 51.6466 71.5823 50.5916 72.4794 49.7077C73.3764 48.8238 74.4417 48.129 75.6122 47.6645C76.7753 47.2028 78.0188 46.9779 79.2697 47.0028H134.53C137.04 47.0028 139.447 47.9998 141.221 49.7745C142.996 51.5491 143.993 53.956 143.993 56.4658H139.993C139.993 55.017 139.417 53.6274 138.393 52.6029C137.368 51.5784 135.979 51.0028 134.53 51.0028H79.2262L79.2038 51.0023Z" />
<path fill-rule="evenodd" clip-rule="evenodd" d="M143.993 73.832C143.987 75.4319 144.296 77.0172 144.904 78.497C145.512 79.9769 146.406 81.3221 147.535 82.4555C148.664 83.589 150.006 84.4883 151.483 85.102C152.961 85.7156 154.545 86.0315 156.145 86.0315L156.145 90.0315C154.019 90.0315 151.913 89.6117 149.949 88.796C147.985 87.9804 146.202 86.785 144.701 85.2784C143.201 83.7718 142.012 81.9838 141.204 80.0169C140.396 78.0499 139.985 75.9428 139.993 73.8164L143.993 73.832Z" />
<path fill-rule="evenodd" clip-rule="evenodd" d="M143.993 73.8242C143.993 78.1227 142.285 82.2451 139.246 85.2845C136.206 88.324 132.084 90.0315 127.786 90.0315V86.0315C131.023 86.0315 134.128 84.7454 136.417 82.4561C138.707 80.1668 139.993 77.0618 139.993 73.8242H143.993Z" />
<path d="M106.834 140.659C109.612 140.659 111.864 138.407 111.864 135.628C111.864 132.85 109.612 130.598 106.834 130.598C104.056 130.598 101.803 132.85 101.803 135.628C101.803 138.407 104.056 140.659 106.834 140.659Z" />
<path fill-rule="evenodd" clip-rule="evenodd" d="M106.834 136.659C107.403 136.659 107.864 136.197 107.864 135.628C107.864 135.059 107.403 134.598 106.834 134.598C106.265 134.598 105.803 135.059 105.803 135.628C105.803 136.197 106.265 136.659 106.834 136.659ZM111.864 135.628C111.864 138.407 109.612 140.659 106.834 140.659C104.056 140.659 101.803 138.407 101.803 135.628C101.803 132.85 104.056 130.598 106.834 130.598C109.612 130.598 111.864 132.85 111.864 135.628Z" />
</symbol><symbol viewBox="0 0 32 32" id="icon-tg">
<path d="M28 4.8502L24.0455 27.0009C24.0455 27.0009 23.4922 28.5366 21.9722 27.8001L12.8481 20.0272L12.8058 20.0043C14.0383 18.7747 23.5953 9.22729 24.013 8.79452C24.6596 8.12428 24.2581 7.72526 23.5074 8.23157L9.39052 18.1924L3.94426 16.1564C3.94426 16.1564 3.08718 15.8176 3.00473 15.0811C2.92119 14.3433 3.97247 13.9443 3.97247 13.9443L26.1752 4.26675C26.1752 4.26675 28 3.3759 28 4.8502V4.8502Z" />
</symbol><symbol viewBox="0 0 32 32" id="icon-vk">
<path d="M17.7951 25C7.88695 25 2.23548 17.8679 2 6H6.96315C7.12617 14.7107 10.7851 18.4004 13.6833 19.1612V6H18.3567V13.5125C21.2186 13.1892 24.2255 9.76577 25.2399 6H29.9132C29.5309 7.95303 28.769 9.80224 27.675 11.432C26.581 13.0617 25.1786 14.4369 23.5553 15.4715C25.3672 16.4168 26.9677 17.7549 28.2509 19.3974C29.5342 21.0398 30.4712 22.9494 31 25H25.8557C25.381 23.2189 24.4162 21.6245 23.0822 20.4167C21.7482 19.2089 20.1043 18.4413 18.3567 18.2102V25H17.7951V25Z" />
</symbol><symbol viewBox="0 0 32 32" id="icon-youtube">
<path fill-rule="evenodd" clip-rule="evenodd" d="M4.08521 26.35C3.55031 26.1798 3.06225 25.877 2.66221 25.4671C2.26218 25.0573 1.96191 24.5524 1.78675 23.9951C0.785801 21.1148 0.489225 9.0875 2.41697 6.71317C3.05856 5.94079 3.9644 5.46525 4.93787 5.38978C10.1094 4.80593 26.0875 4.88378 27.9225 5.5844C28.4387 5.76021 28.9102 6.05638 29.3019 6.45071C29.6935 6.84505 29.995 7.32733 30.1839 7.86141C31.2776 10.839 31.3146 21.6597 30.0356 24.5206C29.6964 25.2653 29.1284 25.8685 28.423 26.2332C26.4953 27.2452 6.64318 27.2258 4.08521 26.35V26.35ZM12.2967 20.7061L21.5647 15.6461L12.2967 10.5471V20.7061Z" />
</symbol></defs><use id="icon-angel-usage" xlink:href="#icon-angel" class="sprite-symbol-usage" /><use id="icon-arrow-bottom-usage" xlink:href="#icon-arrow-bottom" class="sprite-symbol-usage" /><use id="icon-arrow-left-usage" xlink:href="#icon-arrow-left" class="sprite-symbol-usage" /><use id="icon-arrow-right-usage" xlink:href="#icon-arrow-right" class="sprite-symbol-usage" /><use id="icon-arrow-top-usage" xlink:href="#icon-arrow-top" class="sprite-symbol-usage" /><use id="icon-arrow-topbar-left-usage" xlink:href="#icon-arrow-topbar-left" class="sprite-symbol-usage" /><use id="icon-arrow-topbar-right-usage" xlink:href="#icon-arrow-topbar-right" class="sprite-symbol-usage" /><use id="icon-ball-usage" xlink:href="#icon-ball" class="sprite-symbol-usage" /><use id="icon-bell-usage" xlink:href="#icon-bell" class="sprite-symbol-usage" /><use id="icon-biscroma-usage" xlink:href="#icon-biscroma" class="sprite-symbol-usage" /><use id="icon-burger-usage" xlink:href="#icon-burger" class="sprite-symbol-usage" /><use id="icon-check-usage" xlink:href="#icon-check" class="sprite-symbol-usage" /><use id="icon-cinema-usage" xlink:href="#icon-cinema" class="sprite-symbol-usage" /><use id="icon-close-usage" xlink:href="#icon-close" class="sprite-symbol-usage" /><use id="icon-close-fluid-usage" xlink:href="#icon-close-fluid" class="sprite-symbol-usage" /><use id="icon-close-thin-usage" xlink:href="#icon-close-thin" class="sprite-symbol-usage" /><use id="icon-croma-usage" xlink:href="#icon-croma" class="sprite-symbol-usage" /><use id="icon-drop-usage" xlink:href="#icon-drop" class="sprite-symbol-usage" /><use id="icon-dzen-usage" xlink:href="#icon-dzen" class="sprite-symbol-usage" /><use id="icon-edit-usage" xlink:href="#icon-edit" class="sprite-symbol-usage" /><use id="icon-eye-usage" xlink:href="#icon-eye" class="sprite-symbol-usage" /><use id="icon-favorite-usage" xlink:href="#icon-favorite" class="sprite-symbol-usage" /><use id="icon-filter-usage" xlink:href="#icon-filter" class="sprite-symbol-usage" /><use id="icon-filter-clear-usage" xlink:href="#icon-filter-clear" class="sprite-symbol-usage" /><use id="icon-halls-usage" xlink:href="#icon-halls" class="sprite-symbol-usage" /><use id="icon-hash-usage" xlink:href="#icon-hash" class="sprite-symbol-usage" /><use id="icon-history-usage" xlink:href="#icon-history" class="sprite-symbol-usage" /><use id="icon-invalid-usage" xlink:href="#icon-invalid" class="sprite-symbol-usage" /><use id="icon-letter-e-usage" xlink:href="#icon-letter-e" class="sprite-symbol-usage" /><use id="icon-letter-i-usage" xlink:href="#icon-letter-i" class="sprite-symbol-usage" /><use id="icon-letter-l-usage" xlink:href="#icon-letter-l" class="sprite-symbol-usage" /><use id="icon-letter-v-usage" xlink:href="#icon-letter-v" class="sprite-symbol-usage" /><use id="icon-link-profile-usage" xlink:href="#icon-link-profile" class="sprite-symbol-usage" /><use id="icon-live-mobile-usage" xlink:href="#icon-live-mobile" class="sprite-symbol-usage" /><use id="icon-logo-usage" xlink:href="#icon-logo" class="sprite-symbol-usage" /><use id="icon-none-usage" xlink:href="#icon-none" class="sprite-symbol-usage" /><use id="icon-notice-usage" xlink:href="#icon-notice" class="sprite-symbol-usage" /><use id="icon-ok-usage" xlink:href="#icon-ok" class="sprite-symbol-usage" /><use id="icon-playlist-usage" xlink:href="#icon-playlist" class="sprite-symbol-usage" /><use id="icon-playlist-large-usage" xlink:href="#icon-playlist-large" class="sprite-symbol-usage" /><use id="icon-profile-usage" xlink:href="#icon-profile" class="sprite-symbol-usage" /><use id="icon-profile-guest-usage" xlink:href="#icon-profile-guest" class="sprite-symbol-usage" /><use id="icon-quote-usage" xlink:href="#icon-quote" class="sprite-symbol-usage" /><use id="icon-rec-usage" xlink:href="#icon-rec" class="sprite-symbol-usage" /><use id="icon-return-usage" xlink:href="#icon-return" class="sprite-symbol-usage" /><use id="icon-search-usage" xlink:href="#icon-search" class="sprite-symbol-usage" /><use id="icon-semibreve-usage" xlink:href="#icon-semibreve" class="sprite-symbol-usage" /><use id="icon-semicroma-usage" xlink:href="#icon-semicroma" class="sprite-symbol-usage" /><use id="icon-share-usage" xlink:href="#icon-share" class="sprite-symbol-usage" /><use id="icon-star-usage" xlink:href="#icon-star" class="sprite-symbol-usage" /><use id="icon-subscribe-usage" xlink:href="#icon-subscribe" class="sprite-symbol-usage" /><use id="icon-sync-usage" xlink:href="#icon-sync" class="sprite-symbol-usage" /><use id="icon-tg-usage" xlink:href="#icon-tg" class="sprite-symbol-usage" /><use id="icon-vk-usage" xlink:href="#icon-vk" class="sprite-symbol-usage" /><use id="icon-youtube-usage" xlink:href="#icon-youtube" class="sprite-symbol-usage" /></svg>