<svg xmlns="http://www.w3.org/2000/svg" xmlns:xlink="http://www.w3.org/1999/xlink"><defs><style>
    .sprite-symbol-usage {display: none;}
    .sprite-symbol-usage:target {display: inline;}
  </style><symbol viewBox="0 0 18 18" id="icon-arrow-drop">
<path d="M9.00105 13.7656C9.20952 13.7656 9.40899 13.6791 9.55085 13.5264L14.5001 8.19531C14.7819 7.89183 14.7644 7.41761 14.461 7.13574C14.1575 6.85389 13.6833 6.87127 13.4014 7.1748L9.00105 11.9131L4.60066 7.1748C4.3188 6.87127 3.84364 6.85389 3.54011 7.13574C3.23703 7.41763 3.21938 7.89193 3.50105 8.19531L8.45124 13.5264L8.50691 13.5801C8.64296 13.6991 8.81851 13.7656 9.00105 13.7656Z" />
</symbol><symbol viewBox="0 0 10 16" id="icon-arrow-left">
<path d="M9.12117 14.2929C9.51169 14.6834 9.51169 15.3164 9.12117 15.707C8.73065 16.0975 8.09763 16.0975 7.70711 15.707L7.569e-05 7.99993L7.70711 0.292893C8.09763 -0.097631 8.73064 -0.0976311 9.12117 0.292893C9.51169 0.683418 9.51169 1.31643 9.12117 1.70696L2.8282 7.99992L9.12117 14.2929Z" />
</symbol><symbol viewBox="0 0 28 28" id="icon-arrow-more">
<path d="M28 27C28 27.5523 27.5523 28 27 28C26.4477 28 26 27.5523 26 27V3.41406L1.70703 27.707C1.31651 28.0976 0.683493 28.0976 0.292969 27.707C-0.0975552 27.3165 -0.0975555 26.6835 0.292969 26.293L24.5859 2H1C0.447715 2 0 1.55228 0 1C0 0.447715 0.447715 0 1 0H28V27Z" />
</symbol><symbol viewBox="0 0 10 16" id="icon-arrow-right">
<path d="M0.292893 14.2929C-0.0976317 14.6834 -0.0976317 15.3164 0.292893 15.707C0.683417 16.0975 1.31643 16.0975 1.70695 15.707L9.41399 7.99993L1.70696 0.292893C1.31643 -0.097631 0.683418 -0.0976311 0.292893 0.292893C-0.0976311 0.683418 -0.0976311 1.31643 0.292893 1.70696L6.58586 7.99992L0.292893 14.2929Z" />
</symbol><symbol viewBox="0 0 20 20" id="icon-search">
<path d="M14.3193 9.03418C14.3192 6.11578 11.9526 3.75 9.03418 3.75C6.11588 3.75016 3.75016 6.11588 3.75 9.03418C3.75 11.9526 6.11578 14.3192 9.03418 14.3193C11.9527 14.3193 14.3193 11.9527 14.3193 9.03418ZM15.8193 9.03418C15.8193 10.6374 15.2609 12.1094 14.3311 13.2705L17.5303 16.4697C17.8232 16.7626 17.8232 17.2374 17.5303 17.5303C17.2374 17.8232 16.7626 17.8232 16.4697 17.5303L13.2705 14.3311C12.1094 15.2609 10.6374 15.8193 9.03418 15.8193C5.28735 15.8192 2.25 12.7811 2.25 9.03418C2.25016 5.28745 5.28745 2.25016 9.03418 2.25C12.7811 2.25 15.8192 5.28735 15.8193 9.03418Z" />
</symbol></defs><use id="icon-arrow-drop-usage" xlink:href="#icon-arrow-drop" class="sprite-symbol-usage" /><use id="icon-arrow-left-usage" xlink:href="#icon-arrow-left" class="sprite-symbol-usage" /><use id="icon-arrow-more-usage" xlink:href="#icon-arrow-more" class="sprite-symbol-usage" /><use id="icon-arrow-right-usage" xlink:href="#icon-arrow-right" class="sprite-symbol-usage" /><use id="icon-search-usage" xlink:href="#icon-search" class="sprite-symbol-usage" /></svg>