<svg viewBox="0 0 54 54" fill="none" xmlns="http://www.w3.org/2000/svg">
<path fill-rule="evenodd" clip-rule="evenodd" d="M3.50177 4.3073C3.31107 4.58183 3.28847 6.72476 3.28847 24.4897V44.3647H1.85781C-0.0842541 44.3647 0.000547032 44.2132 0.000547032 47.6824C0.000547032 49.9052 0.038495 50.4402 0.213851 50.6927L0.427018 51H26.9889H53.5508L53.764 50.6927C54.0787 50.2394 54.0787 45.1253 53.764 44.672C53.5599 44.3777 53.4638 44.3647 51.5035 44.3647H49.4564V40.3736V36.3825L50.004 36.294C50.3206 36.243 50.7395 36.0363 50.9972 35.8042L51.4429 35.4028L51.4889 33.7203C51.539 31.8847 51.4297 31.4051 50.8579 30.9512C50.5559 30.7115 50.2974 30.6794 48.6707 30.6794H46.8261L46.3603 31.1494L45.8945 31.6194V33.3744C45.8945 34.7804 45.9409 35.2088 46.1282 35.5287C46.3899 35.9755 47.055 36.3471 47.5934 36.3471H47.9494V40.3559V44.3647H44.6615H41.3736V43.0515V41.7382H41.7914C42.0212 41.7382 42.39 41.6438 42.6111 41.5285C43.2795 41.1798 43.4285 40.7012 43.4285 38.9044C43.4285 36.337 43.1645 36.0706 40.6201 36.0706C38.0743 36.0706 37.8117 36.3361 37.8117 38.9108C37.8117 40.1528 37.8629 40.608 38.0358 40.9033C38.3229 41.394 38.903 41.7382 39.4425 41.7382H39.8666V43.0515V44.3647H36.6472H33.4278V41.7382V39.1118H33.8185C34.3795 39.1118 35.1115 38.5644 35.3038 38.001C35.5066 37.4068 35.5296 35.3478 35.3409 34.6625C35.2638 34.3823 35.0128 33.9936 34.7832 33.7986C34.3828 33.4585 34.2944 33.4441 32.6137 33.4441C31.0446 33.4441 30.8239 33.4743 30.4981 33.7328C29.8596 34.2397 29.7289 34.679 29.7289 36.3197C29.7289 37.6596 29.7635 37.8787 30.0412 38.2945C30.3985 38.8294 30.8632 39.1068 31.4071 39.1097L31.7838 39.1118V41.7382V44.3647H29.4549H27.1259V24.4897C27.1259 6.72476 27.1033 4.58183 26.9126 4.3073L26.6994 4H15.2072H3.71494L3.50177 4.3073ZM39.5454 4.25283C39.3689 4.44954 39.3186 4.78794 39.3186 5.77771C39.3186 6.8652 39.2838 7.06205 39.0789 7.13366C38.3597 7.38524 37.1083 8.06661 36.4932 8.54186L35.7914 9.08402L34.7808 8.48352C33.5775 7.76857 33.1399 7.7177 32.7757 8.25074C32.1255 9.20221 30.5508 12.126 30.5508 12.3816C30.5508 12.7358 30.798 12.9532 31.9061 13.574L32.782 14.0646L32.7836 16.186L32.7853 18.3074L31.9368 18.809C30.8794 19.4344 30.5508 19.7305 30.5508 20.0587C30.5508 20.2001 31.089 21.2502 31.7465 22.3925C32.6132 23.8977 33.0279 24.491 33.2532 24.5481C33.4694 24.6029 33.9025 24.4335 34.6738 23.9926L35.7834 23.3582L36.6473 23.9803C37.1226 24.3224 37.918 24.7884 38.415 25.0158L39.3186 25.4292V26.6411C39.3186 28.5303 39.2179 28.4676 42.255 28.4676C44.4208 28.4676 44.7907 28.4364 44.953 28.2394C45.0751 28.0912 45.1572 27.544 45.1872 26.6779L45.2335 25.3445L45.8786 25.1134C46.4359 24.9136 47.4735 24.2858 48.4308 23.5691C48.685 23.3788 48.7876 23.4111 49.7323 23.9783C50.2963 24.3169 50.8935 24.5947 51.0591 24.5955C51.439 24.5975 51.7519 24.1725 53.0193 21.933C54.2135 19.8227 54.2101 19.787 52.7267 18.9569L51.7293 18.3987L51.7186 16.2554L51.7079 14.1121L52.7153 13.5337C54.2243 12.6674 54.2239 12.6758 52.8817 10.332C52.2588 9.24437 51.6552 8.24562 51.5405 8.1125C51.2922 7.82456 50.8534 7.8005 50.4802 8.05444C50.3315 8.15549 49.8668 8.43334 49.4476 8.67194L48.6854 9.10558L47.8722 8.48905C47.4249 8.14996 46.6274 7.68992 46.1 7.4668L45.141 7.06108L45.1035 5.70334C45.0736 4.62786 45.0184 4.30965 44.8376 4.17279C44.6749 4.04976 43.9123 4 42.1906 4C40.0216 4 39.7487 4.02613 39.5454 4.25283ZM4.93243 24.9426V44.3647H15.2072H25.482V24.9426V5.52059H15.2072H4.93243V24.9426ZM40.9489 6.52279C40.9275 8.09287 40.8911 8.15618 39.768 8.57448C38.5628 9.02347 37.7977 9.46956 36.9687 10.2066C36.1622 10.9238 35.8151 10.9259 34.6673 10.2206C34.1811 9.922 33.7718 9.69087 33.7578 9.70718C33.6163 9.87168 32.4688 11.9315 32.4688 12.021C32.4688 12.0862 32.8977 12.3764 33.4219 12.6656C33.946 12.9549 34.4278 13.311 34.4924 13.4571C34.5636 13.618 34.5348 14.1083 34.4194 14.7018C34.2382 15.6329 34.2499 16.4061 34.4737 18.3347L34.5572 19.0533L33.7266 19.5788C33.2697 19.8679 32.7883 20.1709 32.6568 20.2522C32.4367 20.3881 32.4574 20.4717 32.9132 21.2889C33.7862 22.8546 33.6415 22.791 34.8282 22.13C35.395 21.8142 35.9206 21.5559 35.9959 21.5559C36.0713 21.5559 36.5444 21.8964 37.0475 22.3123C37.9748 23.0794 39.3033 23.8014 40.0969 23.9695C40.3365 24.0203 40.596 24.1389 40.6734 24.2329C40.7508 24.3271 40.8322 24.9608 40.8541 25.641L40.8941 26.8779L42.2298 26.9175L43.5655 26.957V25.8079C43.5655 24.4472 43.7105 24.1683 44.5493 23.9149C45.4857 23.6322 46.5756 23.026 47.5216 22.2617C48.0022 21.8735 48.4584 21.5559 48.5354 21.5559C48.6125 21.5559 49.1032 21.8047 49.626 22.1088C50.1488 22.4129 50.6268 22.6618 50.6884 22.6618C50.7935 22.6618 52.0593 20.5874 52.0593 20.4152C52.0593 20.3713 51.6725 20.1173 51.1995 19.8503C49.9014 19.1178 49.7983 18.9633 50.0148 18.0721C50.2373 17.157 50.2397 15.1825 50.0195 14.3954C49.9281 14.0685 49.8907 13.682 49.9364 13.5364C49.9822 13.3909 50.4802 13.0076 51.043 12.6844C51.7105 12.3012 52.0415 12.032 51.9952 11.9102C51.8044 11.4083 50.7969 9.80588 50.6721 9.80588C50.5939 9.80588 50.1497 10.0311 49.6849 10.3064C49.2202 10.5817 48.704 10.8071 48.5378 10.8075C48.3718 10.8078 47.9412 10.5464 47.5812 10.2265C46.8013 9.53384 45.5545 8.82137 44.5501 8.49431C43.6746 8.20927 43.5655 7.99362 43.5655 6.54837V5.52059H42.2641H40.9626L40.9489 6.52279ZM12.3185 9.24686C10.9211 9.67414 10.2268 11.4271 10.9978 12.5814C11.4832 13.3082 12.1246 13.6765 12.9054 13.6765C14.9292 13.6765 15.9282 11.4563 14.5814 9.95186C14.2595 9.59231 13.9138 9.3739 13.5009 9.26898C12.8214 9.09632 12.8113 9.09604 12.3185 9.24686ZM21.3036 9.32261C20.2143 9.71064 19.5341 10.9575 19.8433 11.999C20.167 13.089 20.9678 13.6765 22.1301 13.6765C23.3782 13.6765 24.2798 12.7366 24.2698 11.4455C24.2576 9.85896 22.7754 8.79815 21.3036 9.32261ZM7.86978 9.72584C7.63401 9.90002 7.60387 10.0976 7.60387 11.465C7.60387 12.8327 7.63401 13.0301 7.86978 13.2038C8.23844 13.4758 8.58285 13.4489 8.90534 13.1235C9.14193 12.8848 9.17933 12.6628 9.17933 11.4955C9.17933 10.496 9.12385 10.0638 8.96603 9.83671C8.72245 9.48559 8.25844 9.43873 7.86978 9.72584ZM16.9409 9.78224C16.5924 10.1708 16.6111 12.8484 16.9647 13.1712C17.2934 13.4713 17.7125 13.4615 17.9944 13.1472C18.3166 12.7879 18.3258 10.0695 18.0059 9.74658C17.7171 9.45532 17.2191 9.47191 16.9409 9.78224ZM12.3234 11.0629C12.0996 11.4849 12.2734 11.998 12.6745 12.0996C13.134 12.2159 13.3979 12.0934 13.5861 11.6765C13.7169 11.3867 13.7016 11.2806 13.4953 11.0506C13.1632 10.6804 12.5227 10.687 12.3234 11.0629ZM21.4279 11.1191C21.2201 11.4393 21.2201 11.4901 21.4279 11.8103C21.8137 12.4044 22.742 12.1763 22.742 11.4875C22.742 11.0019 22.5152 10.7735 22.0328 10.7735C21.7781 10.7735 21.5781 10.8879 21.4279 11.1191ZM40.6561 11.8044C39.2067 12.3639 38.1327 13.6096 37.731 15.1971C37.3381 16.7499 37.7937 18.3657 38.9549 19.5374C39.9259 20.5172 40.6597 20.7959 42.2641 20.7941C43.478 20.7928 43.7124 20.7511 44.3218 20.4277C47.049 18.9808 47.7057 15.3135 45.6373 13.0822C44.6784 12.0476 43.892 11.6993 42.4011 11.6486C41.5709 11.6204 41.0008 11.6712 40.6561 11.8044ZM40.8168 13.5037C39.7681 14.0403 39.2804 14.7844 39.2062 15.9616C39.1152 17.4023 39.6463 18.3797 40.8486 18.9843C42.9375 20.0346 45.3405 18.5632 45.3405 16.2338C45.3405 13.8835 42.9243 12.4253 40.8168 13.5037ZM7.92732 16.5671C7.63538 16.8054 7.60004 16.9569 7.56496 18.1223C7.51852 19.6633 7.67388 20.0837 8.3131 20.1467C8.99439 20.214 9.17933 19.8134 9.17933 18.2703C9.17933 17.0863 9.15193 16.954 8.84301 16.6423C8.43818 16.2338 8.34489 16.2261 7.92732 16.5671ZM12.4973 16.5185C12.2139 16.7188 12.1933 16.8389 12.1933 18.2876C12.1933 19.971 12.2687 20.1735 12.8959 20.1735C13.576 20.1735 13.7002 19.8877 13.7002 18.3239C13.7002 17.4011 13.6406 16.8322 13.529 16.6889C13.2658 16.351 12.8348 16.2799 12.4973 16.5185ZM17.2621 16.3989C16.8113 16.5614 16.7142 16.9026 16.7142 18.3239C16.7142 19.8877 16.8384 20.1735 17.5185 20.1735C18.1456 20.1735 18.2211 19.971 18.2211 18.2876C18.2211 16.8382 18.2006 16.7188 17.9166 16.5182C17.5913 16.2882 17.5766 16.2855 17.2621 16.3989ZM21.596 16.5895C21.2504 16.8638 21.2351 16.9329 21.2351 18.2175C21.2351 19.817 21.4136 20.2146 22.1013 20.1467C22.7405 20.0837 22.8959 19.6633 22.8494 18.1223C22.8144 16.9569 22.779 16.8054 22.4871 16.5671C22.0831 16.2371 22.0385 16.2382 21.596 16.5895ZM16.8216 22.9655C16.181 23.1369 15.3909 23.9977 15.2682 24.6579C15.0775 25.6837 15.5537 26.6919 16.4496 27.1594C17.8531 27.8918 19.7281 26.7614 19.7281 25.1829C19.7281 23.6318 18.3269 22.5628 16.8216 22.9655ZM7.86978 23.4111C7.63401 23.5853 7.60387 23.7829 7.60387 25.1503C7.60387 26.518 7.63401 26.7154 7.86978 26.8891C8.23844 27.161 8.58285 27.1342 8.90534 26.8088C9.14193 26.5701 9.17933 26.3481 9.17933 25.1808C9.17933 24.1812 9.12385 23.7491 8.96603 23.522C8.72245 23.1709 8.25844 23.124 7.86978 23.4111ZM12.4085 23.4319C12.2394 23.6026 12.1933 23.9689 12.1933 25.1384C12.1933 26.4057 12.2307 26.6619 12.4438 26.8565C12.7565 27.1421 13.0059 27.1456 13.3957 26.8701C13.6784 26.6703 13.7002 26.548 13.7002 25.1635C13.7002 23.8944 13.663 23.6381 13.4497 23.4435C13.134 23.1551 12.6877 23.1502 12.4085 23.4319ZM21.4484 23.522C21.2905 23.7491 21.2351 24.1812 21.2351 25.1808C21.2351 26.3481 21.2725 26.5701 21.509 26.8088C22.0431 27.3477 22.6583 27.0542 22.8201 26.1834C22.869 25.9204 22.8855 25.2321 22.8564 24.6537C22.8145 23.8163 22.7504 23.5628 22.5412 23.4085C22.1555 23.1239 21.6911 23.1721 21.4484 23.522ZM16.9409 24.7117C16.6462 25.0402 16.6539 25.3285 16.9647 25.6124C17.4194 26.0277 18.2211 25.7646 18.2211 25.2002C18.2211 24.5049 17.4056 24.1936 16.9409 24.7117ZM11.9809 29.8985C11.4825 30.1268 10.8567 30.8425 10.7378 31.3204C10.5957 31.8916 10.7682 32.8396 11.0998 33.3093C11.4553 33.8131 12.3315 34.2659 12.9595 34.2705C13.1925 34.2721 13.6516 34.1303 13.9797 33.9552C14.6762 33.5836 15.2084 32.7065 15.205 31.9364C15.2023 31.3456 14.7363 30.4687 14.2196 30.0822C13.7515 29.7318 12.5588 29.6341 11.9809 29.8985ZM7.92732 30.2524C7.63538 30.4907 7.60004 30.6422 7.56496 31.8076C7.51852 33.3486 7.67388 33.769 8.3131 33.832C8.99439 33.8993 9.17933 33.4987 9.17933 31.9556C9.17933 30.7716 9.15193 30.6393 8.84301 30.3276C8.43818 29.9191 8.34489 29.9114 7.92732 30.2524ZM17.2621 30.0842C16.8113 30.2467 16.7142 30.5879 16.7142 32.0092C16.7142 33.573 16.8384 33.8588 17.5185 33.8588C18.1456 33.8588 18.2211 33.6563 18.2211 31.9729C18.2211 30.5235 18.2006 30.404 17.9166 30.2035C17.5913 29.9734 17.5766 29.9708 17.2621 30.0842ZM21.596 30.2748C21.2504 30.5491 21.2351 30.6182 21.2351 31.9028C21.2351 33.5023 21.4136 33.8999 22.1013 33.832C22.7405 33.769 22.8959 33.3486 22.8494 31.8076C22.8144 30.6422 22.779 30.4907 22.4871 30.2524C22.0831 29.9224 22.0385 29.9235 21.596 30.2748ZM12.42 31.4852C12.2953 31.6243 12.1933 31.8695 12.1933 32.0302C12.1933 32.3262 12.6562 32.7529 12.9773 32.7529C13.218 32.7529 13.7002 32.2459 13.7002 31.9926C13.7002 31.7037 13.2038 31.2324 12.8995 31.2324C12.7604 31.2324 12.5447 31.3461 12.42 31.4852ZM47.4305 33.4787L47.4699 34.7574H48.7029H49.9359L49.9753 33.4787L50.0147 32.2H48.7029H47.3912L47.4305 33.4787ZM31.2939 35.1497C31.2551 35.2515 31.2417 35.8269 31.2639 36.4283L31.3043 37.5221L32.5715 37.5619L33.8388 37.6015V36.2832V34.9647H32.6015C31.6945 34.9647 31.3454 35.0141 31.2939 35.1497ZM21.1557 36.7474C18.9054 37.7788 19.5904 41.0471 22.057 41.0471C23.3407 41.0471 24.2798 40.1154 24.2701 38.8515C24.2617 37.7678 23.828 37.1127 22.8442 36.6979C22.1923 36.4231 21.841 36.4335 21.1557 36.7474ZM7.79183 37.1286C7.65949 37.2895 7.60387 37.7761 7.60387 38.773C7.60387 39.971 7.64401 40.2333 7.86485 40.4796C8.19268 40.8451 8.55257 40.8501 8.90534 40.4941C9.14193 40.2554 9.17933 40.0334 9.17933 38.8661C9.17933 37.8665 9.12385 37.4344 8.96603 37.2073C8.70998 36.8383 8.0661 36.7952 7.79183 37.1286ZM12.4085 37.1172C12.2392 37.2882 12.1933 37.6559 12.1933 38.8419C12.1933 40.3152 12.2015 40.3549 12.5515 40.5863C12.8728 40.7988 12.9472 40.8021 13.2707 40.6192C13.6217 40.4207 13.6328 40.3737 13.6708 38.9157C13.7034 37.6647 13.6715 37.3736 13.4783 37.1582C13.1958 36.8432 12.6991 36.8241 12.4085 37.1172ZM16.9361 37.1582C16.7429 37.3736 16.711 37.6647 16.7436 38.9157C16.7816 40.3737 16.7927 40.4207 17.1436 40.6192C17.4672 40.8021 17.5416 40.7988 17.8629 40.5863C18.2129 40.3549 18.2211 40.3152 18.2211 38.8419C18.2211 37.6559 18.1752 37.2882 18.0059 37.1172C17.7153 36.8241 17.2186 36.8432 16.9361 37.1582ZM39.3186 38.9044V40.2176H40.6201H41.9216V38.9044V37.5912H40.6201H39.3186V38.9044ZM21.4279 38.4897C21.2201 38.8099 21.2201 38.8607 21.4279 39.1809C21.8137 39.775 22.742 39.5469 22.742 38.8581C22.742 38.3725 22.5152 38.1441 22.0328 38.1441C21.7781 38.1441 21.5781 38.2584 21.4279 38.4897ZM1.64451 47.6824V49.4794H26.9889H52.3333V47.6824V45.8853H26.9889H1.64451V47.6824Z" fill="#1BCE1B"/>
</svg>
