<svg width="54" height="54" viewBox="0 0 54 54" fill="none" xmlns="http://www.w3.org/2000/svg">
<path fill-rule="evenodd" clip-rule="evenodd" d="M23.9972 0.36109C23.9711 0.405387 23.8195 1.08239 23.6605 1.8655C23.5014 2.6486 23.3179 3.34143 23.2526 3.40502C23.1873 3.46873 22.7543 3.65224 22.2902 3.81298C21.8262 3.97371 21.128 4.26533 20.7386 4.46119L20.0308 4.81725L18.6819 3.92878L17.3332 3.04042L15.0301 5.33647L12.7269 7.63253L13.1948 8.7428L13.6627 9.85307L12.9139 9.91234C10.4336 10.1085 8.34114 11.7544 7.56679 14.118C7.3376 14.8179 7.31366 15.0703 7.31366 16.7893C7.31366 18.4577 7.34203 18.7772 7.54759 19.426C7.87433 20.4574 8.4657 21.401 9.23847 22.1242C10.1772 23.0027 10.1509 23.0649 8.68897 23.4215L7.4802 23.7163L5.28181 22.4413L3.08341 21.1663H1.69112H0.298828L0.325723 30.2013L0.352723 39.2362L4.57052 40.6427C8.60555 41.9881 8.82555 42.0491 9.64905 42.0491H10.5098L10.6201 41.7327C10.6807 41.5587 10.7604 41.4163 10.7969 41.4163C10.8335 41.4163 11.4214 41.75 12.1033 42.1577L13.3433 42.8992L13.4642 43.4225C13.7027 44.4561 14.4368 45.2046 15.4472 45.4447C15.9605 45.5666 15.9776 45.5831 16.0929 46.0684C16.3363 47.0931 17.0934 47.8428 18.125 48.081C18.5881 48.1879 18.6519 48.2353 18.6539 48.4745C18.6603 49.2286 19.4832 50.2484 20.3245 50.5452C21.2441 50.8695 21.2882 50.897 21.2906 51.1436C21.2942 51.5188 21.6439 52.1972 22.0358 52.589C22.7901 53.3433 24.0239 53.5805 24.9838 53.1558L25.4626 52.9439L25.9329 53.3612C26.71 54.0508 27.1361 54.2259 28.0383 54.2259C28.642 54.2259 28.9296 54.1727 29.2525 54.0015C30.0326 53.5883 30.5741 52.8721 30.7284 52.0496C30.7899 51.7214 30.8463 51.6636 31.1536 51.6137C32.2797 51.4311 33.0836 50.5877 33.3592 49.3001C33.4083 49.0705 33.4812 49.0095 33.7092 49.0077C34.3648 49.0024 35.3277 48.3292 35.6947 47.6196C35.7838 47.4474 35.8903 47.1095 35.9314 46.8687C36.0021 46.4547 36.0298 46.427 36.4438 46.3563C37.0669 46.2499 37.4463 46.0267 37.9216 45.4866C38.3525 44.9973 38.5851 44.4254 38.5851 43.8563V43.526L46.3895 39.6234C50.682 37.4771 54.2167 35.721 54.2444 35.721C54.272 35.721 54.3091 36.4923 54.3266 37.4348C54.3441 38.3775 54.359 35.0671 54.36 30.0784C54.3609 25.0897 54.346 21.447 54.3269 21.9837L54.2921 22.9592H53.2987H52.3051L50.8815 23.7042L49.4579 24.449L48.7413 24.1935C48.3471 24.0531 47.2771 23.755 46.3635 23.5312C44.9777 23.1918 44.7023 23.0926 44.7023 22.9327C44.7023 22.8273 44.999 22.4634 45.3615 22.1242C46.1192 21.4152 46.7213 20.4642 47.0367 19.4788C47.3436 18.5195 47.4284 16.0615 47.1931 14.9436C46.8073 13.1099 45.5635 11.4125 44.0102 10.5999C43.1587 10.1544 42.5977 9.98807 41.6331 9.89536L40.9368 9.82839L41.4054 8.73088L41.8739 7.63327L39.5703 5.33689L37.2668 3.04042L35.918 3.92878L34.5692 4.81725L33.8614 4.46119C33.472 4.26533 32.7738 3.97339 32.3098 3.81245C31.8457 3.6514 31.4185 3.4778 31.3605 3.42664C31.3025 3.37539 31.1125 2.65915 30.9382 1.8348L30.6215 0.336199L27.3331 0.308355C25.5245 0.293062 24.0234 0.316793 23.9972 0.36109ZM25.3516 2.20827C25.3218 2.33884 25.2019 2.89645 25.0851 3.44753C24.9684 3.9986 24.8498 4.55094 24.8218 4.67487C24.7857 4.83402 24.6605 4.92093 24.3955 4.9706C23.4123 5.15507 21.4438 5.96549 20.3613 6.63142L20.0144 6.84478L18.7793 6.04733L17.5441 5.24988L16.153 6.6349L14.7619 8.01981L14.9166 8.39675C15.7156 10.3437 15.7335 10.3747 16.203 10.6237C16.4525 10.7561 16.8636 11.0467 17.1166 11.2693C17.3696 11.4919 17.6167 11.674 17.6657 11.6739C17.7149 11.6738 17.9212 11.4286 18.1242 11.129C18.6678 10.3271 19.9941 9.02872 20.8808 8.4305C22.9251 7.05139 24.8506 6.46045 27.3 6.46045C28.8052 6.46045 29.4652 6.5617 30.8332 7.00235C32.9916 7.6976 35.0446 9.17828 36.3687 10.9947C36.6199 11.3393 36.8392 11.6385 36.8558 11.6595C36.8724 11.6805 37.109 11.5144 37.3814 11.2904C37.654 11.0664 38.0937 10.7644 38.3586 10.6194C38.81 10.3723 38.8717 10.2827 39.3406 9.19557L39.8409 8.03542L38.4524 6.64049C37.1655 5.34776 37.048 5.25579 36.8489 5.38562C36.7307 5.46261 36.1718 5.82173 35.607 6.18349L34.5801 6.84141L34.2359 6.62973C33.1559 5.96538 31.1865 5.15486 30.2045 4.9706C29.9394 4.92093 29.8143 4.83402 29.7782 4.67487C29.7501 4.55094 29.6289 3.97487 29.509 3.39479C29.3891 2.81471 29.2669 2.257 29.2376 2.15554C29.1894 1.98858 29.0036 1.97096 27.2949 1.97096C25.4219 1.97096 25.4051 1.97297 25.3516 2.20827ZM26.5617 8.15312C25.143 8.31037 24.1969 8.58206 23.0367 9.16499C21.5068 9.93386 20.2147 11.0786 19.294 12.4811L18.7733 13.2743L19.0278 13.9504C19.3706 14.8611 19.5378 16.3776 19.4452 17.7362C19.3163 19.6267 18.6296 21.1449 17.4258 22.2005C16.5032 23.0096 16.5509 23.0669 18.5701 23.5723L20.2817 24.0007L22.0506 23.5616C23.4856 23.2053 23.8195 23.0881 23.8195 22.9405C23.8195 22.8404 23.4752 22.4121 23.0543 21.9887C21.6155 20.5414 21.2444 19.4786 21.2391 16.7893C21.2352 14.8171 21.3297 14.323 21.9444 13.1034C22.3893 12.2209 23.659 10.978 24.5634 10.5397C26.939 9.38848 29.6526 9.81141 31.4394 11.6113C32.9492 13.1321 33.5099 14.809 33.3825 17.4221C33.2766 19.5936 32.8348 20.692 31.5456 21.9887C31.1248 22.4121 30.7805 22.8404 30.7805 22.9405C30.7805 23.0881 31.1144 23.2053 32.5494 23.5616L34.3183 24.0007L36.0298 23.5723C38.049 23.0669 38.0968 23.0096 37.1742 22.2005C35.9108 21.0927 35.2611 19.5921 35.1511 17.5276C35.0738 16.0756 35.1995 14.8852 35.5369 13.8752L35.7705 13.1759L35.2719 12.426C33.8716 10.3197 31.5341 8.76284 29.093 8.3108C28.3859 8.1798 27.0636 8.09743 26.5617 8.15312ZM12.6582 11.6746C11.36 11.8684 9.96968 12.9291 9.40911 14.1534C8.82334 15.4329 8.82766 18.3241 9.41723 19.5291C9.76876 20.2476 10.3919 20.9499 11.0561 21.3762L11.5851 21.7156V23.1091V24.5027L10.7678 24.6928C10.3181 24.7975 9.89385 24.9133 9.82477 24.9502C9.75537 24.9873 10.7115 25.6063 11.9641 26.335L14.2289 27.6526L14.1991 28.5805C14.1706 29.4621 14.1797 29.5059 14.3801 29.4583C14.4961 29.4308 15.0951 29.3 15.7112 29.1678L16.8315 28.9274L16.8876 28.1318C16.952 27.2171 17.2512 26.3389 17.7005 25.7451C17.8723 25.518 18.0142 25.3016 18.0158 25.2641C18.0174 25.2265 17.3842 25.0399 16.6088 24.8495L15.1988 24.5033L15.1323 23.7154C15.0956 23.282 15.0656 22.6753 15.0656 22.3671V21.807L15.6898 21.3831C16.4424 20.8719 16.9639 20.2575 17.3567 19.4187C17.6293 18.8364 17.652 18.6829 17.6852 17.1913C17.7135 15.9247 17.684 15.4609 17.5441 14.9764C16.8925 12.7184 14.8614 11.3459 12.6582 11.6746ZM26.5662 11.6866C24.984 11.9546 23.6461 13.1332 23.1373 14.7075C22.9907 15.1613 22.9645 15.584 22.9933 17.0278C23.0278 18.754 23.0359 18.8087 23.3595 19.4917C23.7518 20.3198 24.2699 20.9217 24.9853 21.3808L25.507 21.7156V23.1042V24.4928L22.8166 25.162C19.9004 25.8874 19.5484 26.0428 19.0279 26.8344C18.7619 27.2389 18.4984 28.1674 18.5854 28.3938C18.6223 28.4901 18.8014 28.487 19.3545 28.38C20.4048 28.177 22.4376 28.1837 23.4504 28.3935C24.2012 28.5491 27.1077 29.4139 27.8963 29.7164C28.0614 29.7798 28.5762 29.8941 29.0402 29.9707C29.5043 30.0472 31.0649 30.4492 32.5082 30.8641C34.3095 31.3819 35.2687 31.6085 35.5668 31.5867L36.0012 31.555L36.0305 29.9202C36.0631 28.1062 35.9618 27.4231 35.5732 26.8344C35.0503 26.0422 34.699 25.8873 31.7834 25.162L29.093 24.4928V23.1042V21.7156L29.6147 21.3808C30.3301 20.9217 30.8482 20.3198 31.2405 19.4917C31.5596 18.8183 31.5727 18.7349 31.6075 17.1706C31.6475 15.3774 31.5735 14.9397 31.0661 13.966C30.1892 12.2837 28.3981 11.3764 26.5662 11.6866ZM40.4881 11.6866C39.1161 11.919 37.9904 12.7755 37.3476 14.0764L36.9504 14.8799V16.8366V18.7932L37.2776 19.4837C37.6819 20.3369 38.1233 20.8487 38.9232 21.3919L39.5406 21.8112L39.5111 23.1435L39.4816 24.4758L38.0597 24.8317C37.2776 25.0276 36.62 25.2056 36.5983 25.2272C36.5767 25.249 36.707 25.4729 36.8879 25.7248C37.5255 26.6127 37.6689 27.1683 37.7188 28.9446C37.7436 29.8292 37.7891 30.553 37.8197 30.553C37.9243 30.553 47.2279 25.6489 47.2307 25.5923C47.2323 25.5612 46.2844 25.3018 45.1242 25.0159L43.0148 24.4959V23.1126V21.7292L43.5368 21.3909C44.1953 20.9642 44.8332 20.2434 45.1805 19.5335C45.56 18.758 45.7185 17.2756 45.5658 15.9311C45.2403 13.0664 43.0674 11.2499 40.4881 11.6866ZM0.350402 30.1839C0.350402 35.1725 0.36327 37.1979 0.37909 34.6847C0.394805 32.1715 0.394805 28.0899 0.37909 25.6144C0.36327 23.139 0.350402 25.1952 0.350402 30.1839ZM2.01312 30.4739L2.04022 37.9885L3.86747 38.6082C4.87965 38.9514 5.73173 39.1866 5.77761 39.1355C5.92358 38.9728 8.96034 26.6201 8.87365 26.5416C8.82777 26.4999 7.42873 25.677 5.76475 24.7126C3.39159 23.3372 2.65816 22.9592 2.36275 22.9592H1.98612L2.01312 30.4739ZM44.2805 29.1372L36.2121 33.4053L35.4612 33.3471C34.9948 33.3109 33.6763 32.9936 31.9807 32.5097C30.4794 32.081 29.0314 31.6982 28.7627 31.6589C27.8919 31.5315 27.2096 31.7693 24.3367 33.2008C21.4253 34.6515 21.1842 34.8309 21.1832 35.5468C21.1822 36.2965 21.893 36.9774 22.5398 36.8462C22.6926 36.8153 23.6719 36.2863 24.716 35.6707C26.8355 34.4212 27.4541 34.1851 28.3455 34.2862C29.483 34.4151 29.9314 34.7433 34.043 38.4552L37.8857 41.9245L45.2491 38.2425L52.6125 34.5605V29.7091C52.6125 25.8953 52.5843 24.8589 52.4807 24.8634C52.4082 24.8665 48.7181 26.7897 44.2805 29.1372ZM10.4766 27.6286C10.3922 27.8687 7.47186 39.6195 7.47186 39.7187C7.47186 39.8172 9.1389 40.4173 9.21125 40.3448C9.33972 40.2164 12.5389 28.7229 12.4658 28.6523C12.4166 28.6048 11.959 28.3258 11.4491 28.0325C10.8348 27.6791 10.5067 27.5428 10.4766 27.6286ZM20.0754 29.9962C19.3933 30.0919 13.6485 31.4012 13.5834 31.4757C13.49 31.5825 11.2295 39.6212 11.281 39.6636C11.3032 39.6819 11.8939 40.0371 12.5934 40.4527L13.8653 41.2085L14.9376 40.1474C16.1623 38.9354 16.6453 38.6646 17.5901 38.6601C18.723 38.6547 19.7182 39.3226 20.0736 40.3268C20.4077 41.2709 20.4322 41.3107 20.6796 41.3131C21.6027 41.3221 22.8602 42.6019 22.868 43.5403C22.87 43.7779 22.9281 43.8293 23.2658 43.8919C24.4175 44.1054 25.507 45.2332 25.507 46.2117C25.507 46.418 25.561 46.479 25.7443 46.4798C26.2776 46.4822 27.7219 47.4122 27.7219 47.7533C27.7219 47.9452 30.0023 49.7531 30.3737 49.8554C31.0454 50.0406 31.6242 49.6507 31.6242 49.0131C31.6242 48.5469 31.563 48.4857 28.8293 46.2176C27.7271 45.3032 26.8147 44.5252 26.8018 44.4886C26.7888 44.4521 27.0261 44.147 27.3291 43.8106L27.8801 43.1991L29.9894 44.958C32.7167 47.2321 32.8426 47.3225 33.2829 47.3225C33.7469 47.3225 34.2611 46.8413 34.2604 46.4078C34.2597 45.9837 34.0455 45.7691 31.5978 43.739C30.3941 42.7408 29.4105 41.8928 29.4119 41.8547C29.4134 41.8165 29.6625 41.5143 29.9656 41.1829L30.5168 40.5803L32.9716 42.6331C35.2247 44.5173 35.4596 44.6858 35.8314 44.6858C36.5657 44.6858 37.0517 44.0468 36.7928 43.4217C36.6675 43.1192 29.4086 36.5354 28.8477 36.2155C28.6045 36.0767 28.3543 36.0351 27.9328 36.063C27.4142 36.0974 27.1526 36.221 25.4664 37.2285C24.429 37.8484 23.4086 38.4032 23.1988 38.4616C21.8335 38.8408 20.4499 38.2304 19.8207 36.9712C19.2662 35.8616 19.4141 34.536 20.194 33.6249C20.4943 33.274 21.0296 32.9573 23.0095 31.9588L25.4543 30.7261L24.7074 30.4893C23.1178 29.9854 21.4318 29.8059 20.0754 29.9962ZM16.2214 41.3729C15.5849 41.9985 15.1713 42.4914 15.1375 42.6649C15.0105 43.3181 15.6648 43.9517 16.3029 43.7935C16.47 43.7521 17.0121 43.3046 17.5705 42.7472C18.4805 41.8387 18.5461 41.7445 18.5461 41.3455C18.5461 40.7797 18.1527 40.3616 17.6205 40.3616C17.2953 40.3616 17.1272 40.4831 16.2214 41.3729ZM18.7972 43.9739C18.2398 44.5322 17.7923 45.0744 17.7508 45.2415C17.588 45.8984 18.2718 46.574 18.9376 46.4142C19.1111 46.3726 19.6317 45.9415 20.2072 45.363C21.1055 44.4602 21.1828 44.3496 21.1828 43.9684C21.1828 43.3894 20.7862 42.9983 20.1989 42.9983C19.7999 42.9983 19.7057 43.0639 18.7972 43.9739ZM22.5946 45.6021C22.4721 45.6262 21.9143 46.1114 21.3553 46.6804C20.2936 47.7612 20.1819 47.9906 20.4617 48.516C20.6521 48.8733 20.883 49.0031 21.3352 49.0067C21.7227 49.0098 21.8225 48.9388 22.7854 47.9759C23.8711 46.8903 23.9643 46.7009 23.6994 46.1197C23.6012 45.9042 22.9931 45.4898 22.8544 45.5439C22.8341 45.5518 22.7173 45.578 22.5946 45.6021ZM24.9269 48.3618C24.7529 48.469 24.2427 48.943 23.7932 49.415C23.0619 50.1828 22.9758 50.3165 22.9758 50.682C22.9758 51.2473 23.3758 51.6467 23.9419 51.6467C24.311 51.6467 24.4399 51.5622 25.2364 50.7975C26.2994 49.7769 26.5248 49.379 26.346 48.8376C26.257 48.5677 26.1226 48.4207 25.868 48.3143C25.4091 48.1226 25.3073 48.1277 24.9269 48.3618ZM27.7125 50.6184C27.5834 50.807 27.3075 51.1412 27.0993 51.3614L26.7209 51.7615L27.1422 52.122C27.374 52.3204 27.6586 52.4918 27.7746 52.5029C28.4156 52.5649 28.8148 52.3603 29.0004 51.8752C29.129 51.5385 28.8803 51.0504 28.3599 50.6184L27.9471 50.2758L27.7125 50.6184Z" fill="#1BCE1B"/>
</svg>
