<svg width="54" height="54" viewBox="0 0 54 54" fill="none" xmlns="http://www.w3.org/2000/svg">
<path fill-rule="evenodd" clip-rule="evenodd" d="M10.662 1.26596C10.3982 1.52964 10.396 1.5486 10.396 3.6C10.396 5.6514 10.3982 5.67036 10.662 5.93404C11.0138 6.28591 11.5118 6.28591 11.8636 5.93404C12.1198 5.67794 12.1295 5.61435 12.1295 4.20071V2.73333H26.2418H40.354L44.6868 7.06667L49.0196 11.4H45.3092H41.599V9.06596C41.599 6.73213 41.599 6.73181 41.333 6.46596C40.9812 6.11409 40.4833 6.11409 40.1315 6.46596L39.8655 6.73181V9.66667V12.6015L40.1315 12.8674L40.3974 13.1333H45.332H50.2665V32.2V51.2667H30.5973H10.9279L10.662 51.5326C10.3101 51.8844 10.3101 52.3823 10.662 52.734L10.9279 53H31.198H51.4681L51.734 52.734L52 52.4682V32.1791V11.8899L46.5545 6.44494L41.1091 1H26.0184H10.9279L10.662 1.26596ZM7.17607 9.91367L5.19554 11.894V21.0025V30.111L4.57257 30.5237C4.22988 30.7507 3.63919 31.2329 3.25977 31.5953C1.21641 33.5469 0.175333 35.8063 0.0298273 38.6047C-0.0437381 40.0206 0.00393323 40.3321 0.341857 40.647C0.644461 40.9288 1.08098 40.9269 1.44306 40.6421C1.70948 40.4326 1.72866 40.3585 1.73071 39.5317C1.73505 37.7132 2.1395 36.1181 2.94406 34.7458C3.50647 33.7868 5.02599 32.2569 5.94897 31.7205C6.33359 31.497 6.70986 31.2331 6.78527 31.1342C6.89296 30.9925 6.92287 29.0049 6.92558 21.7984L6.92904 12.6426L8.25928 11.3157L9.58953 9.98874L11.4283 11.516C12.4397 12.356 13.3327 13.1065 13.4129 13.1837C13.534 13.3005 13.4383 13.5038 12.8441 14.3925L12.1295 15.4609V18.3729V21.2848L12.9963 22.1727L13.863 23.0607V27.0141C13.863 31.5268 13.776 31.128 14.9017 31.7721C15.6945 32.2256 16.9098 33.3717 17.4654 34.1898C18.0264 35.0157 18.5539 36.1757 18.8021 37.1292C19.0944 38.2518 19.0721 40.2163 18.7542 41.345C18.2998 42.9579 17.5398 44.2234 16.3384 45.3672C15.4982 46.1671 15.201 46.3782 14.2302 46.8654C10.9618 48.5056 6.90922 47.859 4.3509 45.2894C3.7186 44.6542 3.40213 44.2363 2.67363 43.0741C2.50515 42.8052 2.28056 42.5989 2.10992 42.556C1.52074 42.4081 0.863532 43.0271 1.00622 43.5955C1.14002 44.1288 2.35683 45.8041 3.2031 46.6201C4.54765 47.9168 5.98764 48.7327 7.7959 49.2229C8.58269 49.4361 8.96894 49.4717 10.4502 49.4674C12.0169 49.4628 12.2775 49.434 13.1588 49.1678C14.4297 48.7839 15.3119 48.3681 16.2885 47.6931C20.2054 44.9856 21.7744 40.0352 20.1438 35.5294C19.4749 33.6811 17.9552 31.7149 16.3453 30.615L15.5965 30.1034V26.2093V22.3152L14.7298 21.4273L13.863 20.5393L13.8633 18.2718L13.8634 16.0042L14.7298 14.7042C15.6949 13.256 15.7641 12.9876 15.2986 12.4993C15.0344 12.2221 10.943 8.79307 10.1376 8.17373C9.47772 7.66618 9.34695 7.74299 7.17607 9.91367ZM8.92852 13.3993L8.66254 13.6651V21.8V29.9349L8.92852 30.2007C9.09613 30.3684 9.31824 30.4667 9.52929 30.4667C9.74034 30.4667 9.96245 30.3684 10.1301 30.2007L10.396 29.9349V21.8V13.6651L10.1301 13.3993C9.96245 13.2316 9.74034 13.1333 9.52929 13.1333C9.31824 13.1333 9.09613 13.2316 8.92852 13.3993ZM17.596 18.5993C17.4283 18.7669 17.33 18.989 17.33 19.2C17.33 19.411 17.4283 19.6331 17.596 19.8007L17.8619 20.0667H22.5305H27.1992L27.465 19.8007C27.6328 19.6331 27.731 19.411 27.731 19.2C27.731 18.989 27.6328 18.7669 27.465 18.5993L27.1992 18.3333H22.5305H17.8619L17.596 18.5993ZM29.7305 18.5993C29.5628 18.7669 29.4645 18.989 29.4645 19.2C29.4645 19.411 29.5628 19.6331 29.7305 19.8007L29.9964 20.0667H37.2653H44.5341L44.8 19.8007C45.1519 19.4489 45.1519 18.951 44.8 18.5993L44.5341 18.3333H37.2653H29.9964L29.7305 18.5993ZM17.596 22.066C17.4283 22.2336 17.33 22.4556 17.33 22.6667C17.33 22.8777 17.4283 23.0998 17.596 23.2674L17.8619 23.5333H27.731H37.6002L37.866 23.2674C38.0337 23.0998 38.132 22.8777 38.132 22.6667C38.132 22.4556 38.0337 22.2336 37.866 22.066L37.6002 21.8H27.731H17.8619L17.596 22.066ZM40.1315 22.066C39.9638 22.2336 39.8655 22.4556 39.8655 22.6667C39.8655 22.8777 39.9638 23.0998 40.1315 23.2674C40.3952 23.5312 40.4142 23.5333 42.4658 23.5333C44.5174 23.5333 44.5363 23.5312 44.8 23.2674C44.9677 23.0998 45.066 22.8777 45.066 22.6667C45.066 22.4556 44.9677 22.2336 44.8 22.066C44.5363 21.8022 44.5174 21.8 42.4658 21.8C40.4142 21.8 40.3952 21.8022 40.1315 22.066ZM17.596 25.5326C17.4283 25.7002 17.33 25.9223 17.33 26.1333C17.33 26.3444 17.4283 26.5665 17.596 26.734L17.8619 27H24.264H30.6662L30.932 26.734C31.0998 26.5665 31.198 26.3444 31.198 26.1333C31.198 25.9223 31.0998 25.7002 30.932 25.5326L30.6662 25.2667H24.264H17.8619L17.596 25.5326ZM38.0778 32.3729C33.8716 33.3105 30.9995 37.0538 31.232 41.295C31.3057 42.6375 31.5002 43.4188 32.0558 44.6042C33.1002 46.8326 35.2189 48.5868 37.6986 49.2767C38.6778 49.549 41.0447 49.5503 42.0324 49.2792C45.0168 48.4595 47.4699 46.0206 48.26 43.0875C48.455 42.3632 48.6014 40.3955 48.4925 39.9614C48.3221 39.2828 47.4849 39.0069 47.0482 39.4854C46.8613 39.6903 46.8167 39.9192 46.7692 40.9208C46.7282 41.7828 46.635 42.3546 46.4322 42.9876C45.7631 45.076 44.0939 46.7477 41.9867 47.4399C40.7714 47.8391 39.1014 47.8613 37.9153 47.4941C35.7214 46.8147 33.9996 45.1368 33.2906 42.9876C33.0454 42.2442 33.0018 41.9249 33.0018 40.8667C33.0018 39.8036 33.045 39.4903 33.2952 38.7309C33.8312 37.105 34.9001 35.7873 36.3985 34.9054C37.5245 34.2426 38.512 33.9867 39.9197 33.9927C41.0086 33.9974 41.2119 34.0327 42.2753 34.4021C43.3678 34.7817 43.4583 34.7965 43.7519 34.6448C44.1728 34.4271 44.3241 33.9512 44.1315 33.4496C44.0397 33.2102 43.1948 32.7963 42.2316 32.5186C41.1586 32.2093 39.1306 32.1383 38.0778 32.3729ZM45.297 35.9646C45.1242 36.1284 43.9462 37.4569 42.6792 38.9167C41.4121 40.3765 40.2716 41.6808 40.1446 41.815L39.9138 42.0593L38.9011 40.7012C38.3443 39.9544 37.8003 39.2961 37.6924 39.2383C37.3551 39.0578 36.9411 39.1226 36.6645 39.3993C36.1726 39.891 36.2694 40.1199 37.8733 42.2595C39.375 44.263 39.5628 44.4328 40.122 44.2925C40.2813 44.2525 41.4798 42.9692 43.291 40.8991C44.8929 39.068 46.3377 37.4031 46.5016 37.1993C46.8764 36.7329 46.8877 36.2867 46.5335 35.9326C46.1715 35.5707 45.6995 35.5828 45.297 35.9646ZM9.33135 39.2876C7.39849 39.9174 6.40401 42.1662 7.23132 44.0363C7.51421 44.6757 8.31118 45.4751 8.96634 45.7763C9.72333 46.1245 11.1177 46.1105 11.8559 45.7473C12.5432 45.4092 13.2055 44.747 13.5436 44.0597C13.9069 43.3216 13.9209 41.9274 13.5727 41.1704C13.2704 40.5133 12.4716 39.7184 11.8257 39.4321C11.1836 39.1474 9.97621 39.0774 9.33135 39.2876ZM9.63352 41.1104C9.11314 41.3728 8.66254 42.0641 8.66254 42.6C8.66254 43.1359 9.11314 43.8272 9.63352 44.0896C9.89939 44.2237 10.2425 44.3333 10.396 44.3333C10.932 44.3333 11.6234 43.8828 11.8858 43.3624C12.0198 43.0966 12.1295 42.7535 12.1295 42.6C12.1295 42.0641 11.6789 41.3728 11.1586 41.1104C10.8927 40.9763 10.5496 40.8667 10.396 40.8667C10.2425 40.8667 9.89939 40.9763 9.63352 41.1104Z" fill="#1BCE1B"/>
</svg>
