<svg viewBox="0 0 38 38" fill="none" xmlns="http://www.w3.org/2000/svg">
<path d="M31.0768 12.8742H23.6095C22.505 12.8742 21.6095 11.9788 21.6095 10.8742V3.407M11.4552 35.1501H27.1784C29.639 35.1501 31.6336 33.1555 31.6336 30.6949V13.1458C31.6336 12.6153 31.4228 12.1066 31.0478 11.7316L22.7521 3.43588C22.377 3.06081 21.8683 2.8501 21.3379 2.8501H11.4552C8.99465 2.8501 7 4.84474 7 7.30527V30.6949C7 33.1555 8.99465 35.1501 11.4552 35.1501Z" stroke="#1BCE1B" stroke-width="1.5" stroke-linecap="round" stroke-linejoin="round"/>
<path d="M25.0946 23.7697H27.4077V24.7225H25.0946V28.0422H24.0879V21H28.1148V21.9576H25.0946V23.7697Z" fill="#1BCE1B" stroke="#1BCE1B" stroke-width="0.2"/>
<path d="M21.4506 25.6261C21.6012 25.279 21.6765 24.9107 21.6765 24.5211C21.6765 24.1315 21.6012 23.7665 21.4506 23.426C21.3 23.0822 21.0905 22.7908 20.822 22.5518C20.5929 22.3521 20.3195 22.2032 20.0019 22.105C19.6843 22.0067 19.2866 21.9576 18.8086 21.9576H17.6005V27.0846H18.8086C19.2866 27.0846 19.6843 27.0371 20.0019 26.9422C20.3195 26.844 20.5929 26.695 20.822 26.4953C21.0905 26.2596 21.3 25.9698 21.4506 25.6261ZM18.8577 28.0422H16.5938V21H18.8577C19.8628 21 20.6682 21.2226 21.2738 21.6679C21.7125 21.9953 22.0563 22.4094 22.3051 22.9103C22.5572 23.408 22.6833 23.9449 22.6833 24.5211C22.6833 25.1006 22.5588 25.6408 22.31 26.1417C22.0612 26.6426 21.7191 27.0551 21.2837 27.3792C20.6812 27.8212 19.8726 28.0422 18.8577 28.0422Z" fill="#1BCE1B" stroke="#1BCE1B" stroke-width="0.2"/>
<path d="M11.5497 28.0422H10.543V21H13.2096C13.8185 21 14.308 21.1555 14.6779 21.4665C14.894 21.6531 15.0643 21.8758 15.1887 22.1344C15.3131 22.3931 15.3753 22.6697 15.3753 22.9644C15.3753 23.259 15.3131 23.5357 15.1887 23.7943C15.0643 24.0529 14.894 24.2756 14.6779 24.4622C14.3113 24.7699 13.8218 24.9238 13.2096 24.9238H11.5497V28.0422ZM11.5497 21.9576V23.9711H13.1605C13.5763 23.9711 13.884 23.8663 14.0837 23.6568C14.2736 23.4571 14.3686 23.2263 14.3686 22.9644C14.3686 22.6992 14.2736 22.4667 14.0837 22.267C13.8873 22.0608 13.5795 21.9576 13.1605 21.9576H11.5497Z" fill="#1BCE1B" stroke="#1BCE1B" stroke-width="0.2"/>
</svg>
