<svg viewBox="0 0 28 28" xmlns="http://www.w3.org/2000/svg">
<path d="M25.6654 8.79102V19.8338C25.6654 20.7266 25.3243 21.5856 24.7119 22.2352C24.0994 22.8847 23.2619 23.2757 22.3707 23.3281L22.1654 23.3339H5.83203C4.93929 23.3339 4.08026 22.9928 3.43073 22.3804C2.78119 21.7679 2.39024 20.9304 2.33786 20.0391L2.33203 19.8338V8.79102L13.3512 16.1377L13.4865 16.2147C13.646 16.2926 13.8212 16.3331 13.9987 16.3331C14.1762 16.3331 14.3514 16.2926 14.5109 16.2147L14.6462 16.1377L25.6654 8.79102Z" />
<path d="M22.1657 4.66602C23.4257 4.66602 24.5306 5.33103 25.1466 6.33089L13.9991 13.7627L2.85156 6.33089C3.14415 5.85584 3.54607 5.45762 4.0238 5.16943C4.50153 4.88125 5.04122 4.71144 5.5979 4.67418L5.8324 4.66602H22.1657Z" />
</svg>
