<svg width="28" height="28" viewBox="0 0 28 28" fill="none" xmlns="http://www.w3.org/2000/svg">
<path d="M25.6668 8.79102V19.8338C25.6669 20.7266 25.3258 21.5856 24.7133 22.2352C24.1009 22.8847 23.2634 23.2757 22.3722 23.3281L22.1668 23.3339H5.8335C4.94075 23.3339 4.08173 22.9928 3.43219 22.3804C2.78265 21.7679 2.3917 20.9304 2.33933 20.0391L2.3335 19.8338V8.79102L13.3527 16.1377L13.488 16.2147C13.6475 16.2926 13.8227 16.3331 14.0002 16.3331C14.1777 16.3331 14.3528 16.2926 14.5123 16.2147L14.6477 16.1377L25.6668 8.79102Z" fill="#1BCE1B"/>
<path d="M22.1667 4.66797C23.4267 4.66797 24.5315 5.33299 25.1475 6.33284L14 13.7647L2.85254 6.33284C3.14513 5.85779 3.54704 5.45957 4.02477 5.17139C4.5025 4.8832 5.0422 4.7134 5.59887 4.67614L5.83337 4.66797H22.1667Z" fill="#1BCE1B"/>
</svg>
