<svg width="54" height="54" viewBox="0 0 54 54" fill="none" xmlns="http://www.w3.org/2000/svg">
<path fill-rule="evenodd" clip-rule="evenodd" d="M23.5869 1.32234C19.6535 2.76911 17.2644 5.84785 16.9588 9.8644L16.8118 11.7936H13.5957C8.80024 11.7936 8.29936 12.2057 7.96025 16.4299C7.80859 18.3186 6.0765 36.1747 5.19114 44.9748C5.02988 46.5792 4.95599 48.4038 5.02703 49.03C5.19088 50.4752 6.16361 51.7589 7.6284 52.4634C8.73931 52.9976 8.99028 53.0048 26.4963 52.9991C43.191 52.9937 44.2994 52.9654 45.2752 52.518C47.1955 51.6376 47.9956 50.3199 48 48.0298C48.0028 46.6696 47.4089 40.3174 45.6796 23.2099C44.6496 13.0212 44.5459 12.5591 43.1708 12.0396C42.8125 11.9044 41.0838 11.7936 39.3294 11.7936H36.1398L36.0156 9.86955C35.7864 6.32255 33.7005 3.31568 30.4134 1.7937C28.653 0.978745 25.1743 0.738432 23.5869 1.32234ZM24.8505 3.04755C21.3609 3.90732 18.9607 6.89848 18.9607 10.3867V11.7936H26.5134H34.0658L33.9431 9.92622C33.8003 7.75619 33.2118 6.44567 31.7511 5.045C29.9783 3.34556 27.0643 2.50202 24.8505 3.04755ZM10.2855 14.4337C10.2142 14.7526 9.62337 20.6926 8.97238 27.6342C8.32139 34.5757 7.61907 41.8613 7.41193 43.8242C6.87086 48.9486 6.8916 49.2961 7.79277 50.1914L8.55058 50.9443H26.4242C44.2724 50.9443 44.2988 50.9435 45.0004 50.3954C46.1056 49.5317 46.1844 48.9896 45.7888 44.9779C45.5886 42.947 44.8321 35.2582 44.1078 27.8917C43.3834 20.5252 42.7407 14.3533 42.68 14.1761C42.5994 13.9415 41.6876 13.8542 39.3204 13.8542H36.0716V16.0345C36.0716 17.9511 36.0089 18.248 35.5531 18.4904C35.1847 18.6862 34.8845 18.6862 34.5161 18.4904C34.0603 18.248 33.9976 17.9511 33.9976 16.0345V13.8542H26.4792H18.9607V16.0345C18.9607 17.9263 18.8944 18.2501 18.4593 18.4814C17.8107 18.8263 17.7762 18.8222 17.294 18.3433C16.9922 18.0433 16.8867 17.4094 16.8867 15.8964V13.8542H13.6509C10.5067 13.8542 10.4115 13.8706 10.2855 14.4337ZM24.5093 23.3199C23.8848 23.9929 23.3725 24.6381 23.3709 24.754C23.3694 24.8699 22.3614 24.9335 21.1312 24.8952C18.9454 24.8272 18.8796 24.8429 18.246 25.5746C17.6424 26.2719 17.6085 26.4535 17.7567 28.197L17.9162 30.07L16.3643 31.5691C14.3468 33.5184 14.3486 33.8851 16.3827 35.761L17.953 37.2091L17.799 39.1184C17.6349 41.1522 17.7837 41.5654 18.8928 42.1524C19.2812 42.3576 20.0403 42.4017 21.1864 42.285L22.8996 42.1106L24.2356 43.5605C25.0144 44.4056 25.8803 45.0807 26.3112 45.1785C26.9712 45.3287 27.2131 45.1747 28.5628 43.7434L30.075 42.1397L32.0192 42.3208C33.8985 42.4957 33.9867 42.4784 34.6652 41.8046C35.3423 41.1319 35.3615 41.0366 35.2096 39.0801C35.0675 37.2492 35.102 37.0177 35.5674 36.6939C35.8507 36.4966 36.5468 35.9086 37.1141 35.3873C37.9305 34.637 38.1457 34.2547 38.1457 33.5562C38.1457 32.7892 37.9447 32.5123 36.6106 31.4416L35.0756 30.2099L35.2202 28.1202C35.3517 26.2232 35.3138 25.9798 34.8109 25.4801C34.3336 25.0059 33.9574 24.9297 32.0918 24.9297H29.927L28.6209 23.513C26.8753 21.6196 26.1209 21.5841 24.5093 23.3199ZM25.0577 25.6084L23.7964 27.0598L21.7345 26.9016L19.6724 26.7437L19.85 28.7651L20.0276 30.7863L18.437 32.1939L16.8465 33.6015L18.4365 34.97L20.0268 36.3387L19.8456 38.4014L19.6646 40.464L21.7254 40.2932L23.7863 40.1224L25.068 41.6681C25.7727 42.5181 26.4182 43.2143 26.5025 43.2154C26.5865 43.2164 27.2064 42.5119 27.8802 41.6501L29.1052 40.0828L31.3283 40.2667C32.6523 40.3764 33.4923 40.3558 33.4052 40.2159C33.3248 40.0866 33.224 39.1316 33.1814 38.0936C33.1143 36.4575 33.1734 36.1499 33.6268 35.7837C33.9144 35.5514 34.6112 34.9783 35.1754 34.5103L36.2013 33.659L34.5933 32.1921L32.9854 30.725L33.196 28.922C33.3118 27.9304 33.3645 27.043 33.3131 26.9503C33.2615 26.8573 32.3083 26.8434 31.1945 26.9194L29.1695 27.0572L27.9224 25.6071C27.2364 24.8094 26.5953 24.157 26.497 24.157C26.399 24.157 25.7512 24.8102 25.0577 25.6084Z" fill="currentColor"/>
</svg>
