<svg width="54" height="54" viewBox="0 0 54 54" fill="none" xmlns="http://www.w3.org/2000/svg">
<path d="M5.59302 46.1142C6.20282 46.0666 7.2126 46.0755 9.03736 46.1054C10.8398 46.1349 11.8457 46.1594 12.4329 46.2245C12.7261 46.2571 12.9396 46.3019 13.1028 46.3749C13.2791 46.4538 13.3836 46.5602 13.47 46.6786C13.5594 46.8015 13.6162 46.9897 13.6575 47.1806C13.7013 47.3834 13.7359 47.6328 13.7629 47.9081C13.8172 48.4599 13.8418 49.138 13.8381 49.8075C13.8345 50.4769 13.8027 51.1459 13.7424 51.6786C13.7124 51.944 13.6748 52.1823 13.6282 52.372C13.6049 52.4665 13.5775 52.5551 13.5461 52.6308C13.5165 52.7022 13.4743 52.7824 13.4124 52.8446C13.2003 53.0566 12.8599 53.1387 12.2229 53.1854C11.5641 53.2337 10.5032 53.246 8.75904 53.246C7.49102 53.246 6.54097 53.2605 5.844 53.2235C5.15815 53.1871 4.64965 53.1004 4.30689 52.8524C3.94025 52.587 3.81404 52.1792 3.77076 51.6649C3.72803 51.1564 3.76165 50.4644 3.77955 49.5692C3.80256 48.4178 3.82118 47.7693 3.89966 47.3642C3.94052 47.1535 4.00092 46.99 4.09595 46.8485C4.18899 46.7102 4.30635 46.608 4.42896 46.5087C4.55846 46.4037 4.69136 46.3111 4.88013 46.2431C5.06316 46.1772 5.28661 46.1381 5.59302 46.1142ZM20.8293 42.3593C22.068 42.3764 23.0023 42.362 23.6819 42.4198C24.3579 42.4774 24.869 42.6107 25.2024 42.995C25.5276 43.3703 25.6353 43.9326 25.677 44.6942C25.7192 45.4653 25.6956 46.5231 25.6956 47.9403C25.6956 49.7874 25.6829 50.8845 25.6331 51.5604C25.5839 52.226 25.4959 52.5488 25.2854 52.7821C25.1844 52.8939 25.0664 52.9868 24.8831 53.0546C24.7108 53.1182 24.4873 53.1567 24.1799 53.1835C23.5646 53.237 22.5314 53.246 20.7092 53.246C19.5118 53.246 18.4543 53.2247 17.6653 53.1864C17.2714 53.1673 16.9402 53.1431 16.6917 53.1161C16.568 53.1027 16.4604 53.0885 16.3743 53.0722C16.2975 53.0576 16.2088 53.0366 16.1418 53.0009C16.0167 52.9338 15.8943 52.8437 15.8088 52.6571C15.7341 52.4939 15.694 52.2694 15.6672 51.952C15.6133 51.3104 15.6082 50.1593 15.6096 48.0311C15.6106 46.7829 15.6281 45.6207 15.6565 44.7548C15.6707 44.3225 15.6875 43.961 15.7063 43.6991C15.7157 43.5688 15.7266 43.4585 15.7376 43.3759C15.7429 43.3353 15.7488 43.2965 15.7561 43.2636C15.7607 43.2431 15.7739 43.1824 15.8088 43.1308L15.8635 43.0595C15.9255 42.9873 16.0069 42.9128 16.0872 42.8466C16.1993 42.7541 16.332 42.6594 16.4592 42.5849C16.5783 42.5155 16.7615 42.4755 16.9651 42.4472C17.1818 42.4171 17.4666 42.3946 17.8176 42.3788C18.521 42.3472 19.5155 42.3411 20.8293 42.3593ZM32.4856 36.4218C33.5332 36.4238 34.5858 36.4572 35.4133 36.5224C35.8264 36.5549 36.1895 36.5957 36.469 36.6454C36.6083 36.6702 36.7331 36.6982 36.8352 36.7304C36.9281 36.7596 37.0362 36.8028 37.1135 36.8729L37.2024 36.9647C37.2851 37.0633 37.3498 37.1864 37.3977 37.371C37.457 37.5999 37.4943 37.9338 37.5198 38.452C37.571 39.4948 37.5774 41.363 37.5774 44.8183C37.5774 48.1182 37.5679 49.9893 37.5198 51.077C37.4958 51.6188 37.4612 51.9804 37.4104 52.2313C37.3586 52.4872 37.2845 52.6522 37.1672 52.7821C37.0661 52.8941 36.9477 52.9868 36.7639 53.0546C36.5913 53.1181 36.3674 53.1577 36.0588 53.1845C35.4408 53.2379 34.4017 53.246 32.5686 53.246C30.826 53.246 29.7845 53.2346 29.1379 53.1845C28.4995 53.1349 28.1826 53.0454 27.9514 52.8358C27.8241 52.7203 27.731 52.5839 27.6672 52.3368C27.608 52.1069 27.5706 51.7709 27.5452 51.2489C27.494 50.1992 27.4885 48.3179 27.4885 44.8368C27.4885 41.5836 27.4987 39.6995 27.5452 38.5936C27.5683 38.0426 27.6011 37.6721 27.6487 37.4179C27.6958 37.1662 27.764 36.9893 27.8889 36.8642L27.9514 36.8124C28.019 36.7664 28.0984 36.7363 28.1653 36.7147C28.2653 36.6826 28.3879 36.654 28.5247 36.6298C28.7995 36.5811 29.1582 36.5425 29.5676 36.5116C30.3886 36.4497 31.4379 36.4197 32.4856 36.4218ZM44.3098 28.3202C46.0018 28.3202 47.0344 28.3334 47.678 28.3817C48.2234 28.4228 48.5496 28.4906 48.7639 28.6483L48.8499 28.7216L48.8977 28.7772C49.0027 28.9164 49.0554 29.1216 49.094 29.4101C49.1402 29.7556 49.1727 30.2901 49.1956 31.1259C49.2413 32.8018 49.2502 35.7328 49.2502 40.8954C49.2502 46.5531 49.2476 49.4783 49.1956 51.0136C49.1697 51.7752 49.1311 52.2173 49.0686 52.4843C49.0367 52.6202 48.994 52.7318 48.929 52.8212C48.8598 52.9161 48.7792 52.9665 48.7151 53.0009C48.6485 53.0365 48.5599 53.0576 48.4836 53.0722C48.3982 53.0885 48.2915 53.1027 48.1692 53.1161C47.9235 53.1431 47.5972 53.1663 47.2092 53.1854C46.432 53.2238 45.3926 53.246 44.22 53.246C42.3836 53.246 41.367 53.2394 40.7639 53.1825C40.4614 53.1539 40.242 53.111 40.0676 53.0409C39.8845 52.9673 39.7649 52.8692 39.6545 52.7587C39.5984 52.7025 39.5359 52.6349 39.4807 52.538C39.4263 52.4423 39.3859 52.3297 39.3538 52.1854C39.2911 51.9036 39.2527 51.4627 39.2288 50.7138C39.1806 49.2072 39.1874 46.3724 39.2063 40.8651C39.2246 35.5205 39.2395 32.6822 39.2961 31.1229C39.3244 30.3461 39.3638 29.872 39.4221 29.5595C39.4831 29.2334 39.5682 29.0664 39.6887 28.913C39.7831 28.7929 39.8848 28.6621 40.052 28.5653C40.217 28.47 40.4247 28.4182 40.7151 28.3856C41.2909 28.3211 42.3205 28.3202 44.3098 28.3202ZM17.4573 51.3934L23.7356 51.4999V44.2694H17.3518L17.4573 51.3934ZM32.5325 38.2147C31.6173 38.2147 30.7855 38.2272 30.1838 38.246C29.8828 38.2554 29.6412 38.2661 29.4768 38.2782C29.4651 38.2791 29.4534 38.2803 29.4426 38.2811C29.4424 38.3732 29.4429 38.4945 29.4426 38.6415C29.4421 38.9957 29.4422 39.5017 29.4417 40.121C29.4405 41.3601 29.4386 43.0559 29.4377 44.9071L29.4348 51.3934L35.6174 51.4999V38.2147H32.5325ZM5.68384 51.494H12.0627V48.0272H5.68384V51.494ZM41.2239 51.3895H47.3967L47.5022 30.0731H41.1174L41.2239 51.3895ZM16.3079 10.161C17.4023 10.1255 18.58 10.1958 19.2776 10.4052C20.5091 10.7749 21.5159 11.9617 22.8088 14.3602C23.3693 15.4003 23.6411 15.8923 23.9543 16.2392C24.2601 16.5777 24.6105 16.7832 25.3792 17.2147C26.783 18.0031 27.6769 18.6077 28.137 19.2089C28.3739 19.5185 28.5032 19.8355 28.5247 20.1786C28.5457 20.5167 28.4605 20.8587 28.3108 21.2177C28.0983 21.7271 27.6742 22.1498 27.1409 22.4032C26.7671 22.5809 26.5113 22.7046 26.0911 22.6415C25.8975 22.6124 25.6736 22.5447 25.3879 22.4423C25.1006 22.3393 24.7358 22.1948 24.2581 22.0058C23.1966 21.5856 21.9277 21.0247 21.4377 20.7567L20.9016 20.4638L20.7981 21.4374C20.7591 21.8015 20.7382 22.1451 20.7346 22.4022C20.7328 22.5312 20.7351 22.6341 20.7415 22.705C20.7423 22.7147 20.7435 22.7237 20.7444 22.7313C20.7798 22.7562 20.83 22.7892 20.8928 22.8309C21.0196 22.9154 21.1958 23.0308 21.4094 23.1679C21.8365 23.442 22.4096 23.803 23.0247 24.1854L23.5598 24.5214C24.741 25.2709 25.453 25.8062 25.8479 26.579C26.0744 27.0225 26.19 27.5303 26.2512 28.1718C26.3123 28.8113 26.3206 29.6027 26.3206 30.6181V33.1933L27.1467 32.7313C30.5567 30.8216 35.8749 26.5851 38.9045 23.3622C40.2329 21.9491 42.0335 19.7588 43.467 17.8847C44.1836 16.9478 44.8063 16.0933 45.2307 15.4579C45.4168 15.1792 45.5595 14.945 45.6575 14.7684C45.6048 14.7818 45.5466 14.7963 45.4846 14.8134C45.1412 14.9078 44.677 15.0542 44.178 15.2274C43.6979 15.394 43.3001 15.5184 42.9749 15.5976C42.6536 15.6757 42.3821 15.7145 42.1614 15.6952C41.9311 15.675 41.7316 15.588 41.6028 15.3983C41.4851 15.2247 41.4544 15.0035 41.4543 14.7811C41.4545 14.5714 41.5732 14.4037 41.7385 14.2684C41.9015 14.1354 42.1417 14.0058 42.4622 13.8681C43.1077 13.5907 44.1561 13.2474 45.7698 12.7636C46.4389 12.5629 46.9664 12.3961 47.3616 12.3309C47.7533 12.2665 48.1199 12.2832 48.3704 12.5741C48.4855 12.7079 48.5569 12.8801 48.6047 13.0741C48.6528 13.2691 48.6818 13.5046 48.6995 13.7792C48.7348 14.327 48.7288 15.0787 48.7288 16.0673V19.5302H47.9583C47.8462 19.5302 47.687 19.5334 47.552 19.4706C47.387 19.3937 47.3014 19.2484 47.2512 19.0809C47.2033 18.9207 47.1758 18.6991 47.1526 18.4071C47.129 18.1104 47.1089 17.7181 47.0833 17.205L47.0188 15.9325L46.9368 16.0692C45.1997 18.9407 41.6499 23.2995 38.717 26.1659C31.5628 33.1579 20.7862 39.0224 10.6233 41.4569C9.6341 41.6939 9.03729 41.8258 8.65455 41.8612C8.46106 41.8791 8.299 41.8743 8.15845 41.8349C8.00944 41.7929 7.90382 41.7171 7.8147 41.6278C7.65922 41.4722 7.56548 41.287 7.55201 41.0858C7.53885 40.8858 7.60645 40.6974 7.7229 40.539C7.95171 40.2282 8.37977 40.0044 8.89673 39.9169L9.219 39.8622L8.77759 39.4198C7.86017 38.501 7.49211 37.5627 7.84205 36.6347C7.87959 36.5354 7.97249 36.3676 8.09107 36.1688C8.21476 35.9616 8.37979 35.6987 8.57251 35.4003C8.95843 34.8028 9.46164 34.0538 9.98951 33.2987L11.8694 30.6102L12.1907 28.1952C12.3705 26.8418 12.5518 24.6084 12.593 23.2392C12.61 22.6754 12.6418 22.0533 12.678 21.4647C12.4984 22.4088 12.3705 23.0043 12.2219 23.4286C12.0478 23.9256 11.8449 24.1953 11.5295 24.5175C11.0314 25.0263 10.4846 25.3076 9.90552 25.3017C9.32802 25.2954 8.77338 25.0043 8.25806 24.4882C8.04937 24.2791 7.86059 24.0353 7.72193 23.8085C7.65256 23.695 7.59351 23.5815 7.55103 23.4755C7.51033 23.3739 7.47685 23.2605 7.47681 23.1522C7.47687 23.0718 7.49395 22.9039 7.51978 22.6913C7.54656 22.4708 7.58472 22.1823 7.63208 21.8476C7.72696 21.1771 7.85844 20.3148 8.0022 19.4227C8.23666 17.9681 8.42304 16.9731 8.60083 16.3007C8.77419 15.6453 8.95289 15.2347 9.21314 15.0175C9.21664 15.0139 9.2292 15.0014 9.25415 14.9755C9.28446 14.944 9.32675 14.8996 9.37818 14.8446C9.48133 14.7344 9.62348 14.5804 9.79322 14.3954C10.1331 14.025 10.5851 13.5277 11.0667 12.994C11.5532 12.4547 12.0808 11.919 12.5393 11.4901C12.7684 11.2759 12.9824 11.0859 13.1663 10.9354C13.3012 10.8251 13.4278 10.7299 13.5354 10.661L13.637 10.6005C13.8962 10.4635 14.3005 10.3655 14.7532 10.2958C15.2147 10.2248 15.7564 10.1789 16.3079 10.161ZM14.2239 26.4354C14.2218 26.5517 14.1862 26.8945 14.135 27.3339C14.0828 27.7821 14.0112 28.3503 13.9338 28.9286L13.6458 31.0858L11.5022 34.2372C10.9235 35.088 10.3972 35.8899 10.0168 36.495C9.82665 36.7976 9.67411 37.0499 9.56958 37.2333C9.51725 37.3251 9.47812 37.3973 9.45337 37.4481C9.4513 37.4524 9.44928 37.4571 9.44751 37.4608C9.45269 37.4711 9.45926 37.4854 9.46997 37.5028C9.50582 37.5611 9.56156 37.6359 9.63599 37.7226C9.78407 37.8949 9.988 38.0959 10.2024 38.2841C10.4172 38.4725 10.6352 38.6412 10.8088 38.7518C10.8794 38.7968 10.9376 38.8271 10.9807 38.8466C10.994 38.8319 11.0108 38.8155 11.0276 38.7958C11.0916 38.7203 11.1742 38.6153 11.2698 38.4892C11.4608 38.2367 11.6994 37.9036 11.9368 37.5517C12.4181 36.8381 13.513 35.2752 14.3713 34.078C15.0903 33.0751 15.4745 32.5115 15.7249 31.9979C15.9714 31.4921 16.0918 31.026 16.2629 30.2059C16.3999 29.5502 16.5018 29.0695 16.5588 28.704C16.6166 28.3339 16.6228 28.1131 16.592 27.9657C16.5657 27.8404 16.5108 27.7589 16.3918 27.6718C16.2553 27.5718 16.0559 27.4785 15.7434 27.3319C15.4478 27.1933 15.1522 27.0359 14.9133 26.8925C14.7941 26.8209 14.6865 26.7513 14.5989 26.6884C14.5166 26.6293 14.4344 26.5632 14.3811 26.4989C14.3213 26.4268 14.2694 26.3821 14.2307 26.3554C14.2274 26.3756 14.2245 26.4024 14.2239 26.4354ZM18.3831 29.0409C18.2762 29.4091 18.1495 29.9214 18.0305 30.4872C17.8145 31.5143 17.6963 32.0701 17.3362 32.7792C16.983 33.4744 16.3953 34.3212 15.261 35.953C14.6311 36.8591 14.0649 37.6896 13.6614 38.2968C13.5387 38.4813 13.4324 38.6467 13.343 38.7851C13.4032 38.7666 13.469 38.7491 13.5374 38.7274C14.0023 38.5801 14.6383 38.3646 15.3381 38.119C16.7385 37.6277 18.3897 37.0166 19.4446 36.5829C19.9036 36.3942 20.2484 36.251 20.5051 36.1347C20.7653 36.0167 20.9182 35.9332 21.0061 35.8671C21.048 35.8356 21.0664 35.814 21.0735 35.8036C21.0781 35.7967 21.0783 35.795 21.0784 35.7948C21.0799 35.7783 21.0742 35.7382 21.0256 35.6102C20.9613 35.4406 20.9106 35.1659 20.8752 34.8759C20.8391 34.579 20.817 34.2409 20.8167 33.9325C20.816 33.3458 20.7545 32.0791 20.6799 31.121L20.5549 29.5214L19.5725 29.0858C19.2678 28.9509 18.9729 28.8283 18.7444 28.7401C18.6528 28.7048 18.5726 28.6764 18.5081 28.6542C18.473 28.7473 18.4303 28.8782 18.3831 29.0409ZM16.6458 11.9374C15.8962 11.9379 15.1715 12.0055 14.7424 12.1298C14.6713 12.1504 14.5591 12.2063 14.4016 12.3134C14.2473 12.4184 14.0613 12.5642 13.846 12.7518C13.4152 13.1274 12.8752 13.6611 12.2336 14.3466L10.3254 16.3837L9.87622 19.1718C9.62281 20.7431 9.3659 22.2882 9.30494 22.6024C9.26601 22.8028 9.27822 22.8984 9.30982 22.9657C9.33592 23.0211 9.38722 23.0844 9.49732 23.1688L9.6272 23.2606L9.77662 23.3495C9.9091 23.4207 9.99625 23.4415 10.054 23.4374C10.1044 23.4335 10.1846 23.4064 10.2922 23.2255C10.4031 23.039 10.5152 22.7338 10.636 22.2684C10.7558 21.8069 10.8795 21.2052 11.0208 20.4384L11.512 17.7733L11.5266 17.6933L12.9573 16.3339C13.3217 15.9875 13.6147 15.7166 13.8538 15.5145C14.0898 15.3152 14.2895 15.1687 14.467 15.0858C14.6525 14.9994 14.8396 14.9704 15.0256 15.0419C15.1936 15.1066 15.3224 15.241 15.4309 15.372C15.5616 15.5298 15.6624 15.7123 15.6145 15.9559C15.575 16.1558 15.437 16.3668 15.2551 16.6132C14.9407 17.0392 14.8135 17.5508 14.6477 19.5556C14.4802 21.5801 14.4081 22.6959 14.4563 23.3954C14.48 23.7396 14.5324 23.9674 14.6086 24.1454C14.6843 24.3218 14.7909 24.466 14.9465 24.6356C15.0159 24.7111 15.1506 24.8199 15.3606 24.9599C15.5673 25.0975 15.8346 25.2574 16.1565 25.4354C16.8001 25.7914 17.6545 26.2164 18.6702 26.6815C19.5596 27.0888 20.3855 27.4754 20.9993 27.7704C21.3059 27.9178 21.5615 28.0421 21.7454 28.1356C21.8369 28.1822 21.9127 28.2227 21.969 28.2538C21.9969 28.2692 22.0224 28.2839 22.0432 28.2968L22.1184 28.3534L22.1741 28.4306C22.1831 28.4485 22.1906 28.4663 22.1956 28.4804C22.2054 28.5085 22.2137 28.5404 22.221 28.5712C22.2357 28.6339 22.2507 28.716 22.2659 28.8114C22.2964 29.0038 22.3303 29.2697 22.3655 29.5868C22.4359 30.222 22.5123 31.0765 22.5784 31.997C22.6444 32.9144 22.7103 33.7551 22.7629 34.369C22.7877 34.6573 22.8089 34.8953 22.8264 35.0673C22.8287 35.0663 22.832 35.0654 22.8342 35.0643C23.013 34.9789 23.2568 34.8521 23.5198 34.705L24.3616 34.2333V30.8954C24.3616 29.5266 24.345 28.6404 24.2991 28.0556C24.2521 27.4579 24.1757 27.2243 24.0979 27.1132L24.0969 27.1122C24.0961 27.1111 24.0947 27.1093 24.093 27.1073C24.0895 27.1032 24.0847 27.0974 24.0784 27.0907C24.0652 27.0768 24.0467 27.0588 24.0237 27.038C23.9776 26.9963 23.9159 26.9453 23.8391 26.8856C23.6849 26.7659 23.4772 26.6173 23.2317 26.4511C22.7413 26.1191 22.1048 25.7195 21.4417 25.3339L19.0129 23.9218L18.8801 23.8436L18.8889 23.6893L19.0344 21.3729C19.1593 19.375 19.2506 18.2053 19.3792 17.5272C19.4429 17.1912 19.5213 16.9411 19.6399 16.7675C19.7733 16.5726 19.9458 16.4897 20.135 16.4628C20.2418 16.4476 20.3555 16.441 20.4661 16.4667C20.5846 16.4943 20.6859 16.555 20.7688 16.6474C20.8464 16.7339 20.9028 16.843 20.9504 16.9618C20.9986 17.0821 21.044 17.2287 21.0901 17.4003C21.2672 18.059 21.4673 18.4559 21.884 18.8095C22.3194 19.1786 23.0041 19.5128 24.1946 19.9921C25.2336 20.4103 25.7669 20.6157 26.0813 20.6825C26.2327 20.7146 26.3007 20.7061 26.3362 20.6952C26.3696 20.6848 26.4062 20.6634 26.4788 20.5907C26.5945 20.4747 26.6159 20.4084 26.6174 20.3749C26.6186 20.3456 26.6071 20.274 26.4797 20.1405C26.3528 20.0076 26.1411 19.8446 25.8157 19.6356C25.4925 19.4281 25.0692 19.1829 24.5295 18.8847L22.6194 17.829L22.553 17.7929L22.5188 17.7255L21.3489 15.4901C20.659 14.1711 20.2106 13.3989 19.8069 12.9179C19.4189 12.4556 19.0764 12.2667 18.5774 12.1278C18.1297 12.0033 17.3947 11.9369 16.6458 11.9374ZM15.4807 1.40419C18.3066 -0.389817 22.0019 1.71162 22.0022 5.08388C22.0022 8.48665 18.3318 10.574 15.4807 8.76357C12.8611 7.10001 12.8611 3.06775 15.4807 1.40419ZM19.3909 3.20009C18.6386 2.4724 17.4715 2.2234 16.3918 2.95009C15.635 3.4597 15.2906 4.38891 15.3596 5.30068C15.4289 6.21295 15.9063 7.04676 16.718 7.38661C16.8911 7.45901 17.1032 7.52698 17.303 7.57607C17.5064 7.626 17.6793 7.65216 17.7805 7.65224C18.1014 7.6521 18.5221 7.50069 18.9221 7.24208C19.3196 6.98499 19.6615 6.64467 19.8411 6.30946C20.4713 5.13164 20.1448 3.92944 19.3909 3.20009Z" fill="#8246FF"/>
</svg>
