<svg viewBox="0 0 140 140" fill="none" xmlns="http://www.w3.org/2000/svg">
<path fill-rule="evenodd" clip-rule="evenodd" d="M65.1797 0.176889C57.85 1.17304 50.6417 4.19512 45.2183 8.5454C37.8046 14.4924 32.3514 23.5602 30.8688 32.4058L30.4927 34.6515L29.5802 33.5933C28.8709 32.7707 28.4504 32.5352 27.6917 32.5352C26.5581 32.5352 25.3491 33.7071 25.3491 34.8062C25.3491 35.8068 30.7433 43.3237 31.7661 43.7485C33.4153 44.4333 33.7912 44.1402 36.6412 39.9464C38.7917 36.7816 39.3281 35.7831 39.3403 34.9212C39.3645 33.2048 37.6263 32.1308 36.1264 32.9354C35.3701 33.3414 35.3888 33.0117 36.3039 29.8129C37.9414 24.0874 41.2528 18.6953 45.8127 14.328C48.8433 11.425 51.0937 9.87214 54.9288 8.03636C64.742 3.3394 75.8575 3.49592 85.6838 8.46934C94.1118 12.7354 100.142 19.8605 103.246 29.2231C104.081 31.7403 104.311 32.1502 105.068 32.4693C106.78 33.1908 108.278 32.2818 108.278 30.5218C108.278 28.1319 105.641 21.9362 102.806 17.6667C96.7065 8.48104 87.4168 2.45267 76.268 0.445746C73.7869 -0.000984143 67.5934 -0.151064 65.1797 0.176889ZM68.7493 9.36163C68.3051 9.59363 62.7665 12.901 56.4409 16.7106C44.4424 23.937 43.9572 24.3088 44.4582 25.8921C44.841 27.1015 45.7806 27.6591 47.4351 27.6591H48.9848V38.1911V48.7231H47.3668C46.0377 48.7231 45.6204 48.8515 45.0324 49.4413C44.335 50.1402 44.3161 50.2768 44.3161 54.5741C44.3161 58.8715 44.335 59.0081 45.0324 59.707L45.7485 60.4252H69.9944H94.2402L94.9563 59.707C95.6537 59.0081 95.6727 58.8715 95.6727 54.5741C95.6727 50.2768 95.6537 50.1402 94.9563 49.4413C94.3683 48.8515 93.951 48.7231 92.6219 48.7231H91.0039V38.1911V27.6591H92.6219C93.951 27.6591 94.3683 27.5307 94.9563 26.9409C95.8069 26.0884 95.8971 24.7626 95.162 23.9221C94.4424 23.0991 70.7469 8.93538 70.0936 8.93743C69.7983 8.9386 69.1934 9.12934 68.7493 9.36163ZM62.4435 18.5452L55.3303 22.832L62.6623 22.9101C66.695 22.9531 73.3016 22.9531 77.3436 22.9101L84.6929 22.832L77.5131 18.5168C73.5642 16.1436 70.1584 14.2145 69.9451 14.23C69.7315 14.2455 66.3556 16.1875 62.4435 18.5452ZM53.6536 38.1911V48.7231H55.988H58.3224V38.1911V27.6591H55.988H53.6536V38.1911ZM62.9912 38.1911V48.7231H65.3256H67.66V38.1911V27.6591H65.3256H62.9912V38.1911ZM72.3288 38.1911V48.7231H74.6631H76.9975V38.1911V27.6591H74.6631H72.3288V38.1911ZM81.6663 38.1911V48.7231H84.0007H86.3351V38.1911V27.6591H84.0007H81.6663V38.1911ZM106.156 34.9677C105.293 35.4736 100.341 43.2842 100.341 44.1387C100.341 45.7785 102.36 46.8858 103.872 46.0749C104.393 45.7949 104.428 45.8411 104.259 46.5868C103.73 48.9074 101.923 53.8085 100.883 55.7444C95.8813 65.054 87.7153 71.2176 77.1434 73.6627C73.6567 74.469 66.8552 74.5392 63.4111 73.804C50.5851 71.0672 40.7141 62.33 36.7273 50.1858C35.7465 47.1977 35.1119 46.3826 33.7658 46.3826C32.7702 46.3826 31.4769 47.5239 31.4769 48.4021C31.4769 49.4559 32.9709 53.7924 34.2583 56.4757C36.9193 62.0217 41.2831 67.3199 46.2991 71.0941C51.0029 74.6334 57.3796 77.3998 63.1371 78.3986C66.5762 78.9954 73.1656 78.9928 76.7273 78.3933C92.5329 75.7331 105.574 63.1126 108.781 47.3729C109.096 45.8276 109.405 44.5123 109.467 44.4494C109.53 44.3868 109.749 44.6501 109.954 45.0342C110.357 45.7905 111.402 46.3826 112.332 46.3826C113.19 46.3826 114.348 45.0866 114.348 44.127C114.348 43.25 109.84 36.1286 108.696 35.1989C108.017 34.6471 106.879 34.5435 106.156 34.9677ZM48.9848 54.5741V55.7444H69.9944H91.0039V54.5741V53.4039H69.9944H48.9848V54.5741ZM4.63142 88.8928C3.10735 89.3746 0.736781 91.8862 0.298791 93.4839C0.0239165 94.4864 -0.0417382 99.7246 0.0230412 115.447L0.108538 136.094L0.891435 137.28C1.32184 137.932 2.17535 138.778 2.78813 139.159L3.90192 139.854H25.6622H47.4226L48.6055 139.069C50.4333 137.856 51.1733 136.432 51.1733 134.128C51.1733 132.531 51.0403 132.003 50.3904 131.019C49.354 129.448 47.8938 128.586 45.9262 128.383L44.3161 128.216V118.443V108.67L43.5997 107.952C42.8938 107.244 42.8107 107.234 37.7637 107.234H32.6441V100.905C32.6441 96.8614 32.5189 94.1564 32.2972 93.4148C32.1063 92.7765 31.3827 91.6212 30.6888 90.8474C28.6208 88.5412 28.3973 88.5058 16.1785 88.5403C9.3997 88.5596 5.28913 88.6851 4.63142 88.8928ZM70.7107 89.2287C70.259 89.6812 69.9944 90.281 69.9944 90.8509C69.9944 91.4208 70.259 92.0205 70.7107 92.4731L71.4268 93.1913H65.7277H60.0283L59.1753 94.0464C58.1228 95.1017 58.075 96.1879 59.0388 97.154C59.7519 97.8693 59.7797 97.8722 65.655 97.8722H71.5552L70.9205 98.5491C69.9952 99.5368 70.0594 101.162 71.0551 101.947C71.4779 102.28 72.1023 102.553 72.4428 102.553C73.0784 102.553 80.3556 97.8804 81.0098 97.0519C81.2105 96.7979 81.3745 96.0241 81.3745 95.3325V94.0751L77.2178 91.2926C72.6885 88.2609 71.9191 88.0169 70.7107 89.2287ZM109.095 89.0821C98.7538 91.2932 90.8977 99.4719 89.076 109.923C86.4597 124.934 97.5565 138.92 112.872 139.915C120.107 140.385 127.152 137.671 132.428 132.382C142.627 122.156 142.508 105.908 132.161 95.8243C126.046 89.8656 117.337 87.3197 109.095 89.0821ZM5.34779 93.9095C4.75952 94.499 4.63142 94.9174 4.63142 96.25V97.8722H16.3034H27.9753V96.25C27.9753 94.9174 27.8472 94.499 27.259 93.9095L26.5429 93.1913H16.3034H6.06386L5.34779 93.9095ZM110.263 93.6202C102.303 95.3954 96.3456 101.053 94.1714 108.902C92.9762 113.216 93.4973 119.374 95.3631 122.984C95.8544 123.935 95.9399 123.99 96.1217 123.471C97.0281 120.881 98.6219 118.881 101.201 117.094C102.582 116.138 106.738 114.558 107.889 114.552C108.552 114.548 108.536 114.499 107.492 113.34C103.695 109.127 104.583 102.326 109.324 99.3124C111.177 98.1343 112.652 97.7824 115.077 97.9403C118.48 98.1621 121.152 99.9648 122.868 103.198C123.421 104.239 123.535 104.906 123.535 107.088C123.535 109.93 123.12 111.116 121.323 113.407L120.496 114.459L122.164 114.823C126.552 115.78 130.558 118.749 132.134 122.214L132.972 124.056L133.603 122.593C138.502 111.23 132.437 97.9588 120.621 94.1863C117.67 93.244 113.076 92.993 110.263 93.6202ZM4.63142 115.425V128.298H5.79862H6.96581V118.484V108.67L7.68218 107.952L8.39825 107.234H18.1869H27.9753V104.893V102.553H16.3034H4.63142V115.425ZM112.358 103.028C111.825 103.301 111.037 103.986 110.607 104.551C109.583 105.897 109.493 108.5 110.427 109.754C111.57 111.289 112.502 111.769 114.348 111.769C116.193 111.769 117.126 111.289 118.269 109.754C119.113 108.621 119.113 105.846 118.269 104.714C116.803 102.745 114.305 102.033 112.358 103.028ZM11.6346 120.106V128.298H25.6409H39.6473V120.106V111.915H25.6409H11.6346V120.106ZM17.0197 117.314C16.568 117.766 16.3034 118.366 16.3034 118.936C16.3034 119.506 16.568 120.106 17.0197 120.558L17.7358 121.277H25.6409H33.5461L34.2621 120.558C34.7138 120.106 34.9785 119.506 34.9785 118.936C34.9785 118.366 34.7138 117.766 34.2621 117.314L33.5461 116.596H25.6409H17.7358L17.0197 117.314ZM107.997 119.246C104.839 119.87 101.434 122.237 100.625 124.37C99.9857 126.056 99.1363 125.957 114.348 125.957C129.559 125.957 128.71 126.056 128.071 124.37C127.229 122.152 123.86 119.872 120.47 119.227C118.65 118.882 109.774 118.895 107.997 119.246ZM63.0104 128.577C60.8546 130.017 58.9757 131.402 58.8351 131.653C58.6945 131.905 58.6203 132.602 58.6699 133.203C58.7569 134.256 58.9127 134.398 62.9813 137.148C65.3203 138.728 67.5056 140 67.882 140C68.8657 140 69.9944 138.75 69.9944 137.66C69.9944 137.09 69.7297 136.49 69.278 136.037L68.5619 135.319H74.3979C80.205 135.319 80.2374 135.316 80.95 134.601C81.4017 134.148 81.6663 133.549 81.6663 132.979C81.6663 132.409 81.4017 131.809 80.95 131.356C80.2374 130.642 80.205 130.638 74.3979 130.638H68.5619L69.278 129.92C70.6877 128.507 69.7017 125.957 67.7461 125.958C67.2062 125.958 65.6051 126.844 63.0104 128.577ZM102.238 131.379C103.508 132.424 106.904 134.03 109.095 134.623C110.386 134.973 112.064 135.137 114.348 135.137C116.632 135.137 118.309 134.973 119.6 134.623C121.792 134.03 125.188 132.424 126.457 131.379L127.333 130.659H114.348H101.363L102.238 131.379ZM4.98362 133.328C4.51558 133.797 4.53688 134.584 5.02856 134.993C5.31715 135.233 10.9886 135.303 25.7874 135.248C44.815 135.178 46.1704 135.139 46.4713 134.661C46.7062 134.288 46.7062 134.01 46.4713 133.637C46.1704 133.159 44.8127 133.12 25.7425 133.05C10.1129 132.992 5.25324 133.057 4.98362 133.328Z" fill="currentColor"/>
</svg>
