<svg viewBox="0 0 28 28" xmlns="http://www.w3.org/2000/svg">
<path fill-rule="evenodd" clip-rule="evenodd" d="M10.734 2.79503C8.46993 3.45185 6.45723 4.773 4.95845 6.58612C3.45966 8.39924 2.54439 10.6202 2.33203 12.9591H7.68678C7.99892 9.39984 9.03512 5.94108 10.7323 2.79337M7.68678 15.0422H2.33203C2.54394 17.3813 3.45883 19.6024 4.95732 21.4158C6.45581 23.2293 8.46832 24.5508 10.7323 25.208C9.03512 22.0603 7.99892 18.6015 7.68678 15.0422ZM13.4164 25.6529C11.3876 22.4484 10.1437 18.8137 9.78518 15.0422H18.2105C17.852 18.8137 16.6082 22.4484 14.5794 25.6529C14.1919 25.6721 13.8038 25.6721 13.4164 25.6529ZM17.2651 25.2063C19.5288 24.5492 21.5412 23.2279 23.0396 21.4148C24.5381 19.6017 25.4531 17.381 25.6654 15.0422H20.3106C19.9985 18.6015 18.9623 22.0603 17.2651 25.208M20.3106 12.9608H25.6654C25.4535 10.6217 24.5386 8.40061 23.0401 6.58718C21.5416 4.77376 19.5291 3.45224 17.2651 2.79503C18.9623 5.94274 19.9985 9.40151 20.3106 12.9608ZM13.4164 2.34841C13.8043 2.32918 14.193 2.32918 14.581 2.34841C16.6093 5.55309 17.8525 9.18777 18.2105 12.9591H9.78685C10.15 9.16445 11.3966 5.52645 13.4164 2.34841Z" />
</svg>
