<svg width="28" height="28" viewBox="0 0 28 28" fill="none" xmlns="http://www.w3.org/2000/svg">
<path fill-rule="evenodd" clip-rule="evenodd" d="M15.6917 23.6618C18.809 20.023 22.75 15.4217 22.75 11.2835C22.75 6.34148 18.8323 2.33398 14 2.33398C9.16767 2.33398 5.25 6.34148 5.25 11.2835C5.25 15.4217 9.191 20.023 12.3083 23.6618C12.915 24.3712 13.4913 25.042 14 25.6673C14.5087 25.042 15.085 24.3712 15.6917 23.6618ZM14 14.0007C14.4213 14.0007 14.8385 13.9177 15.2278 13.7564C15.617 13.5952 15.9707 13.3589 16.2686 13.061C16.5666 12.763 16.8029 12.4093 16.9641 12.0201C17.1253 11.6308 17.2083 11.2136 17.2083 10.7923C17.2083 10.371 17.1253 9.95379 16.9641 9.56454C16.8029 9.17529 16.5666 8.8216 16.2686 8.52368C15.9707 8.22576 15.617 7.98944 15.2278 7.8282C14.8385 7.66697 14.4213 7.58398 14 7.58398C13.1491 7.58398 12.333 7.922 11.7314 8.52368C11.1297 9.12536 10.7917 9.94142 10.7917 10.7923C10.7917 11.6432 11.1297 12.4593 11.7314 13.061C12.333 13.6626 13.1491 14.0007 14 14.0007Z" fill="currentColor"/>
</svg>
