<svg width="56" height="56" viewBox="0 0 56 56" fill="none" xmlns="http://www.w3.org/2000/svg">
<path fill-rule="evenodd" clip-rule="evenodd" d="M38.1708 2.09925C37.8586 2.2755 36.3146 4.92465 36.3146 5.2841C36.3146 5.61829 36.7757 6.07053 37.1167 6.07053C37.2651 6.07053 37.507 5.96072 37.6541 5.82663C38.0391 5.47575 39.3498 3.13727 39.3498 2.80113C39.3498 2.2109 38.6798 1.81199 38.1708 2.09925ZM15.51 2.99581C15.3865 3.15288 15.2853 3.38225 15.2853 3.5055C15.2853 3.80446 16.8643 6.57122 17.0827 6.65512C17.6797 6.88428 18.3205 6.54228 18.3205 5.99444C18.3205 5.64496 16.7715 2.87137 16.5231 2.77598C16.1325 2.62606 15.7326 2.71278 15.51 2.99581ZM26.0899 6.0766C22.1244 6.53751 18.6967 8.25064 15.8815 11.1789C11.9239 15.2953 10.4582 20.9201 11.7188 27.154C12.3 30.0285 13.2891 32.0056 15.906 35.5241C17.0404 37.0494 17.7969 38.283 18.1082 39.1148C18.6328 40.517 18.6694 40.8037 18.7404 44.0642L18.8088 47.2077L19.177 47.8872C19.9031 49.2271 20.9594 49.8617 22.6075 49.9478L23.6074 50.0002L23.6508 50.9887C23.705 52.2271 23.9843 52.812 24.7174 53.2224C25.1902 53.4873 25.2713 53.4958 27.6363 53.5296C30.2829 53.5674 30.8184 53.498 31.4214 53.0386C31.9774 52.6151 32.1903 52.0347 32.1931 50.9351L32.1955 50.0015L33.2025 49.9488C34.4769 49.8821 35.3319 49.5292 36.0319 48.7809C37.0297 47.7141 37.2114 46.9424 37.1616 43.9824C37.129 42.041 37.1172 41.9455 36.8808 41.7092L36.634 41.4626L32.4093 41.4318L28.1847 41.4012V38.5841V35.767L28.4286 35.6684C28.5628 35.6142 29.014 35.4705 29.4313 35.3491C32.9189 34.3341 36.521 30.6762 38.1595 26.4854C39.1884 23.8537 39.4777 21.1453 38.9806 18.7969C38.7918 17.9049 38.4316 16.939 38.1862 16.6665C37.7938 16.2307 35.7874 16.619 34.1185 17.4538C32.0466 18.49 30.0031 20.3267 28.6271 22.3892C28.1912 23.0424 27.8037 23.5875 27.7658 23.6005C27.7279 23.6134 27.5262 23.3249 27.3175 22.9592C26.3839 21.3231 24.7622 19.4827 23.2516 18.345C21.7014 17.1776 19.1876 16.1516 17.8775 16.1516C17.2263 16.1516 17.0163 16.3909 16.6499 17.5507C15.5166 21.1381 16.3693 25.5522 18.944 29.4274C19.6955 30.5584 21.2991 32.3073 22.275 33.0601C23.2352 33.8009 24.5748 34.5497 25.5891 34.9125L26.5588 35.2594V38.3339V41.4084H23.481C20.1198 41.4084 20.274 41.4388 20.2698 40.7762C20.2669 40.3303 19.9076 39.0552 19.5375 38.1773C19.1874 37.3473 18.2576 35.9144 16.5345 33.5495C14.245 30.4075 13.3139 27.9642 13.0025 24.2815C12.4507 17.755 15.6809 11.9423 21.4098 9.15241C23.4882 8.14029 25.4954 7.68578 27.9137 7.67938C30.4366 7.67277 32.5768 8.18734 34.8203 9.33983C38.2184 11.0853 40.969 14.2917 42.1517 17.886C42.8194 19.9152 43.0592 22.3138 42.8287 24.6588C42.4671 28.3384 41.5316 30.5954 38.8775 34.1921L37.9948 35.3883L37.9642 34.1759C37.935 33.016 37.9214 32.954 37.6515 32.7416C37.2782 32.448 36.8426 32.4595 36.5503 32.7706C36.3206 33.0152 36.3146 33.0939 36.3146 35.8953C36.3146 38.7591 36.3155 38.7699 36.5655 39.0048C36.7034 39.1344 36.9259 39.2405 37.0596 39.2405C37.2697 39.2405 40.9283 37.9787 42.2396 37.454C43.0555 37.1275 43.1242 36.2716 42.364 35.9061C42.1117 35.7848 41.9254 35.8244 40.695 36.2608C39.9333 36.531 39.2674 36.7379 39.215 36.7204C39.1628 36.7031 39.6569 35.951 40.3131 35.0492C41.738 33.0911 42.2664 32.2478 42.8832 30.948C44.1303 28.32 44.6234 25.6827 44.5218 22.1862C44.4413 19.4171 43.9785 17.4866 42.8622 15.2632C39.6986 8.9613 32.9716 5.27684 26.0899 6.0766ZM47.8791 15.6591C47.1747 15.8548 46.4787 16.0693 46.3323 16.1361C45.7765 16.3893 45.7903 17.2658 46.3547 17.5679C46.5971 17.6976 46.7871 17.6732 48.0027 17.3564C49.7449 16.9025 50.0577 16.7695 50.1877 16.4278C50.3098 16.1063 50.1716 15.6483 49.8873 15.4321C49.6178 15.2275 49.3079 15.2625 47.8791 15.6591ZM5.79667 16.6893C5.26367 16.9029 5.09728 17.6103 5.48806 18.0011C5.72436 18.2374 8.24517 18.9699 8.82196 18.9699C9.18032 18.9699 9.44297 18.7721 9.57338 18.4039C9.67451 18.1181 9.45067 17.6041 9.16905 17.4758C8.971 17.3856 7.13864 16.8735 6.17985 16.6405C6.09043 16.6187 5.91796 16.6407 5.79667 16.6893ZM18.0629 18.6182C17.6703 20.3444 17.7315 21.9963 18.263 24.0174C19.1029 27.211 21.168 30.2331 23.7946 32.1121C24.3214 32.489 25.7697 33.2769 25.9375 33.278C26.1411 33.2793 25.7967 32.54 24.7008 30.6228C24.0532 29.49 23.5235 28.4806 23.5236 28.3796C23.5236 28.045 24.0029 27.6057 24.3678 27.6057C24.8056 27.6057 24.9482 27.7347 25.4412 28.5774C25.9047 29.3698 25.85 29.419 26.1796 27.9128C26.284 27.4359 26.4819 26.7331 26.6194 26.3512L26.8693 25.6568L26.4525 24.8278C24.8387 21.6179 22.1782 19.1003 19.4021 18.1562C18.2524 17.7651 18.2573 17.7634 18.0629 18.6182ZM36.0978 18.414C34.542 18.9232 33.1584 19.8303 31.7077 21.2922C29.2222 23.7968 27.7033 27.0706 27.4643 30.4383C27.3993 31.3546 27.5831 33.2806 27.7352 33.2768C27.7738 33.2758 28.5152 32.0441 29.383 30.5397C31.0762 27.604 31.2226 27.4323 31.8461 27.6496C32.2195 27.7798 32.4722 28.2577 32.358 28.6177C32.3173 28.7459 31.6836 29.8836 30.9499 31.1459C30.216 32.4083 29.6326 33.4589 29.6533 33.4807C29.6741 33.5024 30.0631 33.3196 30.5177 33.0743C33.7984 31.3047 36.582 27.3418 37.3581 23.3357C37.6073 22.0492 37.5927 20.0355 37.327 19.0241C37.0963 18.1459 37.0248 18.1105 36.0978 18.414ZM44.7106 31.2683C44.398 31.5808 44.3686 31.9729 44.6342 32.2851C44.9131 32.6128 47.4203 34.0373 47.7181 34.0373C48.331 34.0373 48.7482 33.3054 48.4206 32.8053C48.2007 32.4698 45.6349 31.0022 45.2681 31.0022C45.1031 31.0022 44.8612 31.1176 44.7106 31.2683ZM9.7028 32.9532C8.32983 33.7496 8.02263 34.0167 8.02263 34.4141C8.02263 34.8213 8.42294 35.2304 8.81643 35.2253C9.27799 35.2193 11.8196 33.7326 12.0055 33.3598C12.1697 33.0305 12.0082 32.4636 11.7039 32.3007C11.3231 32.0969 10.9944 32.2041 9.7028 32.9532ZM20.3824 44.8501C20.3844 46.2759 20.4179 46.6301 20.5852 46.9986C20.854 47.5903 21.4864 48.0927 22.1384 48.2325C22.77 48.368 32.9935 48.3813 33.6848 48.2476C34.254 48.1375 34.7895 47.7794 35.132 47.2801C35.3794 46.9195 35.3951 46.7995 35.4273 45.021L35.4614 43.1428H27.9207H20.38L20.3824 44.8501ZM25.3891 50.8662L25.4206 51.7605L27.8594 51.7897C30.6989 51.8238 30.5695 51.8754 30.5695 50.71V49.9719H27.9636H25.3576L25.3891 50.8662Z" fill="currentColor"/>
</svg>
