<svg width="56" height="56" viewBox="0 0 56 56" fill="none" xmlns="http://www.w3.org/2000/svg">
<path fill-rule="evenodd" clip-rule="evenodd" d="M31.171 3.25829L31.3085 3.48233C31.3235 3.50678 31.332 3.53318 31.3354 3.5435C31.3404 3.55898 31.3454 3.577 31.3502 3.59577C31.36 3.63357 31.3712 3.68338 31.3839 3.74336C31.4095 3.86403 31.4423 4.03318 31.4813 4.24443C31.5593 4.66729 31.6632 5.26455 31.7859 5.99479C32.0313 7.45554 32.3527 9.45136 32.6951 11.6556L33.881 19.2907L35.4398 18.5052L35.212 18.0517C34.2272 16.0931 33.6499 13.8632 33.468 11.333C33.4453 11.0178 33.4378 10.7836 33.4499 10.6086C33.4619 10.4363 33.4943 10.2947 33.5742 10.1861C33.6187 10.1257 33.685 10.0804 33.7474 10.0457C33.8138 10.0088 33.8949 9.97368 33.9869 9.94004C34.1711 9.87264 34.4142 9.80572 34.7038 9.74232C37.1973 9.19648 38.944 8.2487 40.78 6.43042L41.1661 6.0428C41.3706 5.83971 41.562 5.6571 41.7193 5.51435C41.8239 5.41947 41.9154 5.3401 41.9864 5.2839C42.0215 5.25613 42.0548 5.2317 42.0838 5.21314C42.0981 5.20398 42.1149 5.19404 42.1327 5.18575C42.1446 5.18021 42.1809 5.16335 42.2269 5.16335L42.2566 5.16548C42.2845 5.16966 42.3059 5.17863 42.3158 5.18291C42.3335 5.19056 42.3501 5.19973 42.3639 5.20816C42.3919 5.22518 42.4233 5.24774 42.4557 5.27252C42.5212 5.32268 42.6042 5.39293 42.6983 5.47665C42.8873 5.64488 43.1291 5.87559 43.3787 6.12815C44.4673 7.22951 45.4811 7.9946 46.6479 8.59971C47.1243 8.84674 47.784 9.12104 48.4189 9.34722C49.0566 9.57439 49.6538 9.74719 50.0082 9.79851C50.1958 9.82567 50.3633 9.85719 50.4991 9.91764C50.6452 9.98268 50.7563 10.0819 50.8274 10.2352C50.8935 10.3778 50.9194 10.5561 50.928 10.7697C50.9368 10.9858 50.9283 11.2588 50.9121 11.6015C50.7378 15.2778 49.2043 18.9525 46.6313 21.8732C45.7453 22.8789 44.8111 23.6877 43.4974 24.5891C43.0356 24.9059 42.701 25.1058 42.4281 25.1887C42.287 25.2315 42.1549 25.2457 42.026 25.2253C41.8973 25.205 41.7844 25.1523 41.6782 25.0809C41.5742 25.011 41.3216 24.8521 41.1179 24.7289L41.0208 24.6698V29.3598H45.6792C47.4951 29.3598 48.7144 29.3674 49.4914 29.3861C49.8793 29.3954 50.1602 29.4076 50.351 29.4234C50.4459 29.4313 50.5233 29.4404 50.582 29.4515C50.6111 29.457 50.6402 29.4641 50.6666 29.4732C50.6824 29.4787 50.7104 29.489 50.7385 29.5091L50.7662 29.5326L50.786 29.5561C50.803 29.5794 50.8118 29.6015 50.8157 29.6119C50.8227 29.6302 50.8277 29.6487 50.8313 29.6649C50.8386 29.6977 50.8444 29.7379 50.8494 29.7829C50.8595 29.874 50.8682 30.0033 50.876 30.1738C50.8915 30.5158 50.9036 31.0371 50.9128 31.7798C50.9312 33.2659 50.9383 35.6464 50.9383 39.2702V48.5775H51.2578C51.5539 48.5775 51.8341 48.6303 52.0661 48.7268C52.2951 48.8222 52.4943 48.968 52.5998 49.166L52.6129 49.1941C52.6246 49.223 52.632 49.2531 52.6374 49.277C52.6455 49.3134 52.6529 49.3563 52.6593 49.4032C52.6723 49.4975 52.6836 49.6176 52.693 49.7542C52.7118 50.028 52.7234 50.3769 52.7234 50.7357V52.1124L52.659 52.1671L52.0487 52.6828L51.998 52.7254H3.49883L3.44818 52.6828L2.8379 52.1671L2.77344 52.1124V50.7357C2.77344 50.3769 2.78506 50.028 2.8039 49.7542C2.8133 49.6176 2.82454 49.4975 2.83755 49.4032C2.84403 49.3563 2.85137 49.3134 2.85951 49.277C2.86663 49.2451 2.87763 49.2025 2.89705 49.166C3.00257 48.9681 3.20155 48.8222 3.43047 48.7268C3.66238 48.6302 3.94268 48.5775 4.23874 48.5775H4.55823L4.60817 22.422L4.60852 22.3099L4.70805 22.2598L10.6585 19.252C12.2955 18.4246 13.8125 17.6718 14.9379 17.1254C15.5005 16.8522 15.9661 16.6304 16.3001 16.4763C16.4668 16.3995 16.602 16.3388 16.7007 16.2971C16.7498 16.2764 16.7919 16.2593 16.8251 16.2473C16.8415 16.2414 16.858 16.236 16.8732 16.2317C16.8835 16.2288 16.9103 16.2212 16.9402 16.2207L17.0284 16.2203C17.1231 16.2224 17.2334 16.2364 17.3273 16.3032C17.4585 16.3965 17.5145 16.5563 17.5473 16.7466C17.6135 17.1314 17.6156 17.8691 17.6156 19.2559C17.6156 19.9752 17.6214 20.6287 17.6305 21.1019C17.6344 21.3056 17.6393 21.475 17.6443 21.6015C17.7496 21.5511 17.8875 21.4847 18.0502 21.4049C18.4346 21.2164 18.9584 20.9562 19.5283 20.6698C20.181 20.3418 20.7007 20.0664 21.0602 19.8601C21.2404 19.7566 21.3773 19.6722 21.4696 19.6083C21.5146 19.5771 21.5451 19.553 21.5642 19.5361C21.565 19.5319 21.5661 19.5272 21.567 19.5219C21.5727 19.4901 21.5804 19.4451 21.59 19.3875C21.6095 19.2719 21.6367 19.1067 21.6705 18.8978C21.738 18.4799 21.8321 17.887 21.9464 17.1627C22.175 15.714 22.4835 13.7399 22.8163 11.5905C23.1542 9.40796 23.4722 7.42835 23.7152 5.97843C23.8367 5.25359 23.9396 4.66031 24.017 4.24016C24.0556 4.03044 24.0879 3.8626 24.1133 3.74265C24.126 3.6829 24.1373 3.63309 24.147 3.59542C24.1518 3.57673 24.1569 3.55894 24.1619 3.5435C24.1652 3.53325 24.1735 3.50708 24.1884 3.48269L24.379 3.17188H31.1179L31.171 3.25829ZM4.12788 51.3656H51.369V50.037H4.12788V51.3656ZM15.9732 18.1727C15.7022 18.3082 15.3117 18.5039 14.8309 18.7452C13.8693 19.2279 12.5461 19.8928 11.0938 20.6236L5.91302 23.2306V48.5775H16.162V33.2759C16.162 29.0179 16.1591 25.1476 16.1546 22.3423C16.1523 20.9397 16.1497 19.8034 16.1468 19.018C16.1453 18.6252 16.1438 18.3204 16.1422 18.114C16.1421 18.1051 16.1419 18.0965 16.1418 18.088C16.0922 18.1128 16.036 18.1412 15.9732 18.1727ZM17.6156 48.5775H49.5839V30.7197H17.6156V48.5775ZM22.4844 40.8107C23.3317 40.8107 23.931 40.8192 24.3301 40.8385C24.529 40.8481 24.683 40.8607 24.7948 40.8772C24.8504 40.8855 24.9006 40.8954 24.9429 40.9082C24.9694 40.9162 25.0084 40.9294 25.0449 40.9544L25.0799 40.9836L25.109 41.0188C25.1338 41.0554 25.147 41.0946 25.155 41.1212C25.1677 41.1636 25.1776 41.214 25.1858 41.2698C25.2023 41.3821 25.2149 41.5368 25.2244 41.7364C25.2437 42.1371 25.2521 42.7389 25.2521 43.5896C25.2521 44.6222 25.2472 45.2228 25.2237 45.58C25.2121 45.7575 25.1954 45.8875 25.1678 45.9847C25.1383 46.0884 25.0934 46.1652 25.0229 46.224C24.9535 46.2819 24.8548 46.3103 24.7562 46.3296C24.6495 46.3505 24.5071 46.3664 24.3223 46.3794C23.9519 46.4055 23.3878 46.4212 22.5467 46.4327C21.5194 46.4468 20.9563 46.4514 20.6231 46.4288C20.4558 46.4175 20.3331 46.3985 20.2331 46.3648C20.1272 46.3291 20.0564 46.2801 19.9905 46.2265L19.75 46.0312L19.6827 45.9765V43.6059C19.6827 42.7119 19.69 42.127 19.711 41.7489C19.7215 41.5603 19.7358 41.417 19.7557 41.3097C19.7743 41.209 19.8024 41.1115 19.8605 41.0412C19.919 40.9704 19.9951 40.9255 20.0985 40.8957C20.1952 40.8679 20.3248 40.8509 20.5016 40.8392C20.8572 40.8156 21.4553 40.8107 22.4844 40.8107ZM37.2834 40.8107C38.4382 40.8107 39.0387 40.8113 39.3671 40.8403C39.5299 40.8546 39.6506 40.8774 39.7443 40.9249C39.8486 40.9778 39.9011 41.0527 39.9409 41.1098C40.037 41.2476 40.0762 41.4403 40.0985 41.7777C40.1214 42.1238 40.1274 42.6631 40.1268 43.5295C40.1265 44.1064 40.1195 44.6556 40.1088 45.076C40.1034 45.2861 40.0971 45.4651 40.09 45.5995C40.0865 45.6666 40.0827 45.724 40.0787 45.7692C40.0751 45.809 40.0703 45.8538 40.0617 45.8862C40.028 46.0121 39.9668 46.1306 39.8389 46.2211C39.7202 46.3051 39.5605 46.3527 39.3575 46.3833C38.9524 46.4443 38.2776 46.4492 37.1484 46.4331C36.3355 46.4215 35.7875 46.4057 35.4263 46.3794C35.2463 46.3663 35.107 46.3501 35.002 46.3293C34.9048 46.3099 34.8074 46.2814 34.7385 46.224C34.668 46.1651 34.6231 46.0884 34.5936 45.9847C34.566 45.8875 34.5493 45.7575 34.5376 45.58C34.5142 45.2228 34.5093 44.6221 34.5093 43.5896C34.5093 42.7389 34.5177 42.1371 34.5369 41.7364C34.5465 41.5368 34.5591 41.3821 34.5755 41.2698C34.5837 41.214 34.5937 41.1636 34.6064 41.1212C34.617 41.0857 34.6372 41.0281 34.6815 40.9836L34.7165 40.9544C34.7531 40.9294 34.7923 40.9162 34.8189 40.9082C34.8611 40.8954 34.9113 40.8855 34.9669 40.8772C35.079 40.8607 35.2333 40.8481 35.4327 40.8385C35.8327 40.8192 36.4336 40.8107 37.2834 40.8107ZM44.6896 40.8107C45.5407 40.8107 46.1426 40.8192 46.5431 40.8385C46.7427 40.8481 46.8971 40.8607 47.0092 40.8772C47.065 40.8855 47.1153 40.8954 47.1576 40.9082C47.1842 40.9162 47.2234 40.9294 47.26 40.9544L47.295 40.9836L47.3241 41.0188C47.349 41.0554 47.3622 41.0946 47.3701 41.1212C47.3828 41.1636 47.3927 41.214 47.401 41.2698C47.4174 41.3821 47.43 41.5368 47.4396 41.7364C47.4588 42.1371 47.4672 42.7389 47.4672 43.5896C47.4672 44.6228 47.4623 45.2233 47.4388 45.5803C47.4272 45.7577 47.4102 45.8876 47.3825 45.9847C47.3529 46.0886 47.3082 46.1652 47.2377 46.224C47.2068 46.2497 47.1725 46.2642 47.1505 46.2724C47.1257 46.2816 47.0985 46.2888 47.0715 46.2951C47.0172 46.3077 46.95 46.3187 46.8746 46.3282C46.7231 46.3473 46.5229 46.363 46.293 46.3755C45.8323 46.4005 45.2399 46.4134 44.6503 46.4142C44.0607 46.4151 43.4708 46.4041 43.015 46.3805C42.7875 46.3687 42.5903 46.3536 42.4422 46.3349C42.3686 46.3257 42.3028 46.3146 42.2499 46.3019C42.2237 46.2955 42.1966 46.288 42.1716 46.278C42.1507 46.2697 42.1125 46.2527 42.0799 46.2201C42.0399 46.18 42.0175 46.1303 42.0037 46.0917C41.9888 46.05 41.9774 46.0015 41.9676 45.9484C41.948 45.8418 41.9324 45.6969 41.9198 45.5088C41.8945 45.1314 41.879 44.5573 41.8677 43.7194C41.8549 42.7655 41.8531 42.1891 41.8716 41.8253C41.8898 41.4669 41.9279 41.279 42.0236 41.1326L42.1801 40.8929L42.2336 40.8107H44.6896ZM29.8807 40.8107C31.0235 40.8107 31.6398 40.8132 31.9811 40.8392C32.1488 40.852 32.2726 40.8717 32.3643 40.911C32.4141 40.9324 32.4568 40.9601 32.4929 40.9967C32.5279 41.0323 32.5503 41.0698 32.5662 41.0995C32.5893 41.143 32.6002 41.1982 32.6069 41.2371C32.6151 41.2841 32.6224 41.3423 32.6289 41.4092C32.6419 41.5436 32.6528 41.7237 32.6618 41.9409C32.6799 42.376 32.6902 42.9689 32.6902 43.6625C32.6902 44.6619 32.6854 45.2446 32.6618 45.5921C32.6395 45.9212 32.6004 46.1075 32.4606 46.224C32.3902 46.2827 32.2923 46.3109 32.1911 46.3296C32.083 46.3495 31.9379 46.3636 31.7466 46.3741C31.3631 46.3951 30.7684 46.4025 29.8573 46.4025C28.7689 46.4025 28.1769 46.3996 27.8416 46.3734C27.6754 46.3603 27.5531 46.3407 27.4598 46.3033C27.3796 46.2712 27.3262 46.2284 27.2848 46.182L27.2469 46.1347C27.1953 46.0638 27.1664 45.9719 27.1463 45.8669C27.1257 45.7591 27.1107 45.6177 27.0999 45.4324C27.0783 45.061 27.0712 44.4887 27.0712 43.6059C27.0712 42.9318 27.0815 42.353 27.0996 41.927C27.1086 41.7144 27.1195 41.5378 27.1325 41.4057C27.139 41.3399 27.1463 41.2825 27.1545 41.2361C27.1613 41.1975 27.1722 41.1427 27.1952 41.0995L27.2249 41.0504C27.2369 41.0329 27.251 41.0145 27.2685 40.9967C27.3046 40.9601 27.3473 40.9324 27.3971 40.911C27.4888 40.8717 27.6126 40.852 27.7803 40.8392C28.1215 40.8132 28.7379 40.8107 29.8807 40.8107ZM11.9896 33.8392C12.1997 33.8464 12.4301 33.9415 12.5683 34.1393C12.6288 34.2259 12.6599 34.3425 12.6813 34.5084C12.7034 34.6791 12.7186 34.9305 12.7295 35.3093C12.7513 36.0686 12.7561 37.3659 12.7561 39.6144C12.7561 41.0683 12.746 42.383 12.7295 43.3516C12.7213 43.8358 12.7115 44.2346 12.7005 44.5213C12.6949 44.6643 12.689 44.781 12.6828 44.8669C12.6796 44.9098 12.6765 44.9471 12.6728 44.9768C12.6701 44.9992 12.6648 45.0378 12.6526 45.07C12.489 45.5021 11.9865 45.6188 11.6099 45.3712L11.3025 45.1692V39.7393C11.3025 37.9966 11.3114 36.6457 11.3287 35.7143C11.3373 35.2489 11.348 34.8867 11.3609 34.6322C11.3673 34.5053 11.3746 34.403 11.3825 34.3271C11.3864 34.2893 11.3909 34.2554 11.396 34.2271C11.3997 34.2063 11.4073 34.1652 11.4264 34.1293L11.4498 34.0899C11.5727 33.9015 11.7953 33.8325 11.9896 33.8392ZM21.0867 44.9928H23.8976V42.1706H21.0867V44.9928ZM28.5248 44.9928H31.2366V42.1706H28.5248V44.9928ZM35.8638 44.9928H38.6746V42.1706H35.8638V44.9928ZM43.3019 44.9928H46.1127V42.1706H43.3019V44.9928ZM22.4844 32.9444C23.3317 32.9444 23.931 32.9528 24.3301 32.9722C24.529 32.9818 24.683 32.9944 24.7948 33.0109C24.8504 33.0191 24.9006 33.0291 24.9429 33.0419C24.9694 33.0499 25.0084 33.0631 25.0449 33.0881L25.0799 33.1172L25.109 33.1525C25.1339 33.1892 25.147 33.2286 25.155 33.2552C25.1677 33.2977 25.1776 33.348 25.1858 33.4039C25.2023 33.5163 25.2149 33.6711 25.2244 33.8712C25.2437 34.2726 25.2521 34.8756 25.2521 35.7282C25.2521 36.734 25.2465 37.3367 25.2237 37.7047C25.2124 37.8881 25.1961 38.0231 25.1713 38.1244C25.1459 38.2282 25.1078 38.3111 25.0431 38.3762C25.013 38.4063 24.9785 38.424 24.9556 38.4341C24.9301 38.4454 24.9025 38.4544 24.8756 38.4619C24.8216 38.4768 24.7555 38.4896 24.6822 38.5006C24.5346 38.5228 24.34 38.5412 24.1169 38.5557C23.6695 38.585 23.093 38.6005 22.5159 38.6023C21.9388 38.6041 21.3575 38.5921 20.9004 38.5657C20.6724 38.5525 20.4722 38.5356 20.3178 38.5145C20.2409 38.504 20.1718 38.4919 20.1148 38.4779C20.0778 38.4687 20.0314 38.4557 19.9894 38.4341L19.9494 38.4096C19.8855 38.3626 19.8242 38.3032 19.7815 38.1959C19.7443 38.1021 19.7247 37.9794 19.7118 37.8125C19.6856 37.4759 19.6827 36.8814 19.6827 35.7887C19.6827 34.8739 19.6901 34.2768 19.711 33.8918C19.7215 33.6998 19.7355 33.5541 19.7553 33.4455C19.7739 33.3438 19.8021 33.2456 19.8605 33.1749C19.919 33.1041 19.9951 33.0591 20.0985 33.0294C20.1952 33.0016 20.3248 32.9846 20.5016 32.9729C20.8572 32.9493 21.4553 32.9444 22.4844 32.9444ZM29.8892 32.9444C30.8703 32.9444 31.4594 32.95 31.8199 32.9729C31.9995 32.9843 32.1323 33.0005 32.2322 33.0255C32.3348 33.0511 32.4168 33.0896 32.4812 33.1542C32.5456 33.219 32.5839 33.3014 32.6094 33.4046C32.6343 33.5051 32.6505 33.6387 32.6618 33.8196C32.6846 34.1829 32.6902 34.777 32.6902 35.7666C32.6902 36.907 32.6897 37.501 32.6608 37.8264C32.6464 37.9878 32.6236 38.108 32.5761 38.2016C32.5234 38.3054 32.4491 38.3579 32.3923 38.3979C32.254 38.4951 32.0574 38.534 31.7059 38.5565C31.3444 38.5795 30.7769 38.586 29.8587 38.586C28.8243 38.586 28.2592 38.5833 27.9308 38.5561C27.7665 38.5425 27.6457 38.5216 27.5494 38.485C27.445 38.4453 27.38 38.391 27.3227 38.3335C27.2653 38.2758 27.211 38.2104 27.1715 38.1048C27.1351 38.0075 27.1145 37.8849 27.101 37.7176C27.074 37.3831 27.0712 36.8062 27.0712 35.7481C27.0712 34.77 27.0766 34.1927 27.1003 33.8402C27.1204 33.5403 27.1544 33.3646 27.2416 33.2378L27.2823 33.1862C27.3386 33.1238 27.4058 33.0729 27.5118 33.0372C27.6081 33.0049 27.7334 32.9862 27.9046 32.9736C28.2485 32.9483 28.8374 32.9444 29.8892 32.9444ZM37.2834 32.9444C38.4382 32.9444 39.0387 32.945 39.3671 32.9739C39.5299 32.9883 39.6506 33.0111 39.7443 33.0586C39.8486 33.1115 39.9011 33.1864 39.9409 33.2435C40.0378 33.3824 40.0765 33.5797 40.0989 33.9327C40.1218 34.2956 40.1283 34.8654 40.1283 35.7872C40.1283 36.8258 40.1256 37.3932 40.0985 37.7229C40.085 37.8879 40.0641 38.0092 40.0277 38.1059C39.9881 38.2107 39.9341 38.276 39.8768 38.3335C39.8195 38.391 39.7545 38.4453 39.6501 38.485C39.5538 38.5216 39.433 38.5425 39.2686 38.5561C38.9403 38.5833 38.3752 38.586 37.3407 38.586C36.4226 38.586 35.855 38.5795 35.4936 38.5565C35.1421 38.534 34.9455 38.4951 34.8072 38.3979C34.7503 38.3579 34.6757 38.3052 34.623 38.2005C34.5757 38.1064 34.553 37.9852 34.5387 37.8217C34.5099 37.4921 34.5093 36.8892 34.5093 35.7296C34.5093 34.8765 34.5177 34.2732 34.5369 33.8715C34.5465 33.6713 34.5591 33.5164 34.5755 33.4039C34.5837 33.348 34.5937 33.2977 34.6064 33.2552C34.617 33.2197 34.6371 33.1618 34.6815 33.1172L34.7165 33.0881C34.7531 33.063 34.7923 33.0499 34.8189 33.0419C34.8611 33.0291 34.9113 33.0191 34.9669 33.0109C35.079 32.9944 35.2333 32.9818 35.4327 32.9722C35.8327 32.9528 36.4336 32.9444 37.2834 32.9444ZM44.6931 32.9444C45.5429 32.9444 46.1438 32.9528 46.5438 32.9722C46.7432 32.9818 46.8975 32.9944 47.0096 33.0109C47.0652 33.0191 47.1154 33.0291 47.1576 33.0419C47.1842 33.0499 47.2234 33.063 47.26 33.0881L47.295 33.1172L47.3241 33.1525C47.349 33.1892 47.3622 33.2286 47.3701 33.2552C47.3828 33.2977 47.3928 33.348 47.401 33.4039C47.4174 33.5164 47.43 33.6713 47.4396 33.8715C47.4588 34.2732 47.4672 34.8765 47.4672 35.7296C47.4672 36.8892 47.4666 37.4921 47.4378 37.8217C47.4235 37.9852 47.4008 38.1064 47.3535 38.2005C47.3008 38.3052 47.2262 38.3579 47.1693 38.3979C47.031 38.4951 46.8344 38.534 46.4829 38.5565C46.1215 38.5795 45.5539 38.586 44.6357 38.586C43.6013 38.586 43.0362 38.5833 42.7079 38.5561C42.5435 38.5425 42.4227 38.5216 42.3264 38.485C42.222 38.4453 42.157 38.391 42.0997 38.3335C42.0424 38.276 41.9884 38.2107 41.9488 38.1059C41.9124 38.0092 41.8915 37.8879 41.878 37.7229C41.8509 37.3932 41.8482 36.8258 41.8482 35.7872C41.8482 34.8654 41.8547 34.2956 41.8776 33.9327C41.9 33.5797 41.9387 33.3824 42.0356 33.2435C42.0754 33.1864 42.1279 33.1115 42.2322 33.0586C42.3259 33.0111 42.4466 32.9883 42.6094 32.9739C42.9378 32.945 43.5383 32.9444 44.6931 32.9444ZM21.0867 37.1265H23.8976V34.4039H21.0867V37.1265ZM28.5248 37.1265H31.2366V34.4039H28.5248V37.1265ZM35.8638 37.1265H38.6746V34.4039H35.8638V37.1265ZM43.3019 37.1265H46.1127V34.4039H43.3019V37.1265ZM8.17952 24.7851C8.35701 24.7749 8.57696 24.8125 8.71612 24.9522C8.75396 24.9902 8.77008 25.0366 8.77669 25.0571C8.78546 25.0843 8.79185 25.1148 8.79723 25.1457C8.80814 25.2082 8.81738 25.292 8.82521 25.396C8.84095 25.6052 8.85312 25.9153 8.8624 26.3462C8.881 27.2094 8.88826 28.5699 8.88826 30.6051V36.108L8.80644 36.1617L8.55851 36.3249C8.45553 36.3927 8.34242 36.4671 8.21281 36.4679C8.0821 36.4687 7.96961 36.3946 7.86853 36.3281C7.6793 36.2036 7.52939 35.9556 7.48742 35.7239C7.48059 35.6861 7.47647 35.6139 7.47325 35.5305C7.46977 35.4403 7.46681 35.3191 7.46404 35.1713C7.45849 34.8755 7.45431 34.4695 7.45165 33.9832C7.44631 33.0104 7.44675 31.7137 7.45483 30.3278C7.46668 28.2827 7.48048 27.0128 7.50513 26.2374C7.51743 25.8504 7.53263 25.5819 7.55224 25.4003C7.56201 25.3098 7.57352 25.2359 7.58766 25.1773C7.60033 25.1248 7.62038 25.0602 7.66204 25.0098L7.68683 24.9824C7.81429 24.8506 8.01224 24.7947 8.17952 24.7851ZM27.6103 18.1776C27.3363 18.3133 26.9446 18.5089 26.4641 18.7502C25.5031 19.2328 24.1876 19.8976 22.7497 20.6275L17.6195 23.2314L17.6156 29.3598H27.8646V23.667C27.8646 22.052 27.8561 20.5851 27.8427 19.5229C27.8359 18.9918 27.8281 18.5625 27.8193 18.2669C27.8172 18.1961 27.8137 18.1332 27.8115 18.0788C27.7542 18.1069 27.6868 18.1397 27.6103 18.1776ZM29.3228 23.2314L29.3182 29.3598H39.5672V23.6471L38.4547 22.5283C37.8099 21.8798 37.0072 20.9587 36.6688 20.4757L36.1592 19.7481L29.3228 23.2314ZM41.8656 7.39487C40.4027 8.99467 38.0695 10.3516 35.7401 10.9646L34.8706 11.1932L34.9227 11.7946C35.3232 16.4356 37.8232 20.7517 41.596 23.3213L42.2035 23.7349L42.4358 23.5934C44.2874 22.4629 46.3332 20.2828 47.5596 18.1246C48.6463 16.2125 49.4847 13.3589 49.4847 11.6047V11.1705L49.2003 11.0983C46.8008 10.4895 44.6397 9.30302 42.7497 7.55845L42.189 7.04102L41.8656 7.39487ZM42.2134 8.34971C42.2578 8.34971 42.2989 8.36226 42.3264 8.37211C42.3573 8.3832 42.3899 8.39791 42.4224 8.41443C42.4877 8.44767 42.5643 8.49389 42.6462 8.54779C42.8107 8.65595 43.0081 8.80328 43.2002 8.96458C44.4704 10.031 45.7963 10.78 47.4303 11.3529C47.6874 11.443 47.9327 11.5448 48.1221 11.6371C48.2164 11.683 48.3002 11.7281 48.3654 11.7697C48.3979 11.7904 48.429 11.8121 48.4554 11.8344C48.4726 11.849 48.496 11.8706 48.5163 11.8984L48.5354 11.9287L48.5546 11.9713C48.571 12.0153 48.5799 12.0624 48.5854 12.1054C48.5932 12.1663 48.596 12.2365 48.5953 12.3127C48.5938 12.4655 48.578 12.6567 48.55 12.8736C48.4937 13.3082 48.387 13.8615 48.2418 14.4504C47.4601 17.6213 45.4224 20.5834 42.8024 22.3508C42.6761 22.4361 42.5565 22.5117 42.4351 22.5539C42.3037 22.5996 42.174 22.6049 42.0303 22.5624C41.8954 22.5226 41.7535 22.4421 41.5897 22.3302C41.4243 22.2173 41.2229 22.0629 40.9688 21.8644C39.5426 20.7498 38.0435 18.9365 37.2508 17.3658C36.788 16.4488 36.3589 15.1798 36.094 14.1008C35.9615 13.5612 35.8685 13.0624 35.8336 12.6744C35.8163 12.4812 35.8126 12.3082 35.8283 12.1684C35.8362 12.0984 35.8496 12.031 35.8715 11.971C35.8931 11.9122 35.9276 11.8484 35.9852 11.8003L36.02 11.775C36.0587 11.7501 36.1074 11.7263 36.1521 11.7057C36.2197 11.6745 36.3058 11.6386 36.4035 11.6001C36.5994 11.5228 36.8486 11.433 37.1045 11.349C38.673 10.8344 40.2689 9.89915 41.4834 8.78285C41.6061 8.67006 41.7408 8.56689 41.8606 8.49089C41.9203 8.45305 41.9793 8.42014 42.0335 8.39594C42.0818 8.37436 42.1476 8.34974 42.2134 8.34971ZM27.7484 4.53177C26.7439 4.53177 26.1036 4.53882 25.715 4.55773C25.53 4.56673 25.41 4.57834 25.3371 4.59116C25.3338 4.61437 25.3303 4.64183 25.3257 4.67295C25.3103 4.77841 25.2879 4.9296 25.2592 5.11996C25.2017 5.50093 25.1192 6.03994 25.0201 6.68576C24.8218 7.97742 24.5561 9.69741 24.2858 11.439C23.758 14.8396 23.212 18.3275 23.1202 18.865L25.5117 17.6342C26.9104 16.9143 27.7316 16.5086 28.2294 16.3341C28.475 16.2481 28.6722 16.2064 28.8326 16.232C28.9183 16.2457 28.9933 16.2785 29.0568 16.3305C29.1184 16.381 29.1615 16.4434 29.1943 16.5048L29.2098 16.5404C29.2234 16.5776 29.2307 16.618 29.2357 16.6485C29.2439 16.698 29.2512 16.7599 29.2577 16.832C29.2707 16.9766 29.2817 17.1722 29.2906 17.4106C29.3085 17.888 29.3182 18.5458 29.3182 19.3291C29.3182 20.0283 29.324 20.6634 29.3331 21.1232C29.3371 21.3257 29.3422 21.4931 29.3473 21.6168C29.4455 21.572 29.5717 21.512 29.7174 21.4401C30.0464 21.2777 30.4707 21.0596 30.8916 20.8377C31.3125 20.6157 31.7289 20.3905 32.042 20.2143C32.1987 20.126 32.3282 20.0512 32.4189 19.9952C32.444 19.9797 32.4649 19.9652 32.4826 19.9536C32.4805 19.9318 32.4782 19.9058 32.4748 19.8757C32.4624 19.7664 32.4422 19.6084 32.415 19.4063C32.3606 19.0024 32.2785 18.4263 32.1748 17.7207C31.9675 16.3095 31.6741 14.3815 31.3449 12.2775C31.0157 10.173 30.7165 8.24575 30.4995 6.83619C30.391 6.1315 30.3028 5.55595 30.242 5.15233C30.2116 4.95068 30.1879 4.79166 30.1718 4.68077C30.1669 4.64642 30.1626 4.61638 30.1591 4.59116C30.0843 4.57833 29.9617 4.5667 29.7744 4.55773C29.3833 4.53898 28.7429 4.53177 27.7484 4.53177ZM42.2166 10.0435C42.1862 10.0717 42.1508 10.1073 42.1153 10.1467C41.9566 10.3228 41.6922 10.5342 41.3754 10.7555C41.0556 10.9788 40.672 11.2192 40.2664 11.4529C39.4572 11.919 38.5485 12.3653 37.8731 12.5969C37.6826 12.6622 37.506 12.723 37.3751 12.7686C37.3428 12.7799 37.3131 12.79 37.2869 12.7992C37.2949 12.8459 37.3048 12.9037 37.3177 12.9706C37.3558 13.1671 37.4127 13.4373 37.4792 13.7334C38.0671 16.3514 39.4531 18.6813 41.4512 20.4124C41.6907 20.6198 41.8517 20.7645 41.9811 20.8608C42.1116 20.9579 42.175 20.9777 42.2166 20.9778C42.2573 20.9779 42.3188 20.9593 42.4454 20.8636C42.5714 20.7684 42.7272 20.625 42.9604 20.4188C44.3338 19.2041 45.336 17.8764 46.0915 16.2726C46.5499 15.2991 46.9771 13.9246 47.0684 13.1445L47.1119 12.7718L46.6164 12.594C45.2913 12.118 43.6408 11.1865 42.5499 10.2989C42.4399 10.2094 42.3352 10.1285 42.2559 10.0709C42.2419 10.0607 42.2285 10.0519 42.2166 10.0435ZM44.7672 13.2288C44.958 13.2288 45.137 13.3536 45.2556 13.482C45.3762 13.6127 45.4837 13.7998 45.4837 13.9902C45.4837 14.0904 45.4462 14.1875 45.3881 14.2864C45.3295 14.3861 45.2405 14.5034 45.1171 14.6477C44.8699 14.9369 44.4619 15.3595 43.8179 16.0051C43.154 16.6708 42.733 17.0806 42.4479 17.3238C42.1737 17.5576 41.9853 17.6755 41.794 17.6755C41.6311 17.6755 41.4792 17.609 41.3038 17.4838C41.1301 17.3598 40.9135 17.1639 40.6181 16.8754C40.1403 16.4085 39.8484 16.1032 39.7114 15.8661C39.6393 15.7413 39.5996 15.6185 39.6083 15.4891C39.6169 15.3621 39.6708 15.2541 39.7337 15.1577L39.7946 15.072C39.8589 14.9903 39.9335 14.9213 40.0231 14.8761C40.1488 14.8125 40.2839 14.806 40.4219 14.844C40.5541 14.8805 40.6905 14.9578 40.8338 15.0631C40.9785 15.1694 41.1402 15.3119 41.3233 15.4884L41.8337 15.9806L43.1269 14.6936C43.5178 14.3044 43.8845 13.9501 44.1604 13.6925C44.2982 13.564 44.4148 13.4583 44.5008 13.3842C44.5435 13.3475 44.5808 13.3164 44.6106 13.2939C44.6251 13.283 44.6413 13.2717 44.657 13.2622C44.6647 13.2576 44.6758 13.2512 44.6889 13.2455C44.6973 13.2419 44.7274 13.2289 44.7672 13.2288Z" fill="currentColor"/>
</svg>
