<svg width="28" height="28" viewBox="0 0 28 28" fill="none" xmlns="http://www.w3.org/2000/svg">
<path d="M22.9832 9.67647H21.6998V5.97059C21.6998 4.61176 20.5448 3.5 19.1332 3.5H11.4332C10.0215 3.5 8.8665 4.61176 8.8665 5.97059V23.2647H24.2665C25.6782 23.2647 26.8332 22.1529 26.8332 20.7941V13.3824C26.8332 11.3318 25.1135 9.67647 22.9832 9.67647ZM11.4332 5.97059H19.1332V9.67647H11.4332V5.97059ZM16.5665 19.5588H11.4332V13.3824H16.5665V19.5588ZM19.1332 19.5588C18.4273 19.5588 17.8498 19.0029 17.8498 18.3235C17.8498 17.6441 18.4273 17.0882 19.1332 17.0882C19.839 17.0882 20.4165 17.6441 20.4165 18.3235C20.4165 19.0029 19.839 19.5588 19.1332 19.5588ZM19.1332 15.8529C18.4273 15.8529 17.8498 15.2971 17.8498 14.6176C17.8498 13.9382 18.4273 13.3824 19.1332 13.3824C19.839 13.3824 20.4165 13.9382 20.4165 14.6176C20.4165 15.2971 19.839 15.8529 19.1332 15.8529ZM22.9832 19.5588C22.2773 19.5588 21.6998 19.0029 21.6998 18.3235C21.6998 17.6441 22.2773 17.0882 22.9832 17.0882C23.689 17.0882 24.2665 17.6441 24.2665 18.3235C24.2665 19.0029 23.689 19.5588 22.9832 19.5588ZM22.9832 15.8529C22.2773 15.8529 21.6998 15.2971 21.6998 14.6176C21.6998 13.9382 22.2773 13.3824 22.9832 13.3824C23.689 13.3824 24.2665 13.9382 24.2665 14.6176C24.2665 15.2971 23.689 15.8529 22.9832 15.8529ZM4.37484 8.44118C3.52393 8.44118 2.70788 8.76654 2.1062 9.3457C1.50452 9.92486 1.1665 10.7104 1.1665 11.5294V21.4118C1.1665 22.2308 1.50452 23.0163 2.1062 23.5955C2.70788 24.1746 3.52393 24.5 4.37484 24.5C5.22574 24.5 6.04179 24.1746 6.64347 23.5955C7.24515 23.0163 7.58317 22.2308 7.58317 21.4118V11.5294C7.58317 11.1239 7.50018 10.7223 7.33895 10.3476C7.17772 9.97291 6.94139 9.63247 6.64347 9.3457C6.34555 9.05893 5.99187 8.83145 5.60261 8.67625C5.21336 8.52106 4.79616 8.44118 4.37484 8.44118Z" fill="currentColor"/>
</svg>
