<svg viewBox="0 0 91 100" fill="none" xmlns="http://www.w3.org/2000/svg">
<path fill-rule="evenodd" clip-rule="evenodd" d="M2.31 7.56224C2.46754 6.23772 2.93189 4.96822 3.66615 3.85466C4.4004 2.74109 5.38431 1.81417 6.53965 1.14758C7.695 0.480994 8.98991 0.0931199 10.3215 0.014797C11.653 -0.0635258 12.9845 0.169862 14.21 0.696405C20.405 3.34474 34.2883 9.6389 51.905 19.8064C69.5275 29.9797 81.9233 38.8639 87.3075 42.8947C91.9042 46.3422 91.9158 53.1789 87.3133 56.6381C81.9817 60.6456 69.7375 69.4131 51.905 79.7147C34.055 90.0164 20.335 96.2347 14.1983 98.8481C8.91333 101.106 2.99834 97.6814 2.31 91.9822C1.505 85.3206 0 70.1947 0 49.7664C0 29.3497 1.49917 14.2297 2.31 7.56224Z" fill="currentColor"/>
</svg>
