<svg viewBox="0 0 54 54" fill="none" xmlns="http://www.w3.org/2000/svg">
<path d="M40.2383 27.1722C40.2693 27.1779 40.296 27.1856 40.3135 27.1908C40.3602 27.2046 40.4135 27.2237 40.4678 27.2455C40.5772 27.2894 40.7138 27.3515 40.8662 27.4262C41.1725 27.5761 41.5591 27.7835 41.9531 28.0121C42.7201 28.457 43.9649 29.0688 44.709 29.3656C45.4083 29.6446 46.5753 30.0134 47.6484 30.3138C48.1836 30.4637 48.6917 30.596 49.1016 30.6898C49.5253 30.7868 49.8107 30.8343 49.9219 30.8344C50.0909 30.8345 50.2737 30.9042 50.4209 30.9818C50.5767 31.064 50.737 31.1781 50.8662 31.308C50.9689 31.4113 51.0756 31.5278 51.1504 31.726C51.2191 31.9081 51.2551 32.1423 51.2754 32.4769C51.3161 33.1485 51.3006 34.3496 51.2656 36.64C51.2311 38.8966 51.207 40.1086 51.1328 40.931C51.057 41.7713 50.9261 42.215 50.6895 42.931C49.7851 45.6665 47.7782 48.4557 45.2617 50.4916C44.3949 51.1929 43.3232 51.9177 42.3867 52.4681C41.9186 52.7433 41.4791 52.9782 41.1123 53.1449C40.9291 53.2281 40.7589 53.2961 40.6104 53.3441C40.4679 53.3902 40.3219 53.4251 40.1934 53.4252C40.0718 53.4251 39.9238 53.3871 39.7861 53.3422C39.6383 53.2939 39.4655 53.2253 39.2803 53.1439C38.9094 52.981 38.4723 52.7582 38.0566 52.5131C33.0922 49.5865 30.124 45.6752 29.2783 40.8754C29.2211 40.5507 29.1724 39.8251 29.1377 38.9388C29.1026 38.0434 29.0811 36.96 29.0811 35.9047C29.0811 34.059 29.0839 33.0795 29.1387 32.5111C29.1664 32.2241 29.2088 32.0142 29.2852 31.8402C29.364 31.6605 29.4702 31.5398 29.5742 31.4271C29.9442 31.0271 30.4902 30.8299 31.376 30.6771L31.7598 30.6058C33.7074 30.2134 36.048 29.3332 37.8789 28.2924C38.4012 27.9955 38.9037 27.7234 39.293 27.5238C39.4871 27.4243 39.6562 27.3416 39.7861 27.2826C39.8508 27.2532 39.9098 27.2279 39.959 27.2094C39.994 27.1961 40.0649 27.1696 40.1338 27.1654L40.2383 27.1722ZM38.1523 30.142C35.9904 31.267 33.9277 32.0083 31.8691 32.3939L30.9727 32.5609L30.9756 36.3754C30.9771 38.6224 31.0184 40.0022 31.1719 41.0619C31.3234 42.1082 31.5845 42.8472 32.041 43.809C33.3178 46.4991 35.9379 49.2361 38.79 50.8461L40.1738 51.6273L41.1172 51.1488C43.8082 49.7827 46.7603 46.9376 48.042 44.4847C48.6402 43.34 48.9761 42.5086 49.1689 41.391C49.3641 40.2601 49.4141 38.8262 49.4141 36.4701V32.5521L48.1514 32.2806C46.1215 31.842 43.9103 31.0211 41.7686 29.9144C41.2913 29.6679 40.8546 29.4448 40.5352 29.2865C40.3752 29.2072 40.2456 29.1458 40.1562 29.1039C40.1535 29.1026 40.1511 29.1002 40.1484 29.099C39.8373 29.262 39.0479 29.6759 38.1523 30.142ZM22.334 0.144903C23.4695 -0.168666 24.7145 0.0467035 25.7568 0.598028C26.7989 1.14924 27.671 2.0541 28.0352 3.16346L28.1689 3.57166H29.3262C30.2315 3.57168 30.9923 3.6763 31.4668 3.90272C31.8277 4.07512 32.1551 4.3776 32.3926 4.70545C32.5997 4.99155 32.7623 5.33158 32.7969 5.65955C32.8574 5.67545 32.9565 5.69727 33.1143 5.71424C33.5494 5.76099 34.3064 5.7872 35.5889 5.81287C37.1017 5.84309 37.9017 5.85914 38.4014 5.93592C38.6611 5.97586 38.8565 6.03488 39.0371 6.12635C39.2113 6.21461 39.3607 6.32854 39.5234 6.4535C39.8422 6.69817 40.1383 6.90679 40.3574 7.21131C40.5847 7.52726 40.7174 7.92408 40.8037 8.53162C40.9736 9.72803 40.9783 11.905 41.0078 16.309C41.0305 19.69 41.0343 21.6897 41.0029 22.8832C40.9873 23.4783 40.9628 23.8844 40.9258 24.1644C40.8901 24.4336 40.8385 24.6364 40.7314 24.7816C40.6248 24.9262 40.485 25.0938 40.2822 25.1488C40.0598 25.209 39.8647 25.1107 39.7236 25.0238C39.6525 24.9799 39.5817 24.9191 39.5225 24.8256C39.4674 24.7386 39.4303 24.6355 39.4023 24.5189C39.3476 24.2906 39.3113 23.9398 39.2832 23.3842C39.2265 22.2632 39.198 20.2152 39.1553 16.4164L39.0654 8.40565L38.6553 8.05213C38.5335 7.94684 38.4572 7.88652 38.3711 7.84315C38.2879 7.80134 38.1785 7.76652 37.9893 7.74061C37.5928 7.68642 36.9297 7.68104 35.6035 7.68104C34.8497 7.68104 34.1481 7.67575 33.625 7.66736C33.3639 7.66318 33.1456 7.65831 32.9873 7.65272C32.9622 7.65183 32.9375 7.64975 32.915 7.64881C32.9113 7.6652 32.9063 7.68332 32.9023 7.70252C32.8832 7.79601 32.8638 7.91087 32.8467 8.04139L32.8027 8.47596C32.7638 8.96761 32.7195 9.31748 32.6152 9.5951C32.5032 9.89326 32.3295 10.0887 32.0918 10.2943L31.5791 10.7387L31.4932 10.8129H15.5361L14.8682 10.2133C14.6107 9.98197 14.4229 9.77533 14.3008 9.48865C14.1836 9.21335 14.138 8.88781 14.1016 8.44568L14.0381 7.68104H11.4902C10.6566 7.68104 9.91777 7.70221 9.36328 7.7367C9.08607 7.75395 8.85829 7.77351 8.68945 7.79627C8.6049 7.80769 8.53821 7.81964 8.49023 7.83045C8.43615 7.84266 8.42587 7.84886 8.43652 7.84315C8.31125 7.91058 8.25985 7.93592 8.21289 7.97889C8.17704 8.01183 8.13062 8.07006 8.08301 8.21229C7.97951 8.5218 7.90072 9.12762 7.85254 10.4183C7.75702 12.9773 7.77963 18.0712 7.81738 28.4545C7.83689 33.8204 7.86643 38.7365 7.89844 42.3334C7.91444 44.1318 7.93105 45.6004 7.94727 46.6303C7.95537 47.145 7.96295 47.5496 7.9707 47.8305C7.97459 47.9711 7.9788 48.0797 7.98242 48.1547C7.98417 48.1908 7.98493 48.2171 7.98633 48.2347C8.01324 48.3181 8.03053 48.3598 8.05176 48.391C8.0688 48.416 8.09814 48.447 8.17285 48.4828C8.34819 48.5667 8.70485 48.644 9.48047 48.7006C11.0101 48.812 13.9772 48.838 19.8604 48.8861C25.1848 48.9297 28.008 48.9571 29.5059 49.0131C30.2481 49.0408 30.6876 49.076 30.9482 49.1293C31.0761 49.1555 31.1979 49.1928 31.2939 49.2611C31.4124 49.3454 31.464 49.4557 31.4834 49.557C31.5006 49.6469 31.5326 49.7859 31.5303 49.9105C31.5273 50.0627 31.4755 50.2243 31.3262 50.3529C31.1976 50.4634 31.0203 50.5272 30.8184 50.5726C30.6097 50.6196 30.3352 50.655 29.9795 50.682C28.5623 50.7896 25.6502 50.7855 19.7754 50.7855H8.66699L8.60059 50.7494L7.80371 50.3256C7.20452 50.0068 6.77271 49.5741 6.45605 48.9721L6.03516 48.1693L6 48.1029V8.35975L6.44336 7.5658C6.63507 7.2228 6.8262 6.93076 7.06445 6.69373C7.3076 6.45187 7.59026 6.27722 7.95312 6.15174C8.65365 5.90967 9.67693 5.84597 11.335 5.80897L14.0791 5.74744L14.3643 5.15369C14.6404 4.57811 15.0036 4.16491 15.5586 3.90858C16.0966 3.66017 16.7867 3.57285 17.6875 3.57264C18.0331 3.57254 18.2859 3.57216 18.4756 3.56385C18.67 3.55531 18.7697 3.53867 18.8232 3.52088C18.8403 3.51519 18.8477 3.51047 18.8496 3.50916C18.85 3.50858 18.851 3.50721 18.8516 3.50623C18.8662 3.48072 18.8813 3.43196 18.9141 3.29725C19.2671 1.84408 20.648 0.610503 22.334 0.144903ZM44.7578 36.0092C44.8563 35.9967 44.9414 36.0233 44.999 36.0492C45.0587 36.0762 45.1117 36.1131 45.1553 36.1488C45.2426 36.2203 45.3238 36.3127 45.3896 36.4056C45.4556 36.4988 45.5156 36.606 45.5557 36.7123C45.5848 36.7898 45.6244 36.921 45.5967 37.057L45.5811 37.1156C45.5637 37.1641 45.5352 37.2082 45.5215 37.2289C45.5027 37.2573 45.4796 37.2898 45.4541 37.3236C45.4028 37.3917 45.3324 37.4784 45.249 37.5795C45.0815 37.7824 44.85 38.0529 44.5762 38.3666C44.0275 38.9952 43.3034 39.8049 42.5732 40.6088C41.8432 41.4125 41.105 42.2131 40.5273 42.8246C40.2389 43.1299 39.9882 43.3895 39.7988 43.5795C39.7045 43.674 39.6231 43.7533 39.5586 43.8129C39.5266 43.8424 39.4964 43.869 39.4697 43.891C39.4478 43.9091 39.4124 43.9391 39.373 43.9603C39.2394 44.0323 39.0873 44.0586 38.915 44.016C38.763 43.9782 38.6102 43.8906 38.4502 43.7728C38.1287 43.5362 37.6647 43.0973 36.9375 42.3803C36.3229 41.7742 35.883 41.3083 35.5996 40.9574C35.4585 40.7827 35.3477 40.6272 35.2744 40.4896C35.2066 40.3621 35.1435 40.2012 35.167 40.0365C35.198 39.82 35.2732 39.5756 35.4785 39.4359C35.7007 39.2847 35.9576 39.3311 36.165 39.4183C36.3776 39.5078 36.6178 39.671 36.8848 39.89C37.1557 40.1123 37.4712 40.4063 37.834 40.7689L39.0137 41.9476L41.4238 39.2406L42.46 38.0873C42.7848 37.7296 43.0836 37.4033 43.3408 37.1273C43.5976 36.8518 43.8143 36.624 43.9746 36.4613C44.0543 36.3804 44.1228 36.3134 44.1758 36.264C44.2019 36.2397 44.2281 36.2173 44.251 36.1986C44.2628 36.1889 44.3071 36.1519 44.3613 36.1293L44.5654 36.0551C44.6361 36.0331 44.7055 36.0158 44.7578 36.0092ZM16.8545 35.1351C17.0466 35.0074 17.2725 34.9238 17.5107 35.0013C17.7283 35.0723 17.8715 35.2538 17.9746 35.4183C18.0732 35.5759 18.0685 35.7503 18.0234 35.9086C17.9803 36.0597 17.8916 36.2313 17.7686 36.4281C17.5201 36.8253 17.0761 37.4131 16.3711 38.3031C15.8155 39.0047 15.3353 39.571 14.9648 39.9642C14.7803 40.16 14.6171 40.3191 14.4824 40.431C14.4156 40.4865 14.3489 40.5363 14.2852 40.5736C14.232 40.6047 14.1368 40.6537 14.0254 40.6537C13.9383 40.6536 13.8604 40.6251 13.8096 40.6029C13.753 40.5781 13.6947 40.5456 13.6387 40.5101C13.526 40.4387 13.3967 40.3413 13.2617 40.2299C12.9899 40.0055 12.6704 39.7048 12.3662 39.3959C12.0621 39.087 11.7667 38.7626 11.5459 38.4867C11.436 38.3493 11.3388 38.2182 11.2686 38.1039C11.2336 38.047 11.2019 37.9881 11.1777 37.931C11.156 37.8797 11.129 37.8028 11.1289 37.7172C11.1289 37.5731 11.182 37.4286 11.2422 37.3168C11.3047 37.2006 11.3947 37.0831 11.502 36.9935C11.6376 36.8805 11.7999 36.81 11.9844 36.807C12.1628 36.8043 12.3341 36.8648 12.4922 36.9564C12.8003 37.1352 13.1324 37.4763 13.5029 37.9467C13.6584 38.1441 13.811 38.3219 13.9307 38.4476C13.9378 38.4551 13.9464 38.4621 13.9531 38.4691C14.0311 38.3839 14.1313 38.2712 14.248 38.1342C14.5303 37.8028 14.9059 37.3444 15.3037 36.8383L15.7969 36.2221C15.9466 36.0398 16.0823 35.8798 16.2061 35.7416C16.4504 35.4687 16.6629 35.2626 16.8545 35.1351ZM23.4678 36.6996C24.1444 36.6999 24.8211 36.7259 25.3418 36.7787C25.6003 36.8049 25.8308 36.8387 26.0068 36.8822C26.0937 36.9037 26.1803 36.9304 26.2539 36.9662C26.3104 36.9936 26.4348 37.062 26.4893 37.2035C26.5465 37.3534 26.5411 37.519 26.5117 37.6547C26.4814 37.7939 26.4192 37.9403 26.3213 38.059C26.2513 38.1438 26.1547 38.1912 26.0889 38.2181C26.0141 38.2487 25.9274 38.2736 25.8369 38.2943C25.6546 38.3361 25.4227 38.3683 25.165 38.3939C24.6472 38.4454 23.9904 38.4714 23.3389 38.4711C22.6875 38.4708 22.0314 38.4438 21.5137 38.392C21.2563 38.3662 21.025 38.3342 20.8428 38.2924C20.7521 38.2715 20.6647 38.2459 20.5898 38.2152C20.524 38.1882 20.4273 38.1407 20.3574 38.056C20.2613 37.9395 20.1515 37.7839 20.1514 37.5863C20.1515 37.3885 20.2612 37.2322 20.3574 37.1156C20.4292 37.0288 20.5296 36.9822 20.5967 36.9555C20.6738 36.9247 20.7639 36.8993 20.8584 36.8783C21.0485 36.8361 21.2912 36.8028 21.5615 36.7767C22.1041 36.7245 22.791 36.6993 23.4678 36.6996ZM17.3721 24.8168C17.6454 24.8618 17.8406 25.0739 17.9844 25.3031C18.0722 25.4431 18.0836 25.599 18.0518 25.7494C18.0218 25.8901 17.9516 26.0424 17.8574 26.2055C17.668 26.5331 17.3283 26.9958 16.8027 27.6683C15.9147 28.8047 15.3529 29.5003 14.9688 29.9115C14.6043 30.3016 14.3266 30.5226 14.0049 30.5228C13.9189 30.5228 13.8399 30.4977 13.7822 30.474C13.7207 30.4487 13.6579 30.4154 13.5977 30.3783C13.4769 30.304 13.3422 30.2018 13.2031 30.0863C12.9236 29.8542 12.6033 29.5445 12.3047 29.2279C12.0063 28.9116 11.7225 28.58 11.5195 28.3002C11.4191 28.1616 11.3312 28.0274 11.2725 27.9086C11.2434 27.8496 11.2162 27.7834 11.2002 27.7172C11.1859 27.6578 11.1704 27.555 11.2109 27.4486C11.2806 27.2663 11.3812 27.0931 11.5371 26.9779C11.7066 26.8528 11.9042 26.8237 12.1016 26.8656C12.286 26.9049 12.4719 27.0047 12.6553 27.1361C12.842 27.27 13.0469 27.4518 13.2715 27.6742C13.5053 27.9059 13.7281 28.1149 13.8975 28.265C13.9316 28.2953 13.9646 28.3217 13.9932 28.3461C14.0555 28.2772 14.1345 28.1898 14.2236 28.0853C14.4629 27.8048 14.781 27.4158 15.1191 26.9867C15.7929 26.1318 16.4881 25.2819 16.6582 25.1107C16.8435 24.9244 17.086 24.7699 17.3721 24.8168ZM25.5166 26.641C27.5995 26.6629 28.7809 26.6833 29.4629 26.7347C29.8008 26.7602 30.0418 26.7949 30.2158 26.851C30.4074 26.9127 30.5373 27.0068 30.627 27.1498C30.7096 27.2817 30.7817 27.4356 30.7803 27.6058C30.7785 27.7927 30.6911 27.9385 30.5811 28.0492C30.542 28.0884 30.4996 28.1099 30.4775 28.1205C30.4524 28.1325 30.4275 28.1405 30.4072 28.1469C30.3666 28.1596 30.3212 28.1707 30.2764 28.1791C30.1851 28.196 30.0658 28.2112 29.9287 28.225C29.6527 28.2528 29.2762 28.2784 28.8359 28.3002C27.9538 28.3439 26.7983 28.3754 25.6377 28.392C24.4771 28.4085 23.3072 28.4092 22.3965 28.391C21.9419 28.3819 21.5486 28.3685 21.252 28.349C21.104 28.3393 20.9754 28.3274 20.874 28.3138C20.8237 28.3071 20.7756 28.2997 20.7334 28.2904C20.6964 28.2822 20.6433 28.2683 20.5938 28.2435C20.3448 28.1188 20.1515 27.9102 20.1191 27.6293C20.0878 27.3562 20.2192 27.1036 20.416 26.9056C20.4921 26.8292 20.5909 26.7925 20.6592 26.7719C20.737 26.7484 20.8302 26.7308 20.9346 26.7162C21.1446 26.6869 21.4375 26.6666 21.8232 26.6527C22.5969 26.625 23.7827 26.6227 25.5166 26.641ZM17.2021 14.9105C17.3811 14.8676 17.547 14.908 17.6865 15.0092C17.808 15.0974 17.9035 15.2269 17.9844 15.3558C18.0772 15.5039 18.08 15.6681 18.043 15.8197C18.0078 15.9635 17.9311 16.1218 17.8271 16.2972C17.6176 16.6506 17.2442 17.1586 16.6631 17.9047C15.8375 18.9647 15.2845 19.6559 14.9121 20.0824C14.7271 20.2943 14.5784 20.4502 14.458 20.5551C14.398 20.6073 14.3361 20.6539 14.2744 20.6888C14.2158 20.722 14.1317 20.76 14.0322 20.7601C13.9525 20.7601 13.8907 20.7289 13.877 20.7221C13.8517 20.7096 13.8277 20.6941 13.8096 20.682C13.7728 20.6575 13.7319 20.6255 13.6895 20.5912C13.6024 20.5208 13.4893 20.4222 13.3613 20.3051C13.1044 20.0699 12.7709 19.7477 12.4229 19.3949C11.9872 18.9535 11.668 18.5987 11.4668 18.3226C11.3669 18.1855 11.2866 18.0549 11.2373 17.934C11.1914 17.8212 11.1502 17.6617 11.2109 17.5023L11.2695 17.3676C11.3348 17.2352 11.4212 17.1135 11.54 17.0267C11.713 16.9008 11.9145 16.8763 12.1133 16.9222C12.299 16.9653 12.4872 17.0696 12.6748 17.2064C12.8657 17.3457 13.0772 17.5329 13.3105 17.764C13.5708 18.0218 13.7957 18.2133 13.959 18.3246C13.9817 18.34 14.0034 18.3526 14.0215 18.3637C14.1919 18.1529 14.5205 17.7455 14.8574 17.3187C15.3008 16.7573 15.957 15.9832 16.3203 15.5941C16.4909 15.4115 16.6415 15.2609 16.7754 15.1498C16.9049 15.0424 17.0469 14.9478 17.2021 14.9105ZM27.9229 16.6508C31.1144 16.6508 32.901 16.658 33.9014 16.6996C34.3967 16.7202 34.721 16.75 34.9326 16.7972C35.1126 16.8375 35.2906 16.9074 35.3877 17.0707L35.4238 17.1459L35.4795 17.306C35.4963 17.3631 35.5098 17.4236 35.5156 17.4838C35.5287 17.6188 35.5038 17.7734 35.3887 17.9076C35.2856 18.0273 35.1385 18.0966 34.9873 18.143C34.8315 18.1906 34.6333 18.2255 34.3896 18.2523C33.4237 18.3588 31.4977 18.3656 27.8281 18.3656C24.8275 18.3656 23.0604 18.3556 22.0195 18.3158C21.5016 18.296 21.1493 18.2674 20.9102 18.2269C20.691 18.1898 20.4841 18.132 20.3574 17.9789C20.2612 17.8622 20.1514 17.7051 20.1514 17.5072C20.1516 17.3097 20.2613 17.154 20.3574 17.0375C20.4846 16.8834 20.6931 16.8255 20.9141 16.7885C21.1553 16.748 21.5109 16.7194 22.0352 16.6996C23.089 16.6599 24.8804 16.6508 27.9229 16.6508ZM24.7529 2.016C23.8703 1.64533 22.7035 1.72745 21.8926 2.21619C21.5458 2.42514 21.1985 2.7795 20.9385 3.17029C20.6742 3.5676 20.5314 3.95619 20.5312 4.224C20.5312 4.44038 20.4984 4.65651 20.3867 4.84608C20.2714 5.04158 20.093 5.17348 19.8711 5.26209C19.4551 5.4281 18.8056 5.47106 17.8691 5.47108C17.3035 5.47108 16.8498 5.49093 16.5254 5.52674C16.3629 5.54469 16.2403 5.56615 16.1553 5.58826C16.1259 5.59593 16.1048 5.60272 16.0908 5.60779C16.0835 5.6284 16.0735 5.65682 16.0645 5.69471C16.0408 5.79346 16.0199 5.93031 16.002 6.09705C15.9662 6.42914 15.9473 6.85424 15.9473 7.28358C15.9473 7.71326 15.9662 8.13974 16.002 8.47205C16.0199 8.63878 16.0408 8.77569 16.0645 8.8744C16.0693 8.89431 16.0757 8.91119 16.0801 8.92615C16.0944 8.92849 16.1107 8.93241 16.1289 8.93494C16.2434 8.95085 16.4093 8.9671 16.623 8.98182C17.0491 9.01115 17.6451 9.03525 18.3564 9.05506C19.7784 9.09465 21.6504 9.11463 23.5234 9.11463C25.3964 9.11463 27.2685 9.09464 28.6904 9.05506C29.4018 9.03525 29.9978 9.01115 30.4238 8.98182C30.6375 8.9671 30.8035 8.95085 30.918 8.93494C30.9353 8.93253 30.951 8.92838 30.9648 8.92615C30.9678 8.91606 30.9725 8.90534 30.9756 8.89295C30.9975 8.80473 31.0186 8.68154 31.0361 8.52967C31.0711 8.22716 31.0914 7.83668 31.0947 7.43494C31.098 7.03365 31.0837 6.628 31.0537 6.29529C31.0387 6.12865 31.0199 5.98365 30.998 5.86951C30.9748 5.74832 30.9523 5.68602 30.9414 5.66541C30.9128 5.61178 30.8961 5.59569 30.8809 5.58533C30.8594 5.57102 30.8085 5.54677 30.6855 5.52576C30.4276 5.48178 29.9791 5.47108 29.127 5.47108C28.6076 5.47108 28.1983 5.46729 27.8789 5.44471C27.5641 5.42244 27.3007 5.38036 27.0908 5.28162C26.8619 5.17373 26.7158 5.00794 26.6182 4.79334C26.5293 4.59784 26.4787 4.35607 26.4297 4.09217C26.3643 3.74051 26.1296 3.29436 25.8008 2.88709C25.4719 2.4798 25.0843 2.15519 24.7529 2.016Z" fill="currentColor"/>
</svg>
