<svg width="54" height="54" viewBox="0 0 54 54" fill="none" xmlns="http://www.w3.org/2000/svg">
<g clip-path="url(#clip0_5001_20374)">
<path fill-rule="evenodd" clip-rule="evenodd" d="M5.5029 0.111846C4.12685 0.293991 2.8993 0.90128 1.89123 1.89859C1.13513 2.64658 0.68045 3.37041 0.300868 4.42995L0.0553372 5.1155L0.0242239 14.9399C-0.0103698 25.8534 -0.0220769 25.6379 0.680029 27.053C1.34786 28.399 2.3457 29.3705 3.70392 29.9968C4.78392 30.4949 5.4218 30.5862 7.82016 30.5862H9.90591L9.93649 33.9706L9.96708 37.3551L10.2161 37.5565C10.3574 37.671 10.6282 37.7581 10.8425 37.7581C11.1974 37.7581 11.4335 37.5449 14.8156 34.1721L18.4113 30.5862H19.0671H19.7229V29.6897V28.7932H18.886C18.4258 28.7932 17.9155 28.8429 17.7523 28.9037C17.589 28.9644 16.1621 30.3049 14.5813 31.8824L11.7073 34.7507V32.2432C11.7073 29.4062 11.6517 29.1158 11.0701 28.9129C10.8496 28.8362 9.79337 28.7932 8.12212 28.7932C5.83967 28.7932 5.44584 28.7685 4.93622 28.5932C3.83492 28.2143 2.91048 27.4569 2.37038 26.4912C1.78133 25.438 1.78545 25.5232 1.81698 15.0016L1.84599 5.32643L2.09458 4.71007C2.56644 3.54 3.72829 2.42921 4.89941 2.02842C5.39237 1.85967 6.53175 1.84396 20.2503 1.81654C29.7193 1.79766 35.3146 1.82487 35.7501 1.89205C37.3454 2.13801 38.6979 3.23319 39.3227 4.78474C39.4787 5.17234 39.5042 6.03276 39.5511 12.4983L39.6038 19.7757L40.4739 19.8062L41.344 19.8369V12.7187C41.344 7.92835 41.306 5.41766 41.2275 5.04156C40.7862 2.92607 39.1031 1.06898 36.9671 0.340714L36.1233 0.0529949L21.1468 0.0383347C12.9097 0.0302136 5.86994 0.0633308 5.5029 0.111846ZM7.17216 8.12135V8.9651H16.1897H25.2073V8.12135V7.2776H16.1897H7.17216V8.12135ZM28.7933 8.12135V8.9651H31.4827H34.1722V8.12135V7.2776H31.4827H28.7933V8.12135ZM7.19431 13.5266L7.22489 14.3967L20.6985 14.4235L34.1722 14.4503V13.5534V12.6565H20.6679H7.16361L7.19431 13.5266ZM7.17216 18.9319V19.8284H11.6546H16.137V18.9319V18.0354H11.6546H7.17216V18.9319ZM19.8284 18.9319V19.8284H27.0003H34.1722V18.9319V18.0354H27.0003H19.8284V18.9319ZM26.5784 21.7854C24.4637 22.2395 22.6809 23.8319 21.9207 25.9456L21.6741 26.6311L21.6429 33.803C21.6216 38.6808 21.6488 41.1941 21.7279 41.6604C22.0954 43.8279 23.8652 45.7953 26.1038 46.5246C26.8256 46.7598 26.961 46.7659 32.1683 46.8022L37.4944 46.8392L41.0494 50.3881C44.3887 53.7218 44.627 53.937 44.9804 53.937C45.2287 53.937 45.4364 53.8571 45.5915 53.7022C45.8231 53.4707 45.8269 53.4195 45.857 50.1639L45.8876 46.8605L47.2809 46.7933C48.0471 46.7562 48.9589 46.6499 49.3069 46.557C51.4219 45.9924 53.1374 44.2662 53.754 42.0823C53.9332 41.4476 53.9475 40.8611 53.9475 34.1721C53.9475 27.457 53.9338 26.9029 53.7535 26.3147C53.0382 23.9816 51.2183 22.2534 48.9769 21.7785C47.9257 21.5559 27.6183 21.562 26.5784 21.7854ZM7.17216 24.3108V25.2073H13.4475H19.7229V24.3108V23.4143H13.4475H7.17216V24.3108ZM26.6924 23.5818C25.2901 23.9589 24.1187 25.0803 23.6275 26.5158C23.4219 27.1166 23.4143 27.3902 23.4143 34.2225C23.4143 40.5255 23.4335 41.3627 23.5882 41.8165C24.1507 43.4677 25.521 44.6629 27.1585 44.9307C27.5106 44.9883 30.0814 45.0345 32.955 45.0348L38.1187 45.0354L41.1025 48.0125L44.0862 50.9894V48.3866C44.0862 45.6663 44.1292 45.3643 44.5461 45.1578C44.6702 45.0963 45.6261 45.0252 46.6702 44.9998C47.9038 44.9696 48.7164 44.9021 48.9905 44.807C50.4523 44.2996 51.4326 43.3223 51.9884 41.8186C52.227 41.1726 52.2874 28.1088 52.0567 27.0027C51.7122 25.3505 50.5839 24.1295 48.9246 23.613C48.3166 23.4238 47.7852 23.4146 37.7751 23.4213C28.9179 23.4271 27.174 23.4524 26.6924 23.5818ZM27.0003 28.846V29.7424H33.2757H39.5511V28.846V27.9495H33.2757H27.0003V28.846ZM43.2425 28.846V29.7424H45.8792H48.5159V28.846V27.9495H45.8792H43.2425V28.846ZM27.0003 34.2249V35.1214H37.7581H48.5159V34.2249V33.3284H37.7581H27.0003V34.2249ZM27.0003 39.6038V40.5003H37.7581H48.5159V39.6038V38.7073H37.7581H27.0003V39.6038Z" fill="#8246FF"/>
</g>
<defs>
<clipPath id="clip0_5001_20374">
<rect width="54" height="54" fill="white"/>
</clipPath>
</defs>
</svg>
