<svg width="54" height="54" viewBox="0 0 54 54" fill="none" xmlns="http://www.w3.org/2000/svg">
<path fill-rule="evenodd" clip-rule="evenodd" d="M20.3085 0.149819C19.1088 0.524761 18.4148 1.20472 16.9561 3.43422C15.6375 5.44973 15.5693 5.49687 12.94 6.21522C11.0815 6.72295 10.1809 7.13565 9.54637 7.77004C8.58714 8.72939 8.28929 9.98373 8.44528 12.4075C8.61002 14.9662 8.51088 15.2872 6.98401 17.1374C5.33015 19.1417 4.95015 19.9524 5.00499 21.3599C5.03358 22.0935 5.0918 22.3165 5.43204 22.9947C5.65015 23.4295 6.30405 24.3683 6.89721 25.0983C7.48636 25.8234 8.08373 26.6656 8.22464 26.9698C8.46521 27.4894 8.47882 27.6174 8.44865 29.0792C8.37356 32.7213 8.50055 33.4116 9.43384 34.4328C10.1198 35.1834 11.0496 35.6372 12.8955 36.1225C14.79 36.6204 15.0279 36.7105 14.9702 36.9079C14.9443 36.9965 13.8918 39.537 12.6312 42.5534C11.3707 45.5698 10.2728 48.2243 10.1916 48.4522C9.92026 49.2137 10.3574 49.8838 11.1252 49.8833C11.3158 49.8832 12.7017 49.5272 14.205 49.0923C15.7085 48.6573 16.9904 48.3015 17.0537 48.3015C17.1171 48.3015 17.8331 49.5159 18.6446 51.0002C20.1471 53.7484 20.335 53.9968 20.9112 53.9968C21.033 53.9968 21.2648 53.9284 21.4265 53.8448C21.7665 53.669 21.6198 53.9627 24.7091 47.2732C25.948 44.5903 26.9917 42.3952 27.0283 42.3952C27.0649 42.3952 28.1087 44.5903 29.3476 47.2732C32.4369 53.9627 32.2902 53.669 32.6302 53.8448C32.7919 53.9284 33.0237 53.9968 33.1455 53.9968C33.7217 53.9968 33.9095 53.7484 35.4121 51.0002C36.2236 49.5159 36.9386 48.3015 37.0008 48.3015C37.0631 48.3015 38.3449 48.6568 39.8494 49.091C41.354 49.5252 42.7409 49.8812 42.9315 49.882C43.6983 49.8853 44.1366 49.214 43.8651 48.4522C43.7838 48.2243 42.686 45.5698 41.4255 42.5534C40.1649 39.537 39.1124 36.9965 39.0865 36.9079C39.0288 36.7105 39.2667 36.6204 41.1612 36.1225C43.015 35.6351 43.9361 35.1841 44.6313 34.4236C45.5558 33.412 45.699 32.615 45.5961 29.051C45.5555 27.6437 45.5664 27.5441 45.8209 26.9944C45.9679 26.6767 46.5703 25.8234 47.1595 25.0983C47.7526 24.3683 48.4065 23.4295 48.6247 22.9947C48.9979 22.2507 49.0186 22.1561 49.0186 21.1944C49.0186 20.2108 49.0048 20.1518 48.5715 19.2902C48.2986 18.7474 47.7504 17.9498 47.1639 17.2424C46.6356 16.6052 46.0853 15.8823 45.941 15.636C45.5783 15.0172 45.4954 14.2273 45.6057 12.4424C45.8418 8.62402 44.9655 7.26653 41.6885 6.37353C38.4518 5.4915 38.4422 5.48538 37.1068 3.44224C35.8487 1.51712 35.2312 0.840429 34.326 0.394823C33.6865 0.0799991 33.5406 0.050046 32.6731 0.0548975C31.6484 0.0606983 31.2912 0.157835 28.9795 1.05928C27.9788 1.44951 27.7106 1.51153 27.0283 1.51079C26.3204 1.51005 26.0723 1.44656 24.6654 0.906558C22.2947 -0.00342666 21.3332 -0.170489 20.3085 0.149819ZM20.58 2.31172C20.1155 2.56516 19.837 2.91215 18.6711 4.69014C17.1535 7.00444 16.5155 7.45216 13.6466 8.21649C12.7683 8.45053 11.8664 8.7355 11.6422 8.84983C11.1118 9.12046 10.709 9.60773 10.6097 10.0985C10.5239 10.5235 10.522 10.681 10.5711 13.2858C10.6188 15.8101 10.4775 16.1767 8.51521 18.619C7.38205 20.0293 7.09475 20.5473 7.09475 21.1801C7.09475 21.8082 7.44027 22.4109 8.67615 23.9382C10.4865 26.1754 10.7592 27.0216 10.5819 29.8532C10.4783 31.5084 10.5693 32.488 10.8649 32.8974C11.161 33.3076 12.0503 33.6946 13.7806 34.166C14.6444 34.4014 15.6577 34.7403 16.0321 34.919C16.926 35.3456 17.7273 36.1654 18.5908 37.537C19.4484 38.899 20.0291 39.6353 20.4956 39.9523C21.0444 40.325 21.912 40.2369 23.3897 39.6584C26.6508 38.3819 27.394 38.3817 30.667 39.6561C31.8162 40.1035 32.6766 40.268 33.1914 40.1388C33.6749 40.0174 34.2237 39.4092 35.2381 37.8711C36.8926 35.3623 37.4857 34.9263 40.2816 34.1645C42.0006 33.6962 42.896 33.3074 43.1881 32.9025C43.4976 32.4732 43.5844 31.5758 43.4781 29.8997C43.2977 27.0543 43.57 26.1747 45.289 24.0476C46.6009 22.4242 46.9619 21.8117 46.9619 21.2092C46.9619 20.5463 46.6865 20.044 45.5415 18.619C43.5783 16.1756 43.4365 15.8081 43.484 13.2858C43.5337 10.648 43.5322 10.5206 43.447 10.0985C43.3477 9.60773 42.9448 9.12046 42.4144 8.84983C42.1903 8.7355 41.2827 8.44968 40.3975 8.2147C38.4246 7.69084 37.4877 7.25662 36.7842 6.53975C36.4942 6.24423 35.7585 5.25735 35.1494 4.34674C34.0618 2.72083 33.6524 2.28989 33.0516 2.13917C32.6514 2.03866 31.6928 2.27354 30.3333 2.8051C29.6604 3.06825 28.7261 3.38054 28.257 3.49919C26.845 3.8562 26.3407 3.76181 22.8096 2.47878C21.7436 2.0915 21.0753 2.0414 20.58 2.31172ZM25.7627 5.86865C22.1374 6.23547 18.9628 7.6786 16.4554 10.0995C14.2423 12.2364 12.8819 14.565 12.1473 17.4738C10.8466 22.6243 12.3657 28.1584 16.1088 31.9058C18.2246 34.024 20.3966 35.2895 23.1563 36.0123C24.7186 36.4214 25.7172 36.5217 27.591 36.4575C29.4483 36.3939 30.2946 36.2463 31.9486 35.6971C35.8037 34.4171 39.1257 31.4563 40.8872 27.7305C43.3305 22.5624 42.72 16.5618 39.2819 11.9546C38.0347 10.2832 35.7973 8.39779 33.9614 7.47104C31.527 6.24212 28.3017 5.61173 25.7627 5.86865ZM25.5701 8.01694C19.624 8.76229 15.0724 13.053 13.9947 18.9284C13.733 20.3553 13.8309 22.9948 14.1974 24.3931C15.5486 29.5471 19.6384 33.3178 24.8537 34.2179C26.0688 34.4277 27.997 34.424 29.251 34.2097C34.0325 33.3923 38.0248 29.9654 39.5706 25.3515C40.4323 22.7795 40.4363 19.5354 39.5807 16.9773C38.3227 13.2156 35.2286 10.058 31.4827 8.71283C29.7912 8.10533 27.2501 7.80632 25.5701 8.01694ZM26.7119 10.6174C26.3331 10.7593 26.087 11.1565 24.9156 13.5161C24.2336 14.8898 23.6578 16.0675 23.6359 16.133C23.6125 16.2032 22.4151 16.422 20.7163 16.6662C19.1323 16.8939 17.7806 17.1116 17.7126 17.1499C17.2788 17.3941 17.1143 17.6629 17.1128 18.1294L17.1114 18.612L19.2783 20.7214L21.4451 22.8308L20.9679 25.573C20.7055 27.0812 20.4904 28.473 20.49 28.666C20.489 29.1444 20.9741 29.6335 21.4498 29.6335C21.6861 29.6335 22.6131 29.2044 24.4137 28.2613L27.0337 26.8891L29.647 28.2613C31.4517 29.2089 32.3672 29.6335 32.6055 29.6335C33.0826 29.6335 33.5677 29.1452 33.5667 28.666C33.5662 28.473 33.3514 27.0812 33.0891 25.573L32.6123 22.8308L34.7792 20.7214L36.9463 18.612L36.9443 18.1294C36.9425 17.6636 36.7772 17.3935 36.3459 17.1511C36.2788 17.1134 34.9267 16.8944 33.3413 16.6644C31.7558 16.4344 30.4445 16.2041 30.4273 16.1525C30.2699 15.6804 27.8556 10.9775 27.7029 10.8454C27.4766 10.6499 26.9491 10.5285 26.7119 10.6174ZM26.027 16.0386C25.5014 17.1099 24.991 18.0126 24.8639 18.0959C24.7394 18.1775 23.7397 18.3699 22.6425 18.5233C21.5452 18.6768 20.6122 18.8329 20.569 18.87C20.5259 18.9072 21.1745 19.6164 22.0103 20.4459C22.8461 21.2754 23.5574 22.0631 23.5907 22.1962C23.6241 22.3294 23.4924 23.369 23.298 24.5066C23.1036 25.6441 22.9693 26.5749 22.9997 26.5749C23.0299 26.5749 23.875 26.1478 24.8776 25.6257C26.0568 25.0118 26.819 24.6765 27.0359 24.6765C27.2531 24.6765 28.0123 25.0109 29.1905 25.6257C30.191 26.1478 31.0328 26.5749 31.0609 26.5749C31.0891 26.5749 30.953 25.6441 30.7587 24.5066C30.5643 23.369 30.4326 22.3294 30.466 22.1962C30.4993 22.0631 31.2106 21.2754 32.0464 20.4459C32.8822 19.6164 33.5308 18.9072 33.4877 18.87C33.4445 18.8329 32.5115 18.6768 31.4142 18.5233C30.317 18.3699 29.3173 18.1775 29.1928 18.0959C29.0657 18.0126 28.5553 17.1099 28.0297 16.0386C27.5145 14.9886 27.0639 14.1296 27.0283 14.1296C26.9928 14.1296 26.5422 14.9886 26.027 16.0386ZM14.8054 42.8327C13.8108 45.2197 13.0099 47.1833 13.0254 47.1965C13.041 47.2096 14.0267 46.9416 15.2158 46.6009C16.405 46.2601 17.5295 45.9814 17.7148 45.9813C17.916 45.9812 18.158 46.0768 18.3154 46.2185C18.4604 46.349 19.0591 47.3338 19.646 48.4069C20.2327 49.4801 20.7495 50.3952 20.7944 50.4407C20.8532 50.5002 24.5947 42.6139 25.0986 41.3685C25.1287 41.2938 24.8243 41.373 24.3854 41.554C23.0059 42.1229 22.2804 42.3056 21.3706 42.3131C20.628 42.3192 20.42 42.2772 19.8347 42.0034C18.9719 41.5996 18.2652 40.893 17.3777 39.5474C16.9954 38.9674 16.667 38.4929 16.6481 38.4929C16.6291 38.4929 15.7999 40.4458 14.8054 42.8327ZM36.692 39.5273C35.7645 40.934 35.1179 41.5841 34.2353 41.9971C33.0435 42.5548 31.909 42.4531 29.7873 41.5983C29.3034 41.4034 28.9308 41.3012 28.9592 41.3713C29.466 42.6225 33.2036 50.5001 33.2623 50.4407C33.3072 50.3952 33.824 49.4801 34.4107 48.4069C34.9976 47.3338 35.5963 46.349 35.7413 46.2185C35.8987 46.0768 36.1407 45.9812 36.3419 45.9813C36.5272 45.9814 37.6517 46.2601 38.8408 46.6009C40.03 46.9416 41.0157 47.2097 41.0312 47.1965C41.0596 47.1725 37.6254 38.8844 37.4738 38.6106C37.4171 38.5085 37.1819 38.7845 36.692 39.5273Z" fill="#8246FF"/>
</svg>
