<svg width="56" height="56" viewBox="0 0 56 56" fill="none" xmlns="http://www.w3.org/2000/svg">
<path fill-rule="evenodd" clip-rule="evenodd" d="M27.7315 1.95719C23.5056 2.25019 19.3159 3.67303 15.7553 6.02419C12.1233 8.42251 9.09348 11.8314 7.16659 15.6876C6.6749 16.6714 6.64129 16.8561 6.88963 17.2105C7.09917 17.5098 7.69514 17.5389 7.93644 17.2618C8.02727 17.1574 8.35746 16.5702 8.66997 15.9569C9.7997 13.7401 11.1683 11.9253 13.1858 9.96838C15.1021 8.10956 16.633 7.03035 19.083 5.81076C23.9095 3.40821 29.3034 2.74742 34.6335 3.90565C40.699 5.22367 46.2038 9.1645 49.5613 14.5922C52.8226 19.8644 53.8447 26.4498 52.3437 32.5188C51.5224 35.8398 49.8815 39.1177 47.722 41.7518C47.0142 42.6151 45.2543 44.3799 44.3893 45.0938C43.9022 45.4959 43.8034 45.535 43.4137 45.4809C43.1753 45.4478 42.3581 45.3631 41.5981 45.2925L40.216 45.1642V42.8543V40.5444L40.5141 40.4766C43.4009 39.8195 44.8507 39.1647 45.923 38.0337C47.1282 36.7625 47.9168 34.8511 48.0835 32.7975C48.1557 31.907 48.1508 31.8804 47.863 31.5926C47.5779 31.3075 47.5426 31.3005 46.7378 31.3728C46.2808 31.4139 45.6931 31.495 45.4318 31.5532C45.1705 31.6114 44.9414 31.6436 44.9225 31.6249C44.9038 31.606 45.105 31.415 45.3698 31.2004C46.8672 29.9861 47.8918 27.825 48.0885 25.4661C48.1465 24.7698 48.1266 24.5639 47.9791 24.339C47.8117 24.0833 47.7394 24.0639 46.9613 24.0655C46.5006 24.0664 45.8433 24.1331 45.5004 24.2138C45.1575 24.2945 44.8774 24.3303 44.8779 24.2934C44.8783 24.2565 45.057 24.1048 45.2751 23.9562C46.6816 22.9981 47.9136 20.441 48.0818 18.1307C48.1465 17.242 48.135 17.1637 47.9051 16.9217C47.6722 16.6765 47.6105 16.6663 46.7289 16.7277C45.4414 16.8172 44.5745 17.0562 43.2822 17.6777C42.4868 18.0603 41.9783 18.3943 41.4761 18.8641L40.777 19.518L41.3974 18.295C42.1396 16.8315 42.3257 16.062 42.2503 14.7677C42.1834 13.6201 41.792 12.529 41.0431 11.4024C40.4301 10.4802 39.8774 9.97196 39.4881 9.97196C38.8999 9.97196 37.6493 11.6873 37.1019 13.2448C36.8757 13.8885 36.8215 14.2501 36.8125 15.1751C36.8028 16.1709 36.8396 16.417 37.1067 17.1428C37.2746 17.5992 37.6283 18.3233 37.8926 18.752C38.1569 19.1807 38.3732 19.551 38.3732 19.5748C38.3732 19.5986 38.088 19.3378 37.7394 18.9954C36.3756 17.6558 33.9475 16.6965 31.9132 16.6935C31.054 16.6922 30.9573 16.8605 31.0277 18.236C31.1436 20.5015 32.2115 22.7182 33.7731 23.9348C34.0398 24.1427 34.2445 24.3262 34.228 24.3427C34.2116 24.3591 33.9058 24.304 33.5486 24.22C32.643 24.007 31.3921 24.0144 31.1724 24.234C30.9047 24.5019 30.9493 25.8876 31.2662 27.1364C31.7092 28.8831 32.704 30.4954 33.8689 31.355C34.3005 31.6735 34.3025 31.6781 33.9831 31.6142C33.8042 31.5785 33.2029 31.4888 32.6468 31.4149C31.777 31.2992 31.5954 31.3031 31.3461 31.4428C31.0735 31.5954 31.0545 31.6579 31.0249 32.4942C30.9473 34.6862 32.1452 37.3752 33.7329 38.5731C34.7658 39.3525 36.3783 40.0181 38.048 40.354L38.7526 40.4958L38.7818 42.8298L38.8109 45.1638L37.4263 45.287C34.7704 45.5232 32.2752 46.1559 30.5276 47.0363L29.6739 47.4664L28.8153 47.0348C27.0507 46.1474 24.6172 45.5225 22.0301 45.2923L20.5917 45.1642L20.6209 42.83L20.6501 40.4958L21.3546 40.354C23.2655 39.9695 25.1551 39.1114 26.0618 38.2164C27.4717 36.8249 28.4005 34.5591 28.4005 32.5118C28.4005 31.2909 28.0854 31.1462 26.1784 31.4907C25.7014 31.5768 25.2702 31.6484 25.2201 31.6495C25.1701 31.6507 25.3796 31.4536 25.6858 31.2115C27.1801 30.0304 28.2319 27.8116 28.3684 25.5531C28.4518 24.1704 28.3726 24.0628 27.2727 24.066C26.8497 24.0672 26.2109 24.1299 25.8532 24.2053L25.2028 24.3423L26.077 23.4714C27.4996 22.054 28.2451 20.3211 28.3681 18.1454C28.4281 17.085 28.422 17.0452 28.1743 16.8717C27.6626 16.5133 25.8729 16.7372 24.2479 17.363C23.2295 17.7552 21.9385 18.5965 21.4129 19.2104C21.0048 19.6872 20.8938 19.6823 21.2326 19.2025C21.9617 18.1702 22.6554 16.2064 22.6554 15.1751C22.6554 14.5884 22.3255 13.2185 22.0153 12.5173C21.4783 11.3033 20.3486 9.97196 19.8556 9.97196C19.2648 9.97196 18.0423 11.5727 17.5172 13.0338C16.7741 15.1019 16.9771 16.692 18.256 18.8199L18.7434 19.6307L17.9891 18.9324C16.5707 17.6192 14.2104 16.6927 12.2834 16.6927C11.8392 16.6927 11.6541 16.7458 11.4753 16.9245C11.2629 17.137 11.2488 17.2344 11.307 18.0898C11.4672 20.4443 12.6029 22.8398 14.0608 23.8986C14.3092 24.0788 14.5152 24.2565 14.5189 24.2934C14.5226 24.3303 14.245 24.2945 13.9023 24.2138C13.5595 24.1331 12.9021 24.0664 12.4414 24.0655C11.6627 24.0639 11.5911 24.0832 11.4231 24.3395C11.275 24.5655 11.2547 24.7759 11.3109 25.5048C11.4965 27.9135 12.64 30.212 14.2545 31.4222L14.5797 31.6658L14.2545 31.6039C14.0757 31.5699 13.4774 31.4845 12.9251 31.4143C11.9721 31.293 11.9058 31.2978 11.6244 31.5103C11.338 31.7263 11.3282 31.7673 11.3414 32.6978C11.3765 35.1539 12.7093 37.7319 14.564 38.9307C15.5174 39.547 16.7657 39.9931 18.8908 40.4771L19.191 40.5455L19.1617 42.8464L19.1325 45.1471L17.7775 45.2772C17.0323 45.3489 16.1576 45.4588 15.8337 45.5215L15.2449 45.6357L14.7332 45.2043C13.9555 44.5485 13.7152 44.4663 13.3571 44.7336C13.1388 44.8966 13.0622 45.0481 13.0622 45.3163C13.0622 45.6306 13.1587 45.7599 13.7878 46.2883C16.0982 48.2287 19.4542 49.971 22.6554 50.8918C26.2504 51.9259 30.7257 52.1082 34.4167 51.3705C42.8614 49.683 49.9768 43.5935 52.9549 35.5051C54.5995 31.0385 54.9075 25.7886 53.8012 21.0828C51.8485 12.7764 45.5657 5.90051 37.4602 3.199C34.3796 2.17225 30.9472 1.73411 27.7315 1.95719ZM19.4327 12.3838C18.767 13.4927 18.6047 14.0455 18.5972 15.2293C18.5905 16.3121 18.591 16.3145 19.1116 17.362C19.3982 17.9388 19.6949 18.4624 19.7708 18.5255C19.9647 18.6863 20.8613 16.9637 21.0843 16.0019C21.2725 15.1907 21.1905 14.4088 20.8131 13.4156C20.6014 12.8584 19.9726 11.8147 19.8487 11.8147C19.8079 11.8147 19.6207 12.0708 19.4327 12.3838ZM39.0994 12.4135C38.5109 13.3543 38.2197 14.3123 38.227 15.2835C38.234 16.2125 38.3947 16.7159 39.051 17.865C39.5705 18.7743 39.5359 18.7841 40.1616 17.5533C40.7131 16.4686 40.9048 15.6932 40.8332 14.838C40.763 13.9998 40.2646 12.6993 39.8008 12.1437L39.4963 11.779L39.0994 12.4135ZM12.7912 18.4472C12.7912 18.9231 13.1479 20.1273 13.5238 20.9202C14.2601 22.4731 15.4727 23.3857 17.6304 24.011C18.6862 24.317 18.8616 24.336 18.8612 24.1451C18.8604 23.7347 18.2612 21.8706 17.9234 21.2279C17.2334 19.9149 15.7201 18.833 13.9337 18.3757C13.0222 18.1423 12.7912 18.1568 12.7912 18.4472ZM25.604 18.4209C23.1543 19.1212 21.7803 20.4958 21.1543 22.8728C20.8015 24.2123 20.7922 24.2805 20.9611 24.2805C21.3153 24.2805 23.0926 23.7054 23.7946 23.3636C25.4297 22.5676 26.4997 20.9254 26.9229 18.5625C26.9836 18.2238 26.9725 18.2106 26.6364 18.2179C26.4441 18.2222 25.9796 18.3135 25.604 18.4209ZM32.466 18.6167C32.6188 19.5791 33.1187 20.8789 33.6302 21.6436C34.2445 22.5621 34.9701 23.133 36.1324 23.6125C36.9253 23.9395 38.4473 24.3509 38.5362 24.2621C38.6369 24.1614 38.0283 22.1384 37.6671 21.3731C37.1693 20.3185 36.4059 19.5773 35.2164 18.9936C34.3026 18.5453 33.2217 18.2102 32.6888 18.2102C32.4176 18.2102 32.4051 18.233 32.466 18.6167ZM44.979 18.5289C43.2152 19.1264 41.9742 20.1043 41.3782 21.3661C41.0726 22.0131 40.5412 23.7337 40.5412 24.0759C40.5412 24.3414 40.6548 24.3349 41.7974 24.0037C43.123 23.6195 44.3402 22.9639 44.9154 22.3242C45.5184 21.6535 46.1035 20.5353 46.3873 19.5115C46.7075 18.3559 46.6931 18.2097 46.2592 18.2125C46.0654 18.2137 45.4893 18.3561 44.979 18.5289ZM2.81851 19.2942C2.52714 19.5856 2.53408 20.2978 2.83618 21.105C3.15086 21.9462 4.05653 22.8603 4.87928 23.1672L5.47428 23.3892L5.50203 32.6693L5.52967 41.9495H3.47736H1.42505L1.20045 42.2351C0.985387 42.5085 0.97574 42.6493 0.976607 45.5142C0.977474 48.9573 1.05455 49.6241 1.57442 50.6911C3.41254 54.4634 8.90411 54.5434 10.793 50.8255C11.3424 49.7439 11.3793 49.424 11.3807 45.7225C11.382 42.2945 11.3814 42.2866 11.141 42.1183C10.9444 41.9805 10.5367 41.9495 8.91885 41.9495H6.93765V32.6408V23.3321L7.28995 23.2616C7.75682 23.1683 8.69252 22.5385 9.03874 22.0847C9.43006 21.5716 9.72978 20.8483 9.81325 20.2156C9.87363 19.7574 9.84837 19.6275 9.64989 19.3755L9.4151 19.0774H6.22515C3.17981 19.0774 3.02545 19.0873 2.81851 19.2942ZM4.22769 20.6489C4.22769 20.935 4.98475 21.6603 5.48121 21.8499C6.09388 22.084 6.83066 21.9954 7.399 21.6193C7.76777 21.3753 8.23692 20.7873 8.238 20.5679C8.23822 20.5232 7.33602 20.4866 6.23306 20.4866C4.52449 20.4866 4.22769 20.5107 4.22769 20.6489ZM17.3166 25.6824C17.8512 26.0697 18.5972 26.8304 18.8385 27.2344C18.9365 27.3983 19.0569 27.5325 19.1062 27.5325C19.1555 27.5325 19.1816 27.1569 19.1641 26.6979L19.1325 25.8634L18.1027 25.6188C16.7885 25.3069 16.7971 25.3061 17.3166 25.6824ZM21.5445 25.6214L20.5961 25.8523L20.6016 26.7195C20.6071 27.5638 20.612 27.5795 20.7864 27.3157C21.0183 26.9648 22.0745 25.9062 22.4928 25.6053C22.8869 25.3219 22.7668 25.324 21.5445 25.6214ZM36.9098 25.5942C37.3481 25.9253 38.2768 26.8606 38.5657 27.2615L38.8 27.5867L38.8033 26.7171L38.8068 25.8476L37.9667 25.6656C37.5047 25.5655 37.0047 25.4532 36.8556 25.416C36.5963 25.3513 36.5986 25.359 36.9098 25.5942ZM41.2458 25.625L40.2702 25.8606L40.2385 26.6965C40.2211 27.1564 40.2455 27.5307 40.2927 27.5284C40.34 27.5261 40.5597 27.2633 40.7809 26.9444C41.0023 26.6255 41.4827 26.1396 41.8486 25.8646C42.5969 25.3021 42.5917 25.3 41.2458 25.625ZM12.7912 25.7781C12.7912 26.8234 13.7 28.8583 14.5603 29.7396C15.3381 30.5362 16.7064 31.1674 18.5737 31.5909L18.8821 31.661L18.8072 31.1956C18.6639 30.3053 18.0619 28.6885 17.6367 28.0517C16.8247 26.8357 15.1027 25.8725 13.1435 25.5384C12.8164 25.4827 12.7912 25.4999 12.7912 25.7781ZM26.07 25.6321C24.0083 26.0817 22.3846 27.2358 21.6764 28.7549C21.3479 29.4594 20.7548 31.5215 20.8525 31.6192C20.9633 31.73 22.9421 31.0991 23.7936 30.6815C24.7729 30.2012 25.3786 29.6386 25.9588 28.6707C26.5634 27.662 27.1834 25.461 26.8572 25.4815C26.7819 25.4863 26.4277 25.554 26.07 25.6321ZM32.412 25.5999C32.4145 26.0683 32.9072 27.6736 33.2469 28.3202C33.8466 29.4612 34.5452 30.1625 35.593 30.6749C36.4312 31.0848 38.4376 31.7318 38.5432 31.6262C38.6417 31.5277 38.028 29.4184 37.6999 28.7281C37.0531 27.3668 35.4751 26.1745 33.7663 25.756C32.5673 25.4623 32.4112 25.4443 32.412 25.5999ZM45.5275 25.6948C43.5188 26.2134 42.0789 27.2651 41.3757 28.7268C41.0037 29.5004 40.4369 31.4752 40.5535 31.5917C40.6656 31.7039 42.6805 31.0878 43.4611 30.7027C44.5289 30.1759 45.269 29.4165 45.838 28.2635C46.4445 27.0343 46.8043 25.4645 46.476 25.4789C46.4015 25.4821 45.9746 25.5794 45.5275 25.6948ZM16.9103 32.6779C16.9103 32.6905 17.2006 32.9263 17.5555 33.2018C17.9104 33.4774 18.3842 33.9487 18.6084 34.2491C18.8326 34.5495 19.0567 34.7952 19.1061 34.7952C19.1557 34.7952 19.1818 34.4416 19.1643 34.0093L19.1325 33.2234L18.0214 32.9391C17.4104 32.7828 16.9103 32.6652 16.9103 32.6779ZM21.6527 32.9311L20.5959 33.2024V34.0693V34.9361L20.9237 34.4837C21.3273 33.9264 22.0445 33.2222 22.4559 32.9792C22.6253 32.8791 22.7638 32.759 22.7638 32.7122C22.7638 32.6655 22.7516 32.6345 22.7367 32.6435C22.7219 32.6524 22.2341 32.7818 21.6527 32.9311ZM41.3271 32.9329L40.216 33.2092L40.222 34.0836L40.228 34.9578L40.4659 34.6326C40.778 34.2059 41.6889 33.2929 42.1671 32.9274C42.3758 32.7679 42.5221 32.6418 42.4923 32.6471C42.4625 32.6524 41.9381 32.781 41.3271 32.9329ZM37.0291 33.0443C37.4728 33.3683 38.2996 34.2263 38.6118 34.6868C38.7917 34.9523 38.7955 34.9399 38.8012 34.0768L38.8068 33.196L37.8041 32.965C36.5342 32.6725 36.5218 32.6738 37.0291 33.0443ZM12.7912 33.1142C12.7912 34.1542 13.613 36.0174 14.4896 36.9641C15.2156 37.7482 16.3137 38.3268 17.8588 38.7394C19.0228 39.0502 18.9719 39.1121 18.6355 37.7943C17.9999 35.305 16.8351 34.009 14.528 33.2243C14.1104 33.0822 13.5488 32.933 13.2799 32.8927C12.8023 32.821 12.7912 32.8261 12.7912 33.1142ZM25.5774 33.0978C24.2026 33.5049 22.8628 34.3066 22.2798 35.0709C21.8432 35.6432 21.3003 36.8979 21.0415 37.9322C20.9156 38.4355 20.8127 38.8803 20.8127 38.9207C20.8127 39.0075 21.7423 38.8012 22.5634 38.5321C23.2941 38.2927 24.3351 37.7746 24.8044 37.4167C25.612 36.8008 26.5315 35.1646 26.781 33.8995C26.8426 33.5873 26.916 33.2221 26.9442 33.0879C26.9878 32.8804 26.9507 32.8449 26.6953 32.8499C26.5302 32.853 26.0272 32.9646 25.5774 33.0978ZM32.4682 33.2505C32.5798 33.9296 32.9596 35.1401 33.2261 35.6661C33.8668 36.9302 34.7738 37.7255 36.2391 38.308C36.9422 38.5874 38.4961 39.0237 38.5711 38.9627C38.5906 38.9469 38.4804 38.454 38.3262 37.8672C37.7501 35.6753 36.9407 34.5516 35.3369 33.7172C34.5494 33.3075 33.0997 32.844 32.6059 32.844C32.43 32.844 32.4109 32.9009 32.4682 33.2505ZM45.3769 33.0583C44.3057 33.347 43.1375 33.958 42.4428 34.593C41.7289 35.2455 41.0892 36.4498 40.7573 37.7664C40.4184 39.1109 40.372 39.0537 41.5439 38.7337C43.5376 38.1895 44.7455 37.423 45.5257 36.2072C45.9385 35.5639 46.4685 34.1323 46.5661 33.3972C46.6366 32.8653 46.6295 32.8442 46.3816 32.8505C46.2397 32.8541 45.7877 32.9477 45.3769 33.0583ZM2.51424 46.4209L2.54752 49.4832L2.91976 50.1698C3.30988 50.8893 3.84331 51.3971 4.66129 51.8275C5.07494 52.0452 5.30561 52.0842 6.17887 52.0843C7.36984 52.0846 7.90869 51.8943 8.67355 51.2033C9.83092 50.1578 9.97281 49.6006 9.97281 46.1031V43.3587H6.22689H2.48096L2.51424 46.4209ZM17.9656 46.7031C17.5622 46.7417 17.2248 46.822 17.2157 46.8816C17.1859 47.0766 20.613 48.7174 22.0304 49.1867C23.5549 49.6915 25.509 50.115 27.1226 50.2902C28.387 50.4276 30.7853 50.4418 30.7853 50.3119C30.7853 50.2609 30.5292 49.9774 30.2162 49.6819C28.7934 48.3383 26.3015 47.337 23.2552 46.8847C21.9675 46.6934 19.0972 46.5949 17.9656 46.7031ZM37.3434 46.7329C35.3674 46.9212 33.3076 47.4072 31.7947 48.0424L31.0062 48.3733L31.5502 48.9685C31.8493 49.2958 32.1697 49.7098 32.2621 49.8886C32.4286 50.2105 32.4365 50.2129 33.092 50.1388C34.051 50.0303 36.4132 49.4121 37.6686 48.9411C38.8189 48.5094 40.8237 47.5417 41.5613 47.0618L42.0045 46.7734L41.3 46.7047C40.3214 46.6092 38.505 46.6222 37.3434 46.7329Z" fill="#08DD7A"/>
</svg>
