<svg width="54" height="54" viewBox="0 0 54 54" fill="none" xmlns="http://www.w3.org/2000/svg">
<path fill-rule="evenodd" clip-rule="evenodd" d="M37.8954 0.947958C36.1809 1.19096 34.2455 1.87387 32.7866 2.75074C31.5853 3.47267 30.9587 3.9767 29.911 5.06345C28.1481 6.89218 26.9644 9.13792 26.4091 11.7069C26.1506 12.9033 26.1457 15.7257 26.4002 16.8677C26.4963 17.2989 26.5624 17.6641 26.5471 17.6794C26.532 17.6947 26.1885 17.7582 25.7842 17.8205C21.5519 18.4729 18.4731 21.5517 17.8208 25.784C17.7584 26.1883 17.6949 26.5317 17.6796 26.5469C17.6644 26.5622 17.2991 26.4961 16.868 26.4C15.7259 26.1455 12.9035 26.1504 11.7072 26.4089C8.99461 26.9952 6.79559 28.1929 4.83809 30.1504C2.35683 32.6316 1.05756 35.5465 0.882904 39.0233C0.690529 42.8532 2.07291 46.3967 4.83809 49.1619C7.92421 52.248 12.0537 53.6253 16.321 52.9917C19.2217 52.561 21.7229 51.2886 23.8497 49.1619C26.0012 47.0103 27.2519 44.5302 27.6942 41.5374C27.8948 40.1806 27.8479 38.3215 27.5817 37.0794C27.4955 36.6774 27.4376 36.3359 27.4529 36.3206C27.4683 36.3052 27.8117 36.2416 28.2161 36.1793C32.4409 35.528 35.5282 32.4407 36.1795 28.2158C36.2418 27.8115 36.3054 27.4681 36.3208 27.4527C36.3361 27.4374 36.6776 27.4956 37.0797 27.5821C38.2607 27.8362 40.2811 27.8908 41.5021 27.7016C44.5879 27.2237 47.0019 26.0097 49.1622 23.8494C50.7877 22.224 51.782 20.6199 52.4743 18.5065C53.3601 15.8023 53.3601 12.885 52.4743 10.1808C51.782 8.06742 50.7877 6.46334 49.1622 4.83786C47.241 2.91664 45.1314 1.74783 42.504 1.14888C41.4733 0.913891 38.9209 0.802622 37.8954 0.947958ZM37.7579 2.68693C34.0896 3.3093 30.9373 5.58426 29.2384 8.83512C28.2021 10.818 27.7802 12.6799 27.8825 14.8183C27.934 15.8934 28.2306 17.6132 28.3926 17.7752C28.4192 17.8019 28.8169 17.9195 29.2763 18.0365C29.7356 18.1536 30.4516 18.4105 30.8674 18.6074L31.6233 18.9656L32.0174 18.3684C32.8162 17.1581 34.3093 15.8995 35.7444 15.2268C36.0688 15.0749 36.352 14.9345 36.374 14.9149C36.3958 14.8953 36.1869 14.6282 35.9096 14.3214C33.2369 11.3643 34.9572 6.59602 38.9181 5.98293C40.503 5.73761 42.159 6.30619 43.2788 7.48006C45.1285 9.41942 45.1743 12.3898 43.3844 14.3355L42.8582 14.9076L43.7622 15.3479C46.1542 16.5131 47.9434 18.7142 48.6457 21.3554L48.7854 21.881L49.2242 21.2683C49.4655 20.9313 49.8769 20.2414 50.1384 19.735C53.4599 13.3039 50.2385 5.43312 43.3389 3.12209C41.6822 2.56711 39.4776 2.3952 37.7579 2.68693ZM18.9845 3.43038C18.8975 3.44746 18.4703 3.51897 18.0353 3.58942C15.5908 3.98504 13.1965 5.2418 11.3286 7.10965C9.44011 8.99818 8.17311 11.43 7.80534 13.8717C7.73563 14.3343 7.65864 14.8195 7.63427 14.9501C7.5904 15.1844 7.56888 15.1874 5.90395 15.1874H4.21804L7.56709 19.6652C9.4091 22.128 10.9399 24.143 10.9689 24.143C10.9979 24.143 12.5287 22.128 14.3707 19.6652L17.7197 15.1874H16.0478H14.3758L14.4679 14.581C14.8978 11.7505 16.8566 9.08192 19.4591 7.78117C20.0745 7.47352 21.0806 7.1394 23.2033 6.53738C24.0444 6.29881 25.0529 6.00983 25.4445 5.89497L26.1564 5.68625V4.53063V3.3749L22.6495 3.38713C20.7208 3.39388 19.0715 3.41329 18.9845 3.43038ZM18.6154 5.17841C17.1157 5.39252 15.0484 6.24249 13.8475 7.13866C13.002 7.76968 11.8803 8.89334 11.3285 9.66189C10.0346 11.4644 9.28138 13.8302 9.28138 16.0915V16.8749H8.43636H7.59145L9.23455 19.0634C10.1382 20.2671 10.9187 21.2519 10.9689 21.2519C11.0191 21.2519 11.7996 20.267 12.7032 19.0634L14.3463 16.8749H13.4859H12.6254L12.6862 15.6356C12.8535 12.2342 14.4279 9.2629 17.127 7.2552C18.1864 6.46724 19.3625 5.90204 20.8302 5.47563C21.4683 5.29032 22.0101 5.12146 22.0343 5.10058C22.1219 5.02454 19.232 5.09045 18.6154 5.17841ZM38.6022 7.76314C36.2126 8.63146 35.5148 11.5783 37.2808 13.3442C37.973 14.0364 38.6008 14.2855 39.6564 14.2868C40.4258 14.2878 40.6292 14.2479 41.0915 14.0052C41.8881 13.5872 42.2176 13.2687 42.6183 12.5297C42.9491 11.9197 42.9784 11.7915 42.976 10.9686C42.973 9.91312 42.723 9.28421 42.032 8.59307C41.1653 7.72654 39.6874 7.3689 38.6022 7.76314ZM38.4687 16.1253C38.2505 16.1715 38.0496 16.2318 38.022 16.2593C37.9213 16.36 38.4521 17.238 38.7412 17.4488C38.9589 17.6075 39.2001 17.6659 39.6377 17.6659C40.3731 17.6659 40.8544 17.3654 41.1397 16.7282C41.3128 16.3417 41.3157 16.2874 41.1681 16.2049C40.9444 16.0797 38.9609 16.0212 38.4687 16.1253ZM35.6575 17.1937C34.7779 17.7623 33.9436 18.5623 33.4334 19.3263L33.0192 19.9465L33.3761 20.2598C34.4155 21.1724 35.5659 23.1565 35.9641 24.7238C36.0809 25.1831 36.1982 25.5808 36.2248 25.6074C36.3868 25.7694 38.1066 26.0661 39.1818 26.1175C41.8221 26.2439 44.5174 25.4261 46.6481 23.8521C47.3251 23.3518 47.3254 23.3507 47.0835 22.1703C46.6548 20.079 45.4774 18.3715 43.6496 17.1901L42.989 16.7631L42.7085 17.3727C42.3609 18.1287 41.7773 18.7236 41.0538 19.0593L40.5001 19.3162V21.8924V24.4687H39.6564H38.8126V21.8924V19.3162L38.2589 19.0593C37.5355 18.7236 36.9518 18.1287 36.6042 17.3727L36.3238 16.7631L35.6575 17.1937ZM25.4708 19.5574C23.8747 19.9314 22.8064 20.5227 21.6647 21.6644C20.7157 22.6135 20.1624 23.506 19.7412 24.7674C19.5048 25.4756 19.4712 25.7532 19.4712 26.9999C19.4712 28.2466 19.5048 28.5242 19.7412 29.2324C20.1624 30.4938 20.7157 31.3863 21.6647 32.3354C22.6151 33.2857 23.5096 33.8398 24.7677 34.257C25.4736 34.4911 25.7573 34.5252 27.0001 34.5252C28.243 34.5252 28.5267 34.4911 29.2326 34.257C30.4906 33.8398 31.3852 33.2857 32.3356 32.3354C33.286 31.385 33.84 30.4904 34.2572 29.2324C34.4914 28.5265 34.5254 28.2427 34.5254 26.9999C34.5254 25.7571 34.4914 25.4733 34.2572 24.7674C33.84 23.5094 33.286 22.6148 32.3356 21.6644C30.8696 20.1984 29.3159 19.5197 27.2638 19.4491C26.5031 19.4229 25.8859 19.4602 25.4708 19.5574ZM26.1564 21.9374V22.7812H24.8908H23.6251V24.2191C23.6251 26.0088 23.725 26.3687 24.4126 27.0562C25.079 27.7227 25.4752 27.8437 26.9907 27.8437C28.1021 27.8437 28.1848 27.8585 28.4287 28.1026C28.6413 28.3151 28.6876 28.4659 28.6876 28.9463V29.5312H27.2591C25.8828 29.5312 25.8209 29.5217 25.5716 29.2722C25.4292 29.1298 25.3126 28.94 25.3126 28.8504C25.3126 28.7169 25.1596 28.6874 24.4689 28.6874C23.7584 28.6874 23.6251 28.7146 23.6251 28.8597C23.6251 29.9061 24.9377 31.2187 25.984 31.2187C26.1292 31.2187 26.1564 31.352 26.1564 32.0624V32.9062H27.0001H27.8439V32.0624V31.2187H29.1095H30.3751V29.7807C30.3751 27.991 30.2753 27.6311 29.5877 26.9436C28.9212 26.2771 28.5251 26.1562 27.0095 26.1562C25.8982 26.1562 25.8155 26.1413 25.5716 25.8972C25.3589 25.6847 25.3126 25.5339 25.3126 25.0535V24.4687H26.7412C28.1175 24.4687 28.1794 24.4781 28.4287 24.7276C28.5711 24.87 28.6876 25.0598 28.6876 25.1495C28.6876 25.2829 28.8407 25.3124 29.5314 25.3124C30.2418 25.3124 30.3751 25.2852 30.3751 25.1401C30.3751 24.0937 29.0626 22.7812 28.0162 22.7812C27.8711 22.7812 27.8439 22.6478 27.8439 21.9374V21.0937H27.0001H26.1564V21.9374ZM12.4454 27.9921C9.73806 28.4767 7.16061 29.9125 5.46795 31.8791C1.84415 36.0896 1.5616 42.0918 4.77607 46.5808L5.21482 47.1935L5.35636 46.6679C6.07735 43.9917 7.83171 41.8327 10.2381 40.6604L11.1421 40.2201L10.6159 39.648C8.82597 37.7023 8.87174 34.7319 10.7215 32.7926C12.6891 30.7298 15.9987 30.7298 17.9663 32.7926C19.816 34.7319 19.8618 37.7023 18.0719 39.648L17.5457 40.2201L18.4497 40.6604C20.8417 41.8256 22.6309 44.0267 23.3332 46.6679L23.4729 47.1935L23.9117 46.5808C25.4573 44.4223 26.2425 41.7886 26.1178 39.1815C26.0663 38.1064 25.7696 36.3866 25.6076 36.2246C25.581 36.1979 25.1833 36.0807 24.724 35.9639C21.4676 35.1364 18.8605 32.5294 18.0356 29.276C17.9192 28.8167 17.8021 28.419 17.7754 28.3924C17.7487 28.3657 17.3573 28.2529 16.9055 28.1417C15.8259 27.8759 13.5255 27.7988 12.4454 27.9921ZM39.6296 34.3346L36.2805 38.8124H37.9524H39.6244L39.5324 39.4188C39.177 41.7585 37.6319 44.2168 35.6886 45.5346C34.5059 46.3365 33.8357 46.6007 30.797 47.4624C29.9559 47.701 28.9473 47.99 28.5558 48.1048L27.8439 48.3136V49.4791V50.6446L31.7199 50.5956C35.9218 50.5424 36.4147 50.4846 38.1049 49.8468C42.335 48.2505 45.5541 44.3833 46.1949 40.1281C46.2646 39.6655 46.3416 39.1803 46.366 39.0497C46.4099 38.8154 46.4314 38.8124 48.0963 38.8124H49.7822L46.4332 34.3346C44.5912 31.8718 43.0604 29.8568 43.0314 29.8568C43.0024 29.8568 41.4716 31.8718 39.6296 34.3346ZM41.3162 34.9098L39.6553 37.1249H40.5151H41.3749L41.314 38.3642C41.179 41.1083 40.1697 43.4997 38.3177 45.4631C36.9241 46.9402 35.2791 47.917 33.1555 48.5281L31.9166 48.8847L33.1233 48.9161C35.2453 48.9713 36.9167 48.623 38.6428 47.766C40.7125 46.7384 42.5105 44.9455 43.5281 42.8947C44.3185 41.3016 44.7189 39.6252 44.7189 37.9083V37.1249H45.5639H46.4088L44.7667 34.9364C43.8635 33.7327 43.0914 32.7359 43.0509 32.7214C43.0104 32.7067 42.2298 33.6915 41.3162 34.9098ZM13.2897 33.0756C10.9001 33.944 10.2023 36.8908 11.9683 38.6567C12.6605 39.3489 13.2883 39.598 14.3439 39.5993C15.1133 39.6003 15.3167 39.5604 15.779 39.3177C16.5756 38.8997 16.9051 38.5812 17.3058 37.8422C17.6366 37.2322 17.6659 37.104 17.6635 36.2812C17.6605 35.2256 17.4105 34.5967 16.7195 33.9056C15.8528 33.039 14.3749 32.6814 13.2897 33.0756ZM13.2101 41.4199C13.0216 41.4433 12.8673 41.5021 12.8673 41.5505C12.8673 41.6847 14.2303 43.2948 14.3439 43.2948C14.4535 43.2948 15.8204 41.6871 15.8204 41.5582C15.8204 41.3825 14.2027 41.2967 13.2101 41.4199ZM11.347 43.0312C11.389 43.4082 11.4752 44.1596 11.5388 44.7009L11.6544 45.6852L12.3663 45.1456C12.7579 44.8489 13.0783 44.5802 13.0783 44.5484C13.0783 44.5029 11.7919 42.9279 11.3652 42.4511C11.3094 42.3887 11.302 42.6259 11.347 43.0312ZM16.505 43.4268C16.0415 43.9839 15.6477 44.475 15.6298 44.5183C15.6119 44.5615 15.9204 44.8417 16.3153 45.1411C16.7629 45.4801 17.042 45.6322 17.0563 45.5447C17.1306 45.0899 17.4022 42.4684 17.3775 42.4437C17.3611 42.4273 16.9686 42.8698 16.505 43.4268ZM8.99777 43.5849C8.22279 44.3795 7.64356 45.2615 7.29108 46.1834C6.97161 47.0192 6.68864 48.414 6.78662 48.6695C6.86372 48.8704 8.2192 49.7743 9.12318 50.2277C11.8471 51.5936 15.073 51.833 17.985 50.8853C19.5713 50.369 21.9376 48.9539 21.9376 48.5214C21.9376 48.0312 21.6056 46.6663 21.3224 45.9922C21.1516 45.5855 20.7972 44.9546 20.5351 44.5902C20.0571 43.9257 19.1284 42.9512 19.0555 43.0377C19.0341 43.0631 18.8808 44.3547 18.7147 45.9079C18.4863 48.0452 18.3805 48.7196 18.2798 48.681C18.2066 48.6528 17.2911 47.9862 16.2453 47.1994L14.3439 45.7689L12.4425 47.1994C11.3967 47.9862 10.4809 48.6531 10.4073 48.6812C10.3056 48.7202 10.1999 48.0479 9.96724 45.8819C9.79881 44.314 9.63333 43.0312 9.59947 43.0312C9.56562 43.0312 9.29477 43.2804 8.99777 43.5849Z" fill="currentColor"/>
</svg>
