<svg viewBox="0 0 54 54" fill="none" xmlns="http://www.w3.org/2000/svg">
<path fill-rule="evenodd" clip-rule="evenodd" d="M5.5029 0.111602C4.12685 0.293747 2.8993 0.901036 1.89123 1.89835C1.13513 2.64633 0.68045 3.37017 0.300868 4.4297L0.0553372 5.11525L0.0242239 14.9397C-0.0103698 25.8531 -0.0220769 25.6377 0.680029 27.0527C1.34786 28.3987 2.3457 29.3702 3.70392 29.9966C4.78392 30.4946 5.4218 30.586 7.82016 30.586H9.90591L9.93649 33.9703L9.96708 37.3548L10.2161 37.5563C10.3574 37.6707 10.6282 37.7578 10.8425 37.7578C11.1974 37.7578 11.4335 37.5447 14.8156 34.1719L18.4113 30.586H19.0671H19.7229V29.6895V28.793H18.886C18.4258 28.793 17.9155 28.8427 17.7523 28.9034C17.589 28.9642 16.1621 30.3047 14.5813 31.8822L11.7073 34.7505V32.243C11.7073 29.406 11.6517 29.1155 11.0701 28.9127C10.8496 28.8359 9.79337 28.793 8.12212 28.793C5.83967 28.793 5.44584 28.7683 4.93622 28.5929C3.83492 28.2141 2.91048 27.4567 2.37038 26.4909C1.78133 25.4377 1.78545 25.5229 1.81698 15.0014L1.84599 5.32619L2.09458 4.70983C2.56644 3.53976 3.72829 2.42896 4.89941 2.02818C5.39237 1.85943 6.53175 1.84372 20.2503 1.81629C29.7193 1.79741 35.3146 1.82463 35.7501 1.89181C37.3454 2.13776 38.6979 3.23295 39.3227 4.7845C39.4787 5.1721 39.5042 6.03251 39.5511 12.4981L39.6038 19.7754L40.4739 19.806L41.344 19.8367V12.7185C41.344 7.9281 41.306 5.41742 41.2275 5.04132C40.7862 2.92583 39.1031 1.06873 36.9671 0.34047L36.1233 0.0527507L21.1468 0.0380906C12.9097 0.0299695 5.86994 0.0630867 5.5029 0.111602ZM7.17216 8.12111V8.96486H16.1897H25.2073V8.12111V7.27736H16.1897H7.17216V8.12111ZM28.7933 8.12111V8.96486H31.4827H34.1722V8.12111V7.27736H31.4827H28.7933V8.12111ZM7.19431 13.5264L7.22489 14.3965L20.6985 14.4233L34.1722 14.4501V13.5532V12.6563H20.6679H7.16361L7.19431 13.5264ZM7.17216 18.9317V19.8281H11.6546H16.137V18.9317V18.0352H11.6546H7.17216V18.9317ZM19.8284 18.9317V19.8281H27.0003H34.1722V18.9317V18.0352H27.0003H19.8284V18.9317ZM26.5784 21.7851C24.4637 22.2393 22.6809 23.8316 21.9207 25.9453L21.6741 26.6309L21.6429 33.8027C21.6216 38.6806 21.6488 41.1939 21.7279 41.6602C22.0954 43.8277 23.8652 45.7951 26.1038 46.5244C26.8256 46.7596 26.961 46.7657 32.1683 46.802L37.4944 46.839L41.0494 50.3878C44.3887 53.7216 44.627 53.9367 44.9804 53.9367C45.2287 53.9367 45.4364 53.8569 45.5915 53.702C45.8231 53.4705 45.8269 53.4193 45.857 50.1637L45.8876 46.8603L47.2809 46.793C48.0471 46.756 48.9589 46.6497 49.3069 46.5568C51.4219 45.9922 53.1374 44.266 53.754 42.082C53.9332 41.4473 53.9475 40.8608 53.9475 34.1719C53.9475 27.4568 53.9338 26.9027 53.7535 26.3145C53.0382 23.9814 51.2183 22.2532 48.9769 21.7783C47.9257 21.5556 27.6183 21.5617 26.5784 21.7851ZM7.17216 24.3106V25.207H13.4475H19.7229V24.3106V23.4141H13.4475H7.17216V24.3106ZM26.6924 23.5816C25.2901 23.9586 24.1187 25.0801 23.6275 26.5156C23.4219 27.1163 23.4143 27.3899 23.4143 34.2223C23.4143 40.5252 23.4335 41.3624 23.5882 41.8163C24.1507 43.4675 25.521 44.6627 27.1585 44.9304C27.5106 44.988 30.0814 45.0342 32.955 45.0345L38.1187 45.0352L41.1025 48.0122L44.0862 50.9892V48.3863C44.0862 45.6661 44.1292 45.364 44.5461 45.1575C44.6702 45.096 45.6261 45.0249 46.6702 44.9995C47.9038 44.9694 48.7164 44.9019 48.9905 44.8067C50.4523 44.2993 51.4326 43.322 51.9884 41.8184C52.227 41.1724 52.2874 28.1086 52.0567 27.0024C51.7122 25.3503 50.5839 24.1293 48.9246 23.6128C48.3166 23.4236 47.7852 23.4144 37.7751 23.421C28.9179 23.4268 27.174 23.4522 26.6924 23.5816ZM27.0003 28.8457V29.7422H33.2757H39.5511V28.8457V27.9492H33.2757H27.0003V28.8457ZM43.2425 28.8457V29.7422H45.8792H48.5159V28.8457V27.9492H45.8792H43.2425V28.8457ZM27.0003 34.2246V35.1211H37.7581H48.5159V34.2246V33.3281H37.7581H27.0003V34.2246ZM27.0003 39.6035V40.5H37.7581H48.5159V39.6035V38.707H37.7581H27.0003V39.6035Z" fill="currentColor"/>
</svg>
