<svg width="54" height="54" viewBox="0 0 54 54" fill="none" xmlns="http://www.w3.org/2000/svg">
<path fill-rule="evenodd" clip-rule="evenodd" d="M1.40388 6.84416C0.971482 7.57991 0.929432 7.70421 1.07677 7.81185C1.16972 7.87977 3.9474 9.53805 7.24923 11.4969C10.5512 13.4558 13.2527 15.1065 13.2527 15.1652C13.2527 15.2238 11.3809 18.3802 9.09319 22.1792C6.16042 27.0493 4.89609 29.058 4.80631 28.9894C4.12182 28.4661 2.44355 27.3338 2.35257 27.3338C2.28868 27.3338 1.98821 27.685 1.6848 28.114L1.13324 28.8943L1.37702 29.0631C1.51114 29.156 2.30812 29.7124 3.14824 30.2995C4.74077 31.4125 4.7221 31.4054 5.50859 31.1875C5.62666 31.1548 5.81736 31.342 6.09893 31.767C6.32774 32.1123 6.7833 32.7517 7.11129 33.1879L7.70774 33.9808L7.41 34.6572C6.82841 35.9791 6.94931 37.2711 7.74105 38.1929C8.11797 38.6316 9.0791 39.1974 9.44761 39.1974C9.67195 39.1974 9.86647 39.5087 9.868 39.8704C9.86986 40.3257 10.3721 41.2109 10.8823 41.6584C11.4562 42.1618 12.0396 42.3693 12.8818 42.3693H13.4712V42.9016C13.4712 44.1184 14.2855 45.3016 15.4179 45.7304C16.0798 45.9811 17.1451 46.0082 17.7586 45.79L18.1686 45.6441L18.392 46.1485C18.8705 47.229 19.8343 47.904 21.02 47.9889C22.3558 48.0844 23.222 47.579 24.5594 45.9237L24.8847 45.521L26.523 46.1747C27.424 46.5342 28.8204 47.052 29.6259 47.3253C30.9565 47.7766 31.1614 47.8174 31.8649 47.7714C33.1641 47.6865 34.1765 47.0261 34.8747 45.8076L35.1993 45.2412L35.9636 45.2764C36.8112 45.3154 37.558 45.0559 38.2312 44.4885C38.6773 44.1124 39.1249 43.2028 39.208 42.5029L39.2729 41.9579L39.8737 41.8324C41.3626 41.5211 42.5237 40.1266 42.5237 38.6498C42.5237 38.2616 42.5411 38.2428 42.9666 38.175C44.0001 38.0104 45.0167 37.2517 45.479 36.3002C45.756 35.7299 45.8796 34.5741 45.7142 34.1013C45.6029 33.7831 45.6224 33.7552 46.4373 33.0657C46.898 32.6759 47.5905 32.0373 47.9763 31.6465C48.3622 31.2558 48.7223 30.9634 48.7767 30.9968C48.8309 31.0303 49.1743 31.1271 49.5399 31.2121C50.3086 31.3908 50.0551 31.5112 52.4066 29.851L53.7668 28.8905L53.2166 28.1122C52.9139 27.6841 52.6174 27.3338 52.5575 27.3338C52.4719 27.3338 50.7207 28.5118 50.0964 28.9893C50.0066 29.058 48.7428 27.0503 45.8095 22.1792C43.5218 18.3802 41.6499 15.2248 41.6499 15.1674C41.6499 15.11 42.2275 14.7207 42.9333 14.3023C43.6391 13.8839 46.4178 12.2341 49.1084 10.6362L54 7.73087L53.6474 7.09166C53.4535 6.74011 53.2178 6.35079 53.1236 6.22639C52.9556 6.00435 52.8319 6.07194 46.2945 9.95403L39.6366 13.9078L39.4619 14.6075L39.2873 15.3071L39.7048 15.9905C40.0756 16.5974 40.1009 16.6815 39.9305 16.7424C39.825 16.78 39.4979 16.9032 39.2037 17.016L38.6689 17.2212L34.8349 16.2256C30.4932 15.0982 30.8391 15.1293 27.749 15.5875C25.2378 15.9597 20.5196 17.1101 20.2007 17.4279C20.0103 17.6176 19.6578 17.553 18.2084 17.0627C16.2607 16.4038 15.3279 16.0145 15.3279 15.8605C15.3279 15.7885 15.3943 15.6392 15.4754 15.5286C15.6002 15.3586 15.5951 15.2175 15.4418 14.6126L15.2607 13.8975L8.98681 10.1629C5.53622 8.10887 2.53005 6.33185 2.30648 6.21409L1.89996 6L1.40388 6.84416ZM29.0896 17.4523C26.3548 17.8004 21.7153 18.8519 21.3684 19.2023C21.0283 19.5459 18.0248 25.0205 18.0235 25.2992C18.0192 26.2039 19.7227 26.5004 20.869 25.7944C21.0671 25.6724 21.8701 24.8711 22.6535 24.0138C23.4368 23.1565 24.2348 22.3824 24.4266 22.2935C24.6185 22.2047 25.3812 21.9498 26.1216 21.7269C27.3392 21.3605 27.5582 21.3265 28.4152 21.37C29.6023 21.4304 29.61 21.4343 34.1324 24.2528C37.5858 26.4051 37.5972 26.4135 40.9927 29.2734L44.3938 32.1381L44.9059 31.7242C45.6837 31.0957 47.5613 29.1645 47.5251 29.0303C47.5075 28.9652 46.0713 26.5543 44.3334 23.6728L41.1736 18.4336L40.4561 18.7074C40.0614 18.8581 39.5032 19.0585 39.2156 19.1527C38.6311 19.3441 39.2863 19.4815 32.9123 17.8306L30.6733 17.2507L29.0896 17.4523ZM10.5885 23.6472L7.03593 29.5384L7.37571 30.0416C7.56269 30.3182 7.98581 30.9235 8.31609 31.3865L8.91669 32.2284L9.70308 31.4839C10.6025 30.6326 11.1748 30.3808 12.2073 30.3824C13.063 30.3838 13.9024 30.7632 14.5107 31.4234L14.9597 31.9108L15.4987 31.6647C16.3233 31.2883 17.5754 31.3126 18.4105 31.7213C19.5991 32.3029 20.1824 33.3316 20.1152 34.7274L20.079 35.4808L20.5658 35.5533C22.0543 35.7749 23.116 36.8728 23.2815 38.3619L23.3556 39.0282L23.8115 39.1057C25.5935 39.4085 26.7995 41.4523 26.2114 43.1725C26.1146 43.4555 26.0601 43.7267 26.0902 43.7754C26.1205 43.824 26.7713 44.107 27.5367 44.4042C31.0521 45.7694 31.8883 45.9615 32.4645 45.5363C32.8286 45.2677 33.2567 44.6423 33.2165 44.4379C33.199 44.3491 31.9172 43.6945 30.2943 42.9456C28.7042 42.2117 27.3877 41.5646 27.3685 41.5077C27.3012 41.3061 28.1012 39.7162 28.2424 39.7712C28.3179 39.8005 30.0337 40.5895 32.0553 41.5246C36.1655 43.4253 36.3844 43.4873 36.8891 42.8895C37.3375 42.3586 37.2772 41.9123 36.6696 41.265C36.2678 40.8369 35.6723 40.4649 33.6934 39.4056C32.3327 38.6772 30.9113 37.9114 30.5347 37.7038L29.8501 37.3261L30.3101 36.4659C30.563 35.9928 30.8036 35.6057 30.8446 35.6057C30.8857 35.6057 32.6946 36.5607 34.8644 37.728C39.3319 40.1314 39.4007 40.1545 40.0772 39.4803C40.3966 39.162 40.4485 39.037 40.4485 38.5865C40.4485 38.0911 40.4158 38.0324 39.8407 37.4991C39.3896 37.0809 38.4249 36.4988 36.0999 35.2425C34.3768 34.3113 32.8974 33.5073 32.8124 33.4559C32.6871 33.3801 32.7499 33.1947 33.1436 32.478L33.6294 31.5937L34.2812 31.9445C34.6397 32.1374 36.5384 33.1625 38.5007 34.2225C42.5611 36.416 42.6778 36.4534 43.3538 35.7798C43.6625 35.4721 43.725 35.33 43.7246 34.9363C43.7242 34.6707 43.6403 34.3348 43.5334 34.1714C43.4286 34.0112 41.7765 32.5663 39.862 30.9606L36.3812 28.0413L32.6603 25.7321C29.8686 23.9996 28.8227 23.4054 28.4725 23.353C28.1072 23.2985 27.7171 23.3709 26.6752 23.6867C25.353 24.0877 25.3407 24.0945 24.7344 24.7597C23.3614 26.2659 22.2479 27.3541 21.8299 27.5982C20.7015 28.2571 18.8138 28.3995 17.7137 27.9085C16.6534 27.4355 15.9831 26.3937 15.9833 25.2193C15.9835 24.5551 16.1859 24.1106 17.7171 21.4133C18.3253 20.3419 18.823 19.454 18.823 19.4402C18.823 19.4262 18.1962 19.2054 17.4304 18.9494C16.6645 18.6934 15.6526 18.3202 15.1817 18.12C14.7108 17.9198 14.2841 17.756 14.2334 17.756C14.1827 17.756 12.5425 20.407 10.5885 23.6472ZM11.7877 32.4567C10.8559 32.7265 9.10237 35.2086 9.10237 36.2575C9.10237 36.8647 9.47099 37.2382 10.0701 37.2382C10.4788 37.2382 10.5324 37.1968 11.0853 36.4529C11.4064 36.0209 12.0254 35.2298 12.4609 34.6949C13.3615 33.5887 13.436 33.2997 12.9524 32.788C12.6104 32.4263 12.2483 32.3233 11.7877 32.4567ZM16.2326 33.5398C15.959 33.6495 13.4868 36.5823 12.4764 37.9958C11.8576 38.8615 11.8156 38.9578 11.865 39.4C11.9305 39.9869 12.2139 40.2853 12.7725 40.356C13.4766 40.445 14.2434 39.9709 15.2627 38.8164C16.4258 37.4992 17.6592 35.9512 17.8645 35.5512C18.2893 34.7235 18.1835 33.8816 17.6178 33.5903C17.2732 33.4126 16.6098 33.3885 16.2326 33.5398ZM19.3893 37.73C18.5581 38.0898 16.6774 40.1874 15.9774 41.5351C15.3173 42.8065 15.4094 43.5989 16.2495 43.8753C17.0834 44.1494 17.7847 43.7073 19.2456 41.9861C21.0818 39.8229 21.4552 39.1555 21.2363 38.4273C21.0009 37.6447 20.2455 37.3594 19.3893 37.73ZM22.6637 41.1847C22.3047 41.3566 20.8091 43.2707 20.4841 43.9741C20.0033 45.0144 20.1715 45.71 20.9567 45.9284C21.7399 46.1463 22.1911 45.7633 23.559 43.7191C24.1374 42.8547 24.284 42.5514 24.284 42.2187C24.284 41.695 24.0395 41.3155 23.6052 41.1646C23.1936 41.0216 22.9948 41.0259 22.6637 41.1847Z" fill="currentColor"/>
</svg>
