<svg viewBox="0 0 16 16" xmlns="http://www.w3.org/2000/svg">
<path d="M11.7114 12.773L7.99907 9.06066L4.28676 12.773C3.99386 13.0659 3.51899 13.0659 3.2261 12.773C2.9332 12.4801 2.9332 12.0052 3.2261 11.7123L6.93841 8L3.2261 4.28769C2.9332 3.9948 2.9332 3.51992 3.2261 3.22703C3.51899 2.93414 3.99386 2.93414 4.28676 3.22703L7.99907 6.93934L11.7114 3.22703C12.0043 2.93414 12.4791 2.93414 12.772 3.22703C13.0649 3.51992 13.0649 3.9948 12.772 4.28769L9.05973 8L12.772 11.7123C13.0649 12.0052 13.0649 12.4801 12.772 12.773C12.4791 13.0659 12.0043 13.0659 11.7114 12.773Z" />
</svg>
