<svg viewBox="0 0 20 20" xmlns="http://www.w3.org/2000/svg">
<path d="M14.3193 9.03418C14.3192 6.11578 11.9526 3.75 9.03418 3.75C6.11588 3.75016 3.75016 6.11588 3.75 9.03418C3.75 11.9526 6.11578 14.3192 9.03418 14.3193C11.9527 14.3193 14.3193 11.9527 14.3193 9.03418ZM15.8193 9.03418C15.8193 10.6374 15.2609 12.1094 14.3311 13.2705L17.5303 16.4697C17.8232 16.7626 17.8232 17.2374 17.5303 17.5303C17.2374 17.8232 16.7626 17.8232 16.4697 17.5303L13.2705 14.3311C12.1094 15.2609 10.6374 15.8193 9.03418 15.8193C5.28735 15.8192 2.25 12.7811 2.25 9.03418C2.25016 5.28745 5.28745 2.25016 9.03418 2.25C12.7811 2.25 15.8192 5.28735 15.8193 9.03418Z"/>
</svg>
