<svg viewBox="0 0 22 22" xmlns="http://www.w3.org/2000/svg">
<path d="M10.915 5.48846C10.6326 5.18559 10.1575 5.16904 9.85449 5.45135L4.48828 10.4513C4.33614 10.5932 4.25 10.7922 4.25 11.0002C4.25 11.2082 4.33614 11.4071 4.48828 11.549L9.85449 16.549C10.1575 16.8313 10.6326 16.8148 10.915 16.5119C11.1974 16.2089 11.1808 15.7337 10.8779 15.4513L6.90527 11.7502H17C17.4142 11.7502 17.75 11.4144 17.75 11.0002C17.75 10.586 17.4142 10.2502 17 10.2502H6.90527L10.8779 6.549C11.1808 6.26661 11.1974 5.79145 10.915 5.48846Z" />
</svg>
