<svg viewBox="0 0 54 54" fill="none" xmlns="http://www.w3.org/2000/svg">
<path fill-rule="evenodd" clip-rule="evenodd" d="M21.2332 1.20458C14.5193 2.2214 8.71166 5.9127 4.91395 11.5771C4.07526 12.8279 2.78 15.4046 2.30823 16.7606C1.38918 19.4021 1 21.7548 1 24.6707C1 28.5923 1.70369 31.6316 3.41745 35.1121C4.99495 38.3162 7.14946 41.0149 9.84999 43.1698C13.261 45.8914 17.2379 47.5828 21.6627 48.194C23.2195 48.4089 26.6785 48.369 27.3542 48.1283C28.1699 47.8377 28.2125 48.7353 26.7853 36.1427L25.5037 24.8333L33.0922 16.5099C37.266 11.932 40.7366 8.0823 40.8047 7.95489C41.005 7.58069 40.847 7.26987 40.1464 6.65974C36.7514 3.70334 32.3856 1.75713 27.8009 1.15617C26.0716 0.929515 22.8949 0.952929 21.2332 1.20458ZM22.4537 2.69464C13.2172 3.63859 5.48569 10.3487 3.26958 19.3446C0.246215 31.6179 8.02242 43.8483 20.4306 46.3356C22.3475 46.7199 26.0389 46.9088 26.3103 46.6366C26.3526 46.5942 25.8151 41.6108 25.1159 35.5624C24.0345 26.2091 23.8644 24.5242 23.9771 24.2906C24.05 24.1396 27.4448 20.3491 31.5211 15.8673C35.5974 11.3855 38.8904 7.68848 38.8389 7.65167C38.7874 7.61486 38.3556 7.29192 37.8792 6.93406C33.5753 3.70092 27.892 2.13893 22.4537 2.69464ZM40.5812 11.3553C38.9985 13.1101 37.4982 14.7593 37.2473 15.0204C36.9963 15.2814 35.8962 16.4944 34.8028 17.7158C33.7093 18.9374 32.6883 20.0196 32.5338 20.1208C32.3793 20.222 32.212 20.4092 32.1621 20.5366C32.0632 20.7893 28.8448 24.401 28.0889 25.1076C27.5693 25.5934 27.4771 26.011 27.8063 26.3881C27.9516 26.5545 32.5522 30.2939 34.1928 31.5789C34.3779 31.724 35.9297 32.9606 37.641 34.3269C43.52 39.0209 45.8762 40.8685 46.1307 40.9845C46.5623 41.1811 46.9384 40.9295 47.6268 39.9833C49.7189 37.108 51.1444 33.7708 51.7798 30.2606C52.5896 25.7867 52.1198 21.2684 50.3932 16.9284C50.1027 16.198 49.8115 15.5055 49.7461 15.3895C48.0921 12.4543 46.6796 10.5395 44.97 8.91571C43.7131 7.7217 44.0049 7.55949 40.5812 11.3553ZM41.9654 12.2382C40.8923 13.4249 39.9014 14.5364 39.7635 14.7081L39.5126 15.0204H43.6367H47.7607L47.4419 14.4797C46.6873 13.1997 45.6675 11.8288 44.6081 10.6698C44.3031 10.3363 44.0228 10.0672 43.9852 10.072C43.9474 10.0767 43.0386 11.0516 41.9654 12.2382ZM11.9062 16.4842C10.7241 16.87 10.077 17.7331 10.0728 18.9291C10.0697 19.851 10.4225 20.481 11.1862 20.9171C12.1118 21.4458 13.0095 21.4396 13.8118 20.8989C14.9618 20.1239 15.2109 18.3836 14.325 17.3112C13.761 16.6283 12.6393 16.2447 11.9062 16.4842ZM37.4473 17.2606C37.1078 17.6236 36.4239 18.3716 35.9278 18.9227L35.0258 19.9246L42.3621 19.9518C46.397 19.9666 49.7204 19.9568 49.7473 19.9298C49.811 19.8661 49.083 17.7452 48.7861 17.1297L48.5572 16.6551L43.311 16.6278L38.0648 16.6004L37.4473 17.2606ZM17.5795 17.4725C17.3272 17.6699 10.2472 27.3172 10.1653 27.575C9.97349 28.1795 10.716 28.8152 11.2583 28.5109C11.4816 28.3856 17.9982 19.7207 18.6675 18.659C18.9253 18.2502 18.9202 17.9631 18.6491 17.6186C18.4074 17.3111 17.8781 17.2389 17.5795 17.4725ZM11.9252 18.323C11.4458 18.8334 11.8024 19.661 12.5017 19.661C12.9093 19.661 13.2779 19.2783 13.2779 18.8552C13.2779 18.1726 12.3935 17.8247 11.9252 18.323ZM32.0314 23.2205C31.2535 24.0762 30.581 24.8356 30.5369 24.908C30.4731 25.0132 32.5018 25.0399 40.5438 25.0399H50.6306L50.5636 24.328C50.4768 23.4073 50.2995 22.0853 50.2312 21.8495C50.1809 21.6756 49.6887 21.6649 41.8119 21.6649H33.4459L32.0314 23.2205ZM15.3775 24.9668C15.0951 25.1147 14.7805 25.4054 14.5759 25.7079C13.171 27.7851 15.4033 30.3122 17.6655 29.2053C18.9681 28.568 19.3602 26.9515 18.5153 25.7023C18.0614 25.0313 17.4515 24.7303 16.5377 24.7264C16.012 24.7242 15.7289 24.7829 15.3775 24.9668ZM16.0871 26.4187C15.8746 26.5857 15.8092 26.7309 15.8092 27.0351C15.8092 27.6806 16.3873 28.0303 16.9626 27.7328C17.5231 27.443 17.5291 26.6478 16.973 26.3601C16.5634 26.1483 16.4186 26.1579 16.0871 26.4187ZM30.9492 26.8246C31.0043 26.8781 31.9452 27.6375 33.04 28.5121L35.0307 30.1024H42.6043C49.7265 30.1024 50.1809 30.0914 50.2312 29.9178C50.2997 29.6812 50.4803 28.3571 50.5694 27.4393L50.6384 26.7274H40.7437C34.7024 26.7274 30.888 26.7652 30.9492 26.8246ZM28.031 28.8375C27.5548 29.1157 27.5387 28.8985 28.9369 41.073C29.8808 49.2925 30.3072 52.6787 30.4197 52.8503C30.7073 53.2893 31.1757 53.2927 33.2643 52.8711C37.0648 52.1039 40.8832 50.1944 44.046 47.4793C45.2297 46.4631 47.043 44.4873 47.143 44.1046C47.1773 43.9734 47.1423 43.739 47.0652 43.5837C46.9881 43.4284 45.8209 42.434 44.4716 41.374C42.214 39.6006 33.5375 32.655 30.1364 29.8986C28.7083 28.7414 28.4329 28.6026 28.031 28.8375ZM29.5582 31.9057C29.595 32.161 30.1008 36.5703 30.6823 41.7039C31.2637 46.8376 31.7627 51.1434 31.7912 51.2724C31.8521 51.5479 31.8791 51.5453 33.7532 51.0869C37.6476 50.1343 41.2568 48.0904 44.1072 45.2234L45.2469 44.077L44.9021 43.8133C44.2662 43.327 32.5441 33.9339 31.0087 32.6803L29.4913 31.4415L29.5582 31.9057ZM37.1139 31.7262C37.1139 31.7491 38.0384 32.5084 39.1685 33.4137L41.223 35.0594H44.9202H48.6175L48.8323 34.5584C49.1382 33.8449 49.7701 32.0081 49.7701 31.8324C49.7701 31.7071 48.8027 31.6844 43.442 31.6844C39.9615 31.6844 37.1139 31.7032 37.1139 31.7262ZM43.5513 36.8909C43.6362 36.9701 44.2857 37.4919 44.9948 38.0505L46.284 39.0662L46.7942 38.3021C47.075 37.8818 47.4124 37.36 47.544 37.1424L47.7834 36.7469H45.5901C43.7316 36.7469 43.4204 36.7689 43.5513 36.8909Z" fill="currentColor"/>
</svg>
