<svg viewBox="0 0 32 32" fill="none" xmlns="http://www.w3.org/2000/svg">
<path d="M15.9987 9.3335L2.66537 9.3335M15.9987 22.6668L29.332 22.6668M25.332 13.3335C23.1229 13.3335 21.332 11.5426 21.332 9.3335C21.332 7.12436 23.1229 5.3335 25.332 5.3335C27.5412 5.3335 29.332 7.12436 29.332 9.3335C29.332 11.5426 27.5412 13.3335 25.332 13.3335ZM6.66537 26.6668C8.8745 26.6668 10.6654 24.876 10.6654 22.6668C10.6654 20.4577 8.8745 18.6668 6.66537 18.6668C4.45623 18.6668 2.66537 20.4577 2.66537 22.6668C2.66537 24.876 4.45623 26.6668 6.66537 26.6668Z" stroke="currentColor" stroke-width="2" stroke-linecap="round" stroke-linejoin="round"/>
</svg>
