<svg width="54" height="54" viewBox="0 0 54 54" fill="none" xmlns="http://www.w3.org/2000/svg">
<path fill-rule="evenodd" clip-rule="evenodd" d="M38.2277 0.258926L37.9688 0.517746V6.46734C37.9688 12.3267 37.972 12.4211 38.1874 12.6947L38.4059 12.9727H44.9189H51.4319L51.6613 12.7286C51.8866 12.4888 51.8906 12.4269 51.8906 9.20626V5.92808L52.2861 5.58784C52.5037 5.40074 52.9783 4.96304 53.3408 4.61531C53.8982 4.08059 54 3.92723 54 3.62148C54 3.15573 53.6072 2.74219 53.1647 2.74219C52.7973 2.74219 52.8879 2.66868 49.7545 5.51074C48.4914 6.65634 47.4219 7.59375 47.3781 7.59375C47.3343 7.59375 46.875 7.16839 46.3574 6.64843C45.3774 5.66388 45.0249 5.47552 44.5931 5.70554C44.2335 5.89707 44.093 6.12679 44.0893 6.52968C44.0864 6.84956 44.2288 7.03466 45.3779 8.20315C46.747 9.59534 47.1641 9.87609 47.6109 9.70629C47.7569 9.65071 48.3998 9.12442 49.0397 8.53654L50.2031 7.46771V9.37649V11.2852H44.9824H39.7617V6.48633V1.6875H45.5969H51.4319L51.6613 1.44345C51.9755 1.1089 51.9686 0.531879 51.6466 0.229289L51.4024 0H44.9445H38.4865L38.2277 0.258926ZM30.6833 5.89813L30.375 6.20641V16.1813V26.1562H29.1805C28.0683 26.1562 27.9702 26.173 27.7566 26.4003C27.4424 26.7349 27.4494 27.3119 27.7714 27.6145C27.992 27.8217 28.1291 27.8438 29.1952 27.8438H30.375V37.8187V47.7936L30.6833 48.1019L30.9916 48.4102H33.4196C35.7873 48.4102 35.8543 48.4043 36.1172 48.1729C36.2656 48.0423 36.4161 47.7833 36.4519 47.597C36.5062 47.3139 36.4643 47.2059 36.1962 46.9378L35.8756 46.6172H34.0218H32.168V37.2305V27.8438H34.0206C35.0396 27.8438 35.9585 27.7981 36.0628 27.7423C36.167 27.6865 36.312 27.4967 36.385 27.3204C36.5404 26.9454 36.384 26.4296 36.0628 26.2577C35.9585 26.2019 35.0396 26.1562 34.0206 26.1562H32.168V16.7695V7.38281H34.0218H35.8756L36.1839 7.07453C36.3697 6.88869 36.4922 6.65508 36.4922 6.48633C36.4922 6.31758 36.3697 6.08396 36.1839 5.89813L35.8756 5.58984H33.4336H30.9916L30.6833 5.89813ZM0.229289 10.4745L0 10.7187V27.0148V43.3108L0.244055 43.5402L0.488215 43.7695L11.9775 43.7662C24.3809 43.7626 23.7115 43.7942 23.9373 43.2003C24.0788 42.8279 24.0906 17.7365 23.9493 17.3828C23.8624 17.1654 17.7506 10.6898 17.3231 10.3623C17.1889 10.2594 15.3198 10.2305 8.80485 10.2305H0.458684L0.229289 10.4745ZM1.6875 27V42.082H11.9707H22.2539V30.3223V18.5625H19.254H16.254L15.9581 18.3081L15.6621 18.0537L15.6312 14.9858L15.6002 11.918H8.6439H1.6875V27ZM17.4023 14.8881V16.7695H19.2181H21.0338L20.4574 16.1637C20.1403 15.8304 19.3232 14.9838 18.6416 14.2822L17.4023 13.0066V14.8881ZM4.25419 18.0956C4.02806 18.3218 3.99305 18.4317 4.04483 18.7548C4.1696 19.5345 4.01941 19.5117 9.03403 19.5117H13.5096L13.7684 19.2528C13.9317 19.0896 14.0273 18.8734 14.0273 18.668C14.0273 18.4625 13.9317 18.2463 13.7684 18.0831L13.5096 17.8242H9.01758H4.52556L4.25419 18.0956ZM38.4434 20.587C37.9669 20.8633 37.9755 20.745 37.9755 27C37.9755 31.5223 38.0064 32.9994 38.104 33.1264C38.4159 33.5326 38.5231 33.5391 45.033 33.5391H51.3729L51.6317 33.2801L51.8906 33.0213V29.7611V26.5007L52.9453 25.5066C53.8442 24.6592 54 24.4637 54 24.1828C54 24.0015 53.9705 23.7763 53.9345 23.6825C53.8381 23.4313 53.2793 23.1758 52.9868 23.2493C52.848 23.2841 51.536 24.3986 50.0713 25.7258L47.4082 28.1392L46.3856 27.1477C45.4794 26.2691 45.3198 26.1562 44.9834 26.1562C44.4853 26.1562 44.0859 26.5395 44.0859 27.0174C44.0859 27.3181 44.267 27.5419 45.5402 28.8152C47.3656 30.6405 47.2812 30.6245 48.6355 29.3994C49.1646 28.9208 49.7337 28.4191 49.9002 28.2844L50.2031 28.0394V29.8928V31.7461H44.9824H39.7617V27.0026V22.2591L45.6246 22.2302L51.4875 22.2012L51.6891 21.9522C51.9473 21.6332 51.9473 21.0815 51.6891 20.7627L51.4874 20.5137L45.0709 20.4892C40.3566 20.4712 38.5983 20.4971 38.4434 20.587ZM4.57281 23.4132C4.30228 23.5224 4.00781 23.9173 4.00781 24.1708C4.00781 24.4897 4.23341 24.8634 4.49898 24.9845C4.67954 25.0667 6.93858 25.1016 12.086 25.1016H19.4158L19.6747 24.8426C20.0558 24.4615 20.0284 23.9346 19.6091 23.5817L19.2846 23.3086L12.0417 23.3152C8.05813 23.3189 4.69716 23.363 4.57281 23.4132ZM4.46808 29.0218C4.22392 29.1401 4.00781 29.5273 4.00781 29.8467C4.00781 29.9568 4.12235 30.18 4.26231 30.3427L4.5168 30.6387L11.777 30.6685C15.77 30.6849 19.1426 30.6724 19.2715 30.6409C19.9197 30.4819 20.1504 29.633 19.6747 29.1574L19.4158 28.8984L12.0546 28.9056C7.2148 28.9102 4.61616 28.9501 4.46808 29.0218ZM4.33266 34.6729C4.20852 34.7743 4.0789 35.0319 4.04483 35.2452C3.99305 35.5683 4.02806 35.6782 4.25419 35.9044L4.52556 36.1758H12.011H19.4964L19.715 35.8979C20.0109 35.5218 19.995 35.0674 19.6747 34.7472L19.4158 34.4883H11.9872C5.06862 34.4883 4.54307 34.5009 4.33266 34.6729ZM38.2277 41.2863L37.9688 41.5451V47.5137V53.4823L38.2277 53.7411L38.4865 54H44.9592H51.4319L51.6613 53.7559C51.8865 53.5161 51.8906 53.4539 51.8906 50.2457V46.9796L52.9453 46C53.9298 45.0858 54 44.9934 54 44.6136C54 44.1361 53.6309 43.7695 53.1501 43.7695C52.7976 43.7695 52.7554 43.8035 49.9395 46.3535C48.7213 47.4567 47.6398 48.4254 47.5362 48.5062C47.3658 48.6392 47.2495 48.5564 46.3118 47.6352C45.225 46.5674 45.0617 46.4889 44.5154 46.7715C44.18 46.9449 44.0859 47.1231 44.0859 47.5845C44.0859 47.8482 44.3042 48.1245 45.3779 49.2205C46.7743 50.6457 46.9309 50.7657 47.3781 50.7529C47.7147 50.7433 47.9107 50.5986 49.2435 49.3744L50.2031 48.4928V50.4027V52.3125H44.9824H39.7617V47.5137V42.7148H45.5969H51.4319L51.6613 42.4708C51.9755 42.1362 51.9686 41.5592 51.6466 41.2566L51.4024 41.0273H44.9445H38.4865L38.2277 41.2863Z" fill="#1BCE1B"/>
</svg>
