<svg width="56" height="56" viewBox="0 0 56 56" fill="none" xmlns="http://www.w3.org/2000/svg">
<path fill-rule="evenodd" clip-rule="evenodd" d="M20.6238 6.21498C20.3216 6.36619 19.9605 6.67648 19.8213 6.90454C19.6821 7.13273 18.8174 9.21111 17.8995 11.5232L16.2309 15.727V16.975C16.2309 18.0974 16.2696 18.3002 16.6159 18.9903C16.8332 19.4237 17.2935 20.028 17.6732 20.3785L18.3457 20.9991L17.9755 21.5005C17.7719 21.7763 17.5425 22.1944 17.4656 22.4295C17.3329 22.8357 17.0357 22.9973 11.5213 25.6634C7.6967 27.5125 5.57617 28.6094 5.30497 28.8791C4.74632 29.4345 4.51857 30.277 4.72134 31.0376C4.92399 31.7981 5.67112 32.5544 6.34553 32.6822C7.13024 32.8309 15.8915 31.5036 16.7667 31.1034C18.1444 30.4735 19.0073 29.3705 19.3614 27.7869C19.5411 26.9832 19.6028 26.8668 19.8185 26.9238C20.0617 26.988 20.0679 27.2506 20.0679 37.4839V47.978H11.8677H3.66726L3.33987 48.3086C2.98491 48.6671 3.00481 49.0829 3.3919 49.3902C3.55566 49.5203 8.69251 49.5544 28.0828 49.5544C50.1676 49.5544 52.5869 49.5342 52.7713 49.348C53.0612 49.0551 53.0338 48.4128 52.7241 48.2453C52.5639 48.1587 50.7461 48.1094 47.7164 48.1094H42.9603V46.7957V45.482H46.7397C49.0456 45.482 50.7396 45.4259 51.0846 45.3383C52.0648 45.0889 52.6859 44.0761 52.4628 43.0909C52.3702 42.6823 48.181 32.7505 47.1116 30.4041C46.3418 28.7155 46.7687 28.8059 39.5134 28.7946L33.5302 28.7852L31.5927 26.2794C29.5989 23.7009 29.0114 23.1362 27.8985 22.7279C27.0531 22.4176 25.7028 22.4292 24.7869 22.7543C24.0451 23.0176 23.8476 22.9725 23.8419 22.5385C23.8409 22.4554 23.6404 22.088 23.3964 21.7219L22.953 21.0564L23.4686 14.582C24.0276 7.56204 24.0271 7.52328 23.3548 6.71629C22.6923 5.92111 21.6094 5.72235 20.6238 6.21498ZM21.1839 7.81203C21.0791 7.97454 20.2582 9.98395 19.36 12.2773C17.5749 16.8343 17.4928 17.1924 17.9942 18.2384C18.1601 18.5845 18.5979 19.0743 19.1468 19.5279C19.9796 20.2161 20.0735 20.2592 20.739 20.2592H21.446L21.8712 14.5775C22.1051 11.4525 22.3272 8.70928 22.365 8.48122C22.4939 7.70247 21.5864 7.18829 21.1839 7.81203ZM9.21162 9.50025C6.92135 11.3611 5.00204 14.1506 3.96017 17.1326C3.11459 19.5532 2.73921 22.9754 3.26664 23.4574C3.57933 23.7432 4.01142 23.7332 4.3085 23.4332C4.49203 23.2478 4.5663 22.9047 4.62834 21.9553C4.92607 17.3917 6.96375 13.5083 10.7354 10.3163C11.2887 9.84798 11.3891 9.28533 10.9853 8.91619C10.5859 8.55111 10.2392 8.66527 9.21162 9.50025ZM30.4287 8.93904C30.3103 9.0712 30.2134 9.35955 30.2134 9.57986C30.2134 9.90999 30.3384 10.0779 30.9232 10.5335C34.2834 13.1518 36.5166 17.486 36.8082 21.9553C36.8702 22.9047 36.9445 23.2478 37.128 23.4332C37.4337 23.7419 37.9165 23.7426 38.1925 23.4345C38.6873 22.8822 38.3028 19.4983 37.4764 17.1326C36.4345 14.1506 34.5152 11.3611 32.2249 9.50025C31.1885 8.65818 30.7914 8.53417 30.4287 8.93904ZM11.492 13.6407C9.15075 15.8652 7.81168 18.635 7.51421 21.8681C7.40209 23.0874 7.59563 23.5434 8.22504 23.5434C8.80646 23.5434 9.14178 23.021 9.14295 22.1135C9.14412 21.2118 9.53771 19.5003 9.97227 18.5079C10.6278 17.0107 11.8947 15.3318 13.1252 14.3295C13.7287 13.8378 13.8731 13.5007 13.6669 13.0643C13.5359 12.7868 13.3912 12.6964 13.0287 12.6658C12.6019 12.6297 12.4642 12.7171 11.492 13.6407ZM27.7979 12.964C27.4914 13.4364 27.6738 13.7943 28.6421 14.6205C30.7728 16.4385 32.0963 19.0762 32.3607 22.0327C32.4179 22.6721 32.5332 23.1736 32.6549 23.3135C32.9254 23.6241 33.4058 23.6033 33.7392 23.2666C33.9882 23.0152 34.0053 22.8972 33.9257 21.9858C33.7859 20.384 33.3725 18.8504 32.6993 17.4357C31.9436 15.8479 31.1788 14.8022 29.8704 13.5681C29.0536 12.7976 28.8118 12.6398 28.4473 12.6398C28.1239 12.6398 27.9528 12.7254 27.7979 12.964ZM20.1137 21.9778C18.9731 22.3153 18.5008 23.8361 19.233 24.8136C19.7868 25.5531 20.84 25.6808 21.6453 25.1061C22.026 24.8344 22.4092 24.1165 22.4092 23.6748C22.4092 23.2331 22.026 22.5152 21.6453 22.2435C21.2008 21.9264 20.6251 21.8264 20.1137 21.9778ZM24.7817 24.4383C24.2055 24.6526 23.8091 24.8797 23.7646 25.0211C23.7247 25.1485 23.5424 25.4321 23.3595 25.6516C23.1767 25.871 23.0491 26.0687 23.0759 26.0909C23.4019 26.3618 32.8283 32.8106 33.0424 32.9092C33.2478 33.0039 33.4321 32.9995 33.6602 32.8945C34.1706 32.6596 34.0838 32.1607 33.3716 31.2366C30.4136 27.3983 28.4208 24.9249 28.0821 24.6712C27.1549 23.9769 26.2024 23.9097 24.7817 24.4383ZM11.9372 27.3446C6.19933 30.087 5.94765 30.2437 6.33265 30.8332C6.42747 30.9784 6.65926 31.1158 6.84786 31.1386C7.26434 31.1892 15.2722 30.029 15.8902 29.8286C16.4113 29.6597 17.2762 28.9027 17.5425 28.3826C17.6467 28.1793 17.8227 27.5692 17.9337 27.0269C18.1295 26.071 18.1274 26.0292 17.867 25.6598C17.7192 25.4502 17.5534 25.1562 17.4985 25.0063C17.4049 24.7507 17.064 24.8942 11.9372 27.3446ZM21.6288 37.589V48.1094H28.3274H35.026V46.7957V45.482H31.2498C27.0519 45.482 26.7782 45.4369 26.3147 44.6688C26.1655 44.4217 26.0519 44.0036 26.0517 43.7004C26.0513 43.3467 26.6655 41.4248 27.8721 38.0033C28.8737 35.1635 29.6904 32.773 29.6869 32.6911C29.6817 32.5646 22.1055 27.2383 21.7517 27.1123C21.6752 27.085 21.6288 31.0372 21.6288 37.589ZM35.1407 31.0308C35.6066 31.6804 35.7319 32.3058 35.5402 33.025C35.2578 34.0842 34.0724 34.854 33.0284 34.6563C32.7745 34.6081 32.263 34.3624 31.8921 34.1103C31.5211 33.8581 31.1835 33.6861 31.142 33.7282C31.1003 33.7702 30.9404 34.156 30.7864 34.5856L30.5063 35.3666H34.392H38.2777V32.9363V30.506H36.521H34.7642L35.1407 31.0308ZM39.8386 32.868V35.2352H43.6106C45.6852 35.2352 47.3826 35.2109 47.3826 35.1814C47.3826 35.1517 46.9481 34.1023 46.4169 32.8496L45.4511 30.5716L42.6448 30.5362L39.8386 30.5008V32.868ZM29.8882 36.974C29.8562 37.0653 29.331 38.5536 28.721 40.2814C28.1111 42.0091 27.612 43.4954 27.612 43.5844C27.612 43.6733 27.7046 43.7819 27.8178 43.8258C27.9309 43.8697 30.3316 43.9056 33.1527 43.9056H38.282L38.2473 40.3914L38.2127 36.8773L34.0796 36.8427C30.8412 36.8155 29.9339 36.8438 29.8882 36.974ZM39.8386 40.3568V43.7742H45.3666C49.9831 43.7742 50.8945 43.7442 50.8945 43.5926C50.8945 43.4928 50.2898 41.9706 49.5506 40.2099L48.2069 37.0087L44.0227 36.974L39.8386 36.9393V40.3568ZM36.7169 46.7957V48.1094H39.0582H41.3994V46.7957V45.482H39.0582H36.7169V46.7957Z" fill="currentColor"/>
</svg>
