<svg width="54" height="54" viewBox="0 0 54 54" fill="none" xmlns="http://www.w3.org/2000/svg">
<g clip-path="url(#clip0_5001_20358)">
<path fill-rule="evenodd" clip-rule="evenodd" d="M23.9972 0.362066C23.9711 0.406363 23.8195 1.08337 23.6605 1.86647C23.5014 2.64958 23.3179 3.3424 23.2526 3.406C23.1873 3.4697 22.7543 3.65322 22.2902 3.81395C21.8262 3.97469 21.128 4.26631 20.7386 4.46216L20.0308 4.81823L18.6819 3.92976L17.3332 3.04139L15.0301 5.33745L12.7269 7.6335L13.1948 8.74377L13.6627 9.85404L12.9139 9.91332C10.4336 10.1095 8.34114 11.7553 7.56679 14.119C7.3376 14.8189 7.31366 15.0713 7.31366 16.7903C7.31366 18.4587 7.34203 18.7782 7.54759 19.427C7.87433 20.4584 8.4657 21.402 9.23847 22.1252C10.1772 23.0037 10.1509 23.0659 8.68897 23.4225L7.4802 23.7173L5.28181 22.4423L3.08341 21.1673H1.69112H0.298828L0.325723 30.2022L0.352723 39.2372L4.57052 40.6436C8.60555 41.9891 8.82555 42.0501 9.64905 42.0501H10.5098L10.6201 41.7337C10.6807 41.5596 10.7604 41.4173 10.7969 41.4173C10.8335 41.4173 11.4214 41.751 12.1033 42.1587L13.3433 42.9001L13.4642 43.4235C13.7027 44.4571 14.4368 45.2056 15.4472 45.4456C15.9605 45.5676 15.9776 45.5841 16.0929 46.0694C16.3363 47.0941 17.0934 47.8438 18.125 48.0819C18.5881 48.1889 18.6519 48.2362 18.6539 48.4754C18.6603 49.2295 19.4832 50.2494 20.3245 50.5462C21.2441 50.8705 21.2882 50.8979 21.2906 51.1445C21.2942 51.5198 21.6439 52.1982 22.0358 52.59C22.7901 53.3443 24.0239 53.5815 24.9838 53.1568L25.4626 52.9449L25.9329 53.3622C26.71 54.0518 27.1361 54.2269 28.0383 54.2269C28.642 54.2269 28.9296 54.1737 29.2525 54.0025C30.0326 53.5893 30.5741 52.8731 30.7284 52.0506C30.7899 51.7224 30.8463 51.6646 31.1536 51.6147C32.2797 51.432 33.0836 50.5887 33.3592 49.301C33.4083 49.0714 33.4812 49.0105 33.7092 49.0087C34.3648 49.0034 35.3277 48.3302 35.6947 47.6206C35.7838 47.4484 35.8903 47.1105 35.9314 46.8697C36.0021 46.4557 36.0298 46.428 36.4438 46.3573C37.0669 46.2509 37.4463 46.0277 37.9216 45.4876C38.3525 44.9982 38.5851 44.4264 38.5851 43.8573V43.5269L46.3895 39.6244C50.682 37.4781 54.2167 35.7219 54.2444 35.7219C54.272 35.7219 54.3091 36.4932 54.3266 37.4358C54.3441 38.3785 54.359 35.068 54.36 30.0794C54.3609 25.0907 54.346 21.448 54.3269 21.9846L54.2921 22.9602H53.2987H52.3051L50.8815 23.7051L49.4579 24.45L48.7413 24.1945C48.3471 24.054 47.2771 23.756 46.3635 23.5322C44.9777 23.1928 44.7023 23.0935 44.7023 22.9336C44.7023 22.8283 44.999 22.4644 45.3615 22.1252C46.1192 21.4162 46.7213 20.4651 47.0367 19.4798C47.3436 18.5205 47.4284 16.0625 47.1931 14.9446C46.8073 13.1109 45.5635 11.4135 44.0102 10.6009C43.1587 10.1554 42.5977 9.98904 41.6331 9.89634L40.9368 9.82936L41.4054 8.73186L41.8739 7.63424L39.5703 5.33787L37.2668 3.04139L35.918 3.92976L34.5692 4.81823L33.8614 4.46216C33.472 4.26631 32.7738 3.97437 32.3098 3.81343C31.8457 3.65237 31.4185 3.47877 31.3605 3.42762C31.3025 3.37636 31.1125 2.66012 30.9382 1.83578L30.6215 0.337176L27.3331 0.309332C25.5245 0.294039 24.0234 0.317769 23.9972 0.362066ZM25.3516 2.20925C25.3218 2.33982 25.2019 2.89743 25.0851 3.4485C24.9684 3.99958 24.8498 4.55192 24.8218 4.67584C24.7857 4.835 24.6605 4.9219 24.3955 4.97158C23.4123 5.15604 21.4438 5.96646 20.3613 6.63239L20.0144 6.84576L18.7793 6.04831L17.5441 5.25086L16.153 6.63588L14.7619 8.02078L14.9166 8.39773C15.7156 10.3447 15.7335 10.3757 16.203 10.6247C16.4525 10.7571 16.8636 11.0476 17.1166 11.2703C17.3696 11.4929 17.6167 11.675 17.6657 11.6749C17.7149 11.6748 17.9212 11.4295 18.1242 11.13C18.6678 10.3281 19.9941 9.0297 20.8808 8.43148C22.9251 7.05237 24.8506 6.46143 27.3 6.46143C28.8052 6.46143 29.4652 6.56268 30.8332 7.00333C32.9916 7.69858 35.0446 9.17925 36.3687 10.9956C36.6199 11.3403 36.8392 11.6395 36.8558 11.6605C36.8724 11.6815 37.109 11.5154 37.3814 11.2914C37.654 11.0674 38.0937 10.7654 38.3586 10.6204C38.81 10.3733 38.8717 10.2837 39.3406 9.19655L39.8409 8.03639L38.4524 6.64146C37.1655 5.34873 37.048 5.25677 36.8489 5.3866C36.7307 5.46359 36.1718 5.82271 35.607 6.18447L34.5801 6.84238L34.2359 6.63071C33.1559 5.96636 31.1865 5.15583 30.2045 4.97158C29.9394 4.9219 29.8143 4.835 29.7782 4.67584C29.7501 4.55192 29.6289 3.97585 29.509 3.39577C29.3891 2.81569 29.2669 2.25797 29.2376 2.15651C29.1894 1.98955 29.0036 1.97194 27.2949 1.97194C25.4219 1.97194 25.4051 1.97395 25.3516 2.20925ZM26.5617 8.1541C25.143 8.31135 24.1969 8.58304 23.0367 9.16597C21.5068 9.93483 20.2147 11.0796 19.294 12.4821L18.7733 13.2752L19.0278 13.9514C19.3706 14.8621 19.5378 16.3785 19.4452 17.7372C19.3163 19.6277 18.6296 21.1458 17.4258 22.2015C16.5032 23.0105 16.5509 23.0679 18.5701 23.5733L20.2817 24.0017L22.0506 23.5626C23.4856 23.2063 23.8195 23.0891 23.8195 22.9414C23.8195 22.8414 23.4752 22.413 23.0543 21.9897C21.6155 20.5424 21.2444 19.4795 21.2391 16.7903C21.2352 14.818 21.3297 14.324 21.9444 13.1044C22.3893 12.2219 23.659 10.979 24.5634 10.5406C26.939 9.38945 29.6526 9.81238 31.4394 11.6123C32.9492 13.1331 33.5099 14.81 33.3825 17.4231C33.2766 19.5946 32.8348 20.693 31.5456 21.9897C31.1248 22.413 30.7805 22.8414 30.7805 22.9414C30.7805 23.0891 31.1144 23.2063 32.5494 23.5626L34.3183 24.0017L36.0298 23.5733C38.049 23.0679 38.0968 23.0105 37.1742 22.2015C35.9108 21.0936 35.2611 19.593 35.1511 17.5286C35.0738 16.0766 35.1995 14.8862 35.5369 13.8762L35.7705 13.1768L35.2719 12.427C33.8716 10.3206 31.5341 8.76381 29.093 8.31177C28.3859 8.18078 27.0636 8.09841 26.5617 8.1541ZM12.6582 11.6756C11.36 11.8693 9.96968 12.93 9.40911 14.1544C8.82334 15.4339 8.82766 18.3251 9.41723 19.5301C9.76876 20.2486 10.3919 20.9508 11.0561 21.3771L11.5851 21.7165V23.1101V24.5037L10.7678 24.6938C10.3181 24.7984 9.89385 24.9142 9.82477 24.9512C9.75537 24.9883 10.7115 25.6073 11.9641 26.336L14.2289 27.6536L14.1991 28.5815C14.1706 29.4631 14.1797 29.5069 14.3801 29.4593C14.4961 29.4318 15.0951 29.301 15.7112 29.1687L16.8315 28.9284L16.8876 28.1327C16.952 27.2181 17.2512 26.3399 17.7005 25.7461C17.8723 25.519 18.0142 25.3026 18.0158 25.265C18.0174 25.2275 17.3842 25.0409 16.6088 24.8504L15.1988 24.5043L15.1323 23.7163C15.0956 23.283 15.0656 22.6763 15.0656 22.3681V21.808L15.6898 21.3841C16.4424 20.8729 16.9639 20.2584 17.3567 19.4196C17.6293 18.8373 17.652 18.6839 17.6852 17.1922C17.7135 15.9257 17.684 15.4619 17.5441 14.9774C16.8925 12.7194 14.8614 11.3468 12.6582 11.6756ZM26.5662 11.6876C24.984 11.9556 23.6461 13.1342 23.1373 14.7085C22.9907 15.1623 22.9645 15.585 22.9933 17.0288C23.0278 18.755 23.0359 18.8097 23.3595 19.4927C23.7518 20.3208 24.2699 20.9227 24.9853 21.3818L25.507 21.7165V23.1051V24.4937L22.8166 25.1629C19.9004 25.8883 19.5484 26.0438 19.0279 26.8354C18.7619 27.2398 18.4984 28.1684 18.5854 28.3948C18.6223 28.4911 18.8014 28.4879 19.3545 28.381C20.4048 28.178 22.4376 28.1847 23.4504 28.3945C24.2012 28.5501 27.1077 29.4149 27.8963 29.7174C28.0614 29.7808 28.5762 29.8951 29.0402 29.9717C29.5043 30.0481 31.0649 30.4502 32.5082 30.8651C34.3095 31.3829 35.2687 31.6095 35.5668 31.5877L36.0012 31.5559L36.0305 29.9212C36.0631 28.1072 35.9618 27.4241 35.5732 26.8354C35.0503 26.0432 34.699 25.8882 31.7834 25.1629L29.093 24.4937V23.1051V21.7165L29.6147 21.3818C30.3301 20.9227 30.8482 20.3208 31.2405 19.4927C31.5596 18.8193 31.5727 18.7359 31.6075 17.1716C31.6475 15.3784 31.5735 14.9407 31.0661 13.967C30.1892 12.2847 28.3981 11.3773 26.5662 11.6876ZM40.4881 11.6876C39.1161 11.92 37.9904 12.7765 37.3476 14.0773L36.9504 14.8809V16.8375V18.7942L37.2776 19.4847C37.6819 20.3378 38.1233 20.8497 38.9232 21.3929L39.5406 21.8122L39.5111 23.1445L39.4816 24.4768L38.0597 24.8327C37.2776 25.0286 36.62 25.2066 36.5983 25.2282C36.5767 25.2499 36.707 25.4739 36.8879 25.7258C37.5255 26.6137 37.6689 27.1693 37.7188 28.9456C37.7436 29.8301 37.7891 30.554 37.8197 30.554C37.9243 30.554 47.2279 25.6499 47.2307 25.5932C47.2323 25.5621 46.2844 25.3028 45.1242 25.0169L43.0148 24.4969V23.1136V21.7301L43.5368 21.3919C44.1953 20.9652 44.8332 20.2444 45.1805 19.5345C45.56 18.759 45.7185 17.2766 45.5658 15.9321C45.2403 13.0674 43.0674 11.2509 40.4881 11.6876ZM0.350402 30.1848C0.350402 35.1735 0.36327 37.1989 0.37909 34.6857C0.394805 32.1725 0.394805 28.0909 0.37909 25.6154C0.36327 23.1399 0.350402 25.1962 0.350402 30.1848ZM2.01312 30.4749L2.04022 37.9895L3.86747 38.6091C4.87965 38.9523 5.73173 39.1875 5.77761 39.1365C5.92358 38.9738 8.96034 26.621 8.87365 26.5426C8.82777 26.5009 7.42873 25.6779 5.76475 24.7135C3.39159 23.3382 2.65816 22.9602 2.36275 22.9602H1.98612L2.01312 30.4749ZM44.2805 29.1382L36.2121 33.4063L35.4612 33.3481C34.9948 33.3119 33.6763 32.9946 31.9807 32.5106C30.4794 32.082 29.0314 31.6992 28.7627 31.6599C27.8919 31.5325 27.2096 31.7702 24.3367 33.2018C21.4253 34.6525 21.1842 34.8319 21.1832 35.5478C21.1822 36.2975 21.893 36.9784 22.5398 36.8472C22.6926 36.8163 23.6719 36.2873 24.716 35.6716C26.8355 34.4221 27.4541 34.1861 28.3455 34.2871C29.483 34.416 29.9314 34.7442 34.043 38.4562L37.8857 41.9255L45.2491 38.2435L52.6125 34.5615V29.7101C52.6125 25.8963 52.5843 24.8599 52.4807 24.8644C52.4082 24.8675 48.7181 26.7906 44.2805 29.1382ZM10.4766 27.6295C10.3922 27.8697 7.47186 39.6205 7.47186 39.7196C7.47186 39.8181 9.1389 40.4183 9.21125 40.3458C9.33972 40.2173 12.5389 28.7239 12.4658 28.6533C12.4166 28.6058 11.959 28.3268 11.4491 28.0335C10.8348 27.6801 10.5067 27.5438 10.4766 27.6295ZM20.0754 29.9972C19.3933 30.0929 13.6485 31.4022 13.5834 31.4767C13.49 31.5835 11.2295 39.6222 11.281 39.6646C11.3032 39.6829 11.8939 40.038 12.5934 40.4537L13.8653 41.2095L14.9376 40.1484C16.1623 38.9364 16.6453 38.6656 17.5901 38.661C18.723 38.6557 19.7182 39.3236 20.0736 40.3278C20.4077 41.2719 20.4322 41.3117 20.6796 41.3141C21.6027 41.3231 22.8602 42.6028 22.868 43.5413C22.87 43.7789 22.9281 43.8303 23.2658 43.8929C24.4175 44.1064 25.507 45.2342 25.507 46.2127C25.507 46.419 25.561 46.48 25.7443 46.4808C26.2776 46.4831 27.7219 47.4132 27.7219 47.7542C27.7219 47.9462 30.0023 49.754 30.3737 49.8563C31.0454 50.0415 31.6242 49.6517 31.6242 49.0141C31.6242 48.5479 31.563 48.4867 28.8293 46.2186C27.7271 45.3042 26.8147 44.5262 26.8018 44.4896C26.7888 44.4531 27.0261 44.1479 27.3291 43.8116L27.8801 43.2001L29.9894 44.959C32.7167 47.2331 32.8426 47.3235 33.2829 47.3235C33.7469 47.3235 34.2611 46.8423 34.2604 46.4088C34.2597 45.9847 34.0455 45.7701 31.5978 43.74C30.3941 42.7417 29.4105 41.8938 29.4119 41.8557C29.4134 41.8175 29.6625 41.5152 29.9656 41.1838L30.5168 40.5813L32.9716 42.634C35.2247 44.5182 35.4596 44.6868 35.8314 44.6868C36.5657 44.6868 37.0517 44.0478 36.7928 43.4226C36.6675 43.1202 29.4086 36.5364 28.8477 36.2165C28.6045 36.0777 28.3543 36.036 27.9328 36.064C27.4142 36.0984 27.1526 36.222 25.4664 37.2295C24.429 37.8494 23.4086 38.4042 23.1988 38.4625C21.8335 38.8418 20.4499 38.2314 19.8207 36.9722C19.2662 35.8625 19.4141 34.537 20.194 33.6259C20.4943 33.275 21.0296 32.9582 23.0095 31.9598L25.4543 30.727L24.7074 30.4903C23.1178 29.9863 21.4318 29.8068 20.0754 29.9972ZM16.2214 41.3739C15.5849 41.9994 15.1713 42.4924 15.1375 42.6659C15.0105 43.3191 15.6648 43.9527 16.3029 43.7945C16.47 43.7531 17.0121 43.3056 17.5705 42.7482C18.4805 41.8397 18.5461 41.7455 18.5461 41.3465C18.5461 40.7806 18.1527 40.3626 17.6205 40.3626C17.2953 40.3626 17.1272 40.4841 16.2214 41.3739ZM18.7972 43.9749C18.2398 44.5332 17.7923 45.0753 17.7508 45.2425C17.588 45.8994 18.2718 46.575 18.9376 46.4152C19.1111 46.3735 19.6317 45.9425 20.2072 45.364C21.1055 44.4612 21.1828 44.3506 21.1828 43.9694C21.1828 43.3904 20.7862 42.9993 20.1989 42.9993C19.7999 42.9993 19.7057 43.0649 18.7972 43.9749ZM22.5946 45.6031C22.4721 45.6271 21.9143 46.1124 21.3553 46.6814C20.2936 47.7621 20.1819 47.9915 20.4617 48.517C20.6521 48.8743 20.883 49.004 21.3352 49.0076C21.7227 49.0108 21.8225 48.9398 22.7854 47.9769C23.8711 46.8913 23.9643 46.7019 23.6994 46.1206C23.6012 45.9052 22.9931 45.4908 22.8544 45.5449C22.8341 45.5528 22.7173 45.5789 22.5946 45.6031ZM24.9269 48.3628C24.7529 48.47 24.2427 48.9439 23.7932 49.416C23.0619 50.1838 22.9758 50.3174 22.9758 50.683C22.9758 51.2483 23.3758 51.6477 23.9419 51.6477C24.311 51.6477 24.4399 51.5631 25.2364 50.7985C26.2994 49.7779 26.5248 49.3799 26.346 48.8386C26.257 48.5687 26.1226 48.4216 25.868 48.3152C25.4091 48.1236 25.3073 48.1287 24.9269 48.3628ZM27.7125 50.6194C27.5834 50.808 27.3075 51.1422 27.0993 51.3623L26.7209 51.7625L27.1422 52.123C27.374 52.3214 27.6586 52.4927 27.7746 52.5039C28.4156 52.5658 28.8148 52.3613 29.0004 51.8762C29.129 51.5395 28.8803 51.0514 28.3599 50.6194L27.9471 50.2767L27.7125 50.6194Z" fill="#1BCE1B"/>
</g>
<defs>
<clipPath id="clip0_5001_20358">
<rect width="54" height="54" fill="white"/>
</clipPath>
</defs>
</svg>
