<svg width="54" height="54" viewBox="0 0 54 54" fill="none" xmlns="http://www.w3.org/2000/svg">
<g clip-path="url(#clip0_5001_20363)">
<path d="M44.5 0.918627H44.5244L44.5469 0.931322L44.9668 1.15788L45.1533 1.26726C45.5782 1.54025 45.9285 1.92479 46.1758 2.38933C46.2802 2.58573 46.3287 2.78788 46.3545 3.62859C46.3804 4.47371 46.3838 5.98365 46.3838 8.81316C46.3838 12.1913 46.3961 13.7966 46.3027 14.5534C46.2793 14.7433 46.2475 14.8871 46.2051 14.9948C46.162 15.1038 46.1046 15.1828 46.0244 15.2321C45.9459 15.2802 45.8579 15.2928 45.7734 15.2956C45.7309 15.297 45.6859 15.2958 45.6406 15.2946C45.5945 15.2934 45.5466 15.2927 45.4961 15.2927C45.4031 15.2927 45.2993 15.2975 45.2207 15.2946C45.1364 15.2915 45.0489 15.2796 44.9707 15.2321C44.8908 15.1835 44.8328 15.1059 44.7891 14.9987C44.746 14.8928 44.7139 14.751 44.6895 14.5651C44.5924 13.8254 44.5963 12.2605 44.5801 8.97527C44.5657 6.06473 44.5582 4.60479 44.5264 3.84246C44.5104 3.46 44.4892 3.26131 44.46 3.14519C44.4458 3.08925 44.4301 3.05551 44.415 3.03093C44.3995 3.00569 44.3815 2.98558 44.3535 2.95574L44.1572 2.74675H16.6367L16.4229 2.94695L16.2119 3.14617V17.6657L23.875 17.694C28.2358 17.7099 30.2767 17.7035 31.2246 17.7985C31.4623 17.8224 31.6381 17.8527 31.7666 17.8942C31.895 17.9357 31.9883 17.9913 32.0459 18.0729C32.1036 18.1547 32.1145 18.2477 32.1152 18.3337C32.1156 18.3766 32.1135 18.4226 32.1113 18.4675C32.1091 18.5133 32.1065 18.5603 32.1064 18.61C32.1065 18.66 32.1091 18.7076 32.1113 18.7536C32.1135 18.7985 32.1156 18.8445 32.1152 18.8874C32.1145 18.9732 32.1034 19.0655 32.0459 19.1471C31.9883 19.2287 31.8949 19.2843 31.7666 19.3259C31.6381 19.3674 31.4622 19.3987 31.2246 19.4225C30.2767 19.5176 28.2356 19.5102 23.875 19.526L16.2119 19.5534V20.0641C16.2119 20.3141 16.2237 20.4646 16.2549 20.5729C16.2841 20.674 16.3316 20.7439 16.4209 20.8278L16.6328 21.026L23.6953 21.0553C27.6857 21.0713 29.5625 21.0642 30.4385 21.1598C30.6582 21.1838 30.8217 21.2155 30.9424 21.2575C31.0635 21.2997 31.1514 21.3559 31.2061 21.4372C31.2602 21.5178 31.2719 21.6086 31.2734 21.694C31.2742 21.7369 31.2723 21.7827 31.2705 21.8278C31.2686 21.8737 31.2666 21.9213 31.2666 21.9714C31.2666 22.1409 31.255 22.288 31.2119 22.4098C31.167 22.5366 31.0892 22.6341 30.9678 22.7048C30.8506 22.7729 30.6964 22.8139 30.502 22.8415C30.3065 22.8692 30.0608 22.8846 29.7549 22.8952L28.8057 22.9264V26.0524L29.3457 26.0925C29.7305 26.1203 30.0077 26.1805 30.1855 26.3278C30.3714 26.482 30.4277 26.7123 30.4277 27.0124C30.4277 27.0621 30.4294 27.1092 30.4316 27.155C30.4338 27.1998 30.4359 27.2459 30.4355 27.2887C30.4348 27.3747 30.4239 27.4677 30.3662 27.5495C30.3086 27.6308 30.2159 27.6868 30.0879 27.7282C29.9594 27.7697 29.7835 27.8001 29.5459 27.8239C28.5981 27.919 26.5568 27.9125 22.1953 27.9284L14.5332 27.9557V29.4245L17.998 29.4548C19.0033 29.4633 19.7538 29.4684 20.3125 29.4841C20.8688 29.4996 21.243 29.5259 21.4932 29.5778C21.7429 29.6297 21.8974 29.7137 21.9727 29.8678C22.0078 29.9401 22.0215 30.0198 22.0273 30.1012C22.0331 30.1821 22.0313 30.2754 22.0312 30.3727C22.0313 30.4701 22.0331 30.5633 22.0273 30.6442C22.0215 30.7258 22.008 30.8062 21.9727 30.8786C21.8973 31.0323 21.7433 31.1158 21.4941 31.1677C21.2441 31.2197 20.8691 31.2458 20.3125 31.2614C19.7541 31.277 19.0045 31.2822 18 31.2907L14.5352 31.32L14.5078 41.9255C14.4948 46.9561 14.4852 49.6368 14.457 51.0807C14.4429 51.8016 14.424 52.2187 14.3975 52.4665C14.3715 52.7079 14.3373 52.8155 14.2666 52.8864C14.1248 53.0282 13.8633 53.1002 13.5938 53.1003C13.3243 53.1003 13.0629 53.0281 12.9209 52.8864C12.8501 52.8155 12.815 52.7081 12.7891 52.4665C12.7625 52.2187 12.7436 51.8018 12.7295 51.0807C12.7013 49.6364 12.6917 46.9546 12.6787 41.9216L12.6504 31.3132H2.78223L2.75391 41.9216C2.74089 46.9546 2.73134 49.6364 2.70312 51.0807C2.68904 51.8018 2.67014 52.2187 2.64355 52.4665C2.61762 52.708 2.58345 52.8156 2.5127 52.8864C2.43507 52.964 2.32636 53.0169 2.21191 53.0505C2.09649 53.0842 1.96733 53.1002 1.83984 53.1003C1.71213 53.1003 1.5824 53.0843 1.4668 53.0505C1.35247 53.0169 1.2446 52.9639 1.16699 52.8864C1.09409 52.8134 1.06024 52.6968 1.03516 52.4167C1.00924 52.127 0.991693 51.6308 0.979492 50.7604C0.955069 49.0177 0.952149 45.7602 0.952148 39.6149C0.952148 33.4425 0.954889 30.1851 0.979492 28.4489C0.991781 27.582 1.00988 27.0903 1.03613 26.8044C1.06165 26.5268 1.09601 26.4147 1.16895 26.3415C1.2707 26.2395 1.40022 26.1862 1.64746 26.153C1.89263 26.1201 2.27234 26.1049 2.88965 26.0905L4.25781 26.0583V24.5915H3.38379C2.75481 24.5915 2.2892 24.5324 1.93359 24.3766C1.57232 24.2183 1.33213 23.9638 1.14648 23.5954C1.03225 23.3686 0.969517 23.2046 0.936523 22.8669C0.904385 22.5373 0.900391 22.0351 0.900391 21.1305C0.900391 20.2259 0.904375 19.7238 0.936523 19.3942C0.969489 19.0567 1.03241 18.8932 1.14648 18.6667C1.33154 18.2994 1.57194 18.0451 1.93164 17.8864C2.28596 17.7302 2.74861 17.6696 3.37109 17.6696H4.24023L4.2793 17.1296C4.28839 17.0038 4.29287 16.881 4.30176 16.7819C4.31087 16.6805 4.32579 16.5852 4.3584 16.5007C4.39221 16.4132 4.44516 16.3382 4.52734 16.278C4.60749 16.2193 4.71107 16.178 4.84082 16.1471C5.09822 16.0859 5.48784 16.0603 6.07617 16.0495C6.667 16.0386 7.46879 16.0426 8.55566 16.0427C10.2937 16.0427 11.2433 16.0456 11.7793 16.071C12.0464 16.0836 12.2178 16.1025 12.335 16.1305C12.4576 16.1599 12.5269 16.2013 12.585 16.2594C12.6459 16.3206 12.686 16.3965 12.7148 16.5378C12.7429 16.6752 12.7628 16.8848 12.7773 17.2214C12.8065 17.8969 12.8175 19.1103 12.8311 21.3444L12.8594 26.0719H26.9258V22.9196L21.6475 22.8893C19.0089 22.8742 17.6594 22.8655 16.9189 22.8327C16.5493 22.8163 16.325 22.7935 16.166 22.7594C16.0025 22.7244 15.9085 22.6774 15.8018 22.6198C15.2928 22.3448 14.8753 21.9182 14.5928 21.3874C14.4861 21.1867 14.4385 20.9613 14.4131 19.7341C14.3875 18.4963 14.3857 16.2187 14.3857 11.8884C14.3857 7.55837 14.3875 5.28138 14.4131 4.04363C14.4385 2.81578 14.486 2.59005 14.5928 2.38933C14.9875 1.64781 15.5958 1.15269 16.3506 0.966479C16.3656 0.962805 16.3858 0.960811 16.4014 0.959643C16.4203 0.95823 16.4451 0.957025 16.4746 0.955736C16.5338 0.953154 16.6157 0.950334 16.7188 0.947924C16.9258 0.943084 17.2208 0.938478 17.5928 0.934252C18.3368 0.9258 19.3921 0.919291 20.6807 0.913744C23.2583 0.90265 26.7707 0.897509 30.5947 0.902025L44.5 0.918627ZM42.3574 16.8385C44.0102 16.841 45.6628 16.8513 46.9355 16.8698C47.5719 16.879 48.1141 16.8909 48.5137 16.904C48.7133 16.9105 48.8784 16.917 49.002 16.9245C49.1206 16.9317 49.2117 16.9397 49.2559 16.9509C49.5799 17.0325 49.9512 17.2657 50.2686 17.5475C50.586 17.8296 50.8641 18.1739 50.9912 18.4919C51.1294 18.8376 51.1869 19.1548 51.1436 19.7858C51.1005 20.412 50.9576 21.3578 50.6934 22.9616C50.5613 23.7635 50.4406 24.5094 50.3535 25.0641C50.31 25.3413 50.2753 25.571 50.251 25.736C50.2388 25.8184 50.229 25.8846 50.2227 25.9323C50.2195 25.956 50.2174 25.9751 50.2158 25.9889L50.2148 25.9909L50.2158 25.9919C50.2416 26.0046 50.2934 26.0194 50.3867 26.0329C50.5708 26.0594 50.8794 26.0757 51.373 26.0895C51.8889 26.1039 52.2172 26.1212 52.4365 26.155C52.6585 26.1892 52.7853 26.2427 52.8838 26.3415C52.9567 26.4147 52.9911 26.5269 53.0166 26.8044C53.0429 27.0903 53.061 27.582 53.0732 28.4489C53.0978 30.185 53.0996 33.4425 53.0996 39.6149C53.0996 45.7602 53.0977 49.0177 53.0732 50.7604C53.061 51.6308 53.0435 52.127 53.0176 52.4167C52.9925 52.6969 52.9586 52.8134 52.8857 52.8864C52.8082 52.9639 52.7003 53.0169 52.5859 53.0505C52.4703 53.0843 52.3406 53.1003 52.2129 53.1003C52.0852 53.1003 51.9555 53.0843 51.8398 53.0505C51.7255 53.0169 51.6176 52.9639 51.54 52.8864C51.4693 52.8155 51.4342 52.7081 51.4082 52.4665C51.3816 52.2186 51.3627 51.8011 51.3486 51.0798C51.3204 49.6349 51.3109 46.9529 51.2979 41.9186L51.2705 31.3073L50.3037 31.3356L49.3164 31.363L48.7715 34.5378C48.4637 36.3291 48.168 38.2066 48.1143 38.7106C48.0868 38.9683 48.0388 39.2547 47.9834 39.5085C47.9284 39.7603 47.864 39.9884 47.8037 40.1247C47.5023 40.806 46.7861 41.5344 46.0801 41.8815L45.4883 42.1725L45.4678 42.1833H45.4443L36.3613 42.2448V45.3805L38.7549 45.4137C41.0359 45.4453 41.304 45.4654 41.7793 45.6852C42.5299 46.0325 43.2258 46.7322 43.5967 47.5094C43.6895 47.7041 43.7869 47.8715 43.875 47.9928C43.919 48.0534 43.9599 48.1007 43.9951 48.1344C44.0318 48.1696 44.0558 48.1837 44.0664 48.1872C44.2634 48.2498 44.5108 48.4338 44.7324 48.6501C44.9564 48.8688 45.1699 49.1352 45.2959 49.3786C45.4581 49.6921 45.5364 50.1178 45.5371 50.5348C45.5377 50.952 45.4604 51.3764 45.2988 51.6862C44.8151 52.6131 44.0249 53.0915 42.9775 53.0915C42.2293 53.0914 41.59 52.8322 41.1377 52.3796C40.6855 51.9269 40.4269 51.2867 40.4268 50.5378C40.4268 49.5199 40.9025 48.723 41.8223 48.1901C41.8566 48.1702 41.8739 48.1556 41.8838 48.1471C41.8788 48.1349 41.8693 48.1117 41.8428 48.0749C41.8098 48.0291 41.7611 47.9697 41.6943 47.8903C41.5429 47.7101 41.4753 47.6054 41.3301 47.5241C41.1844 47.4427 40.954 47.3838 40.4795 47.3454C39.5311 47.2686 37.6735 47.277 33.7432 47.277C29.8125 47.277 27.9543 47.2686 27.0059 47.3454C26.5314 47.3838 26.301 47.4427 26.1553 47.5241C26.0101 47.6054 25.9425 47.7101 25.791 47.8903C25.7242 47.9697 25.6755 48.0291 25.6426 48.0749C25.6158 48.1121 25.6055 48.135 25.6006 48.1471C25.6103 48.1556 25.6281 48.1698 25.6631 48.1901C26.5828 48.723 27.0586 49.5199 27.0586 50.5378C27.0584 51.2867 26.7999 51.9269 26.3477 52.3796C25.8954 52.8321 25.2561 53.0914 24.5078 53.0915C23.4604 53.0915 22.6703 52.6131 22.1865 51.6862C22.0249 51.3764 21.9476 50.952 21.9482 50.5348C21.9489 50.1178 22.0273 49.6921 22.1895 49.3786C22.3156 49.135 22.5298 48.8689 22.7539 48.6501C22.9755 48.4338 23.2219 48.2498 23.4189 48.1872C23.4295 48.1837 23.4536 48.1696 23.4902 48.1344C23.5254 48.1007 23.5664 48.0534 23.6104 47.9928C23.6985 47.8715 23.7959 47.7041 23.8887 47.5094C24.2595 46.7322 24.9555 46.0325 25.7061 45.6852C26.1814 45.4654 26.4495 45.4453 28.7305 45.4137L31.124 45.3805V42.2458L27.1045 42.2145C25.1116 42.1992 24.0748 42.1894 23.4863 42.1559C23.1922 42.1392 23.0042 42.116 22.8623 42.0817C22.7175 42.0467 22.6234 42.0006 22.5186 41.944C21.7001 41.502 21.2171 40.7979 21.1025 39.8796C21.0922 39.7957 21.1 39.6259 21.1191 39.405C21.1388 39.1788 21.1714 38.8864 21.2129 38.5505C21.2959 37.8781 21.4161 37.0258 21.5479 36.1637C21.6796 35.3016 21.8232 34.4282 21.9521 33.7136C22.0805 33.0027 22.1957 32.4401 22.2725 32.2048C22.6143 31.1591 23.5783 30.1808 24.709 29.7194C24.9758 29.6105 25.1784 29.5523 25.6963 29.5173C26.2089 29.4826 27.0389 29.4698 28.5615 29.4538L31.748 29.4196L31.7998 29.1647C31.8367 28.9811 32.243 26.5656 32.7041 23.7927C32.9346 22.4063 33.1585 21.1106 33.333 20.1403C33.4203 19.6553 33.4952 19.2504 33.5527 18.9567C33.5814 18.8103 33.6065 18.6908 33.626 18.6022C33.6444 18.5185 33.6605 18.4526 33.6729 18.4216C33.9525 17.7257 34.6796 17.1192 35.4502 16.9313C35.4948 16.9204 35.5872 16.9119 35.707 16.905C35.8311 16.8978 35.9963 16.8914 36.1963 16.8854C36.597 16.8735 37.1403 16.8645 37.7773 16.8571C39.0516 16.8423 40.7048 16.8361 42.3574 16.8385ZM25.2471 50.5231C25.2471 49.8663 24.414 49.5342 23.9688 50.0085C23.5084 50.4993 23.8464 51.278 24.5225 51.278C24.7392 51.278 24.9185 51.1988 25.0439 51.069C25.1695 50.9388 25.2469 50.7508 25.2471 50.5231ZM43.7178 50.5231C43.7178 49.8664 42.8847 49.5344 42.4395 50.0085C41.979 50.4993 42.3163 51.2778 42.9922 51.278C43.2091 51.278 43.3892 51.199 43.5146 51.069C43.6403 50.9388 43.7176 50.7508 43.7178 50.5231ZM33.0029 45.3962H34.4824V42.235H33.0029V45.3962ZM35.5312 18.8239C35.5094 18.8427 35.4882 18.8586 35.4736 18.8698C35.4581 18.8819 35.4465 18.8914 35.4365 18.902C35.418 18.9219 35.3946 18.9562 35.3643 19.0387C35.3016 19.2096 35.2212 19.5536 35.082 20.3112C34.8044 21.8225 34.296 24.949 33.2168 31.5446C32.6926 34.7486 32.2138 37.6231 32.1523 37.9294C32.1307 38.0372 32.1118 38.1397 32.0879 38.2282C32.0637 38.3178 32.0322 38.4026 31.9795 38.4772C31.8702 38.6319 31.6898 38.7188 31.3916 38.7731C31.0935 38.8274 30.6554 38.8532 30.0039 38.8649C29.3508 38.8767 28.4762 38.8747 27.3018 38.8747H23.3115L23.125 39.113C22.8577 39.4532 22.8767 39.9067 23.1396 40.154L23.3535 40.3552H45.1201L45.4414 40.1364C45.7616 39.9183 45.9337 39.7557 46.0498 39.487C46.1699 39.2089 46.2331 38.8105 46.3057 38.1081C46.379 37.3967 46.9841 33.505 47.6494 29.4635C48.3149 25.4214 48.9602 21.493 49.084 20.7321C49.1454 20.3544 49.1935 19.9802 49.2217 19.6833C49.2357 19.5349 49.2449 19.406 49.248 19.3063C49.2513 19.2024 49.2476 19.1416 49.2422 19.1198C49.2035 18.9655 49.1847 18.8943 49.0957 18.8356C48.9932 18.7683 48.7899 18.7142 48.3457 18.6774C47.465 18.6046 45.7241 18.6052 42.2021 18.6052H35.7852L35.5312 18.8239ZM28.5469 31.321C27.7907 31.328 27.0264 31.3414 26.4346 31.36C26.1386 31.3694 25.8864 31.3807 25.7002 31.3923C25.6072 31.398 25.5315 31.4038 25.4756 31.4098C25.4478 31.4129 25.4255 31.4159 25.4092 31.4186C25.3967 31.4208 25.3898 31.422 25.3877 31.4225C25.1944 31.4998 24.9761 31.6398 24.7764 31.8083C24.5768 31.9766 24.4009 32.1688 24.29 32.3483C24.2252 32.4535 24.1447 32.6921 24.0479 33.1003C23.9522 33.5035 23.8436 34.0596 23.7168 34.7878C23.6152 35.371 23.522 35.9157 23.4551 36.3229C23.4216 36.5264 23.3947 36.6957 23.376 36.818C23.3667 36.8787 23.3593 36.9279 23.3545 36.9636C23.3747 36.9679 23.4021 36.9756 23.4385 36.9802C23.5574 36.995 23.748 37.0058 24.0303 37.0134C24.5942 37.0284 25.5113 37.0293 26.9209 37.0182C27.9303 37.0103 28.8477 36.9967 29.5127 36.9811C29.8452 36.9734 30.1143 36.9649 30.2998 36.9567C30.3887 36.9528 30.4578 36.9487 30.5049 36.945C30.5112 36.9035 30.5215 36.8452 30.5332 36.7721C30.5572 36.6219 30.592 36.4079 30.6348 36.1471C30.7204 35.6254 30.8379 34.9132 30.9678 34.1374C31.0976 33.3618 31.2162 32.6496 31.3018 32.1276C31.3445 31.8667 31.3794 31.6528 31.4033 31.5026C31.4131 31.4413 31.4208 31.3902 31.4268 31.3512C31.3891 31.3477 31.3398 31.3436 31.2793 31.3405C31.1189 31.3322 30.8876 31.326 30.6084 31.3219C30.0505 31.3139 29.303 31.314 28.5469 31.321ZM2.7793 29.4323H12.6533V27.9518H2.7793V29.4323ZM50.5938 27.9518C50.2648 27.9518 50.0789 27.9602 49.9707 27.9841C49.9185 27.9956 49.8946 28.0094 49.8828 28.0192C49.8733 28.0273 49.8645 28.0381 49.8574 28.0632C49.8309 28.1574 49.7784 28.4469 49.7412 28.7067C49.704 28.9663 49.6486 29.2674 49.6182 29.3757C49.6163 29.3821 49.6151 29.3881 49.6143 29.3923C49.6219 29.3952 49.6338 29.401 49.6533 29.405C49.7646 29.4277 49.9886 29.4323 50.4219 29.4323H51.2734V27.9518H50.5938ZM6.1377 26.0719H10.9746V17.8698H6.1377V26.0719ZM2.7793 22.7116H4.25781V19.5505H2.7793V22.7116ZM21.9736 10.1081C22.0773 10.1081 22.1881 10.1521 22.2891 10.2116C22.3923 10.2725 22.4967 10.3567 22.5889 10.4489C22.6809 10.541 22.7645 10.6445 22.8252 10.7477C22.8847 10.8489 22.9287 10.9603 22.9287 11.0641C22.9286 11.0946 22.918 11.1231 22.9092 11.1442C22.8994 11.1674 22.8865 11.1928 22.8711 11.2184C22.8401 11.27 22.7959 11.3329 22.7422 11.403C22.6343 11.5436 22.4809 11.7238 22.2979 11.9284C21.9308 12.3386 21.4377 12.8526 20.9355 13.3552C20.4333 13.8577 19.9197 14.3511 19.5098 14.7184C19.3052 14.9017 19.1249 15.0548 18.9844 15.1628C18.9144 15.2165 18.8523 15.2607 18.8008 15.2917C18.7751 15.3071 18.7498 15.3209 18.7266 15.3307C18.7053 15.3397 18.6762 15.3493 18.6455 15.3493C18.5418 15.3492 18.4311 15.3053 18.3301 15.2458C18.2269 15.185 18.1233 15.1016 18.0312 15.0094C17.9391 14.9173 17.8557 14.8129 17.7949 14.7096C17.7355 14.6086 17.6915 14.4979 17.6914 14.3942C17.6914 14.3494 17.7085 14.3039 17.7285 14.2634C17.7497 14.2205 17.7798 14.1714 17.8184 14.1169C17.8958 14.0072 18.0132 13.8645 18.1719 13.6862C18.4899 13.3291 18.9846 12.8174 19.6914 12.11C20.3983 11.4026 20.9097 10.9078 21.2666 10.5895C21.4447 10.4307 21.5867 10.3136 21.6963 10.236C21.751 10.1973 21.7999 10.1664 21.8428 10.1452C21.8833 10.1252 21.9288 10.1081 21.9736 10.1081ZM10.4209 8.54363C10.6693 8.50259 10.8877 8.60991 11.0977 8.81999L11.1611 8.88933C11.3003 9.05301 11.3738 9.23706 11.373 9.4362C11.372 9.6611 11.2763 9.89151 11.1016 10.1208C10.9368 10.3369 10.8745 10.4515 10.8799 10.6178C10.8828 10.7064 10.9059 10.8154 10.9531 10.9645C11.0003 11.1133 11.0697 11.2976 11.1641 11.5368C11.3383 11.9782 11.4434 12.3949 11.4736 12.7614C11.5037 13.1265 11.4605 13.45 11.332 13.6989C11.1478 14.0555 10.8849 14.306 10.5957 14.4147C10.3033 14.5245 9.98979 14.4867 9.72559 14.279C9.55288 14.1429 9.44613 13.9798 9.41406 13.7741C9.38295 13.5735 9.42405 13.3425 9.52246 13.07C9.56806 12.9438 9.58339 12.8549 9.56348 12.7321C9.54211 12.6009 9.48091 12.4281 9.36133 12.1364C9.08424 11.4601 8.96191 10.8918 9.01172 10.3864C9.06202 9.87743 9.28582 9.44228 9.67773 9.03288C9.94326 8.75558 10.1831 8.58301 10.4209 8.54363ZM6.64453 6.01238C7.08161 5.90528 7.44533 6.08914 7.62402 6.403C7.80128 6.71483 7.79026 7.14325 7.51465 7.51628C7.18459 7.96314 7.0221 8.29194 6.99609 8.60906C6.97042 8.92412 7.07732 9.24692 7.33301 9.68523C7.70464 10.3222 7.91942 10.7132 8.03906 11.0436C8.16056 11.3794 8.18359 11.6514 8.18359 12.0466C8.18358 12.352 8.16985 12.5724 8.12109 12.7839C8.07222 12.9957 7.98953 13.1942 7.8584 13.4567C7.67158 13.8305 7.48084 14.0965 7.26953 14.2468C7.05058 14.4023 6.81532 14.4294 6.5625 14.3405C6.46412 14.3058 6.36182 14.2355 6.27539 14.155C6.18861 14.074 6.1091 13.9748 6.06152 13.8757C5.99436 13.7355 5.95332 13.6243 5.95996 13.4889C5.96641 13.3607 6.01597 13.2178 6.09766 13.0104C6.25207 12.6185 6.32535 12.3188 6.32617 12.0563C6.32693 11.7968 6.25686 11.5651 6.10938 11.3083C5.41313 10.0961 5.18104 9.5049 5.1748 8.85906C5.17145 8.50413 5.25541 7.98935 5.36914 7.67253C5.49774 7.31462 5.72051 6.92725 5.95312 6.61882C6.0696 6.46443 6.19066 6.32698 6.30566 6.22234C6.41785 6.12029 6.5354 6.03918 6.64453 6.01238ZM22.8125 4.22722C22.9165 4.22722 23.0277 4.27112 23.1289 4.33074C23.2321 4.39155 23.3356 4.47495 23.4277 4.56706C23.5199 4.65929 23.6033 4.7635 23.6641 4.86687C23.7236 4.96813 23.7676 5.07934 23.7676 5.18328C23.7674 5.21687 23.7551 5.24881 23.7451 5.27019C23.7336 5.29474 23.7176 5.32188 23.6992 5.35027C23.6622 5.40751 23.6099 5.47889 23.5449 5.56023C23.4144 5.72358 23.2282 5.93634 23.0059 6.18035C22.5606 6.66911 21.9633 7.28792 21.3564 7.89519C20.7497 8.50244 20.1319 9.1 19.6436 9.54558C19.3996 9.76813 19.1867 9.95399 19.0234 10.0846C18.942 10.1498 18.8707 10.2029 18.8135 10.2399C18.7851 10.2583 18.7579 10.2743 18.7334 10.2858C18.712 10.2958 18.6802 10.3082 18.6465 10.3083C18.5535 10.3083 18.4397 10.2632 18.3369 10.2057C18.2302 10.146 18.1186 10.0636 18.0273 9.97234C17.9362 9.88111 17.8537 9.76954 17.7939 9.66277C17.7364 9.55986 17.6915 9.44528 17.6914 9.35222C17.6915 9.30469 17.7118 9.256 17.7344 9.21355C17.759 9.16751 17.7951 9.11307 17.8408 9.05144C17.9325 8.92782 18.0717 8.76386 18.2627 8.55339C18.6453 8.13173 19.244 7.51513 20.1104 6.64812C20.9767 5.78111 21.5923 5.18146 22.0137 4.79851C22.224 4.60734 22.3882 4.46837 22.5117 4.37663C22.5733 4.3309 22.6278 4.29483 22.6738 4.27019C22.7163 4.24752 22.7649 4.22731 22.8125 4.22722ZM26.0039 5.97917C26.1551 5.91404 26.2902 5.90918 26.4238 5.96453C26.5492 6.01658 26.6655 6.11921 26.79 6.24382C26.9146 6.36845 27.0174 6.48456 27.0693 6.61003C27.1247 6.74385 27.1199 6.87956 27.0547 7.03093C26.9919 7.17649 26.8716 7.3406 26.6953 7.54167C26.5179 7.74405 26.2765 7.99152 25.9639 8.30437C25.6511 8.61733 25.4034 8.8592 25.2012 9.03679C25.0002 9.21322 24.8359 9.33341 24.6904 9.39617C24.5392 9.46133 24.4042 9.46615 24.2705 9.41081C24.1451 9.35878 24.0288 9.25613 23.9043 9.13152C23.7798 9.00694 23.677 8.89071 23.625 8.76531C23.5698 8.6317 23.5747 8.49647 23.6396 8.34539C23.7023 8.19981 23.8228 8.03575 23.999 7.83464C24.1765 7.63217 24.4176 7.38407 24.7305 7.07097C25.0433 6.7579 25.2908 6.51617 25.4932 6.33855C25.6942 6.1621 25.8584 6.04196 26.0039 5.97917Z" fill="#1BCE1B"/>
</g>
<defs>
<clipPath id="clip0_5001_20363">
<rect width="54" height="54" fill="white"/>
</clipPath>
</defs>
</svg>
