<svg width="56" height="56" viewBox="0 0 56 56" fill="none" xmlns="http://www.w3.org/2000/svg">
<path fill-rule="evenodd" clip-rule="evenodd" d="M5.32244 6.06408C5.14044 6.32374 5.11887 8.35055 5.11887 25.1529V43.951H3.7535C1.90006 43.951 1.98099 43.8077 1.98099 47.0889C1.98099 49.1912 2.01721 49.6972 2.18456 49.9361L2.388 50.2267H27.7378H53.0875L53.2909 49.9361C53.5913 49.5074 53.5913 44.6703 53.2909 44.2416C53.0961 43.9633 53.0045 43.951 51.1337 43.951H49.1799V40.1761V36.4012L49.7025 36.3176C50.0047 36.2693 50.4045 36.0738 50.6504 35.8543L51.0757 35.4746L51.1197 33.8833C51.1675 32.1472 51.0632 31.6936 50.5175 31.2643C50.2293 31.0376 49.9826 31.0072 48.4301 31.0072H46.6696L46.2251 31.4517L45.7806 31.8963V33.5562C45.7806 34.886 45.8249 35.2912 46.0036 35.5938C46.2533 36.0163 46.8881 36.3678 47.4019 36.3678H47.7417V40.1594V43.951H44.6039H41.466V42.7089V41.4668H41.8647C42.084 41.4668 42.436 41.3775 42.647 41.2685C43.2849 40.9386 43.4272 40.486 43.4272 38.7865C43.4272 36.3582 43.1752 36.1063 40.7469 36.1063C38.3172 36.1063 38.0666 36.3574 38.0666 38.7926C38.0666 39.9673 38.1155 40.3978 38.2805 40.6771C38.5545 41.1413 39.1081 41.4668 39.623 41.4668H40.0278V42.7089V43.951H36.9553H33.8828V41.4668V38.9827H34.2556C34.791 38.9827 35.4896 38.4649 35.6732 37.9321C35.8667 37.3701 35.8887 35.4226 35.7086 34.7745C35.635 34.5095 35.3955 34.1418 35.1764 33.9573C34.7942 33.6357 34.7099 33.6221 33.1059 33.6221C31.6083 33.6221 31.3977 33.6506 31.0868 33.8951C30.4774 34.3746 30.3527 34.7901 30.3527 36.3419C30.3527 37.6092 30.3857 37.8164 30.6508 38.2097C30.9917 38.7156 31.4352 38.978 31.9543 38.9807L32.3138 38.9827V41.4668V43.951H30.0912H27.8685V25.1529C27.8685 8.35055 27.8469 6.32374 27.6649 6.06408L27.4615 5.77344H16.4937H5.52588L5.32244 6.06408ZM39.7212 6.01257C39.5528 6.19862 39.5048 6.51868 39.5048 7.45482C39.5048 8.48339 39.4716 8.66957 39.276 8.7373C38.5896 8.97525 37.3954 9.61969 36.8083 10.0692L36.1385 10.582L35.174 10.014C34.0257 9.33781 33.6081 9.28969 33.2604 9.79385C32.6399 10.6938 31.1371 13.4591 31.1371 13.7009C31.1371 14.0359 31.373 14.2415 32.4306 14.8287L33.2664 15.2927L33.268 17.2991L33.2696 19.3055L32.4599 19.78C31.4506 20.3715 31.1371 20.6516 31.1371 20.962C31.1371 21.0957 31.6507 22.089 32.2783 23.1693C33.1054 24.593 33.5011 25.1542 33.7162 25.2082C33.9225 25.2599 34.3358 25.0998 35.0719 24.6827L36.1309 24.0827L36.9554 24.6711C37.409 24.9946 38.1681 25.4354 38.6424 25.6505L39.5048 26.0415V27.1878C39.5048 28.9745 39.4087 28.9153 42.3072 28.9153C44.3741 28.9153 44.7271 28.8857 44.8821 28.6994C44.9986 28.5593 45.0769 28.0417 45.1055 27.2225L45.1497 25.9614L45.7654 25.7428C46.2973 25.5538 47.2875 24.96 48.2012 24.2822C48.4437 24.1022 48.5416 24.1328 49.4432 24.6692C49.9815 24.9894 50.5514 25.2522 50.7095 25.253C51.0721 25.2548 51.3707 24.8529 52.5802 22.7347C53.7199 20.7388 53.7166 20.705 52.3009 19.9199L51.3491 19.392L51.3389 17.3648L51.3287 15.3376L52.2901 14.7905C53.7302 13.9711 53.7299 13.9791 52.4489 11.7623C51.8544 10.7336 51.2784 9.78901 51.169 9.6631C50.9319 9.39076 50.5131 9.36801 50.157 9.60819C50.0151 9.70376 49.5716 9.96656 49.1716 10.1922L48.4441 10.6024L47.668 10.0192C47.2411 9.69853 46.48 9.26341 45.9767 9.05239L45.0615 8.66865L45.0256 7.38448C44.9971 6.36728 44.9444 6.06631 44.7719 5.93687C44.6167 5.82051 43.8888 5.77344 42.2457 5.77344C40.1757 5.77344 39.9152 5.79815 39.7212 6.01257ZM6.68781 25.5813V43.951H16.4937H26.2996V25.5813V7.21163H16.4937H6.68781V25.5813ZM41.0607 8.15953C41.0403 9.64453 41.0055 9.70442 39.9336 10.1001C38.7835 10.5247 38.0533 10.9466 37.2621 11.6438C36.4924 12.3221 36.1611 12.324 35.0657 11.657C34.6017 11.3746 34.2111 11.1559 34.1977 11.1714C34.0627 11.327 32.9676 13.2752 32.9676 13.3598C32.9676 13.4215 33.3769 13.6959 33.8771 13.9694C34.3774 14.2431 34.8372 14.5799 34.8988 14.7181C34.9668 14.8703 34.9393 15.334 34.8291 15.8953C34.6563 16.776 34.6674 17.5073 34.881 19.3314L34.9606 20.011L34.1679 20.5081C33.7319 20.7815 33.2724 21.0681 33.1469 21.145C32.937 21.2735 32.9567 21.3526 33.3917 22.1256C34.2248 23.6064 34.0867 23.5463 35.2192 22.921C35.7603 22.6224 36.2618 22.378 36.3337 22.378C36.4056 22.378 36.8572 22.7001 37.3373 23.0935C38.2223 23.819 39.4902 24.5019 40.2476 24.6609C40.4762 24.709 40.7239 24.8211 40.7977 24.9101C40.8716 24.9991 40.9493 25.5984 40.9702 26.2418L41.0084 27.4117L42.2831 27.4491L43.5579 27.4865V26.3996C43.5579 25.1127 43.6962 24.8489 44.4968 24.6092C45.3904 24.3418 46.4306 23.7685 47.3334 23.0456C47.7921 22.6785 48.2275 22.378 48.3009 22.378C48.3745 22.378 48.8429 22.6134 49.3418 22.901C49.8407 23.1887 50.2969 23.424 50.3557 23.424C50.456 23.424 51.6641 21.4621 51.6641 21.2991C51.6641 21.2577 51.2949 21.0174 50.8435 20.7649C49.6046 20.0721 49.5063 19.9259 49.7128 19.083C49.9252 18.2175 49.9275 16.3501 49.7173 15.6056C49.6301 15.2964 49.5944 14.9308 49.6381 14.7931C49.6817 14.6555 50.157 14.2929 50.6941 13.9872C51.3312 13.6248 51.6471 13.3702 51.6029 13.2551C51.4208 12.7803 50.4593 11.2647 50.3402 11.2647C50.2655 11.2647 49.8416 11.4777 49.398 11.7382C48.9545 11.9985 48.4619 12.2117 48.3033 12.2121C48.1448 12.2124 47.7339 11.9651 47.3903 11.6626C46.646 11.0074 45.4561 10.3336 44.4976 10.0242C43.662 9.75462 43.5579 9.55066 43.5579 8.18372V7.21163H42.3158H41.0737L41.0607 8.15953ZM13.7368 10.736C12.4032 11.1401 11.7406 12.7981 12.4764 13.8898C12.9396 14.5773 13.5518 14.9256 14.2969 14.9256C16.2284 14.9256 17.1818 12.8257 15.8964 11.4028C15.5892 11.0627 15.2593 10.8561 14.8653 10.7569C14.2168 10.5936 14.2071 10.5934 13.7368 10.736ZM22.3118 10.8076C21.2723 11.1746 20.6231 12.354 20.9182 13.339C21.2272 14.3699 21.9914 14.9256 23.1006 14.9256C24.2918 14.9256 25.1523 14.0366 25.1427 12.8155C25.1311 11.3149 23.7166 10.3116 22.3118 10.8076ZM9.49111 11.189C9.2661 11.3538 9.23734 11.5406 9.23734 12.8339C9.23734 14.1275 9.2661 14.3142 9.49111 14.4786C9.84295 14.7357 10.1716 14.7104 10.4794 14.4026C10.7052 14.1768 10.7409 13.9668 10.7409 12.8628C10.7409 11.9174 10.688 11.5087 10.5373 11.2939C10.3049 10.9618 9.86204 10.9175 9.49111 11.189ZM18.1483 11.2424C17.8156 11.6099 17.8336 14.1424 18.171 14.4477C18.4847 14.7316 18.8846 14.7223 19.1537 14.425C19.4612 14.0852 19.47 11.5141 19.1647 11.2086C18.8891 10.9332 18.4138 10.9488 18.1483 11.2424ZM13.7415 12.4536C13.5279 12.8528 13.6938 13.3381 14.0766 13.4342C14.5151 13.5441 14.7669 13.4283 14.9466 13.034C15.0714 12.7599 15.0568 12.6595 14.8599 12.442C14.543 12.0918 13.9317 12.0981 13.7415 12.4536ZM22.4306 12.5068C22.2322 12.8096 22.2322 12.8577 22.4306 13.1605C22.7987 13.7225 23.6847 13.5067 23.6847 12.8552C23.6847 12.3959 23.4681 12.1799 23.0078 12.1799C22.7647 12.1799 22.5738 12.2881 22.4306 12.5068ZM40.7813 13.1549C39.398 13.6842 38.3729 14.8623 37.9896 16.3638C37.6146 17.8324 38.0495 19.3607 39.1577 20.4689C40.0844 21.3956 40.7847 21.6592 42.3158 21.6575C43.4743 21.6563 43.6981 21.6169 44.2796 21.311C46.8823 19.9425 47.5091 16.4739 45.5351 14.3635C44.6199 13.385 43.8695 13.0555 42.4466 13.0076C41.6542 12.9809 41.1102 13.029 40.7813 13.1549ZM40.9346 14.7622C39.9338 15.2697 39.4683 15.9735 39.3975 17.0869C39.3106 18.4496 39.8175 19.3739 40.965 19.9458C42.9586 20.9392 45.2518 19.5476 45.2518 17.3444C45.2518 15.1214 42.9459 13.7422 40.9346 14.7622ZM9.54603 17.6596C9.26741 17.885 9.23368 18.0283 9.20021 19.1305C9.15588 20.588 9.30415 20.9856 9.9142 21.0452C10.5644 21.1089 10.7409 20.73 10.7409 19.2705C10.7409 18.1507 10.7148 18.0255 10.4199 17.7307C10.0336 17.3444 9.94454 17.337 9.54603 17.6596ZM13.9074 17.6136C13.637 17.803 13.6173 17.9166 13.6173 19.2868C13.6173 20.8791 13.6893 21.0706 14.2879 21.0706C14.9369 21.0706 15.0555 20.8002 15.0555 19.3212C15.0555 18.4484 14.9986 17.9104 14.8921 17.7748C14.6409 17.4552 14.2296 17.3879 13.9074 17.6136ZM18.4549 17.5005C18.0246 17.6542 17.9319 17.9769 17.9319 19.3212C17.9319 20.8002 18.0505 21.0706 18.6995 21.0706C19.298 21.0706 19.3701 20.8791 19.3701 19.2868C19.3701 17.916 19.3505 17.803 19.0794 17.6133C18.769 17.3958 18.7549 17.3933 18.4549 17.5005ZM22.591 17.6808C22.2611 17.9402 22.2465 18.0055 22.2465 19.2206C22.2465 20.7334 22.4168 21.1094 23.0732 21.0452C23.6832 20.9856 23.8315 20.588 23.7872 19.1305C23.7537 18.0283 23.72 17.885 23.4413 17.6596C23.0558 17.3475 23.0133 17.3486 22.591 17.6808ZM18.0344 23.7113C17.423 23.8734 16.669 24.6875 16.5519 25.312C16.3699 26.2822 16.8243 27.2357 17.6794 27.6779C19.0189 28.3706 20.8083 27.3015 20.8083 25.8085C20.8083 24.3414 19.471 23.3304 18.0344 23.7113ZM9.49111 24.1328C9.2661 24.2975 9.23734 24.4844 9.23734 25.7777C9.23734 27.0713 9.2661 27.258 9.49111 27.4223C9.84295 27.6795 10.1716 27.6541 10.4794 27.3464C10.7052 27.1206 10.7409 26.9106 10.7409 25.8066C10.7409 24.8612 10.688 24.4524 10.5373 24.2376C10.3049 23.9055 9.86204 23.8612 9.49111 24.1328ZM13.8227 24.1524C13.6614 24.3139 13.6173 24.6603 13.6173 25.7664C13.6173 26.9651 13.653 27.2074 13.8564 27.3915C14.1548 27.6616 14.3929 27.6649 14.7648 27.4043C15.0347 27.2154 15.0555 27.0996 15.0555 25.7902C15.0555 24.5899 15.0199 24.3475 14.8164 24.1634C14.5151 23.8906 14.0892 23.8859 13.8227 24.1524ZM22.45 24.2376C22.2994 24.4524 22.2465 24.8612 22.2465 25.8066C22.2465 26.9106 22.2822 27.1206 22.508 27.3464C23.0176 27.856 23.6048 27.5784 23.7592 26.7549C23.8059 26.5061 23.8215 25.8551 23.7938 25.308C23.7538 24.516 23.6926 24.2762 23.493 24.1303C23.1249 23.8611 22.6817 23.9067 22.45 24.2376ZM18.1483 25.3628C17.867 25.6736 17.8743 25.9462 18.171 26.2148C18.605 26.6075 19.3701 26.3587 19.3701 25.8249C19.3701 25.1672 18.5917 24.8728 18.1483 25.3628ZM13.4146 30.2686C12.939 30.4845 12.3417 31.1615 12.2283 31.6135C12.0927 32.1537 12.2573 33.0504 12.5737 33.4946C12.913 33.9711 13.7492 34.3994 14.3486 34.4037C14.5709 34.4053 15.0091 34.2711 15.3222 34.1055C15.9869 33.754 16.4949 32.9245 16.4916 32.1961C16.489 31.6373 16.0443 30.808 15.5511 30.4424C15.1044 30.111 13.9661 30.0185 13.4146 30.2686ZM9.54603 30.6033C9.26741 30.8288 9.23368 30.972 9.20021 32.0742C9.15588 33.5318 9.30415 33.9294 9.9142 33.989C10.5644 34.0527 10.7409 33.6738 10.7409 32.2143C10.7409 31.0944 10.7148 30.9693 10.4199 30.6745C10.0336 30.2881 9.94454 30.2808 9.54603 30.6033ZM18.4549 30.4442C18.0246 30.598 17.9319 30.9207 17.9319 32.265C17.9319 33.744 18.0505 34.0144 18.6995 34.0144C19.298 34.0144 19.3701 33.8228 19.3701 32.2306C19.3701 30.8597 19.3505 30.7468 19.0794 30.5571C18.769 30.3395 18.7549 30.337 18.4549 30.4442ZM22.591 30.6245C22.2611 30.8839 22.2465 30.9493 22.2465 32.1643C22.2465 33.6772 22.4168 34.0532 23.0732 33.989C23.6832 33.9294 23.8315 33.5318 23.7872 32.0742C23.7537 30.972 23.72 30.8288 23.4413 30.6033C23.0558 30.2913 23.0133 30.2923 22.591 30.6245ZM13.8337 31.7693C13.7147 31.9009 13.6173 32.1328 13.6173 32.2849C13.6173 32.5648 14.0591 32.9684 14.3655 32.9684C14.5953 32.9684 15.0555 32.4888 15.0555 32.2493C15.0555 31.976 14.5817 31.5302 14.2913 31.5302C14.1586 31.5302 13.9527 31.6378 13.8337 31.7693ZM47.2465 33.6548L47.2841 34.8642H48.4608H49.6375L49.6752 33.6548L49.7127 32.4454H48.4608H47.2089L47.2465 33.6548ZM31.8463 35.2353C31.8093 35.3316 31.7965 35.8758 31.8176 36.4446L31.8562 37.4791L33.0656 37.5167L34.275 37.5543V36.3074V35.0603H33.0942C32.2286 35.0603 31.8954 35.107 31.8463 35.2353ZM22.1708 36.7464C20.0231 37.7219 20.6769 40.8131 23.0309 40.8131C24.256 40.8131 25.1523 39.9319 25.143 38.7365C25.135 37.7116 24.7211 37.092 23.7822 36.6996C23.16 36.4397 22.8247 36.4495 22.1708 36.7464ZM9.41672 37.107C9.29042 37.2592 9.23734 37.7194 9.23734 38.6622C9.23734 39.7954 9.27565 40.0434 9.48641 40.2764C9.79928 40.6221 10.1427 40.6268 10.4794 40.2901C10.7052 40.0643 10.7409 39.8543 10.7409 38.7503C10.7409 37.8049 10.688 37.3962 10.5373 37.1814C10.293 36.8324 9.67847 36.7916 9.41672 37.107ZM13.8227 37.0961C13.6611 37.2579 13.6173 37.6057 13.6173 38.7274C13.6173 40.1209 13.6251 40.1585 13.9592 40.3773C14.2658 40.5783 14.3368 40.5814 14.6456 40.4084C14.9806 40.2207 14.9912 40.1762 15.0274 38.7973C15.0585 37.614 15.028 37.3387 14.8437 37.135C14.5741 36.837 14.1 36.819 13.8227 37.0961ZM18.1437 37.135C17.9593 37.3387 17.9289 37.614 17.96 38.7973C17.9962 40.1762 18.0068 40.2207 18.3418 40.4084C18.6506 40.5814 18.7216 40.5783 19.0282 40.3773C19.3622 40.1585 19.3701 40.1209 19.3701 38.7274C19.3701 37.6057 19.3263 37.2579 19.1647 37.0961C18.8874 36.819 18.4133 36.837 18.1437 37.135ZM39.5048 38.7865V40.0286H40.7469H41.989V38.7865V37.5445H40.7469H39.5048V38.7865ZM22.4306 38.3943C22.2322 38.6971 22.2322 38.7452 22.4306 39.048C22.7987 39.61 23.6847 39.3942 23.6847 38.7427C23.6847 38.2834 23.4681 38.0674 23.0078 38.0674C22.7647 38.0674 22.5738 38.1756 22.4306 38.3943ZM3.54993 47.0889V48.7885H27.7378H51.9256V47.0889V45.3892H27.7378H3.54993V47.0889Z" fill="#0032AF"/>
</svg>
