<svg viewBox="0 0 54 54" fill="none" xmlns="http://www.w3.org/2000/svg">
<path fill-rule="evenodd" clip-rule="evenodd" d="M25.1407 0.0682287C22.3136 0.452457 19.5332 1.61812 17.4413 3.29608C14.5818 5.58994 12.4784 9.08749 11.9065 12.4994L11.7615 13.3656L11.4095 12.9574C11.1359 12.6401 10.9737 12.5493 10.6811 12.5493C10.2438 12.5493 9.77752 13.0013 9.77752 13.4253C9.77752 13.8112 11.8581 16.7106 12.2526 16.8744C12.8888 17.1386 13.0337 17.0255 14.133 15.4079C14.9625 14.1872 15.1694 13.802 15.1741 13.4696C15.1835 12.8076 14.513 12.3933 13.9345 12.7036C13.6428 12.8603 13.65 12.7331 14.0029 11.4993C14.6346 9.29084 15.9118 7.21104 17.6706 5.52653C18.8396 4.40679 19.7076 3.80782 21.1868 3.09974C24.9719 1.28805 29.2593 1.34843 33.0495 3.26675C36.3003 4.91221 38.626 7.66049 39.8236 11.2718C40.1456 12.2427 40.2343 12.4008 40.5263 12.5239C41.1866 12.8022 41.7645 12.4516 41.7645 11.7727C41.7645 10.8509 40.7472 8.46111 39.6536 6.81428C37.3011 3.27126 33.7179 0.946029 29.4177 0.171931C28.4606 -0.000379598 26.0718 -0.0582676 25.1407 0.0682287ZM26.5176 3.61091C26.3463 3.7004 24.2099 4.97608 21.7701 6.44552C17.1421 9.23283 16.9549 9.37626 17.1482 9.98696C17.2958 10.4535 17.6582 10.6685 18.2964 10.6685H18.8942V14.7309V18.7932H18.2701C17.7574 18.7932 17.5964 18.8427 17.3697 19.0702C17.1007 19.3398 17.0933 19.3925 17.0933 21.05C17.0933 22.7076 17.1007 22.7603 17.3697 23.0298L17.6459 23.3069H26.9978H36.3498L36.626 23.0298C36.895 22.7603 36.9023 22.7076 36.9023 21.05C36.9023 19.3925 36.895 19.3398 36.626 19.0702C36.3992 18.8427 36.2383 18.7932 35.7256 18.7932H35.1015V14.7309V10.6685H35.7256C36.2383 10.6685 36.3992 10.619 36.626 10.3915C36.9541 10.0627 36.9889 9.55128 36.7053 9.22708C36.4278 8.90965 27.2881 3.4465 27.0361 3.44729C26.9222 3.44774 26.6889 3.52132 26.5176 3.61091ZM24.0853 7.15315L21.3417 8.80663L24.1698 8.83676C25.7252 8.85335 28.2735 8.85335 29.8325 8.83676L32.6672 8.80663L29.8979 7.1422C28.3748 6.22683 27.0611 5.48274 26.9788 5.48872C26.8964 5.49471 25.5943 6.24375 24.0853 7.15315ZM20.695 14.7309V18.7932H21.5954H22.4958V14.7309V10.6685H21.5954H20.695V14.7309ZM24.2966 14.7309V18.7932H25.197H26.0974V14.7309V10.6685H25.197H24.2966V14.7309ZM27.8982 14.7309V18.7932H28.7986H29.699V14.7309V10.6685H28.7986H27.8982V14.7309ZM31.4999 14.7309V18.7932H32.4003H33.3007V14.7309V10.6685H32.4003H31.4999V14.7309ZM40.9457 13.4876C40.613 13.6827 38.7031 16.6953 38.7031 17.0249C38.7031 17.6574 39.4818 18.0845 40.0648 17.7717C40.266 17.6637 40.2795 17.6816 40.214 17.9692C40.01 18.8643 39.3132 20.7547 38.912 21.5014C36.9828 25.0923 33.833 27.4696 29.7553 28.4128C28.4105 28.7238 25.787 28.7508 24.4586 28.4673C19.5114 27.4116 15.704 24.0416 14.1662 19.3574C13.7879 18.2048 13.5431 17.8904 13.0239 17.8904C12.6399 17.8904 12.1411 18.3306 12.1411 18.6694C12.1411 19.0758 12.7174 20.7485 13.2139 21.7835C14.2403 23.9227 15.9235 25.9662 17.8582 27.422C19.6726 28.7872 22.1321 29.8542 24.3529 30.2395C25.6794 30.4697 28.221 30.4686 29.5948 30.2374C35.6913 29.2114 40.7214 24.3434 41.9584 18.2724C42.0799 17.6764 42.199 17.169 42.223 17.1448C42.2471 17.1206 42.3317 17.2222 42.4108 17.3704C42.5664 17.662 42.9693 17.8904 43.3282 17.8904C43.6589 17.8904 44.1056 17.3905 44.1056 17.0204C44.1056 16.6821 42.3668 13.9353 41.9256 13.5767C41.6638 13.3639 41.2247 13.3239 40.9457 13.4876ZM18.8942 21.05V21.5014H26.9978H35.1015V21.05V20.5987H26.9978H18.8942V21.05ZM1.7864 34.2872C1.19855 34.4731 0.284187 35.4418 0.115248 36.0581C0.00922494 36.4448 -0.016099 38.4652 0.00888731 44.5296L0.0418647 52.4933L0.343839 52.9507C0.509852 53.2022 0.839063 53.5285 1.07542 53.6758L1.50503 53.9436H9.89829H18.2916L18.7478 53.6408C19.4529 53.1731 19.7383 52.6238 19.7383 51.7349C19.7383 51.1191 19.687 50.9155 19.4363 50.5357C19.0365 49.9301 18.4733 49.5976 17.7144 49.519L17.0933 49.4547V45.6852V41.9156L16.817 41.6387C16.5448 41.3656 16.5127 41.3617 14.566 41.3617H12.5913V38.9204C12.5913 37.3608 12.543 36.3175 12.4575 36.0314C12.3839 35.7852 12.1047 35.3396 11.8371 35.0411C11.0394 34.1516 10.9532 34.1379 6.24027 34.1513C3.6256 34.1587 2.04009 34.2071 1.7864 34.2872ZM27.2741 34.4168C27.0999 34.5913 26.9978 34.8227 26.9978 35.0425C26.9978 35.2623 27.0999 35.4936 27.2741 35.6682L27.5503 35.9452H25.3521H23.1538L22.8248 36.2751C22.4188 36.6821 22.4003 37.1011 22.7721 37.4737C23.0472 37.7496 23.0579 37.7507 25.3241 37.7507H27.5999L27.3551 38.0118C26.9982 38.3928 27.0229 39.0195 27.4069 39.3223C27.57 39.4509 27.8109 39.5562 27.9422 39.5562C28.1874 39.5562 30.9943 37.7539 31.2466 37.4343C31.3241 37.3363 31.3873 37.0379 31.3873 36.7711V36.2861L29.784 35.2129C28.037 34.0435 27.7402 33.9494 27.2741 34.4168ZM42.0797 34.3602C38.0907 35.2131 35.0605 38.3677 34.3579 42.3989C33.3487 48.1887 37.6289 53.5835 43.5363 53.9672C46.327 54.1485 49.0443 53.1017 51.0792 51.0616C55.0132 47.1174 54.9675 40.8503 50.9764 36.9608C48.6179 34.6624 45.2585 33.6805 42.0797 34.3602ZM2.06272 36.2222C1.83582 36.4496 1.7864 36.611 1.7864 37.125V37.7507H6.28844H10.7905V37.125C10.7905 36.611 10.7411 36.4496 10.5142 36.2222L10.238 35.9452H6.28844H2.33892L2.06272 36.2222ZM42.5299 36.1106C39.4596 36.7954 37.1619 38.9775 36.3232 42.005C35.8622 43.6691 36.0632 46.0442 36.7829 47.4367C36.9724 47.8034 37.0054 47.8246 37.0755 47.6244C37.4251 46.6256 38.0399 45.854 39.0347 45.165C39.5672 44.7962 41.1704 44.1868 41.6144 44.1842C41.87 44.1828 41.8638 44.1639 41.4611 43.7169C39.9968 42.092 40.3393 39.4687 42.1677 38.3062C42.8824 37.8518 43.4517 37.7161 44.387 37.777C45.6995 37.8625 46.7299 38.5579 47.3921 39.805C47.6052 40.2065 47.6494 40.4639 47.6494 41.3052C47.6494 42.4014 47.489 42.8591 46.7959 43.7425L46.4771 44.1486L47.1204 44.2889C48.8129 44.6581 50.3579 45.8034 50.966 47.1395L51.2894 47.8501L51.5327 47.2859C53.4222 42.903 51.0828 37.7841 46.5254 36.329C45.3869 35.9655 43.6149 35.8687 42.5299 36.1106ZM1.7864 44.5212V49.4863H2.23661H2.68681V45.701V41.9156L2.96313 41.6387L3.23933 41.3617H7.01496H10.7905V40.4589V39.5562H6.28844H1.7864V44.5212ZM43.338 39.7395C43.1323 39.8446 42.8285 40.109 42.6627 40.327C42.2677 40.8461 42.233 41.8501 42.5931 42.3338C43.0341 42.9259 43.3938 43.1107 44.1056 43.1107C44.8173 43.1107 45.1771 42.9259 45.618 42.3338C45.9434 41.8969 45.9434 40.8264 45.618 40.3895C45.0525 39.6301 44.0893 39.3554 43.338 39.7395ZM4.48763 46.3267V49.4863H9.89008H15.2925V46.3267V43.1671H9.89008H4.48763V46.3267ZM6.56476 45.2496C6.39053 45.4242 6.28844 45.6555 6.28844 45.8754C6.28844 46.0952 6.39053 46.3265 6.56476 46.5011L6.84096 46.7781H9.89008H12.9392L13.2154 46.5011C13.3896 46.3265 13.4917 46.0952 13.4917 45.8754C13.4917 45.6555 13.3896 45.4242 13.2154 45.2496L12.9392 44.9726H9.89008H6.84096L6.56476 45.2496ZM41.656 45.995C40.438 46.2357 39.1245 47.1485 38.8125 47.9712C38.5659 48.6215 38.2383 48.5836 44.1056 48.5836C49.9729 48.5836 49.6452 48.6215 49.3986 47.9712C49.0741 47.1157 47.7744 46.2363 46.4669 45.9877C45.7651 45.8544 42.3416 45.8594 41.656 45.995ZM24.304 49.594C23.4725 50.1495 22.7478 50.6834 22.6935 50.7806C22.6393 50.8777 22.6107 51.1467 22.6298 51.3783C22.6634 51.7843 22.7235 51.8394 24.2928 52.8998C25.195 53.5095 26.0379 54 26.1831 54C26.5625 54 26.9978 53.5177 26.9978 53.0973C26.9978 52.8774 26.8957 52.6461 26.7215 52.4715L26.4453 52.1945H28.6963C30.9362 52.1945 30.9487 52.1932 31.2236 51.9175C31.3978 51.7429 31.4999 51.5116 31.4999 51.2918C31.4999 51.072 31.3978 50.8406 31.2236 50.6661C30.9487 50.3904 30.9362 50.389 28.6963 50.389H26.4453L26.7215 50.112C27.2652 49.567 26.8849 48.5833 26.1306 48.5837C25.9224 48.5838 25.3048 48.9254 24.304 49.594ZM39.4347 50.6749C39.9245 51.0777 41.2344 51.6973 42.0797 51.9261C42.5776 52.0609 43.2245 52.1241 44.1056 52.1241C44.9866 52.1241 45.6336 52.0609 46.1315 51.9261C46.9767 51.6973 48.2866 51.0777 48.7764 50.6749L49.1141 50.3972H44.1056H39.0971L39.4347 50.6749ZM1.92225 51.4264C1.74172 51.6074 1.74994 51.9108 1.93959 52.0686C2.0509 52.1612 4.23844 52.1882 9.94658 52.1671C17.2858 52.14 17.8086 52.1251 17.9246 51.9406C18.0152 51.7966 18.0152 51.6897 17.9246 51.5457C17.8086 51.3612 17.2849 51.3463 9.92924 51.3192C3.90068 51.2971 2.02625 51.3221 1.92225 51.4264Z" fill="currentColor"/>
</svg>
