<svg width="54" height="54" viewBox="0 0 54 54" fill="none" xmlns="http://www.w3.org/2000/svg">
<path d="M40.2383 27.1715C40.2694 27.1772 40.296 27.1858 40.3135 27.191C40.3602 27.2048 40.4135 27.2239 40.4678 27.2457C40.5771 27.2896 40.7139 27.3509 40.8662 27.4254C41.1726 27.5753 41.559 27.7836 41.9531 28.0123C42.7201 28.4572 43.9649 29.0681 44.709 29.3648C45.4083 29.6439 46.5752 30.0126 47.6484 30.3131C48.1836 30.4629 48.6918 30.5952 49.1016 30.6891C49.5253 30.786 49.8107 30.8335 49.9219 30.8336C50.091 30.8337 50.2737 30.9044 50.4209 30.982C50.5769 31.0643 50.737 31.1782 50.8662 31.3082C50.9689 31.4115 51.0756 31.5272 51.1504 31.7252C51.2191 31.9073 51.2551 32.1416 51.2754 32.4762C51.3161 33.1477 51.3006 34.3487 51.2656 36.6393C51.2311 38.896 51.207 40.1078 51.1328 40.9303C51.057 41.7709 50.9261 42.2151 50.6895 42.9312C49.7851 45.6665 47.778 48.455 45.2617 50.4908C44.3949 51.1921 43.3232 51.9179 42.3867 52.4684C41.9187 52.7434 41.479 52.9775 41.1123 53.1441C40.9291 53.2274 40.7589 53.2953 40.6104 53.3434C40.4678 53.3894 40.3219 53.4253 40.1934 53.4254C40.0718 53.4253 39.9238 53.3864 39.7861 53.3414C39.6383 53.2931 39.4655 53.2245 39.2803 53.1432C38.9094 52.9802 38.4723 52.7574 38.0566 52.5123C33.0921 49.5857 30.1239 45.6746 29.2783 40.8746C29.2211 40.5499 29.1724 39.8243 29.1377 38.9381C29.1026 38.0427 29.0811 36.9591 29.0811 35.9039C29.0811 34.0586 29.0839 33.0797 29.1387 32.5113C29.1664 32.224 29.2087 32.0136 29.2852 31.8394C29.364 31.6598 29.4702 31.54 29.5742 31.4273C29.9442 31.0271 30.49 30.8301 31.376 30.6773L31.7598 30.6061C33.7074 30.2136 36.048 29.3325 37.8789 28.2916C38.4012 27.9947 38.9037 27.7226 39.293 27.523C39.4871 27.4235 39.6561 27.3409 39.7861 27.2818C39.8508 27.2525 39.9098 27.2272 39.959 27.2086C39.994 27.1954 40.065 27.1688 40.1338 27.1646L40.2383 27.1715ZM38.1523 30.1412C35.9904 31.2662 33.9277 32.0075 31.8691 32.3932L30.9727 32.5611L30.9756 36.3746C30.9771 38.6218 31.0184 40.0014 31.1719 41.0611C31.3234 42.1076 31.5845 42.8473 32.041 43.8092C33.3179 46.4992 35.9379 49.2365 38.79 50.8463L40.1738 51.6266L41.1172 51.149C43.8082 49.7829 46.7603 46.9368 48.042 44.484C48.6402 43.3393 48.9761 42.5079 49.1689 41.3902C49.364 40.2593 49.4141 38.8253 49.4141 36.4693V32.5514L48.1514 32.2799C46.1215 31.8412 43.9102 31.0213 41.7686 29.9146C41.2913 29.6681 40.8546 29.445 40.5352 29.2867C40.3751 29.2074 40.2456 29.145 40.1562 29.1031C40.1536 29.1019 40.151 29.1004 40.1484 29.0992C39.8373 29.2622 39.0479 29.6751 38.1523 30.1412ZM22.334 0.145113C23.4694 -0.16844 24.7145 0.0459973 25.7568 0.597262C26.799 1.14852 27.671 2.05419 28.0352 3.16367L28.1689 3.57089H29.3262C30.2315 3.57092 30.9923 3.67553 31.4668 3.90195C31.8277 4.07433 32.1551 4.37681 32.3926 4.70468C32.5998 4.99082 32.7623 5.33074 32.7969 5.65879C32.8574 5.67469 32.9564 5.69649 33.1143 5.71347C33.5494 5.76023 34.3063 5.78643 35.5889 5.81211C37.1017 5.84232 37.9017 5.85838 38.4014 5.93515C38.661 5.97509 38.8566 6.03416 39.0371 6.12558C39.2113 6.21385 39.3607 6.32874 39.5234 6.45371C39.8421 6.69835 40.1383 6.90697 40.3574 7.21152C40.5845 7.52738 40.7174 7.92365 40.8037 8.53086C40.9736 9.72727 40.9783 11.9051 41.0078 16.3092C41.0305 19.69 41.0343 21.69 41.0029 22.8834C40.9873 23.4785 40.9629 23.8847 40.9258 24.1646C40.8901 24.4337 40.8386 24.6367 40.7314 24.7818C40.6248 24.9263 40.4848 25.093 40.2822 25.148C40.0598 25.2082 39.8647 25.1099 39.7236 25.023C39.6525 24.9792 39.5817 24.9184 39.5225 24.8248C39.4675 24.7378 39.4303 24.6347 39.4023 24.5182C39.3476 24.2898 39.3113 23.9387 39.2832 23.3834C39.2265 22.2623 39.198 20.2142 39.1553 16.4156L39.0654 8.40488L38.6553 8.05136C38.5337 7.9462 38.4571 7.88671 38.3711 7.84336C38.2879 7.80154 38.1785 7.76575 37.9893 7.73984C37.5928 7.68565 36.9297 7.68027 35.6035 7.68027C34.8497 7.68027 34.1481 7.67596 33.625 7.66757C33.3639 7.66339 33.1456 7.65852 32.9873 7.65293C32.9622 7.65204 32.9375 7.64996 32.915 7.64902C32.9113 7.66518 32.9062 7.68287 32.9023 7.70175C32.8832 7.79533 32.8638 7.91093 32.8467 8.0416L32.8027 8.47617C32.7638 8.96744 32.7194 9.31683 32.6152 9.59433C32.5032 9.8925 32.3295 10.088 32.0918 10.2936L31.5791 10.7379L31.4932 10.8131H15.5361L14.8682 10.2125C14.6109 9.98132 14.4229 9.77537 14.3008 9.48886C14.1835 9.21345 14.138 8.88732 14.1016 8.44492L14.0381 7.68027H11.4902C10.6566 7.68028 9.91777 7.70145 9.36328 7.73593C9.08602 7.75319 8.8583 7.77372 8.68945 7.79648C8.6049 7.8079 8.53821 7.81887 8.49023 7.82968C8.46046 7.83641 8.44372 7.84122 8.43652 7.84336C8.31109 7.91088 8.25991 7.93603 8.21289 7.9791C8.17708 8.01203 8.13053 8.06969 8.08301 8.21152C7.97952 8.52101 7.90072 9.12706 7.85254 10.4176C7.75702 12.9766 7.77963 18.0712 7.81738 28.4547C7.83689 33.8204 7.86644 38.7359 7.89844 42.3326C7.91444 44.131 7.93105 45.5996 7.94727 46.6295C7.95537 47.1442 7.96295 47.5487 7.9707 47.8297C7.97458 47.9702 7.9788 48.0789 7.98242 48.1539C7.98418 48.1902 7.98492 48.2173 7.98633 48.235C8.01313 48.3179 8.03062 48.3591 8.05176 48.3902C8.06879 48.4152 8.09819 48.4462 8.17285 48.482C8.34819 48.5659 8.70485 48.6433 9.48047 48.6998C11.0101 48.8113 13.9771 48.8382 19.8604 48.8863C25.1848 48.9299 28.008 48.9573 29.5059 49.0133C30.2482 49.041 30.6876 49.0762 30.9482 49.1295C31.0761 49.1557 31.1979 49.193 31.2939 49.2613C31.4121 49.3455 31.4639 49.4551 31.4834 49.5562C31.5006 49.6462 31.5326 49.7852 31.5303 49.9098C31.5274 50.062 31.4756 50.2234 31.3262 50.3521C31.1976 50.4627 31.0204 50.5274 30.8184 50.5728C30.6097 50.6197 30.3351 50.6542 29.9795 50.6812C28.5623 50.7888 25.6503 50.7848 19.7754 50.7848H8.66699L8.60059 50.7486L7.80371 50.3258C7.2045 50.007 6.77272 49.5734 6.45605 48.9713L6.03516 48.1695L6 48.1021V8.35996L6.44336 7.56504C6.63504 7.22209 6.82623 6.92996 7.06445 6.69297C7.30755 6.4512 7.59035 6.2774 7.95312 6.15195C8.65365 5.90983 9.67678 5.8452 11.335 5.8082L14.0791 5.74668L14.3643 5.15293C14.6404 4.57731 15.0035 4.16414 15.5586 3.90781C16.0966 3.65942 16.7867 3.57209 17.6875 3.57187C18.0332 3.57178 18.2859 3.57139 18.4756 3.56308C18.67 3.55454 18.7697 3.53791 18.8232 3.52011C18.8407 3.51426 18.848 3.50951 18.8496 3.50839C18.85 3.50776 18.8509 3.50652 18.8516 3.50547C18.8662 3.47998 18.8814 3.43192 18.9141 3.29746C19.267 1.84423 20.648 0.610772 22.334 0.145113ZM44.7578 36.0084C44.8565 35.996 44.9414 36.0234 44.999 36.0494C45.0587 36.0764 45.1117 36.1124 45.1553 36.148C45.2425 36.2195 45.3238 36.312 45.3896 36.4049C45.4556 36.498 45.5156 36.6053 45.5557 36.7115C45.5849 36.7891 45.6246 36.9211 45.5967 37.0572L45.5811 37.1158C45.5638 37.1641 45.5352 37.2073 45.5215 37.2281C45.5027 37.2565 45.4796 37.2891 45.4541 37.3228C45.4028 37.3909 45.3325 37.4776 45.249 37.5787C45.0816 37.7816 44.85 38.0522 44.5762 38.3658C44.0275 38.9944 43.3034 39.8042 42.5732 40.608C41.8432 41.4117 41.105 42.2123 40.5273 42.8238C40.2388 43.1292 39.9883 43.3887 39.7988 43.5787C39.7044 43.6734 39.6231 43.7535 39.5586 43.8131C39.5267 43.8425 39.4964 43.8692 39.4697 43.8912C39.4479 43.9093 39.4123 43.9384 39.373 43.9596C39.2394 44.0315 39.0873 44.0588 38.915 44.0162C38.7629 43.9784 38.6104 43.8899 38.4502 43.7721C38.1287 43.5354 37.6648 43.0967 36.9375 42.3795C36.3229 41.7734 35.883 41.3075 35.5996 40.9566C35.4585 40.7819 35.3477 40.6265 35.2744 40.4889C35.2066 40.3614 35.1436 40.2013 35.167 40.0367C35.198 39.8201 35.2731 39.5749 35.4785 39.4352C35.7007 39.2841 35.9576 39.3303 36.165 39.4176C36.3777 39.507 36.6177 39.6711 36.8848 39.8902C37.1556 40.1125 37.4713 40.4056 37.834 40.7682L39.0137 41.9469L41.4238 39.2398L42.46 38.0865C42.7847 37.7289 43.0836 37.4035 43.3408 37.1275C43.5977 36.8519 43.8142 36.6233 43.9746 36.4605C44.0544 36.3796 44.1228 36.3126 44.1758 36.2633C44.2019 36.239 44.2281 36.2165 44.251 36.1978C44.2631 36.1879 44.3073 36.151 44.3613 36.1285L44.5654 36.0553C44.6362 36.0333 44.7055 36.015 44.7578 36.0084ZM16.8545 35.1344C17.0466 35.0067 17.2726 34.9231 17.5107 35.0006C17.7285 35.0715 17.8715 35.2539 17.9746 35.4186C18.0733 35.5761 18.0685 35.7505 18.0234 35.9088C17.9802 36.0599 17.8916 36.2316 17.7686 36.4283C17.5201 36.8254 17.0759 37.4126 16.3711 38.3023C15.8153 39.0041 15.3354 39.5712 14.9648 39.9644C14.7803 40.1603 14.6171 40.3184 14.4824 40.4303C14.4156 40.4858 14.3489 40.5355 14.2852 40.5728C14.232 40.6039 14.1368 40.6539 14.0254 40.6539C13.9383 40.6538 13.8604 40.6253 13.8096 40.6031C13.7528 40.5783 13.6948 40.545 13.6387 40.5094C13.5259 40.4379 13.3968 40.3406 13.2617 40.2291C12.99 40.0048 12.6703 39.7049 12.3662 39.3961C12.062 39.0871 11.7668 38.7619 11.5459 38.4859C11.436 38.3486 11.3388 38.2175 11.2686 38.1031C11.2337 38.0464 11.2019 37.9881 11.1777 37.9312C11.1559 37.8799 11.1289 37.8022 11.1289 37.7164C11.1289 37.5724 11.1821 37.4288 11.2422 37.317C11.3047 37.2007 11.3946 37.0834 11.502 36.9937C11.6376 36.8806 11.7998 36.8103 11.9844 36.8072C12.1628 36.8045 12.3341 36.864 12.4922 36.9557C12.8003 37.1344 13.1323 37.4764 13.5029 37.9469C13.6585 38.1444 13.811 38.3222 13.9307 38.4478C13.9378 38.4553 13.9464 38.4614 13.9531 38.4684C14.031 38.3833 14.1315 38.2712 14.248 38.1344C14.5303 37.803 14.9059 37.3437 15.3037 36.8375L15.7969 36.2223C15.9467 36.0398 16.0822 35.8791 16.2061 35.7408C16.4504 35.468 16.6629 35.2618 16.8545 35.1344ZM23.4678 36.6988C24.1444 36.6991 24.8211 36.7251 25.3418 36.7779C25.6002 36.8042 25.8308 36.8379 26.0068 36.8814C26.0936 36.9029 26.1803 36.9297 26.2539 36.9654C26.3104 36.9929 26.4348 37.0612 26.4893 37.2027C26.5466 37.3527 26.5411 37.5182 26.5117 37.6539C26.4815 37.7932 26.4193 37.9404 26.3213 38.0592C26.2514 38.1437 26.1546 38.1904 26.0889 38.2174C26.0142 38.2479 25.9274 38.2728 25.8369 38.2936C25.6546 38.3353 25.4227 38.3685 25.165 38.3941C24.6472 38.4456 23.9904 38.4706 23.3389 38.4703C22.6875 38.47 22.0314 38.444 21.5137 38.3922C21.2562 38.3664 21.025 38.3335 20.8428 38.2916C20.7521 38.2707 20.6647 38.2451 20.5898 38.2144C20.5241 38.1874 20.4273 38.1407 20.3574 38.0562C20.2612 37.9396 20.1514 37.7833 20.1514 37.5855C20.1515 37.3879 20.2613 37.2324 20.3574 37.1158C20.4292 37.0289 20.5296 36.9815 20.5967 36.9547C20.6738 36.9239 20.7639 36.8985 20.8584 36.8775C21.0485 36.8353 21.2913 36.802 21.5615 36.776C22.1041 36.7238 22.791 36.6985 23.4678 36.6988ZM17.3721 24.816C17.6456 24.8611 17.8405 25.0739 17.9844 25.3033C18.0723 25.4435 18.0838 25.599 18.0518 25.7496C18.0218 25.8903 17.9516 26.0416 17.8574 26.2047C17.6681 26.5323 17.3283 26.995 16.8027 27.6676C15.9145 28.8042 15.3529 29.5005 14.9688 29.9117C14.6043 30.3018 14.3265 30.5218 14.0049 30.5221C13.9189 30.5221 13.8399 30.4979 13.7822 30.4742C13.7206 30.4489 13.658 30.4147 13.5977 30.3775C13.4769 30.3032 13.3422 30.2011 13.2031 30.0855C12.9237 29.8535 12.6032 29.5446 12.3047 29.2281C12.0063 28.9118 11.7225 28.5792 11.5195 28.2994C11.4191 28.1609 11.3311 28.0266 11.2725 27.9078C11.2433 27.8488 11.2162 27.7827 11.2002 27.7164C11.1859 27.6571 11.1706 27.5551 11.2109 27.4488C11.2806 27.2664 11.3812 27.0924 11.5371 26.9771C11.7066 26.8521 11.9042 26.8239 12.1016 26.8658C12.2861 26.9051 12.4718 27.0048 12.6553 27.1363C12.842 27.2702 13.047 27.4511 13.2715 27.6734C13.5054 27.9052 13.7281 28.1151 13.8975 28.2652C13.9315 28.2953 13.9647 28.321 13.9932 28.3453C14.0555 28.2765 14.1346 28.19 14.2236 28.0855C14.4629 27.805 14.7809 27.4151 15.1191 26.9859C15.7924 26.1316 16.4876 25.2828 16.6582 25.1109C16.8435 24.9246 17.086 24.7691 17.3721 24.816ZM25.5166 26.6402C27.5995 26.6621 28.7809 26.6825 29.4629 26.734C29.8009 26.7595 30.0418 26.7942 30.2158 26.8502C30.4074 26.9119 30.5373 27.0061 30.627 27.149C30.7096 27.2809 30.7817 27.4349 30.7803 27.6051C30.7786 27.7919 30.691 27.9377 30.5811 28.0484C30.5421 28.0876 30.4996 28.1091 30.4775 28.1197C30.4523 28.1318 30.4276 28.1407 30.4072 28.1471C30.3666 28.1598 30.3212 28.17 30.2764 28.1783C30.1851 28.1953 30.0658 28.2104 29.9287 28.2242C29.6527 28.252 29.2762 28.2776 28.8359 28.2994C27.9538 28.3431 26.7983 28.3757 25.6377 28.3922C24.4771 28.4087 23.3072 28.4094 22.3965 28.3912C21.9419 28.3821 21.5486 28.3678 21.252 28.3482C21.104 28.3385 20.9754 28.3266 20.874 28.3131C20.8237 28.3063 20.7756 28.2989 20.7334 28.2896C20.6964 28.2815 20.6433 28.2676 20.5938 28.2428C20.3449 28.1181 20.1516 27.9102 20.1191 27.6295C20.0877 27.3563 20.2191 27.1029 20.416 26.9049C20.492 26.8285 20.591 26.7917 20.6592 26.7711C20.737 26.7476 20.8302 26.73 20.9346 26.7154C21.1446 26.6861 21.4375 26.6658 21.8232 26.6519C22.5969 26.6242 23.7827 26.6219 25.5166 26.6402ZM17.2021 14.9098C17.3811 14.8669 17.547 14.9072 17.6865 15.0084C17.808 15.0966 17.9035 15.2262 17.9844 15.3551C18.0773 15.5033 18.0801 15.6683 18.043 15.8199C18.0077 15.9636 17.931 16.1213 17.8271 16.2965C17.6176 16.6499 17.2444 17.1586 16.6631 17.9049C15.8376 18.9647 15.2845 19.6551 14.9121 20.0816C14.7269 20.2937 14.5785 20.4504 14.458 20.5553C14.3979 20.6076 14.3362 20.6541 14.2744 20.6891C14.2158 20.7222 14.1317 20.7593 14.0322 20.7594C13.9522 20.7594 13.8904 20.728 13.877 20.7213C13.8517 20.7088 13.8277 20.6943 13.8096 20.6822C13.7727 20.6576 13.7321 20.6249 13.6895 20.5904C13.6024 20.5201 13.4893 20.4224 13.3613 20.3053C13.1043 20.0701 12.7711 19.7472 12.4229 19.3941C11.9872 18.9527 11.668 18.598 11.4668 18.3219C11.3669 18.1848 11.2866 18.0541 11.2373 17.9332C11.1914 17.8205 11.1502 17.6609 11.2109 17.5016L11.2695 17.3668C11.3348 17.2345 11.4212 17.1137 11.54 17.0269C11.7131 16.9008 11.9144 16.8755 12.1133 16.9215C12.299 16.9645 12.4872 17.0698 12.6748 17.2066C12.8657 17.3459 13.0773 17.5333 13.3105 17.7643C13.5706 18.0218 13.7957 18.2125 13.959 18.3238C13.9817 18.3393 14.0034 18.3518 14.0215 18.3629C14.1919 18.1521 14.5205 17.7446 14.8574 17.318C15.3008 16.7565 15.9571 15.9823 16.3203 15.5934C16.491 15.4107 16.6415 15.2602 16.7754 15.149C16.9049 15.0416 17.0469 14.947 17.2021 14.9098ZM27.9229 16.65C31.1144 16.65 32.901 16.6583 33.9014 16.6998C34.3966 16.7204 34.721 16.7492 34.9326 16.7965C35.1126 16.8367 35.2906 16.9076 35.3877 17.0709L35.4238 17.1461L35.4795 17.3053C35.4963 17.3623 35.5097 17.4229 35.5156 17.483C35.5288 17.6182 35.5041 17.7734 35.3887 17.9078C35.2856 18.0275 35.1385 18.0968 34.9873 18.1432C34.8316 18.1908 34.6331 18.2247 34.3896 18.2516C33.4237 18.358 31.4977 18.3648 27.8281 18.3648C24.8275 18.3648 23.0604 18.3548 22.0195 18.315C21.5017 18.2952 21.1493 18.2676 20.9102 18.2271C20.6909 18.1899 20.4841 18.1314 20.3574 17.9781C20.2612 17.8615 20.1514 17.7043 20.1514 17.5064C20.1517 17.309 20.2613 17.1532 20.3574 17.0367C20.4846 16.8827 20.6932 16.8247 20.9141 16.7877C21.1553 16.7473 21.5109 16.7196 22.0352 16.6998C23.089 16.6601 24.8804 16.65 27.9229 16.65ZM24.7529 2.01523C23.8703 1.64462 22.7034 1.72768 21.8926 2.2164C21.5459 2.4254 21.1984 2.77976 20.9385 3.1705C20.6744 3.56755 20.5315 3.9555 20.5312 4.22324C20.5312 4.43963 20.4984 4.65573 20.3867 4.84531C20.2714 5.04096 20.0931 5.17365 19.8711 5.2623C19.4551 5.42824 18.8054 5.47029 17.8691 5.47031C17.3035 5.47031 16.8498 5.49017 16.5254 5.52597C16.363 5.54392 16.2403 5.56539 16.1553 5.5875C16.1259 5.59514 16.1048 5.60195 16.0908 5.60703C16.0835 5.62767 16.0736 5.65694 16.0645 5.69492C16.0408 5.79364 16.0199 5.92976 16.002 6.09629C15.9662 6.42852 15.9473 6.85418 15.9473 7.28379C15.9473 7.71345 15.9662 8.13999 16.002 8.47226C16.0199 8.63879 16.0408 8.77501 16.0645 8.87363C16.0693 8.89388 16.0756 8.91121 16.0801 8.92636C16.0944 8.9287 16.1107 8.93262 16.1289 8.93515C16.2434 8.95106 16.4093 8.96731 16.623 8.98203C17.0491 9.01136 17.6451 9.03546 18.3564 9.05527C19.7784 9.09486 21.6504 9.11484 23.5234 9.11484C25.3964 9.11484 27.2685 9.09485 28.6904 9.05527C29.4018 9.03546 29.9978 9.01136 30.4238 8.98203C30.6375 8.96731 30.8035 8.95106 30.918 8.93515C30.9353 8.93274 30.951 8.9286 30.9648 8.92636C30.9678 8.91612 30.9725 8.90479 30.9756 8.89218C30.9975 8.80398 31.0186 8.68065 31.0361 8.5289C31.0711 8.22639 31.0914 7.83584 31.0947 7.43418C31.098 7.03282 31.0837 6.62725 31.0537 6.29453C31.0387 6.12792 31.0199 5.98286 30.998 5.86875C30.9748 5.74762 30.9523 5.68515 30.9414 5.66464C30.9129 5.61118 30.8961 5.59588 30.8809 5.58554C30.8596 5.57126 30.809 5.5461 30.6855 5.525C30.4276 5.48102 29.979 5.47031 29.127 5.47031C28.6076 5.47031 28.1983 5.4675 27.8789 5.44492C27.5641 5.42265 27.3007 5.37959 27.0908 5.28086C26.8619 5.17295 26.7158 5.00716 26.6182 4.79257C26.5293 4.59708 26.4787 4.35525 26.4297 4.0914C26.3642 3.73974 26.1296 3.29354 25.8008 2.88632C25.4719 2.47908 25.0842 2.15442 24.7529 2.01523Z" fill="#1BCE1B"/>
</svg>
