<svg width="54" height="54" viewBox="0 0 54 54" fill="none" xmlns="http://www.w3.org/2000/svg">
<path fill-rule="evenodd" clip-rule="evenodd" d="M19.9947 6.22445C18.9961 6.63609 18.4305 7.21662 18.0467 8.22387C17.8977 8.61527 17.8563 8.96853 17.8563 9.85134V10.9788L18.188 11.3096C18.4688 11.5896 18.5884 11.6404 18.9669 11.6404C19.3231 11.6404 19.4789 11.5827 19.7327 11.3565C20.0455 11.0778 20.0523 11.054 20.1081 10.0395C20.1724 8.86959 20.3153 8.56302 20.8896 8.36231C21.3634 8.19682 32.4942 8.19682 32.9679 8.36231C33.5423 8.56302 33.6851 8.86959 33.7494 10.0395C33.8052 11.054 33.8121 11.0778 34.1249 11.3565C34.3786 11.5827 34.5344 11.6404 34.8907 11.6404C35.2713 11.6404 35.3885 11.5899 35.6774 11.3018L36.0169 10.9633L35.9847 9.72088C35.9561 8.61896 35.9233 8.41631 35.6942 7.92898C35.3652 7.22927 34.7662 6.6319 34.0646 6.30384L33.5136 6.04621L27.0263 6.02316L20.539 6L19.9947 6.22445ZM4.58907 14.013C3.52964 14.2473 2.73292 14.8821 2.28534 15.8485L2.0039 16.4563V20.9317V25.407L2.275 25.9577C2.61634 26.6508 3.17113 27.2252 3.81196 27.5491C4.17564 27.7329 6.66754 28.3253 13.0585 29.7472C17.8703 30.8178 21.9248 31.7178 22.0686 31.7474L22.3299 31.8012L22.3612 33.8091C22.3953 35.9921 22.4418 36.1882 22.9838 36.4345C23.3311 36.5923 30.5265 36.5923 30.8737 36.4345C31.4158 36.1882 31.4623 35.9921 31.4963 33.8091L31.5276 31.8012L31.789 31.7474C31.9328 31.7178 35.9873 30.8178 40.7991 29.7472C50.1342 27.6702 50.1983 27.6522 50.9244 26.906C51.3202 26.4993 51.8049 25.64 51.8049 25.3451C51.8049 25.2517 51.8488 25.1482 51.9025 25.1152C51.9651 25.0765 52 23.5232 52 20.7743C52 17.9451 51.9669 16.5139 51.9025 16.5536C51.8488 16.5867 51.8049 16.5564 51.8048 16.4864C51.8048 16.4163 51.6799 16.0963 51.5274 15.7753C51.0716 14.8158 50.2292 14.1877 49.1256 13.9842C48.2548 13.8237 5.31964 13.8515 4.58907 14.013ZM4.80768 16.342C4.68652 16.4091 4.51093 16.5718 4.41747 16.7034C4.26275 16.9215 4.24763 17.2967 4.24763 20.9317C4.24763 24.9067 4.24841 24.9217 4.46605 25.226C4.58614 25.3939 4.80563 25.5643 4.95382 25.6045C5.102 25.6448 9.06433 26.5371 13.7591 27.5875L22.295 29.4972L22.357 28.8521C22.4252 28.1425 22.6072 27.7822 22.9838 27.6111C23.3311 27.4533 30.5265 27.4533 30.8737 27.6111C31.2504 27.7822 31.4323 28.1425 31.5005 28.8521L31.5626 29.4972L40.1115 27.5903C44.8133 26.5414 48.7951 25.6277 48.9597 25.5597C49.1243 25.4917 49.338 25.3201 49.4344 25.1783C49.5963 24.9406 49.6099 24.6129 49.6099 20.9708C49.6099 16.6692 49.6057 16.6336 49.0573 16.3507C48.8295 16.2332 45.5867 16.2136 26.9093 16.2165C9.55112 16.2193 4.9825 16.2452 4.80768 16.342ZM2 20.883C2 23.2642 2.01268 24.2384 2.02819 23.0477C2.0437 21.8572 2.0437 19.909 2.02819 18.7183C2.01268 17.5278 2 18.5018 2 20.883ZM3.74279 29.8784C3.57246 29.9524 3.35297 30.1348 3.25502 30.2838C3.08635 30.5407 3.07699 30.9701 3.07699 38.4397C3.07699 47.1705 3.03816 46.6138 3.71567 47.5959C4.08754 48.135 4.63043 48.5395 5.33467 48.8023C5.86136 48.9988 5.9912 49 26.9288 49C47.8664 49 47.9962 48.9988 48.5229 48.8023C49.2271 48.5395 49.77 48.135 50.1419 47.5959C50.8106 46.6266 50.7741 47.1034 50.8098 38.8818C50.8276 34.7883 50.8132 31.2018 50.7779 30.9117C50.7015 30.2843 50.3643 29.8834 49.8292 29.7832C49.4193 29.7065 48.8378 29.9426 48.6554 30.2599C48.5662 30.4151 48.5248 32.3948 48.4881 38.2494C48.4353 46.6653 48.4607 46.296 47.917 46.5862C47.5631 46.7751 6.29449 46.7751 5.94057 46.5862C5.39691 46.296 5.42227 46.6653 5.36949 38.2494C5.33047 32.0202 5.29477 30.4208 5.19097 30.239C5.05703 30.0047 4.53268 29.7335 4.22636 29.7403C4.13076 29.7424 3.91312 29.8046 3.74279 29.8784ZM24.6851 32.0228V34.3091H26.9288H29.1725V32.0228V29.7365H26.9288H24.6851V32.0228Z" fill="#1BCE1B"/>
</svg>
