<svg width="56" height="56" viewBox="0 0 56 56" fill="none" xmlns="http://www.w3.org/2000/svg">
<path fill-rule="evenodd" clip-rule="evenodd" d="M18.8826 1.94022C17.6248 2.37468 16.8934 3.71632 17.2308 4.96963C17.304 5.24149 18.254 6.77912 19.5875 8.78428C20.8163 10.6318 21.7987 12.1663 21.7707 12.1943C21.723 12.242 20.5465 12.5968 13.8256 14.5904C12.3378 15.0317 10.982 15.3928 10.8126 15.3928C10.5728 15.3928 10.2851 15.181 9.50709 14.4314C8.08284 13.0592 8.09043 13.0622 6.07031 13.0622C4.55404 13.0622 4.34786 13.0851 3.95654 13.2966C2.76991 13.9381 2.2561 15.1357 2.62086 16.41C2.72687 16.7804 3.23786 17.3502 5.62891 19.7647C7.25012 21.4017 8.69496 22.7692 8.93409 22.8927C9.77071 23.325 10.0621 23.2655 16.7289 21.3045C20.1169 20.308 22.9124 19.5162 22.9412 19.5449C22.97 19.5737 22.7708 21.1511 22.4987 23.0504C22.2266 24.9497 22.0041 26.7257 22.0044 26.9973C22.0051 27.7016 22.4499 28.5402 23.0369 28.9441C23.6442 29.362 24.4384 29.5257 25.5287 29.4576C27.0199 29.3646 27.6947 28.847 28.2723 27.353C30.5872 21.3646 32.5344 16.4209 32.6001 16.3651C32.6453 16.3269 35.3162 15.53 38.5356 14.5944C41.7551 13.6588 44.5678 12.816 44.7862 12.7216C45.2879 12.5047 45.7926 11.9871 46.0096 11.4668C46.2343 10.9282 46.2188 10.0195 45.9758 9.48453C45.5164 8.4735 43.7555 7.31537 42.167 6.97966C40.7357 6.67723 40.0909 6.7866 35.7774 8.06343C33.6643 8.68899 31.8839 9.16952 31.8209 9.13137C31.758 9.0931 29.5828 7.47038 26.9871 5.52528C23.2529 2.72708 22.1622 1.96211 21.763 1.86163C20.996 1.66846 19.5555 1.70781 18.8826 1.94022ZM36.9639 3.28436C36.5763 3.41042 36.2484 3.51839 36.2351 3.52435C36.2122 3.53476 36.6584 4.99846 36.7088 5.07868C36.7444 5.13526 38.373 4.63934 38.373 4.57191C38.373 4.33073 37.8729 3.03743 37.7826 3.04534C37.7198 3.05087 37.3514 3.1584 36.9639 3.28436ZM19.147 3.69367C18.5603 4.15512 18.6418 4.33257 21.2121 8.18841C22.7444 10.4872 23.6125 11.6959 23.7057 11.6602C23.7841 11.63 25.0799 11.2412 26.5852 10.7963C28.0903 10.3513 29.4412 9.94273 29.5871 9.88842C29.8308 9.79769 29.5082 9.53136 25.64 6.62932L21.4276 3.46896H20.4301C19.585 3.46896 19.3889 3.50332 19.147 3.69367ZM49.2129 4.12802C48.885 4.24325 48.5581 4.35924 48.4865 4.38569C48.3908 4.42091 48.4162 4.61484 48.582 5.11662C48.7061 5.49222 48.8457 5.84148 48.8922 5.89286C48.9586 5.96613 50.3389 5.60083 50.4957 5.46859C50.578 5.39921 50.0283 3.9032 49.9232 3.91047C49.8605 3.9148 49.5408 4.01269 49.2129 4.12802ZM11.3818 6.25372C9.80193 6.76048 8.49844 7.18529 8.4851 7.19797C8.46689 7.21532 8.88282 8.61474 8.94732 8.75273C8.95913 8.7781 14.8765 6.93457 14.9319 6.88817C15.0113 6.82161 14.4733 5.31336 14.3731 5.32203C14.3078 5.32778 12.9617 5.74695 11.3818 6.25372ZM5.25732 8.18613C4.66113 8.3845 4.17334 8.5871 4.17334 8.63653C4.17334 8.9149 4.60639 10.0813 4.7097 10.0813C4.89256 10.0813 6.97913 9.42307 7.07094 9.33635C7.21142 9.20378 6.69425 7.80381 6.50889 7.81519C6.41675 7.82094 5.85352 7.98787 5.25732 8.18613ZM40.3242 8.53149C40.1156 8.55545 33.5303 10.4834 25.6904 12.8159C10.4857 17.3396 10.6976 17.2854 9.86426 16.8592C9.65559 16.7524 9.03588 16.2326 8.48706 15.7038L7.48925 14.7424H6.07519C4.8117 14.7424 4.63837 14.7652 4.44705 14.9565C4.14158 15.262 4.07481 15.6438 4.26407 16.0044C4.3535 16.1748 5.59336 17.4727 7.01934 18.8886C9.20856 21.0625 9.66123 21.4632 9.92789 21.4641C10.1015 21.4646 13.1788 20.603 16.7661 19.5493L23.2885 17.6337L23.3628 16.9938C23.4134 16.557 23.479 16.3701 23.5693 16.4047C23.642 16.4327 24.0177 16.4893 24.4044 16.5308L25.1072 16.606L24.3704 21.7174C23.9651 24.5287 23.6585 26.9398 23.6891 27.0754C23.8112 27.6164 24.0968 27.7502 25.1296 27.7502C25.9845 27.7502 26.1095 27.7243 26.3054 27.5063C26.4258 27.3721 27.7821 24.0186 29.3193 20.0539C30.8565 16.0892 32.131 12.8262 32.1516 12.8028C32.1969 12.7514 33.5145 13.2167 33.6331 13.3261C33.6792 13.3684 33.6397 13.5878 33.5454 13.8135C33.4512 14.0392 33.398 14.2478 33.4273 14.277C33.4565 14.3063 35.8618 13.638 38.7722 12.792C44.3747 11.1633 44.5518 11.0921 44.5518 10.4669C44.5518 9.96138 43.1711 8.95652 42.1128 8.69192C41.5261 8.54526 40.7837 8.47859 40.3242 8.53149ZM50.0441 12.4985C49.6368 12.6297 49.302 12.7752 49.3 12.8219C49.2893 13.0754 49.7155 14.3088 49.8137 14.3088C49.9268 14.3088 51.2911 13.8735 51.3629 13.8144C51.4183 13.769 50.9131 12.2485 50.8446 12.2547C50.8117 12.2577 50.4515 12.3675 50.0441 12.4985ZM42.9258 16.2046C42.1209 16.4632 40.6727 16.9241 39.7075 17.2287L37.9527 17.7826L38.1183 18.3404C38.4683 19.5192 38.0286 19.5173 41.6963 18.3548C43.4727 17.7916 44.9486 17.3084 44.9762 17.2808C45.0472 17.2099 44.5553 15.7162 44.4642 15.7261C44.423 15.7307 43.7306 15.9459 42.9258 16.2046ZM34.915 18.7437C34.2353 18.9576 33.6815 19.1705 33.6843 19.2169C33.7055 19.5624 34.093 20.7041 34.1887 20.7031C34.332 20.7017 36.5153 19.9967 36.5815 19.9303C36.607 19.9049 36.5205 19.54 36.3894 19.1194L36.1509 18.3548L34.915 18.7437ZM47.7635 20.7534C47.6068 21.145 47.4785 21.5067 47.4785 21.5571C47.4785 21.6076 47.8931 21.8092 48.3999 22.0051C48.9067 22.201 49.3213 22.3928 49.3213 22.4313C49.3213 22.4697 45.4067 23.6906 40.6223 25.1443C35.8379 26.5979 31.9137 27.7927 31.9018 27.7993C31.8519 27.8272 32.3424 29.3762 32.4012 29.3762C32.4366 29.3762 36.5264 28.1401 41.4896 26.6294C46.4529 25.1185 50.5137 23.9224 50.5137 23.9713C50.5137 24.0203 50.3132 24.5612 50.0682 25.1736C49.8232 25.7858 49.6006 26.3423 49.5735 26.4101C49.5267 26.5274 51.0063 27.1863 51.1007 27.0901C51.1746 27.0147 53.1271 22.0886 53.093 22.0633C53.0693 22.0456 49.9315 20.7877 48.17 20.0896C48.1018 20.0626 47.9236 20.3536 47.7635 20.7534ZM13.6262 24.5443C10.3594 25.5777 7.66561 26.4439 7.64014 26.4694C7.54139 26.5681 8.07254 27.967 8.2088 27.967C8.3302 27.967 20.0679 24.2976 20.1295 24.2404C20.1769 24.1963 19.69 22.6558 19.6302 22.6606C19.5949 22.6633 16.893 23.511 13.6262 24.5443ZM4.39014 27.4511C3.79395 27.6388 3.29401 27.799 3.27905 27.8073C3.20989 27.8459 3.73042 29.3762 3.8127 29.3762C3.86419 29.3762 4.44585 29.2018 5.10524 28.9887C5.86273 28.7438 6.28613 28.5542 6.25535 28.4738C6.22857 28.4037 6.11822 28.066 6.01026 27.7231C5.8791 27.3068 5.75747 27.1016 5.64398 27.1049C5.55054 27.1078 4.98633 27.2636 4.39014 27.4511ZM7.80621 31.4313C7.04189 31.6952 6.4716 32.2917 6.24093 33.0687C6.09514 33.5595 6.07031 34.4757 6.07031 39.3686V45.094H3.90234H1.73438V47.3506C1.73438 50.0565 1.82825 50.5051 2.54455 51.2213C3.32653 52.0034 3.52262 52.0314 8.23091 52.0323L12.3032 52.0331L12.552 52.4687C13.0769 53.3879 14.2599 53.9032 15.2822 53.6579C15.9665 53.4938 16.613 53.0279 16.9324 52.4687L17.1812 52.0331H27.3164H37.4517L37.7004 52.4687C38.0198 53.0279 38.6663 53.4938 39.3506 53.6579C40.3729 53.9032 41.5559 53.3879 42.0808 52.4687L42.3296 52.0331L46.8355 52.0323C52.0245 52.0314 52.1639 52.0128 52.9555 51.2213C53.6718 50.5051 53.7656 50.0565 53.7656 47.3506V45.094H51.5977H49.4297V39.3686C49.4297 32.8248 49.4314 32.841 48.6195 32.0291C47.7451 31.1546 49.4032 31.2185 27.7032 31.2225C9.04888 31.2259 8.38093 31.2329 7.80621 31.4313ZM8.07081 33.2195C7.80469 33.4855 7.80469 33.4858 7.80469 35.821V38.1565H12.1406H16.4766V35.5549V32.9533H13.875H11.2734V34.2541V35.5549H10.4062H9.53906V34.2541V32.9533H8.93799C8.44424 32.9533 8.28923 33.0009 8.07081 33.2195ZM18.2109 35.5549V38.1565H22.5469H26.8828V35.5549V32.9533H24.2812H21.6797V34.2541V35.5549H20.8125H19.9453V34.2541V32.9533H19.0781H18.2109V35.5549ZM28.6172 35.5549V38.1565H32.9531H37.2891V35.5549V32.9533H34.6875H32.0859V34.2541V35.5549H31.2188H30.3516V34.2541V32.9533H29.4844H28.6172V35.5549ZM39.0234 35.5549V38.1565H43.3594H47.6953V35.821C47.6953 32.7012 47.9474 32.9533 44.8276 32.9533H42.4922V34.2541V35.5549H41.625H40.7578V34.2541V32.9533H39.8906H39.0234V35.5549ZM7.80469 42.4924V45.094H12.1406H16.4766V42.4924V39.8908H13.875H11.2734V41.1916V42.4924H10.4062H9.53906V41.1916V39.8908H8.67188H7.80469V42.4924ZM18.2109 42.4924V45.094H22.5469H26.8828V42.4924V39.8908H24.2812H21.6797V41.1916V42.4924H20.8125H19.9453V41.1916V39.8908H19.0781H18.2109V42.4924ZM28.6172 42.4924V45.094H32.9531H37.2891V42.4924V39.8908H34.6875H32.0859V41.1916V42.4924H31.2188H30.3516V41.1916V39.8908H29.4844H28.6172V42.4924ZM39.0234 42.4924V45.094H43.3594H47.6953V42.4924V39.8908H45.0938H42.4922V41.1916V42.4924H41.625H40.7578V41.1916V39.8908H39.8906H39.0234V42.4924ZM3.46875 48.2966C3.46875 49.7111 3.47851 49.7747 3.73487 50.031L4.00088 50.2971L8.1521 50.2962L12.3032 50.2955L12.552 49.8598C13.0769 48.9407 14.2599 48.4254 15.2822 48.6707C15.9665 48.8348 16.613 49.3007 16.9324 49.8598L17.1812 50.2955H27.3164H37.4517L37.7004 49.8598C38.2253 48.9407 39.4084 48.4254 40.4307 48.6707C41.115 48.8348 41.7615 49.3007 42.0808 49.8598L42.3296 50.2955L46.9143 50.2962L51.4991 50.2971L51.7651 50.031C52.0215 49.7747 52.0312 49.7111 52.0312 48.2966V46.8283H27.75H3.46875V48.2966ZM14.1411 50.5632C13.6034 51.1009 13.9844 52.0315 14.7422 52.0315C15.1878 52.0315 15.6094 51.6099 15.6094 51.1643C15.6094 50.7186 15.1878 50.2971 14.7422 50.2971C14.531 50.2971 14.3088 50.3954 14.1411 50.5632ZM39.2896 50.5632C39.1218 50.7309 39.0234 50.9531 39.0234 51.1643C39.0234 51.3754 39.1218 51.5977 39.2896 51.7653C39.4572 51.9331 39.6795 52.0315 39.8906 52.0315C40.1018 52.0315 40.324 51.9331 40.4917 51.7653C40.6595 51.5977 40.7578 51.3754 40.7578 51.1643C40.7578 50.9531 40.6595 50.7309 40.4917 50.5632C40.324 50.3954 40.1018 50.2971 39.8906 50.2971C39.6795 50.2971 39.4572 50.3954 39.2896 50.5632Z" fill="currentColor"/>
</svg>
