<svg width="245" height="61" viewBox="0 0 245 61" fill="none" xmlns="http://www.w3.org/2000/svg">
<g clip-path="url(#clip0_113_192)">
<path d="M102.515 32.2693H100.731C100.731 24.182 97.5154 16.4258 91.7911 10.7072C86.0668 4.98853 78.303 1.77583 70.2076 1.77583C62.1122 1.77583 54.3484 4.98853 48.6241 10.7072C42.8998 16.4258 39.684 24.182 39.684 32.2693H37.8999C37.8999 23.7093 41.3037 15.4998 47.3626 9.4469C53.4215 3.39401 61.6391 -0.00646973 70.2076 -0.00646973C78.7761 -0.00646973 86.9937 3.39401 93.0526 9.4469C99.1115 15.4998 102.515 23.7093 102.515 32.2693Z" fill="black"/>
<path d="M41.52 31.9968C41.52 47.8788 54.47 60.7537 70.4448 60.7537C60.8765 59.1429 55.9825 55.0021 55.9825 49.2509C55.9825 43.4997 60.8424 37.7483 70.4448 31.9968C70.445 31.9968 70.445 31.9968 70.445 31.9968H41.52Z" fill="url(#paint0_radial_113_192)"/>
<path d="M99.3696 31.9971C99.3696 16.1155 86.4196 3.24053 70.4448 3.24053C80.0471 5.87268 84.907 8.99187 84.907 14.7432C84.907 20.4946 80.0471 26.2459 70.4448 31.9971H99.3696Z" fill="url(#paint1_radial_113_192)"/>
<path d="M70.445 31.9971C80.0472 26.2459 84.9072 20.4946 84.9072 14.7432C84.9072 8.99187 80.0473 3.24053 70.4448 3.24053C54.47 3.24053 41.52 16.1155 41.52 31.9971H70.445Z" fill="url(#paint2_radial_113_192)"/>
<path d="M70.4449 31.9968C60.8423 37.7483 55.9824 43.4997 55.9824 49.2509C55.9824 55.0023 60.8423 60.7537 70.4449 60.7537C86.4196 60.7537 99.3696 47.8788 99.3696 31.9968H70.4449Z" fill="url(#paint3_radial_113_192)"/>
<path d="M35.9602 59.626H1.27161L29.3819 30.3768C32.3337 26.9483 35.0649 23.0727 35.0649 18.0109C35.108 15.8606 34.7213 13.7233 33.9274 11.7241C33.1335 9.72494 31.9483 7.90407 30.4413 6.3681C28.9343 4.83214 27.1357 3.61194 25.1509 2.77895C23.166 1.94595 21.0348 1.5169 18.8819 1.5169C16.729 1.5169 14.5978 1.94595 12.6129 2.77895C10.628 3.61194 8.82947 4.83214 7.32247 6.3681C5.81546 7.90407 4.63032 9.72494 3.8364 11.7241C3.04248 13.7233 2.65576 15.8606 2.69885 18.0109H0.914795C0.917268 13.2872 2.77327 8.75264 6.08446 5.3805C9.39565 2.00835 13.8982 0.067347 18.6256 -0.0259399H18.8851C21.2484 -0.0216882 23.5878 0.447554 25.7696 1.35499C27.9513 2.26243 29.9328 3.59029 31.6009 5.26276C33.269 6.93523 34.5911 8.91956 35.4915 11.1024C36.392 13.2853 36.8533 15.624 36.849 17.985C36.849 23.6365 33.9037 27.8363 30.7183 31.5305V31.5694L5.46252 57.8178H35.9926L35.9602 59.626Z" fill="black"/>
<path d="M121.011 32.3731V19.5923H128.323V21.3293H122.841V24.6152H127.045V26.3586H122.841V30.6685H128.504V32.4055L121.011 32.3731Z" fill="black"/>
<path d="M134.317 23.7661C135.04 23.7113 135.756 23.9442 136.309 24.4142C136.558 24.6287 136.759 24.894 136.898 25.1925C137.037 25.491 137.11 25.8156 137.113 26.1447C137.1 26.7205 136.868 27.2699 136.464 27.6807C136.872 27.8725 137.217 28.1771 137.457 28.5585C137.697 28.9398 137.823 29.3819 137.82 29.8324C137.827 30.4953 137.57 31.1338 137.107 31.6082C136.816 31.8868 136.47 32.1007 136.091 32.2359C135.712 32.371 135.309 32.4244 134.907 32.3924H130.703V23.7661H134.317ZM133.915 27.3242C134.563 27.3242 134.868 27.2011 135.063 27.0002C135.266 26.7961 135.38 26.52 135.38 26.2322C135.38 25.9443 135.266 25.6682 135.063 25.4642C134.868 25.2632 134.589 25.1336 133.915 25.1336H132.455V27.3242H133.915ZM132.455 30.9796H134.609C135.303 30.9796 135.614 30.85 135.816 30.6166C136.012 30.395 136.12 30.1091 136.12 29.813C136.119 29.5249 136.01 29.2477 135.816 29.0352C135.653 28.8901 135.461 28.7823 135.253 28.7196C135.044 28.6569 134.824 28.6408 134.609 28.6723H132.455V30.9796Z" fill="black"/>
<path d="M141.92 36.7283H140.188V23.7662H141.868V24.5504C142.531 24.0056 143.342 23.6737 144.197 23.5985C145.052 23.5233 145.909 23.7083 146.656 24.1291C147.329 24.5387 147.885 25.1142 148.27 25.8003C148.656 26.4864 148.858 27.2601 148.858 28.0469C148.858 28.8338 148.656 29.6074 148.27 30.2935C147.885 30.9796 147.329 31.5551 146.656 31.9647C145.998 32.3342 145.257 32.5305 144.502 32.5351C143.552 32.5508 142.629 32.2189 141.907 31.6018V36.7283H141.92ZM141.92 29.664C142.194 30.0353 142.549 30.3388 142.958 30.5512C143.368 30.7636 143.821 30.8791 144.282 30.8889C144.651 30.8949 145.017 30.8282 145.36 30.6927C145.703 30.5572 146.016 30.3555 146.282 30.0991C146.547 29.8427 146.759 29.5367 146.905 29.1985C147.052 28.8602 147.13 28.4965 147.136 28.1279V28.0566C147.154 27.3281 146.883 26.622 146.383 26.0917C145.882 25.5615 145.193 25.2498 144.463 25.2244H144.373C143.897 25.2276 143.429 25.3397 143.004 25.5521C142.579 25.7644 142.208 26.0714 141.92 26.4493V29.6899V29.664Z" fill="black"/>
<path d="M157.62 31.5888C156.887 32.2261 155.945 32.572 154.973 32.561C154.218 32.5596 153.476 32.3631 152.819 31.9906C152.146 31.5901 151.589 31.0204 151.204 30.3382C150.82 29.6559 150.62 28.885 150.627 28.102C150.627 27.3187 150.83 26.5489 151.217 25.8675C151.603 25.186 152.16 24.6161 152.832 24.2133C153.471 23.8394 154.201 23.6487 154.941 23.6624C155.923 23.6496 156.877 23.9927 157.627 24.6281V23.7661H159.32V32.3536H157.62V31.5629V31.5888ZM157.568 26.4752C157.281 26.0978 156.912 25.7911 156.488 25.5787C156.064 25.3664 155.597 25.254 155.122 25.2503C154.761 25.2486 154.402 25.3182 154.067 25.4551C153.732 25.5921 153.428 25.7936 153.171 26.0483C152.915 26.3029 152.711 26.6057 152.571 26.9392C152.432 27.2727 152.36 27.6304 152.359 27.9918V28.0825C152.355 28.4511 152.425 28.8167 152.563 29.1585C152.701 29.5002 152.905 29.8115 153.163 30.0745C153.422 30.3375 153.729 30.5471 154.069 30.6913C154.408 30.8354 154.773 30.9114 155.142 30.9148H155.207C155.668 30.908 156.121 30.7937 156.53 30.5811C156.938 30.3684 157.292 30.0632 157.562 29.6898V26.4493L157.568 26.4752Z" fill="black"/>
<path d="M165.158 32.561C164.411 32.574 163.671 32.4235 162.988 32.1201C162.306 31.8167 161.698 31.3677 161.208 30.8046L162.304 29.8C162.675 30.1813 163.119 30.4844 163.609 30.6915C164.099 30.8985 164.626 31.0053 165.158 31.0055C166.183 31.0055 166.929 30.5324 166.929 29.7093C166.927 29.5683 166.896 29.4293 166.84 29.3002C166.783 29.1711 166.701 29.0546 166.599 28.9575C166.19 28.687 165.697 28.572 165.21 28.6334H164.004V27.1687H165.23C165.586 27.2073 165.946 27.13 166.255 26.9484C166.359 26.8759 166.444 26.7788 166.502 26.6657C166.559 26.5527 166.588 26.4271 166.586 26.3002C166.586 25.516 165.814 25.1661 165.009 25.1661C164.154 25.2022 163.334 25.5163 162.674 26.0604L161.759 24.8939C162.672 24.0365 163.886 23.5711 165.139 23.5976C166.748 23.5976 168.337 24.4531 168.337 26.1058C168.348 26.7245 168.115 27.3227 167.689 27.7714C168.002 27.9673 168.261 28.2383 168.442 28.5598C168.623 28.8813 168.721 29.2431 168.727 29.6121C168.72 31.4786 167.163 32.561 165.158 32.561Z" fill="black"/>
<path d="M171.14 23.7662H172.872V29.5084L177.88 23.7662H179.068V32.3471H177.335V26.6049L172.321 32.3471H171.14V23.7662Z" fill="black"/>
<path d="M182.065 23.7661H183.804V29.5084L188.812 23.7661H189.999V32.3471H188.261V26.6048L183.252 32.3471H182.065V23.7661ZM188.715 19.9293C188.682 20.5852 188.397 21.2032 187.921 21.6557C187.445 22.1082 186.813 22.3606 186.155 22.3606C185.498 22.3606 184.866 22.1082 184.389 21.6557C183.913 21.2032 183.629 20.5852 183.596 19.9293H185.062C185.045 20.2198 185.144 20.5052 185.337 20.7228C185.531 20.9404 185.803 21.0722 186.094 21.0894C186.384 21.1066 186.67 21.0077 186.888 20.8145C187.106 20.6212 187.238 20.3494 187.255 20.0589V19.9293H188.715Z" fill="black"/>
<path d="M200.768 30.5519C200.341 31.1713 199.769 31.6778 199.102 32.0277C198.436 32.3777 197.694 32.5607 196.941 32.561C196.341 32.584 195.743 32.4846 195.183 32.269C194.623 32.0534 194.113 31.7261 193.684 31.307C193.254 30.8879 192.915 30.3859 192.687 29.8315C192.458 29.2771 192.345 28.6821 192.354 28.0826C192.339 27.5097 192.436 26.9394 192.641 26.4043C192.847 25.8691 193.155 25.3796 193.55 24.9637C193.945 24.5478 194.417 24.2137 194.941 23.9804C195.465 23.7471 196.03 23.6192 196.603 23.6041H196.85C197.553 23.6068 198.247 23.7699 198.878 24.081C199.508 24.3921 200.06 24.8431 200.489 25.3994L199.27 26.4234C198.971 26.0701 198.601 25.7836 198.184 25.5826C197.767 25.3815 197.313 25.2706 196.85 25.2568C196.493 25.2508 196.138 25.3151 195.806 25.446C195.474 25.577 195.171 25.772 194.914 26.02C194.658 26.2679 194.453 26.564 194.31 26.8912C194.168 27.2184 194.092 27.5704 194.086 27.927C194.083 27.981 194.083 28.0351 194.086 28.089C194.077 28.4513 194.139 28.8119 194.269 29.1502C194.4 29.4884 194.595 29.7976 194.845 30.0601C195.096 30.3226 195.395 30.5333 195.727 30.6799C196.058 30.8266 196.416 30.9064 196.779 30.9148H196.934C197.441 30.9028 197.939 30.7751 198.388 30.5415C198.838 30.3078 199.228 29.9744 199.529 29.5667L200.755 30.5454L200.768 30.5519Z" fill="black"/>
<path d="M211.129 32.3731H208.806L204.544 28.1733V32.3731H202.805V23.7662H204.544V27.0521L208.222 23.7662H210.603L206.367 27.6548L211.155 32.386L211.129 32.3731Z" fill="black"/>
<path d="M212.647 23.7662H214.386V29.5084L219.394 23.7662H220.581V32.3471H218.843V26.6049L213.834 32.3471H212.647V23.7662Z" fill="black"/>
<path d="M223.578 23.7661H225.317V29.5084L230.325 23.7661H231.519V32.3471H229.78V26.6048L224.772 32.3471H223.585V23.7661H223.578ZM230.235 19.9293C230.201 20.5852 229.917 21.2032 229.441 21.6557C228.965 22.1082 228.333 22.3606 227.675 22.3606C227.018 22.3606 226.386 22.1082 225.909 21.6557C225.433 21.2032 225.149 20.5852 225.116 19.9293H226.582C226.559 20.0791 226.567 20.232 226.606 20.3785C226.644 20.525 226.713 20.662 226.807 20.7809C226.901 20.8998 227.018 20.998 227.152 21.0694C227.286 21.1408 227.433 21.1839 227.584 21.196C227.735 21.2081 227.887 21.1888 228.031 21.1395C228.174 21.0902 228.306 21.0119 228.418 20.9094C228.529 20.807 228.619 20.6826 228.68 20.5441C228.742 20.4055 228.774 20.2558 228.775 20.1043V19.9293H230.235Z" fill="black"/>
<path d="M121.011 42.4317H128.504V44.1622H122.841V47.4481H125.578C126.584 47.3771 127.581 47.682 128.375 48.3036C129.178 48.9776 129.68 49.9427 129.771 50.9866C129.862 52.0305 129.535 53.0679 128.861 53.8708C128.714 54.0451 128.551 54.2056 128.375 54.3504C127.582 54.9743 126.585 55.2815 125.578 55.2124H121.037L121.011 42.4317ZM122.841 49.1785V53.4884H125.215C126.37 53.4884 126.915 53.2357 127.317 52.8403C127.703 52.4327 127.915 51.8911 127.907 51.3302C127.905 50.7782 127.689 50.2485 127.304 49.8525C127.019 49.6024 126.685 49.4154 126.323 49.3036C125.96 49.1919 125.578 49.1581 125.202 49.2044L122.841 49.1785Z" fill="black"/>
<path d="M138.268 54.4217C137.534 55.0621 136.589 55.4084 135.615 55.3939C134.859 55.394 134.117 55.1974 133.461 54.8235C132.788 54.422 132.232 53.8521 131.847 53.1701C131.463 52.4881 131.263 51.7176 131.268 50.9349C131.262 50.1444 131.463 49.3662 131.851 48.6773C132.239 47.9884 132.801 47.4127 133.48 47.0074C134.113 46.641 134.831 46.4487 135.563 46.45C136.549 46.4362 137.506 46.7818 138.255 47.4221V46.6379H139.935V55.2189H138.255V54.4347L138.268 54.4217ZM138.21 49.3081C137.924 48.9301 137.554 48.6233 137.13 48.4119C136.706 48.2005 136.238 48.0902 135.764 48.0897C135.403 48.088 135.045 48.1574 134.71 48.2939C134.376 48.4304 134.072 48.6314 133.815 48.8854C133.558 49.1394 133.354 49.4413 133.214 49.7741C133.075 50.1068 133.002 50.4638 133 50.8247V50.9219C132.997 51.2902 133.066 51.6554 133.204 51.9969C133.342 52.3383 133.546 52.6491 133.805 52.9116C134.063 53.1741 134.371 53.3831 134.711 53.5265C135.05 53.67 135.415 53.7451 135.783 53.7477H135.855C136.315 53.7407 136.767 53.627 137.176 53.4155C137.584 53.2041 137.938 52.9007 138.21 52.5292V49.2887V49.3081Z" fill="black"/>
<path d="M142.945 46.6249H144.684V49.7877H149.225V46.6249H150.964V55.2124H149.225V51.3237H144.684V55.2124H142.945V46.6249Z" fill="black"/>
<path d="M162.284 55.2124H159.962L155.706 50.9867V55.1929H153.968V46.6249H155.706V49.9173L159.359 46.6249H161.74L157.477 50.4812L162.284 55.2124Z" fill="black"/>
<path d="M168.298 55.2124V42.4317H173.19C174.152 42.3654 175.104 42.6639 175.856 43.2678C176.251 43.603 176.569 44.0201 176.787 44.4901C177.004 44.9602 177.117 45.4719 177.117 45.9898C177.117 46.5077 177.004 47.0195 176.787 47.4895C176.569 47.9595 176.251 48.3766 175.856 48.7119C175.102 49.3107 174.152 49.6086 173.19 49.5479H170.173V55.2124H168.298ZM170.128 47.8175H173.054C173.358 47.8506 173.667 47.8167 173.957 47.7181C174.247 47.6196 174.512 47.4589 174.734 47.2471C175.065 46.9134 175.25 46.4627 175.25 45.9931C175.25 45.5234 175.065 45.0727 174.734 44.739C174.514 44.5246 174.249 44.3621 173.959 44.2634C173.668 44.1647 173.359 44.1323 173.054 44.1686H170.128V47.8175Z" fill="black"/>
<path d="M184.809 54.4217C184.075 55.0609 183.13 55.4071 182.156 55.3938C181.4 55.3945 180.658 55.1979 180.002 54.8235C179.328 54.4159 178.77 53.8415 178.383 53.1557C177.996 52.47 177.793 51.6961 177.793 50.9089C177.793 50.1217 177.996 49.3478 178.383 48.6621C178.77 47.9763 179.328 47.4019 180.002 46.9943C180.638 46.6263 181.362 46.436 182.097 46.4434C183.083 46.4297 184.04 46.7753 184.79 47.4156V46.6314H186.47V55.2124H184.79V54.4281L184.809 54.4217ZM184.751 49.3081C184.463 48.9326 184.093 48.6276 183.669 48.4165C183.245 48.2053 182.779 48.0936 182.305 48.0896C181.943 48.0879 181.585 48.1575 181.25 48.2945C180.915 48.4314 180.611 48.633 180.354 48.8876C180.097 49.1423 179.893 49.445 179.754 49.7785C179.614 50.112 179.542 50.4697 179.541 50.8311V50.9219C179.538 51.2901 179.607 51.6554 179.745 51.9968C179.883 52.3382 180.088 52.6491 180.346 52.9116C180.605 53.174 180.912 53.383 181.252 53.5265C181.591 53.6699 181.956 53.7451 182.324 53.7476H182.396C182.856 53.7406 183.308 53.6269 183.717 53.4155C184.126 53.204 184.48 52.9006 184.751 52.5292V49.2886V49.3081Z" fill="black"/>
<path d="M192.373 55.3938C191.631 55.4039 190.895 55.252 190.217 54.9487C189.539 54.6453 188.935 54.1978 188.448 53.6375L189.545 52.6329C189.914 53.0143 190.357 53.3175 190.846 53.5246C191.336 53.7317 191.862 53.8384 192.393 53.8384C193.418 53.8384 194.17 53.3653 194.17 52.5422C194.164 52.2577 194.045 51.9874 193.84 51.7904C193.431 51.5199 192.938 51.4049 192.451 51.4663H191.245V50.0016H192.471C192.828 50.0466 193.189 49.9689 193.496 49.7812C193.598 49.7072 193.681 49.6097 193.737 49.4968C193.794 49.384 193.822 49.2592 193.82 49.1331C193.82 48.3489 193.055 48.0054 192.25 48.0054C191.393 48.0397 190.57 48.3539 189.908 48.8998L188.993 47.7462C189.907 46.8894 191.12 46.4241 192.373 46.4499C193.982 46.4499 195.578 47.3054 195.578 48.9646C195.58 49.2723 195.52 49.5773 195.403 49.862C195.286 50.1467 195.114 50.4055 194.897 50.6238C195.211 50.8207 195.471 51.0928 195.653 51.4152C195.836 51.7377 195.935 52.1005 195.942 52.4709C195.942 54.318 194.385 55.4003 192.373 55.4003V55.3938Z" fill="black"/>
<path d="M201.956 46.6249C202.678 46.575 203.392 46.8074 203.947 47.2731C204.183 47.4701 204.376 47.7135 204.515 47.9883C204.653 48.263 204.733 48.5632 204.75 48.8701C204.767 49.177 204.72 49.4842 204.614 49.7725C204.507 50.0608 204.342 50.3241 204.129 50.546C204.537 50.7379 204.882 51.0425 205.122 51.4238C205.362 51.8051 205.488 52.2472 205.485 52.6977C205.488 53.0256 205.426 53.3508 205.302 53.6546C205.179 53.9583 204.996 54.2345 204.765 54.4671C204.477 54.7483 204.133 54.9645 203.754 55.101C203.376 55.2374 202.973 55.2909 202.572 55.2577H198.355V46.6249H201.956ZM201.54 50.1895C201.744 50.2193 201.952 50.2053 202.15 50.1483C202.348 50.0913 202.532 49.9926 202.689 49.859C202.889 49.6533 203.001 49.3778 203.001 49.091C203.001 48.8042 202.889 48.5286 202.689 48.323C202.488 48.1221 202.215 47.9989 201.54 47.9989H200.107V50.1895H201.54ZM200.107 53.8384H202.241C202.942 53.8384 203.247 53.7088 203.448 53.4819C203.648 53.2622 203.759 52.9756 203.759 52.6783C203.759 52.3867 203.648 52.1061 203.448 51.8941C203.247 51.6737 202.942 51.5376 202.241 51.5376H200.107V53.8384Z" fill="black"/>
<path d="M207.82 46.6249H209.559V52.3672L214.567 46.6249H215.754V55.2124H214.016V49.4701L208.988 55.2124H207.801V46.6249H207.82Z" fill="black"/>
<path d="M220.601 48.1804H217.727V46.6249H225.2V48.1804H222.326V55.2124H220.594V48.1804H220.601Z" fill="black"/>
<path d="M227.179 46.6249H228.918V52.3672L233.926 46.6249H235.113V55.2124H233.374V49.4701L228.373 55.2124H227.179V46.6249Z" fill="black"/>
<path d="M237.234 55.2124L239.829 51.8487C239.408 51.764 239.016 51.5695 238.694 51.2849C238.43 51.0551 238.214 50.7756 238.058 50.4623C237.902 50.149 237.809 49.8081 237.785 49.459C237.761 49.11 237.806 48.7596 237.917 48.4279C238.029 48.0961 238.204 47.7896 238.435 47.5258C238.516 47.4346 238.603 47.348 238.694 47.2666C239.287 46.791 240.038 46.5592 240.796 46.6185H245.006V55.2059H243.255V51.92H241.756L239.291 55.2059L237.234 55.2124ZM243.268 50.4553V48.0897H241.114C240.361 48.0897 240.03 48.2517 239.816 48.5239C239.652 48.7402 239.563 49.0043 239.563 49.2757C239.563 49.5472 239.652 49.8112 239.816 50.0275C240.037 50.2997 240.368 50.4618 241.114 50.4618L243.268 50.4553Z" fill="black"/>
<path d="M1.47922 32.3536H-0.0258789L3.54873 23.8763H4.58024L8.15484 32.3536H6.66921L4.07421 26.2031L1.47922 32.3536Z" fill="black"/>
<path d="M10.179 23.8828H15.1484V25.179H11.6516V27.1234H14.3764V28.452H11.6516V30.9991H15.2846V32.3277H10.179V23.8763V23.8828Z" fill="black"/>
<path d="M19.2613 25.2114H16.9583V23.9152H23.0176V25.2114H20.734V32.3406H19.2548V25.2114H19.2613Z" fill="black"/>
</g>
<defs>
<radialGradient id="paint0_radial_113_192" cx="0" cy="0" r="1" gradientTransform="matrix(-23.141 16.1449 16.2393 23.0064 70.3447 31.8947)" gradientUnits="userSpaceOnUse">
<stop stop-color="#37EE50"/>
<stop offset="1" stop-color="white"/>
</radialGradient>
<radialGradient id="paint1_radial_113_192" cx="0" cy="0" r="1" gradientTransform="matrix(24.7649 -14.1268 -14.2094 -24.6209 71.9688 31.895)" gradientUnits="userSpaceOnUse">
<stop stop-color="#A0EDFF"/>
<stop offset="1" stop-color="white"/>
</radialGradient>
<radialGradient id="paint2_radial_113_192" cx="0" cy="0" r="1" gradientTransform="matrix(-18.2973 -20.5636 -31.0258 27.2864 69.3637 31.7133)" gradientUnits="userSpaceOnUse">
<stop stop-color="#24D6FF"/>
<stop offset="1" stop-color="#91EAFF"/>
</radialGradient>
<radialGradient id="paint3_radial_113_192" cx="0" cy="0" r="1" gradientTransform="matrix(15.1151 26.8909 40.572 -22.5408 70.9546 31.7129)" gradientUnits="userSpaceOnUse">
<stop stop-color="#00D900"/>
<stop offset="1" stop-color="#9BF6A7"/>
</radialGradient>
<clipPath id="clip0_113_192">
<rect width="245" height="61" fill="white"/>
</clipPath>
</defs>
</svg>
