<svg width="32" height="32" viewBox="0 0 32 32" fill="none" xmlns="http://www.w3.org/2000/svg">
<circle cx="16" cy="16" r="16" fill="#0097D8"/>
<path d="M16.1924 12.957C15.3304 12.957 14.5038 13.2994 13.8943 13.9089C13.2848 14.5184 12.9424 15.3451 12.9424 16.207C12.9424 17.069 13.2848 17.8956 13.8943 18.5051C14.5038 19.1146 15.3304 19.457 16.1924 19.457C17.0543 19.457 17.881 19.1146 18.4905 18.5051C19.1 17.8956 19.4424 17.069 19.4424 16.207C19.4424 15.3451 19.1 14.5184 18.4905 13.9089C17.881 13.2994 17.0543 12.957 16.1924 12.957Z" fill="white"/>
<path fill-rule="evenodd" clip-rule="evenodd" d="M10.962 7.2888C14.438 6.90373 17.946 6.90373 21.422 7.2888C23.321 7.5008 24.852 8.9958 25.075 10.9018C25.487 14.4265 25.487 17.9871 25.075 21.5118C24.852 23.4178 23.321 24.9128 21.423 25.1258C17.9466 25.5109 14.4384 25.5109 10.962 25.1258C9.06301 24.9128 7.53201 23.4178 7.30901 21.5128C6.897 17.9878 6.897 14.4268 7.30901 10.9018C7.53201 8.9958 9.06301 7.5008 10.962 7.2888ZM21.192 10.2068C20.9268 10.2068 20.6724 10.3122 20.4849 10.4997C20.2974 10.6872 20.192 10.9416 20.192 11.2068C20.192 11.472 20.2974 11.7264 20.4849 11.9139C20.6724 12.1014 20.9268 12.2068 21.192 12.2068C21.4572 12.2068 21.7116 12.1014 21.8991 11.9139C22.0867 11.7264 22.192 11.472 22.192 11.2068C22.192 10.9416 22.0867 10.6872 21.8991 10.4997C21.7116 10.3122 21.4572 10.2068 21.192 10.2068ZM11.442 16.2068C11.442 14.947 11.9425 13.7388 12.8333 12.848C13.7241 11.9572 14.9322 11.4568 16.192 11.4568C17.4518 11.4568 18.66 11.9572 19.5508 12.848C20.4416 13.7388 20.942 14.947 20.942 16.2068C20.942 17.4666 20.4416 18.6748 19.5508 19.5656C18.66 20.4564 17.4518 20.9568 16.192 20.9568C14.9322 20.9568 13.7241 20.4564 12.8333 19.5656C11.9425 18.6748 11.442 17.4666 11.442 16.2068Z" fill="white"/>
</svg>
