<?xml version="1.0" standalone="no"?>
<!DOCTYPE svg PUBLIC "-//W3C//DTD SVG 20010904//EN"
 "http://www.w3.org/TR/2001/REC-SVG-20010904/DTD/svg10.dtd">
<svg version="1.0" xmlns="http://www.w3.org/2000/svg"
 width="1152.000000pt" height="1152.000000pt" viewBox="0 0 1152.000000 1152.000000"
 preserveAspectRatio="xMidYMid meet">
<metadata>
Created by potrace 1.14, written by Peter Selinger 2001-2017
</metadata>
<g transform="translate(0.000000,1152.000000) scale(0.100000,-0.100000)"
fill="#000000" stroke="none">
<path d="M5154 10904 c1 -339 -1 -619 -4 -624 -3 -4 -39 -10 -80 -14 -41 -4
-88 -9 -105 -12 -16 -2 -50 -6 -75 -8 -25 -3 -56 -7 -70 -10 -14 -2 -43 -7
-65 -10 -40 -6 -63 -10 -120 -21 -16 -4 -41 -8 -55 -10 -49 -6 -317 -74 -415
-105 -55 -18 -104 -33 -110 -34 -5 -2 -17 -6 -25 -9 -8 -3 -35 -12 -60 -21
-25 -8 -66 -24 -93 -35 -26 -11 -48 -20 -50 -20 -10 2 -175 -69 -307 -133
-104 -50 -298 -153 -375 -201 -175 -108 -386 -253 -393 -269 -2 -4 -10 -8 -17
-8 -7 0 -15 -3 -17 -7 -1 -5 -25 -26 -53 -48 -27 -22 -55 -44 -61 -50 -6 -5
-30 -26 -54 -45 -143 -116 -391 -365 -533 -535 -33 -39 -66 -79 -76 -90 -19
-23 -111 -147 -163 -220 -61 -86 -153 -228 -188 -290 -19 -33 -37 -61 -42 -63
-4 -2 -8 -8 -8 -12 0 -5 -23 -51 -51 -102 -28 -51 -51 -97 -52 -103 -1 -5 -4
-12 -8 -15 -5 -5 -42 -80 -44 -90 -1 -3 -16 -36 -34 -75 -35 -75 -113 -268
-120 -297 -1 -4 -9 -25 -18 -45 -24 -58 -106 -328 -119 -393 -3 -14 -8 -34
-11 -45 -4 -11 -8 -24 -9 -30 -1 -5 -14 -66 -28 -134 -15 -69 -25 -130 -22
-138 3 -7 1 -15 -3 -18 -5 -2 -12 -33 -16 -67 -4 -35 -9 -72 -11 -83 -6 -31
-23 -203 -30 -300 -7 -100 -11 -518 -5 -530 3 -5 6 -37 7 -70 4 -85 12 -170
30 -310 9 -71 12 -89 14 -95 1 -3 2 -8 1 -12 0 -5 20 -112 34 -178 3 -14 7
-36 10 -50 4 -23 61 -251 69 -275 1 -5 8 -30 15 -55 7 -25 15 -52 18 -60 3 -8
8 -21 10 -27 1 -7 5 -19 6 -25 2 -7 7 -20 10 -28 3 -8 15 -44 28 -80 12 -36
28 -80 36 -99 8 -18 16 -39 17 -45 1 -6 12 -33 24 -60 12 -27 22 -51 22 -54 0
-3 13 -34 30 -69 16 -34 30 -68 30 -73 0 -6 4 -10 8 -10 4 0 8 -10 9 -22 1
-11 6 -24 10 -27 5 -3 34 -58 67 -121 32 -63 73 -140 92 -170 18 -30 33 -61
34 -67 0 -7 4 -13 9 -13 5 0 13 -10 17 -22 3 -12 11 -26 16 -32 15 -18 148
-218 148 -223 0 -2 6 -10 13 -17 6 -8 19 -24 27 -36 8 -13 22 -31 30 -39 8 -9
27 -35 42 -56 16 -22 40 -54 55 -72 16 -17 42 -48 58 -68 167 -205 441 -473
658 -643 45 -35 91 -71 102 -80 11 -9 95 -66 186 -128 168 -113 330 -208 474
-279 44 -22 82 -43 83 -47 2 -5 9 -8 16 -8 7 0 32 -10 57 -21 108 -53 293
-127 409 -165 25 -9 52 -18 60 -21 19 -7 11 -5 155 -48 122 -36 273 -75 310
-81 11 -1 20 -3 20 -4 0 -1 9 -3 20 -4 11 -2 34 -6 50 -10 53 -12 79 -16 115
-21 19 -2 62 -9 95 -14 79 -13 138 -21 205 -26 89 -7 120 -12 128 -19 3 -4 6
-284 7 -624 l0 -616 45 -1 c25 0 45 2 46 5 0 3 6 15 13 27 6 13 8 23 4 23 -4
0 -8 2576 -7 5725 l1 5725 -52 0 -52 0 1 -616z m-3 -776 c1 -30 1 -7601 0
-7610 -1 -4 -20 -5 -43 -2 -24 3 -63 7 -88 9 -25 3 -56 6 -70 9 -14 2 -45 7
-70 10 -55 8 -85 14 -85 16 0 1 -18 4 -40 6 -44 6 -276 59 -315 73 -19 7 -212
68 -240 76 -3 1 -14 5 -25 10 -11 4 -49 19 -85 32 -186 70 -454 202 -608 300
-29 18 -57 33 -62 33 -6 0 -10 4 -10 9 0 5 -8 11 -17 15 -25 8 -57 29 -108 71
-16 14 -33 25 -36 25 -4 0 -31 19 -61 42 -31 24 -70 54 -89 68 -156 117 -426
380 -565 550 -16 19 -34 40 -39 46 -6 6 -37 47 -70 90 -33 43 -63 81 -67 82
-5 2 -8 9 -8 15 0 7 -14 28 -30 47 -17 19 -36 47 -43 62 -6 16 -14 28 -17 28
-3 0 -16 20 -30 45 -14 25 -28 45 -32 45 -5 0 -8 4 -8 9 0 5 -22 47 -48 93
-67 115 -162 306 -162 323 0 8 -4 15 -10 15 -5 0 -9 3 -8 8 1 4 -4 18 -9 32
-58 135 -155 404 -168 465 -1 5 -7 30 -14 55 -7 25 -15 52 -16 60 -2 8 -15 65
-28 125 -14 61 -30 144 -37 185 -7 41 -14 82 -15 90 -2 8 -6 47 -10 85 -4 39
-9 82 -11 97 -2 15 -6 73 -9 129 -3 56 -8 106 -11 111 -3 4 -1 8 5 8 6 0 7 11
2 28 -7 28 -7 88 3 287 6 128 9 162 26 289 18 132 21 147 41 247 11 52 21 104
23 115 2 10 9 39 16 64 7 25 13 50 14 55 1 6 5 16 10 23 4 7 5 16 2 19 -3 3 1
18 10 34 8 16 12 29 9 29 -3 0 4 22 14 49 10 28 16 52 13 55 -3 4 -1 6 4 6 5
0 10 10 12 23 5 63 205 518 286 652 32 51 51 86 81 143 10 17 21 32 26 32 5 0
9 5 9 12 0 6 11 26 25 44 14 18 25 37 25 43 0 6 5 11 10 11 6 0 10 4 10 10 0
9 168 237 200 271 8 8 35 40 60 70 24 30 110 119 190 199 178 178 281 268 408
357 25 18 48 36 51 40 15 21 297 199 416 263 85 46 233 120 240 120 2 0 33 14
68 30 36 17 67 30 70 30 2 0 21 7 41 15 20 8 37 14 39 13 2 -2 10 2 18 8 13
11 91 39 97 35 1 -1 15 5 30 12 15 8 79 28 142 46 63 18 122 35 130 38 8 3 24
7 35 9 21 4 34 7 75 17 14 4 36 9 50 11 14 2 59 11 100 19 41 9 98 19 125 22
28 4 61 9 75 11 14 2 54 6 90 10 36 4 67 8 69 10 11 10 21 2 22 -18z"/>
<path d="M5446 5773 c1 -3162 2 -5751 3 -5754 1 -6 63 -6 94 0 4 0 7 2589 7
5751 l0 5750 -52 0 -53 0 1 -5747z"/>
<path d="M5739 11508 c-5 -87 0 -11480 5 -11486 4 -4 25 -8 46 -9 28 -1 41 3
46 15 9 22 8 98 -2 113 -4 7 -3 10 2 6 5 -3 9 8 9 24 0 16 -3 29 -7 29 -4 0
-3 11 2 25 6 15 6 26 -1 30 -5 4 -6 11 -3 17 9 14 9 93 0 107 -4 6 -4 11 1 11
4 0 8 11 8 25 0 14 -3 25 -6 25 -4 0 -3 16 1 35 5 24 4 33 -3 28 -6 -4 -7 -1
-3 6 10 16 14 111 4 111 -3 0 -3 14 2 30 5 18 5 30 0 30 -6 0 -6 10 0 25 6 15
6 26 -1 30 -5 4 -6 11 -3 17 9 14 9 93 0 107 -4 6 -4 11 1 11 4 0 8 11 8 25 0
14 -3 25 -6 25 -4 0 -3 16 1 35 5 24 4 33 -3 28 -6 -4 -7 -1 -3 6 10 16 14
111 4 111 -3 0 -3 14 2 30 5 18 5 30 0 30 -6 0 -6 10 0 25 6 15 6 26 -1 30 -5
4 -6 11 -3 17 9 14 9 93 0 107 -4 6 -4 11 1 11 4 0 8 11 8 25 0 14 -3 25 -6
25 -4 0 -3 16 1 35 5 24 4 33 -3 28 -6 -4 -7 -1 -3 6 10 16 14 111 4 111 -3 0
-3 14 2 30 5 18 5 30 0 30 -6 0 -6 10 0 25 6 15 6 26 -1 30 -5 4 -6 11 -3 17
9 14 9 93 0 107 -4 6 -4 11 1 11 4 0 8 11 8 25 0 14 -3 25 -6 25 -4 0 -3 18 1
39 4 21 3 46 -2 55 -5 9 -5 16 -1 16 4 0 8 11 8 25 0 14 -3 25 -6 25 -4 0 -3
16 1 35 5 24 4 33 -3 28 -6 -4 -7 -1 -3 6 10 16 14 111 4 111 -3 0 -3 14 2 30
5 18 5 30 0 30 -6 0 -6 10 0 25 6 15 6 26 -1 30 -5 4 -6 11 -3 17 9 14 9 93 0
107 -4 6 -4 11 1 11 4 0 8 11 8 25 0 14 -3 25 -7 25 -4 0 -3 12 0 28 4 15 6
41 5 57 -4 37 -4 36 -2 115 0 36 0 70 -1 75 -1 6 -1 15 0 20 1 6 2 37 1 70 -1
33 -1 67 -1 75 0 8 0 44 1 80 0 36 0 70 -1 75 -1 6 -1 15 0 20 6 31 4 92 -4
88 -5 -4 -6 -1 -2 6 10 16 14 111 4 111 -3 0 -3 14 2 30 5 18 5 30 0 30 -6 0
-6 10 0 25 6 15 6 26 -1 30 -5 4 -6 11 -3 17 9 14 9 93 0 107 -4 6 -4 11 1 11
4 0 8 11 8 25 0 14 -3 25 -6 25 -4 0 -3 16 1 35 5 24 4 33 -3 28 -6 -4 -7 -1
-3 6 10 16 14 111 4 111 -3 0 -3 14 2 30 5 18 5 30 0 30 -6 0 -6 10 0 25 6 15
6 26 -1 30 -5 4 -6 11 -3 17 9 14 9 93 0 107 -4 6 -4 11 1 11 4 0 8 11 8 25 0
14 -3 25 -6 25 -4 0 -3 16 1 35 5 24 4 33 -3 28 -6 -4 -7 -1 -3 6 10 16 14
111 4 111 -3 0 -3 14 2 30 5 18 5 30 0 30 -6 0 -6 10 0 25 6 15 6 26 -1 30 -5
4 -6 11 -2 18 3 6 6 36 5 66 -3 75 -3 67 -1 141 0 36 0 70 -1 75 -1 6 -1 15 0
20 1 6 2 37 1 70 -1 33 -1 67 -1 75 0 8 0 44 1 80 0 36 0 70 -1 75 -1 6 -1 15
0 20 5 23 2 114 -4 124 -4 6 -4 11 1 11 4 0 8 11 8 25 0 14 -3 25 -6 25 -4 0
-3 16 1 35 5 24 4 33 -3 28 -6 -4 -7 -1 -3 6 10 16 14 111 4 111 -3 0 -3 14 2
30 5 18 5 30 0 30 -6 0 -6 10 0 25 6 15 6 26 -1 30 -5 4 -6 11 -3 17 9 14 9
93 0 107 -4 6 -4 11 1 11 4 0 8 11 8 25 0 14 -3 25 -6 25 -4 0 -3 18 1 39 4
21 3 46 -2 55 -5 9 -5 16 -1 16 4 0 8 11 8 25 0 14 -3 25 -6 25 -4 0 -3 16 1
35 5 24 4 33 -3 28 -6 -4 -7 -1 -3 6 10 16 14 111 4 111 -3 0 -3 14 2 30 5 18
5 30 0 30 -6 0 -6 10 0 25 6 15 6 26 -1 30 -5 4 -6 11 -3 17 9 14 9 93 0 107
-4 6 -4 11 1 11 4 0 8 11 8 25 0 14 -3 25 -6 25 -4 0 -3 18 1 39 4 21 3 46 -2
55 -5 9 -5 16 -1 16 4 0 8 11 8 25 0 14 -3 25 -6 25 -4 0 -3 16 1 35 5 24 4
33 -3 28 -6 -4 -7 -1 -3 6 10 16 14 111 4 111 -3 0 -3 14 2 30 5 18 5 30 0 30
-6 0 -6 10 0 25 6 15 6 26 -1 30 -5 4 -6 11 -3 17 9 14 9 93 0 107 -4 6 -4 11
1 11 4 0 8 11 8 25 0 14 -3 25 -6 25 -4 0 -3 18 1 39 4 21 3 46 -2 55 -5 9 -5
16 -1 16 4 0 8 11 8 25 0 14 -3 25 -6 25 -4 0 -3 16 1 35 5 24 4 33 -3 28 -6
-4 -7 -1 -3 6 10 16 14 111 4 111 -3 0 -3 14 2 30 5 18 5 30 0 30 -6 0 -6 10
0 25 6 15 6 26 -1 30 -5 4 -6 11 -3 17 9 14 9 93 0 107 -4 6 -4 11 1 11 4 0 8
11 8 25 0 14 -3 25 -7 25 -4 0 -3 12 0 28 4 15 6 41 5 57 -4 37 -4 36 -2 115
0 36 0 70 -1 75 -1 6 -1 15 0 20 1 6 2 37 1 70 -1 33 -1 67 -1 75 0 8 0 44 1
80 0 36 0 70 -1 75 -1 6 -1 15 0 20 6 31 4 92 -4 88 -5 -4 -6 -1 -2 6 10 16
14 111 4 111 -3 0 -3 14 2 30 5 18 5 30 0 30 -6 0 -6 10 0 25 6 15 6 26 -1 30
-5 4 -6 11 -3 17 9 14 9 93 0 107 -4 6 -4 11 1 11 4 0 8 11 8 25 0 14 -3 25
-6 25 -4 0 -3 16 1 35 5 24 4 33 -3 28 -6 -4 -7 -1 -3 6 10 16 14 111 4 111
-3 0 -3 14 2 30 5 18 5 30 0 30 -6 0 -6 10 0 25 6 15 6 26 -1 30 -5 4 -6 11
-3 17 9 14 9 93 0 107 -4 6 -4 11 1 11 4 0 8 11 8 25 0 14 -3 25 -6 25 -4 0
-3 16 1 35 5 24 4 33 -3 28 -6 -4 -7 -1 -3 6 10 16 14 111 4 111 -3 0 -3 14 2
30 5 18 5 30 0 30 -6 0 -6 10 0 25 6 15 6 26 -1 30 -5 4 -6 11 -2 18 3 6 6 36
5 66 -3 75 -3 67 -1 141 0 36 0 70 -1 75 -1 6 -1 15 0 20 1 6 2 37 1 70 -1 33
-1 67 -1 75 0 8 0 44 1 80 0 36 0 70 -1 75 -1 6 -1 15 0 20 5 23 2 114 -4 124
-4 6 -4 11 1 11 4 0 8 11 8 25 0 14 -3 25 -6 25 -4 0 -3 16 1 35 5 24 4 33 -3
28 -6 -4 -7 -1 -3 6 10 16 14 111 4 111 -3 0 -3 14 2 30 5 18 5 30 0 30 -6 0
-6 10 0 25 6 15 6 26 -1 30 -5 4 -6 11 -3 17 9 14 9 93 0 107 -4 6 -4 11 1 11
4 0 8 11 8 25 0 14 -3 25 -6 25 -4 0 -3 18 1 39 4 21 3 46 -2 55 -5 9 -5 16
-1 16 4 0 8 11 8 25 0 14 -3 25 -6 25 -4 0 -3 16 1 35 5 24 4 33 -3 28 -6 -4
-7 -1 -3 6 10 16 14 111 4 111 -3 0 -3 14 2 30 5 18 5 30 0 30 -6 0 -6 10 0
25 6 15 6 26 -1 30 -5 4 -6 11 -3 17 9 14 9 93 0 107 -4 6 -4 11 1 11 4 0 8
11 8 25 0 14 -3 25 -7 25 -3 0 -4 9 -1 20 5 18 0 20 -46 20 -34 0 -51 -4 -52
-12z"/>
<path d="M6030 5767 l0 -5753 50 0 50 0 1 40 c0 56 0 11427 0 11449 -1 14 -10
17 -51 17 l-50 0 0 -5753z"/>
<path d="M6323 5768 l0 -5754 51 1 51 1 1 622 c0 342 2 623 5 626 2 2 31 7 64
10 115 11 140 14 185 21 25 4 56 8 70 10 24 3 55 9 110 20 14 3 39 7 55 10 66
11 95 18 210 46 66 17 158 42 204 56 47 14 89 26 95 28 6 1 23 7 37 13 15 6
35 12 45 14 11 2 21 5 24 8 3 3 37 16 75 28 39 13 84 30 100 37 17 7 53 22 80
33 28 11 75 32 105 45 30 14 57 25 60 25 3 1 50 25 105 53 55 29 118 61 140
72 22 11 52 28 68 39 15 11 27 16 27 11 0 -4 4 -3 8 3 4 6 27 21 52 35 25 13
47 26 50 29 3 3 34 23 70 44 86 53 329 226 410 294 36 30 87 73 115 95 164
137 400 378 540 552 17 20 35 42 40 49 32 35 145 187 145 195 0 5 7 12 16 15
8 3 13 10 10 15 -4 5 -2 11 3 13 11 4 151 214 151 227 0 6 5 11 10 11 6 0 10
4 10 9 0 5 19 42 43 83 59 99 152 277 189 363 17 39 36 73 42 77 6 4 8 8 3 8
-4 0 0 17 9 38 33 76 73 177 76 192 2 8 6 17 10 20 4 3 9 15 11 25 2 11 7 28
11 37 4 9 9 22 10 30 2 7 6 21 10 30 4 9 8 22 10 30 1 7 5 18 8 24 4 6 9 22
12 37 2 15 7 31 11 37 3 5 8 18 10 27 2 10 16 63 30 118 23 84 63 261 80 355
3 14 8 39 11 55 7 34 8 46 19 130 5 33 9 72 9 88 1 15 3 27 6 27 3 0 6 17 7
38 0 20 4 73 8 117 9 104 9 606 -1 710 -4 44 -7 99 -8 122 -1 24 -4 43 -7 43
-4 0 -7 15 -7 33 0 17 -1 34 -2 37 -1 3 -3 16 -5 30 -1 14 -6 48 -9 75 -4 28
-9 58 -12 68 -3 10 -7 31 -9 48 -3 17 -7 38 -9 48 -3 9 -8 32 -11 51 -11 61
-56 241 -87 345 -16 55 -32 109 -35 120 -3 11 -7 27 -11 35 -3 8 -6 18 -7 23
-2 4 -4 9 -5 12 -1 3 -4 10 -5 15 -1 6 -3 11 -5 13 -1 1 -3 9 -5 17 -6 26 -95
253 -119 305 -45 96 -66 145 -65 151 0 4 -3 10 -8 13 -4 3 -33 55 -63 116 -54
108 -122 226 -203 355 -50 79 -232 335 -255 359 -10 9 -28 32 -42 51 -14 18
-29 38 -35 44 -5 6 -37 43 -70 81 -33 38 -85 96 -116 127 -31 32 -55 58 -53
58 2 0 -24 26 -58 58 -33 31 -80 75 -102 97 -23 22 -84 76 -136 120 -52 44
-96 83 -98 88 -2 4 -9 7 -15 7 -7 0 -18 9 -25 20 -7 11 -19 20 -26 20 -8 0
-16 4 -18 8 -1 5 -30 28 -63 53 -33 24 -61 47 -63 52 -2 4 -9 7 -16 7 -7 0
-21 8 -32 18 -23 22 -171 122 -179 122 -4 0 -26 14 -50 30 -24 17 -48 30 -54
30 -6 0 -11 5 -11 10 0 6 -5 10 -10 10 -6 0 -27 11 -48 24 -85 54 -462 236
-488 236 -8 0 -14 5 -14 10 0 6 -8 10 -18 10 -10 0 -37 9 -60 20 -22 11 -47
20 -55 20 -7 0 -17 3 -21 8 -4 4 -11 7 -14 8 -4 0 -14 4 -22 7 -49 21 -358
117 -428 132 -9 2 -32 8 -50 14 -18 5 -35 10 -37 10 -3 0 -18 2 -33 5 -15 3
-40 8 -57 11 -16 3 -41 7 -55 11 -23 5 -49 10 -146 28 -37 7 -97 16 -144 21
-19 2 -57 7 -85 10 -27 4 -67 7 -87 8 -33 1 -38 4 -39 27 -1 14 -2 295 -3 625
l-1 600 -51 3 -51 3 0 -5753z m207 3238 c25 -3 45 -5 45 -6 0 -1 18 -4 90 -14
22 -3 65 -10 95 -16 30 -6 69 -14 85 -16 54 -9 258 -64 355 -95 52 -17 100
-32 105 -34 14 -3 44 -15 82 -31 17 -8 35 -14 41 -14 8 0 44 -14 147 -59 191
-84 645 -337 645 -360 0 -3 13 -12 28 -19 16 -6 37 -20 48 -30 10 -9 41 -33
67 -52 27 -19 62 -47 77 -62 16 -15 36 -30 43 -35 53 -31 358 -325 463 -448
34 -38 85 -101 115 -140 30 -38 57 -71 61 -73 5 -2 8 -10 8 -17 0 -7 4 -15 9
-17 9 -3 145 -201 175 -254 9 -16 25 -42 35 -59 48 -79 181 -328 181 -340 0
-3 13 -34 29 -70 16 -36 48 -115 71 -177 23 -62 46 -122 50 -133 21 -50 38
-114 32 -119 -3 -3 0 -6 7 -6 8 0 11 -7 7 -15 -3 -8 -2 -15 3 -15 4 0 8 -6 9
-12 1 -19 12 -70 19 -93 4 -11 8 -24 9 -30 1 -5 9 -39 18 -75 16 -68 18 -79
35 -170 27 -144 46 -292 57 -445 8 -118 9 -307 1 -312 -4 -2 -4 -10 0 -16 7
-10 9 -30 4 -47 -1 -3 -4 -52 -6 -110 -2 -57 -6 -120 -9 -140 -3 -19 -8 -60
-11 -90 -4 -30 -8 -67 -11 -82 -12 -78 -15 -97 -24 -143 -5 -27 -11 -61 -14
-75 -2 -14 -11 -52 -19 -85 -9 -33 -19 -73 -22 -90 -3 -16 -7 -34 -9 -40 -1
-5 -8 -30 -15 -55 -7 -25 -14 -52 -17 -60 -3 -8 -5 -16 -5 -17 0 -2 -7 -22
-15 -45 -9 -24 -17 -47 -18 -53 -4 -19 -28 -90 -41 -120 -7 -16 -22 -55 -34
-85 -12 -30 -26 -64 -31 -75 -5 -11 -20 -45 -33 -75 -56 -126 -110 -229 -216
-414 -26 -46 -132 -209 -140 -216 -4 -3 -19 -24 -35 -48 -16 -23 -39 -53 -52
-67 -13 -14 -24 -29 -24 -33 0 -4 -10 -18 -22 -32 -12 -14 -35 -41 -51 -60
-132 -157 -298 -328 -427 -440 -41 -36 -77 -67 -80 -70 -41 -44 -366 -273
-475 -335 -27 -16 -52 -32 -55 -35 -13 -14 -343 -179 -390 -195 -3 -1 -16 -7
-30 -12 -14 -6 -43 -19 -65 -28 -39 -17 -215 -82 -245 -90 -8 -3 -60 -18 -115
-35 -55 -16 -111 -32 -125 -34 -14 -2 -25 -5 -25 -6 0 -2 -9 -4 -20 -6 -11 -2
-70 -14 -131 -28 -61 -13 -133 -27 -160 -30 -27 -4 -56 -9 -64 -11 -8 -2 -40
-7 -70 -10 -30 -2 -65 -7 -76 -9 -17 -3 -23 1 -26 17 -2 18 -2 7577 1 7599 1
4 13 5 29 3 15 -3 47 -7 72 -9z"/>
</g>
</svg>
